<svg width="67" height="42" viewBox="0 0 67 42" fill="none" xmlns="http://www.w3.org/2000/svg">
<mask id="path-1-inside-1_75_20" fill="white">
<path d="M19.5694 9.98593V12.5484H12.6944V33.0172H8.91319V12.5484H2.03819V9.98593H19.5694ZM21.5719 15.2984C22.7178 15.3609 23.7594 15.6422 24.6969 16.1422C25.6344 16.6213 26.4157 17.2672 27.0407 18.0797C27.6865 18.8713 28.1865 19.7984 28.5407 20.8609C28.8949 21.9234 29.0719 23.0588 29.0719 24.2672C29.0719 25.4755 28.8844 26.6109 28.5094 27.6734C28.1553 28.7151 27.6553 29.6318 27.0094 30.4234C26.3636 31.1943 25.5719 31.8193 24.6344 32.2984C23.6969 32.7776 22.6761 33.0588 21.5719 33.1422V30.1422C22.6136 29.913 23.4574 29.2568 24.1032 28.1734C24.7699 27.0901 25.1032 25.788 25.1032 24.2672C25.1032 23.4963 25.0199 22.7776 24.8532 22.1109C24.7074 21.4234 24.4782 20.8088 24.1657 20.2672C23.8532 19.7255 23.4782 19.2776 23.0407 18.9234C22.6032 18.5693 22.1136 18.3401 21.5719 18.2359V15.2984ZM12.8532 24.2047C12.8532 22.9963 13.0303 21.8713 13.3844 20.8297C13.7386 19.788 14.2386 18.8818 14.8844 18.1109C15.5511 17.3193 16.3428 16.6838 17.2594 16.2047C18.1761 15.7255 19.1865 15.4338 20.2907 15.3297V18.2359C19.249 18.4651 18.4157 19.1213 17.7907 20.2047C17.1657 21.288 16.8532 22.5901 16.8532 24.1109C16.8532 24.8818 16.9261 25.6109 17.0719 26.2984C17.2386 26.9859 17.4678 27.6005 17.7594 28.1422C18.0511 28.6838 18.4053 29.1318 18.8219 29.4859C19.2594 29.8401 19.749 30.0588 20.2907 30.1422V33.1422C19.1449 33.0588 18.1136 32.7776 17.1969 32.2984C16.2803 31.7984 15.499 31.1526 14.8532 30.3609C14.2074 29.5693 13.7074 28.6422 13.3532 27.5797C13.0199 26.5172 12.8532 25.3922 12.8532 24.2047ZM29.1707 9.98593H32.9207V33.0172H29.1707V9.98593ZM36.1082 9.98593C38.0457 9.98593 39.7436 10.2984 41.2019 10.9234C42.6811 11.5276 43.8999 12.3401 44.8582 13.3609C45.8374 14.3818 46.5665 15.5484 47.0457 16.8609C47.5249 18.1526 47.7644 19.4859 47.7644 20.8609C47.7644 22.7568 47.5561 24.3818 47.1394 25.7359C46.7436 27.0693 46.2332 28.1943 45.6082 29.1109C44.9832 30.0068 44.2749 30.7151 43.4832 31.2359C42.7124 31.7568 41.9624 32.1526 41.2332 32.4234C40.504 32.6734 39.8374 32.8401 39.2332 32.9234C38.629 32.9859 38.1811 33.0172 37.8894 33.0172H34.2019V30.2672H36.6394C39.1811 30.2672 41.0144 29.4547 42.1394 27.8297C43.2644 26.2047 43.8269 23.8505 43.8269 20.7672C43.8269 19.8088 43.7124 18.8609 43.4832 17.9234C43.254 16.9859 42.8061 16.1422 42.1394 15.3922C41.4936 14.6213 40.6082 14.0068 39.4832 13.5484C38.3582 13.0693 36.8999 12.8297 35.1082 12.8297H34.2019V9.98593H36.1082ZM56.4019 15.2984C57.5478 15.3609 58.5894 15.6422 59.5269 16.1422C60.4644 16.6213 61.2457 17.2672 61.8707 18.0797C62.5165 18.8713 63.0165 19.7984 63.3707 20.8609C63.7249 21.9234 63.9019 23.0588 63.9019 24.2672C63.9019 25.4755 63.7144 26.6109 63.3394 27.6734C62.9853 28.7151 62.4853 29.6318 61.8394 30.4234C61.1936 31.1943 60.4019 31.8193 59.4644 32.2984C58.5269 32.7776 57.5061 33.0588 56.4019 33.1422V30.1422C57.4436 29.913 58.2874 29.2568 58.9332 28.1734C59.5999 27.0901 59.9332 25.788 59.9332 24.2672C59.9332 23.4963 59.8499 22.7776 59.6832 22.1109C59.5374 21.4234 59.3082 20.8088 58.9957 20.2672C58.6832 19.7255 58.3082 19.2776 57.8707 18.9234C57.4332 18.5693 56.9436 18.3401 56.4019 18.2359V15.2984ZM47.6832 24.2047C47.6832 22.9963 47.8603 21.8713 48.2144 20.8297C48.5686 19.788 49.0686 18.8818 49.7144 18.1109C50.3811 17.3193 51.1728 16.6838 52.0894 16.2047C53.0061 15.7255 54.0165 15.4338 55.1207 15.3297V18.2359C54.079 18.4651 53.2457 19.1213 52.6207 20.2047C51.9957 21.288 51.6832 22.5901 51.6832 24.1109C51.6832 24.8818 51.7561 25.6109 51.9019 26.2984C52.0686 26.9859 52.2978 27.6005 52.5894 28.1422C52.8811 28.6838 53.2353 29.1318 53.6519 29.4859C54.0894 29.8401 54.579 30.0588 55.1207 30.1422V33.1422C53.9749 33.0588 52.9436 32.7776 52.0269 32.2984C51.1103 31.7984 50.329 31.1526 49.6832 30.3609C49.0374 29.5693 48.5374 28.6422 48.1832 27.5797C47.8499 26.5172 47.6832 25.3922 47.6832 24.2047Z"/>
</mask>
<path d="M19.5694 9.98593V12.5484H12.6944V33.0172H8.91319V12.5484H2.03819V9.98593H19.5694ZM21.5719 15.2984C22.7178 15.3609 23.7594 15.6422 24.6969 16.1422C25.6344 16.6213 26.4157 17.2672 27.0407 18.0797C27.6865 18.8713 28.1865 19.7984 28.5407 20.8609C28.8949 21.9234 29.0719 23.0588 29.0719 24.2672C29.0719 25.4755 28.8844 26.6109 28.5094 27.6734C28.1553 28.7151 27.6553 29.6318 27.0094 30.4234C26.3636 31.1943 25.5719 31.8193 24.6344 32.2984C23.6969 32.7776 22.6761 33.0588 21.5719 33.1422V30.1422C22.6136 29.913 23.4574 29.2568 24.1032 28.1734C24.7699 27.0901 25.1032 25.788 25.1032 24.2672C25.1032 23.4963 25.0199 22.7776 24.8532 22.1109C24.7074 21.4234 24.4782 20.8088 24.1657 20.2672C23.8532 19.7255 23.4782 19.2776 23.0407 18.9234C22.6032 18.5693 22.1136 18.3401 21.5719 18.2359V15.2984ZM12.8532 24.2047C12.8532 22.9963 13.0303 21.8713 13.3844 20.8297C13.7386 19.788 14.2386 18.8818 14.8844 18.1109C15.5511 17.3193 16.3428 16.6838 17.2594 16.2047C18.1761 15.7255 19.1865 15.4338 20.2907 15.3297V18.2359C19.249 18.4651 18.4157 19.1213 17.7907 20.2047C17.1657 21.288 16.8532 22.5901 16.8532 24.1109C16.8532 24.8818 16.9261 25.6109 17.0719 26.2984C17.2386 26.9859 17.4678 27.6005 17.7594 28.1422C18.0511 28.6838 18.4053 29.1318 18.8219 29.4859C19.2594 29.8401 19.749 30.0588 20.2907 30.1422V33.1422C19.1449 33.0588 18.1136 32.7776 17.1969 32.2984C16.2803 31.7984 15.499 31.1526 14.8532 30.3609C14.2074 29.5693 13.7074 28.6422 13.3532 27.5797C13.0199 26.5172 12.8532 25.3922 12.8532 24.2047ZM29.1707 9.98593H32.9207V33.0172H29.1707V9.98593ZM36.1082 9.98593C38.0457 9.98593 39.7436 10.2984 41.2019 10.9234C42.6811 11.5276 43.8999 12.3401 44.8582 13.3609C45.8374 14.3818 46.5665 15.5484 47.0457 16.8609C47.5249 18.1526 47.7644 19.4859 47.7644 20.8609C47.7644 22.7568 47.5561 24.3818 47.1394 25.7359C46.7436 27.0693 46.2332 28.1943 45.6082 29.1109C44.9832 30.0068 44.2749 30.7151 43.4832 31.2359C42.7124 31.7568 41.9624 32.1526 41.2332 32.4234C40.504 32.6734 39.8374 32.8401 39.2332 32.9234C38.629 32.9859 38.1811 33.0172 37.8894 33.0172H34.2019V30.2672H36.6394C39.1811 30.2672 41.0144 29.4547 42.1394 27.8297C43.2644 26.2047 43.8269 23.8505 43.8269 20.7672C43.8269 19.8088 43.7124 18.8609 43.4832 17.9234C43.254 16.9859 42.8061 16.1422 42.1394 15.3922C41.4936 14.6213 40.6082 14.0068 39.4832 13.5484C38.3582 13.0693 36.8999 12.8297 35.1082 12.8297H34.2019V9.98593H36.1082ZM56.4019 15.2984C57.5478 15.3609 58.5894 15.6422 59.5269 16.1422C60.4644 16.6213 61.2457 17.2672 61.8707 18.0797C62.5165 18.8713 63.0165 19.7984 63.3707 20.8609C63.7249 21.9234 63.9019 23.0588 63.9019 24.2672C63.9019 25.4755 63.7144 26.6109 63.3394 27.6734C62.9853 28.7151 62.4853 29.6318 61.8394 30.4234C61.1936 31.1943 60.4019 31.8193 59.4644 32.2984C58.5269 32.7776 57.5061 33.0588 56.4019 33.1422V30.1422C57.4436 29.913 58.2874 29.2568 58.9332 28.1734C59.5999 27.0901 59.9332 25.788 59.9332 24.2672C59.9332 23.4963 59.8499 22.7776 59.6832 22.1109C59.5374 21.4234 59.3082 20.8088 58.9957 20.2672C58.6832 19.7255 58.3082 19.2776 57.8707 18.9234C57.4332 18.5693 56.9436 18.3401 56.4019 18.2359V15.2984ZM47.6832 24.2047C47.6832 22.9963 47.8603 21.8713 48.2144 20.8297C48.5686 19.788 49.0686 18.8818 49.7144 18.1109C50.3811 17.3193 51.1728 16.6838 52.0894 16.2047C53.0061 15.7255 54.0165 15.4338 55.1207 15.3297V18.2359C54.079 18.4651 53.2457 19.1213 52.6207 20.2047C51.9957 21.288 51.6832 22.5901 51.6832 24.1109C51.6832 24.8818 51.7561 25.6109 51.9019 26.2984C52.0686 26.9859 52.2978 27.6005 52.5894 28.1422C52.8811 28.6838 53.2353 29.1318 53.6519 29.4859C54.0894 29.8401 54.579 30.0588 55.1207 30.1422V33.1422C53.9749 33.0588 52.9436 32.7776 52.0269 32.2984C51.1103 31.7984 50.329 31.1526 49.6832 30.3609C49.0374 29.5693 48.5374 28.6422 48.1832 27.5797C47.8499 26.5172 47.6832 25.3922 47.6832 24.2047Z" fill="#F5F5F5"/>
<path d="M19.5694 9.98593H19.7694V9.78593H19.5694V9.98593ZM19.5694 12.5484V12.7484H19.7694V12.5484H19.5694ZM12.6944 12.5484V12.3484H12.4944V12.5484H12.6944ZM12.6944 33.0172V33.2172H12.8944V33.0172H12.6944ZM8.91319 33.0172H8.71319V33.2172H8.91319V33.0172ZM8.91319 12.5484H9.11319V12.3484H8.91319V12.5484ZM2.03819 12.5484H1.83819V12.7484H2.03819V12.5484ZM2.03819 9.98593V9.78593H1.83819V9.98593H2.03819ZM19.3694 9.98593V12.5484H19.7694V9.98593H19.3694ZM19.5694 12.3484H12.6944V12.7484H19.5694V12.3484ZM12.4944 12.5484V33.0172H12.8944V12.5484H12.4944ZM12.6944 32.8172H8.91319V33.2172H12.6944V32.8172ZM9.11319 33.0172V12.5484H8.71319V33.0172H9.11319ZM8.91319 12.3484H2.03819V12.7484H8.91319V12.3484ZM2.23819 12.5484V9.98593H1.83819V12.5484H2.23819ZM2.03819 10.1859H19.5694V9.78593H2.03819V10.1859ZM21.5719 15.2984L21.5828 15.0987L21.3719 15.0872V15.2984H21.5719ZM24.6969 16.1422L24.6028 16.3187L24.6059 16.3203L24.6969 16.1422ZM27.0407 18.0797L26.8821 18.2017L26.8857 18.2061L27.0407 18.0797ZM28.5094 27.6734L28.3208 27.6069L28.3201 27.6091L28.5094 27.6734ZM27.0094 30.4234L27.1628 30.5519L27.1644 30.5499L27.0094 30.4234ZM21.5719 33.1422H21.3719V33.3578L21.587 33.3416L21.5719 33.1422ZM21.5719 30.1422L21.529 29.9469L21.3719 29.9814V30.1422H21.5719ZM24.1032 28.1734L23.9328 28.0686L23.9314 28.071L24.1032 28.1734ZM24.8532 22.1109L24.6574 22.1525L24.6592 22.1594L24.8532 22.1109ZM21.5719 18.2359H21.3719V18.4011L21.5342 18.4323L21.5719 18.2359ZM14.8844 18.1109L14.7315 17.9821L14.7311 17.9825L14.8844 18.1109ZM20.2907 15.3297H20.4907V15.1099L20.2719 15.1306L20.2907 15.3297ZM20.2907 18.2359L20.3337 18.4313L20.4907 18.3967V18.2359H20.2907ZM17.0719 26.2984L16.8762 26.3399L16.8776 26.3456L17.0719 26.2984ZM18.8219 29.4859L18.6924 29.6384L18.6961 29.6414L18.8219 29.4859ZM20.2907 30.1422H20.4907V29.9706L20.3211 29.9445L20.2907 30.1422ZM20.2907 33.1422L20.2762 33.3417L20.4907 33.3573V33.1422H20.2907ZM17.1969 32.2984L17.1012 32.474L17.1043 32.4757L17.1969 32.2984ZM13.3532 27.5797L13.1623 27.6396L13.1635 27.6429L13.3532 27.5797ZM21.561 15.4981C22.6801 15.5592 23.6931 15.8334 24.6028 16.3187L24.7911 15.9657C23.8258 15.4509 22.7554 15.1627 21.5828 15.0987L21.561 15.4981ZM24.6059 16.3203C25.5178 16.7863 26.2757 17.4133 26.8822 18.2016L27.1992 17.9577C26.5557 17.1211 25.7511 16.4564 24.788 15.9641L24.6059 16.3203ZM26.8857 18.2061C27.5148 18.9773 28.0037 19.8825 28.351 20.9242L28.7304 20.7977C28.3693 19.7144 27.8582 18.7654 27.1957 17.9533L26.8857 18.2061ZM28.351 20.9242C28.6978 21.9647 28.8719 23.0786 28.8719 24.2672H29.2719C29.2719 23.039 29.0919 21.8821 28.7304 20.7977L28.351 20.9242ZM28.8719 24.2672C28.8719 25.4545 28.6878 26.5672 28.3208 27.6069L28.698 27.74C29.0811 26.6546 29.2719 25.4965 29.2719 24.2672H28.8719ZM28.3201 27.6091C27.973 28.6299 27.4841 29.5252 26.8545 30.297L27.1644 30.5499C27.8264 29.7383 28.3376 28.8003 28.6988 27.7378L28.3201 27.6091ZM26.8561 30.295C26.2283 31.0443 25.4582 31.6528 24.5434 32.1203L24.7255 32.4765C25.6857 31.9857 26.4989 31.3442 27.1627 30.5519L26.8561 30.295ZM24.5434 32.1203C23.6308 32.5868 22.636 32.8613 21.5569 32.9427L21.587 33.3416C22.7163 33.2564 23.7631 32.9684 24.7255 32.4765L24.5434 32.1203ZM21.7719 33.1422V30.1422H21.3719V33.1422H21.7719ZM21.6149 30.3375C22.7203 30.0943 23.6065 29.3972 24.275 28.2758L23.9314 28.071C23.3082 29.1163 22.5069 29.7317 21.529 29.9469L21.6149 30.3375ZM24.2735 28.2783C24.9631 27.1577 25.3032 25.8177 25.3032 24.2672H24.9032C24.9032 25.7583 24.5766 27.0225 23.9329 28.0686L24.2735 28.2783ZM25.3032 24.2672C25.3032 23.4819 25.2183 22.7467 25.0472 22.0624L24.6592 22.1594C24.8214 22.8085 24.9032 23.5107 24.9032 24.2672H25.3032ZM25.0488 22.0694C24.8992 21.3639 24.6631 20.7292 24.3389 20.1672L23.9925 20.3671C24.2933 20.8885 24.5155 21.483 24.6575 22.1524L25.0488 22.0694ZM24.3389 20.1672C24.0155 19.6067 23.6251 19.1392 23.1665 18.768L22.9149 19.0789C23.3313 19.416 23.6909 19.8444 23.9925 20.3671L24.3389 20.1672ZM23.1665 18.768C22.704 18.3936 22.1843 18.15 21.6097 18.0395L21.5342 18.4323C22.0429 18.5302 22.5024 18.745 22.9149 19.0789L23.1665 18.768ZM21.7719 18.2359V15.2984H21.3719V18.2359H21.7719ZM13.0532 24.2047C13.0532 23.0161 13.2273 21.9131 13.5738 20.8941L13.1951 20.7653C12.8332 21.8296 12.6532 22.9766 12.6532 24.2047H13.0532ZM13.5738 20.8941C13.9208 19.8736 14.4092 18.9896 15.0377 18.2394L14.7311 17.9825C14.068 18.774 13.5565 19.7024 13.1951 20.7653L13.5738 20.8941ZM15.0374 18.2398C15.6873 17.468 16.4585 16.849 17.3521 16.3819L17.1668 16.0274C16.227 16.5187 15.4149 17.1705 14.7315 17.9821L15.0374 18.2398ZM17.3521 16.3819C18.2442 15.9156 19.2292 15.6307 20.3095 15.5288L20.2719 15.1306C19.1438 15.237 18.108 15.5354 17.1668 16.0274L17.3521 16.3819ZM20.0907 15.3297V18.2359H20.4907V15.3297H20.0907ZM20.2477 18.0406C19.1416 18.284 18.2652 18.9819 17.6175 20.1047L17.9639 20.3046C18.5661 19.2608 19.3565 18.6462 20.3337 18.4313L20.2477 18.0406ZM17.6175 20.1047C16.9715 21.2244 16.6532 22.5626 16.6532 24.1109H17.0532C17.0532 22.6176 17.3599 21.3516 17.9639 20.3046L17.6175 20.1047ZM16.6532 24.1109C16.6532 24.8944 16.7273 25.6375 16.8763 26.3399L17.2676 26.2569C17.1249 25.5843 17.0532 24.8691 17.0532 24.1109H16.6532ZM16.8776 26.3456C17.0477 27.0472 17.2825 27.6782 17.5833 28.237L17.9355 28.0474C17.6531 27.5228 17.4295 26.9246 17.2663 26.2513L16.8776 26.3456ZM17.5833 28.237C17.8854 28.7979 18.2546 29.2661 18.6924 29.6383L18.9515 29.3335C18.556 28.9974 18.2169 28.5698 17.9355 28.0474L17.5833 28.237ZM18.6961 29.6414C19.1603 30.0172 19.6826 30.251 20.2603 30.3399L20.3211 29.9445C19.8154 29.8667 19.3586 29.663 18.9478 29.3305L18.6961 29.6414ZM20.0907 30.1422V33.1422H20.4907V30.1422H20.0907ZM20.3052 32.9427C19.1836 32.8611 18.1795 32.5863 17.2896 32.1212L17.1043 32.4757C18.0478 32.9689 19.1061 33.2566 20.2762 33.3417L20.3052 32.9427ZM17.2927 32.1229C16.3983 31.635 15.6373 31.0057 15.0082 30.2345L14.6982 30.4874C15.3608 31.2995 16.1623 31.9619 17.1012 32.474L17.2927 32.1229ZM15.0082 30.2345C14.3791 29.4633 13.8902 28.5582 13.5429 27.5164L13.1635 27.6429C13.5245 28.7262 14.0357 29.6752 14.6982 30.4874L15.0082 30.2345ZM13.544 27.5198C13.2172 26.4779 13.0532 25.3732 13.0532 24.2047H12.6532C12.6532 25.4111 12.8226 26.5564 13.1624 27.6395L13.544 27.5198ZM29.1707 9.98593V9.78593H28.9707V9.98593H29.1707ZM32.9207 9.98593H33.1207V9.78593H32.9207V9.98593ZM32.9207 33.0172V33.2172H33.1207V33.0172H32.9207ZM29.1707 33.0172H28.9707V33.2172H29.1707V33.0172ZM41.2019 10.9234L41.1231 11.1073L41.1263 11.1086L41.2019 10.9234ZM44.8582 13.3609L44.7124 13.4978L44.7139 13.4994L44.8582 13.3609ZM47.0457 16.8609L46.8578 16.9295L46.8582 16.9305L47.0457 16.8609ZM47.1394 25.7359L46.9483 25.6771L46.9477 25.679L47.1394 25.7359ZM45.6082 29.1109L45.7722 29.2254L45.7734 29.2236L45.6082 29.1109ZM43.4832 31.2359L43.3733 31.0688L43.3712 31.0702L43.4832 31.2359ZM41.2332 32.4234L41.2981 32.6127L41.3028 32.6109L41.2332 32.4234ZM39.2332 32.9234L39.2538 33.1225L39.2605 33.1216L39.2332 32.9234ZM34.2019 33.0172H34.0019V33.2172H34.2019V33.0172ZM34.2019 30.2672V30.0672H34.0019V30.2672H34.2019ZM42.1394 15.3922L41.9861 15.5207L41.99 15.5251L42.1394 15.3922ZM39.4832 13.5484L39.4048 13.7325L39.4077 13.7336L39.4832 13.5484ZM34.2019 12.8297H34.0019V13.0297H34.2019V12.8297ZM34.2019 9.98593V9.78593H34.0019V9.98593H34.2019ZM29.1707 10.1859H32.9207V9.78593H29.1707V10.1859ZM32.7207 9.98593V33.0172H33.1207V9.98593H32.7207ZM32.9207 32.8172H29.1707V33.2172H32.9207V32.8172ZM29.3707 33.0172V9.98593H28.9707V33.0172H29.3707ZM36.1082 10.1859C38.0244 10.1859 39.6946 10.495 41.1232 11.1073L41.2807 10.7396C39.7926 10.1019 38.0669 9.78593 36.1082 9.78593V10.1859ZM41.1263 11.1086C42.5826 11.7034 43.7763 12.5007 44.7124 13.4978L45.004 13.224C44.0234 12.1795 42.7796 11.3518 41.2776 10.7383L41.1263 11.1086ZM44.7139 13.4994C45.6741 14.5004 46.3883 15.6434 46.8578 16.9295L47.2336 16.7923C46.7448 15.4535 46.0006 14.2631 45.0025 13.2225L44.7139 13.4994ZM46.8582 16.9305C47.3291 18.1999 47.5644 19.5097 47.5644 20.8609H47.9644C47.9644 19.4621 47.7206 18.1053 47.2332 16.7914L46.8582 16.9305ZM47.5644 20.8609C47.5644 22.7431 47.3575 24.3472 46.9483 25.6771L47.3306 25.7947C47.7547 24.4163 47.9644 22.7704 47.9644 20.8609H47.5644ZM46.9477 25.679C46.5563 26.9973 46.0538 28.1024 45.4429 28.9983L45.7734 29.2236C46.4126 28.2861 46.9309 27.1412 47.3312 25.7929L46.9477 25.679ZM45.4442 28.9965C44.8315 29.8746 44.1407 30.5639 43.3733 31.0688L43.5931 31.403C44.409 30.8663 45.1349 30.1389 45.7722 29.2254L45.4442 28.9965ZM43.3712 31.0702C42.6111 31.5838 41.8752 31.9716 41.1636 32.2359L41.3028 32.6109C42.0495 32.3336 42.8136 31.9297 43.5952 31.4016L43.3712 31.0702ZM41.1683 32.2342C40.4483 32.4811 39.7944 32.6441 39.2059 32.7253L39.2605 33.1216C39.8803 33.0361 40.5597 32.8658 41.2981 32.6126L41.1683 32.2342ZM39.2126 32.7245C38.6096 32.7869 38.1702 32.8172 37.8894 32.8172V33.2172C38.192 33.2172 38.6484 33.185 39.2538 33.1224L39.2126 32.7245ZM37.8894 32.8172H34.2019V33.2172H37.8894V32.8172ZM34.4019 33.0172V30.2672H34.0019V33.0172H34.4019ZM34.2019 30.4672H36.6394V30.0672H34.2019V30.4672ZM36.6394 30.4672C39.2258 30.4672 41.131 29.6377 42.3039 27.9435L41.975 27.7158C40.8979 29.2717 39.1364 30.0672 36.6394 30.0672V30.4672ZM42.3039 27.9435C43.4617 26.2711 44.0269 23.8701 44.0269 20.7672H43.6269C43.6269 23.831 43.0672 26.1382 41.975 27.7158L42.3039 27.9435ZM44.0269 20.7672C44.0269 19.7927 43.9104 18.8289 43.6775 17.8759L43.2889 17.9709C43.5143 18.893 43.6269 19.825 43.6269 20.7672H44.0269ZM43.6775 17.8759C43.4402 16.9055 42.9764 16.0327 42.2889 15.2593L41.99 15.5251C42.6358 16.2517 43.0678 17.0664 43.2889 17.9709L43.6775 17.8759ZM42.2927 15.2637C41.622 14.4632 40.7076 13.8313 39.5587 13.3632L39.4077 13.7336C40.5088 14.1822 41.3652 14.7795 41.9861 15.5206L42.2927 15.2637ZM39.5616 13.3644C38.4031 12.871 36.9153 12.6297 35.1082 12.6297V13.0297C36.8844 13.0297 38.3133 13.2675 39.4048 13.7324L39.5616 13.3644ZM35.1082 12.6297H34.2019V13.0297H35.1082V12.6297ZM34.4019 12.8297V9.98593H34.0019V12.8297H34.4019ZM34.2019 10.1859H36.1082V9.78593H34.2019V10.1859ZM56.4019 15.2984L56.4128 15.0987L56.2019 15.0872V15.2984H56.4019ZM59.5269 16.1422L59.4328 16.3187L59.4359 16.3203L59.5269 16.1422ZM61.8707 18.0797L61.7121 18.2017L61.7157 18.2061L61.8707 18.0797ZM63.3394 27.6734L63.1508 27.6069L63.1501 27.6091L63.3394 27.6734ZM61.8394 30.4234L61.9928 30.5519L61.9944 30.5499L61.8394 30.4234ZM56.4019 33.1422H56.2019V33.3578L56.417 33.3416L56.4019 33.1422ZM56.4019 30.1422L56.359 29.9469L56.2019 29.9814V30.1422H56.4019ZM58.9332 28.1734L58.7628 28.0686L58.7614 28.071L58.9332 28.1734ZM59.6832 22.1109L59.4874 22.1525L59.4892 22.1594L59.6832 22.1109ZM56.4019 18.2359H56.2019V18.4011L56.3642 18.4323L56.4019 18.2359ZM49.7144 18.1109L49.5615 17.9821L49.5611 17.9825L49.7144 18.1109ZM55.1207 15.3297H55.3207V15.1099L55.1019 15.1306L55.1207 15.3297ZM55.1207 18.2359L55.1637 18.4313L55.3207 18.3967V18.2359H55.1207ZM51.9019 26.2984L51.7062 26.3399L51.7076 26.3456L51.9019 26.2984ZM53.6519 29.4859L53.5224 29.6384L53.5261 29.6414L53.6519 29.4859ZM55.1207 30.1422H55.3207V29.9706L55.1511 29.9445L55.1207 30.1422ZM55.1207 33.1422L55.1062 33.3417L55.3207 33.3573V33.1422H55.1207ZM52.0269 32.2984L51.9312 32.474L51.9343 32.4757L52.0269 32.2984ZM48.1832 27.5797L47.9923 27.6396L47.9935 27.6429L48.1832 27.5797ZM56.3911 15.4981C57.5101 15.5592 58.5231 15.8334 59.4328 16.3187L59.6211 15.9657C58.6558 15.4509 57.5854 15.1627 56.4128 15.0987L56.3911 15.4981ZM59.4359 16.3203C60.3478 16.7863 61.1057 17.4133 61.7122 18.2016L62.0292 17.9577C61.3857 17.1211 60.5811 16.4564 59.618 15.9641L59.4359 16.3203ZM61.7157 18.2061C62.3448 18.9773 62.8337 19.8825 63.181 20.9242L63.5604 20.7977C63.1993 19.7144 62.6882 18.7654 62.0257 17.9533L61.7157 18.2061ZM63.181 20.9242C63.5278 21.9647 63.7019 23.0786 63.7019 24.2672H64.1019C64.1019 23.039 63.9219 21.8821 63.5604 20.7977L63.181 20.9242ZM63.7019 24.2672C63.7019 25.4545 63.5178 26.5672 63.1508 27.6069L63.528 27.74C63.9111 26.6546 64.1019 25.4965 64.1019 24.2672H63.7019ZM63.1501 27.6091C62.803 28.6299 62.3141 29.5252 61.6845 30.297L61.9944 30.5499C62.6564 29.7383 63.1676 28.8003 63.5288 27.7378L63.1501 27.6091ZM61.6861 30.295C61.0583 31.0443 60.2882 31.6528 59.3734 32.1203L59.5555 32.4765C60.5157 31.9857 61.3289 31.3442 61.9927 30.5519L61.6861 30.295ZM59.3734 32.1203C58.4608 32.5868 57.466 32.8613 56.3869 32.9427L56.417 33.3416C57.5463 33.2564 58.5931 32.9684 59.5555 32.4765L59.3734 32.1203ZM56.6019 33.1422V30.1422H56.2019V33.1422H56.6019ZM56.4449 30.3375C57.5503 30.0943 58.4365 29.3972 59.105 28.2758L58.7614 28.071C58.1382 29.1163 57.3369 29.7317 56.359 29.9469L56.4449 30.3375ZM59.1035 28.2783C59.7931 27.1577 60.1332 25.8177 60.1332 24.2672H59.7332C59.7332 25.7583 59.4066 27.0225 58.7629 28.0686L59.1035 28.2783ZM60.1332 24.2672C60.1332 23.4819 60.0483 22.7467 59.8772 22.0624L59.4892 22.1594C59.6514 22.8085 59.7332 23.5107 59.7332 24.2672H60.1332ZM59.8788 22.0694C59.7292 21.3639 59.4931 20.7292 59.1689 20.1672L58.8225 20.3671C59.1233 20.8885 59.3455 21.483 59.4875 22.1524L59.8788 22.0694ZM59.1689 20.1672C58.8455 19.6067 58.4551 19.1392 57.9965 18.768L57.7449 19.0789C58.1613 19.416 58.5209 19.8444 58.8225 20.3671L59.1689 20.1672ZM57.9965 18.768C57.534 18.3936 57.0143 18.15 56.4397 18.0395L56.3642 18.4323C56.8729 18.5302 57.3324 18.745 57.7449 19.0789L57.9965 18.768ZM56.6019 18.2359V15.2984H56.2019V18.2359H56.6019ZM47.8832 24.2047C47.8832 23.0161 48.0573 21.9131 48.4038 20.8941L48.0251 20.7653C47.6632 21.8296 47.4832 22.9766 47.4832 24.2047H47.8832ZM48.4038 20.8941C48.7508 19.8736 49.2392 18.9896 49.8677 18.2394L49.5611 17.9825C48.898 18.774 48.3865 19.7024 48.0251 20.7653L48.4038 20.8941ZM49.8674 18.2398C50.5173 17.468 51.2885 16.849 52.1821 16.3819L51.9968 16.0274C51.057 16.5187 50.2449 17.1705 49.5615 17.9821L49.8674 18.2398ZM52.1821 16.3819C53.0742 15.9156 54.0592 15.6307 55.1395 15.5288L55.1019 15.1306C53.9738 15.237 52.9381 15.5354 51.9968 16.0274L52.1821 16.3819ZM54.9207 15.3297V18.2359H55.3207V15.3297H54.9207ZM55.0777 18.0406C53.9716 18.284 53.0952 18.9819 52.4475 20.1047L52.7939 20.3046C53.3961 19.2608 54.1865 18.6462 55.1637 18.4313L55.0777 18.0406ZM52.4475 20.1047C51.8015 21.2244 51.4832 22.5626 51.4832 24.1109H51.8832C51.8832 22.6176 52.1899 21.3516 52.7939 20.3046L52.4475 20.1047ZM51.4832 24.1109C51.4832 24.8944 51.5573 25.6375 51.7063 26.3399L52.0976 26.2569C51.9549 25.5843 51.8832 24.8691 51.8832 24.1109H51.4832ZM51.7076 26.3456C51.8777 27.0472 52.1125 27.6782 52.4133 28.237L52.7655 28.0474C52.4831 27.5228 52.2595 26.9246 52.0963 26.2513L51.7076 26.3456ZM52.4133 28.237C52.7154 28.7979 53.0846 29.2661 53.5224 29.6383L53.7815 29.3335C53.386 28.9974 53.0469 28.5698 52.7655 28.0474L52.4133 28.237ZM53.5261 29.6414C53.9903 30.0172 54.5127 30.251 55.0903 30.3399L55.1511 29.9445C54.6454 29.8667 54.1886 29.663 53.7778 29.3305L53.5261 29.6414ZM54.9207 30.1422V33.1422H55.3207V30.1422H54.9207ZM55.1352 32.9427C54.0136 32.8611 53.0095 32.5863 52.1196 32.1212L51.9343 32.4757C52.8778 32.9689 53.9361 33.2566 55.1062 33.3417L55.1352 32.9427ZM52.1227 32.1229C51.2283 31.635 50.4673 31.0057 49.8382 30.2345L49.5282 30.4874C50.1908 31.2995 50.9923 31.9619 51.9312 32.474L52.1227 32.1229ZM49.8382 30.2345C49.2091 29.4633 48.7202 28.5582 48.3729 27.5164L47.9935 27.6429C48.3545 28.7262 48.8657 29.6752 49.5282 30.4874L49.8382 30.2345ZM48.374 27.5198C48.0472 26.4779 47.8832 25.3732 47.8832 24.2047H47.4832C47.4832 25.4111 47.6526 26.5564 47.9924 27.6395L48.374 27.5198Z" fill="#CC00FF" mask="url(#path-1-inside-1_75_20)"/>
<path d="M21.7529 15.4594C22.8427 15.5321 23.834 15.8071 24.728 16.2833L24.728 16.2833L24.7296 16.2841C25.6534 16.7556 26.4222 17.3906 27.0374 18.1892L27.0373 18.1892L27.0391 18.1914C27.676 18.971 28.17 19.8851 28.5203 20.9348C28.8705 21.9839 29.046 23.106 29.046 24.3017C29.046 25.4968 28.8603 26.6183 28.4897 27.6669L28.4893 27.668C28.1391 28.6967 27.6453 29.6004 27.0084 30.3803C26.3722 31.1384 25.5922 31.7536 24.6671 32.2258C23.7734 32.682 22.8023 32.9563 21.7529 33.0482V30.243C22.789 29.9921 23.6269 29.3236 24.2673 28.251C24.9446 27.1516 25.2809 25.8337 25.2809 24.3017C25.2809 23.5261 25.197 22.8013 25.0286 22.1278C24.8809 21.4335 24.6486 20.8108 24.3308 20.2607C24.0132 19.7108 23.6308 19.2541 23.1832 18.8922C22.7555 18.5465 22.2784 18.3162 21.7529 18.2024V15.4594Z" fill="#CC00FF" stroke="#CC00FF" stroke-width="0.2"/>
<path d="M56.5495 15.4594C57.6393 15.5321 58.6306 15.8071 59.5246 16.2833L59.5246 16.2833L59.5261 16.2841C60.45 16.7556 61.2188 17.3906 61.834 18.1892L61.8339 18.1892L61.8357 18.1914C62.4726 18.971 62.9666 19.8851 63.3169 20.9348C63.6671 21.9839 63.8425 23.106 63.8425 24.3017C63.8425 25.4968 63.6569 26.6183 63.2863 27.6669L63.2859 27.668C62.9357 28.6967 62.4419 29.6004 61.8049 30.3803C61.1688 31.1384 60.3888 31.7536 59.4637 32.2258C58.5699 32.682 57.5988 32.9563 56.5495 33.0482V30.243C57.5856 29.9921 58.4234 29.3236 59.0639 28.251C59.7412 27.1516 60.0775 25.8337 60.0775 24.3017C60.0775 23.5261 59.9936 22.8013 59.8251 22.1278C59.6775 21.4335 59.4452 20.8108 59.1274 20.2607C58.8098 19.7108 58.4274 19.2541 57.9798 18.8922C57.5521 18.5465 57.075 18.3162 56.5495 18.2024V15.4594Z" fill="#CC00FF" stroke="#CC00FF" stroke-width="0.2"/>
</svg>
