<svg width="2404" height="207" viewBox="0 0 2404 207" fill="none" xmlns="http://www.w3.org/2000/svg">
<path d="M51.5303 0.050849C80.6696 -0.0794148 118.867 0.0598686 147.896 0.251044C156.994 0.310336 152.387 0.575377 158.667 0.62824C170.95 0.731291 182.393 0.601305 194.531 0.724065C198.554 0.766045 193.547 1.18587 197.765 1.22028C220.879 1.40582 242.746 1.29888 266.161 1.38813C381.496 1.82843 494.867 1.98602 611.613 2.17731C650.107 2.24002 696.901 2.62103 736.662 2.45441C741.303 2.43458 738.536 2.06608 739.419 2.03571C753.27 1.57075 748.665 2.31467 757.708 2.41351C793.602 2.80377 833.516 2.83771 868.059 2.69549C882.755 2.63391 868.02 1.90198 882.817 2.3128C883.845 2.34056 880.116 2.73188 884.146 2.77362C893.286 2.86749 910.626 2.79755 917.709 2.82855C931.361 2.89028 933.62 2.88635 946.532 2.89081C964.184 2.90031 985.178 3.09483 1004.12 3.00616C1008.16 2.98607 1002.81 2.58493 1009.25 2.51666C1015.71 2.44851 1032.78 2.48252 1038.53 2.57709C1044.29 2.6717 1041.84 2.98699 1042.86 3.05926C1051.24 3.66925 1070.99 2.82442 1073.52 2.80353C1119.85 2.44753 1159.57 2.9288 1203.06 2.92743C1236.07 2.92536 1271.36 2.76648 1302.77 2.78827C1340.2 2.81578 1371.91 3.03315 1408.27 2.99579C1412.1 2.9923 1407.61 2.52065 1412.29 2.51544C1462.08 2.46056 1511.51 2.51197 1561.09 2.83038C1566.06 2.86273 1559.65 3.27684 1564.62 3.33392C1595.02 3.67424 1643.14 4.49179 1661.2 2.68878C1681.8 2.75918 1706.8 2.83193 1725.23 3.19537C1737.11 3.42929 1725.57 3.88042 1740.17 3.68792C1743.46 3.64503 1739.18 3.24995 1744.12 3.21551C1764.9 3.07088 1787.61 3.1993 1808.17 2.99518C1812.35 2.95273 1811.21 2.59872 1812.39 2.53497C1822.35 2.01871 1838.93 2.87213 1842.54 2.93414C1870.07 3.39658 1890.16 3.2146 1915.8 3.22589C1921.75 3.22871 1914.72 2.7532 1920.44 2.73883C1950.13 2.67068 1980.89 2.71155 2009.96 2.92254C2016.43 2.97062 2010.48 3.37567 2013.57 3.41937C2027.2 3.60712 2030.22 2.84209 2043.29 3.00738C2046.05 3.04125 2044.49 3.388 2045 3.42608C2052.86 4.02389 2059.69 3.17684 2061.72 3.15814C2087.31 2.90261 2103.67 3.78689 2128.39 3.66168C2131.35 3.6458 2124.68 3.20706 2132.99 3.18927C2188.38 3.06815 2246.95 3.18867 2301.78 3.53961C2310.3 3.59358 2304.22 3.92317 2304.75 3.9638C2313.5 4.59864 2319.15 3.74803 2321.93 3.716C2343.86 3.48541 2364.34 4.19874 2379.24 3.1856C2386.83 3.21434 2394.42 3.23693 2402 3.25467L2403.74 3.25132L2403.75 5C2403.59 71.8738 2403.81 138.53 2403.51 205L2403.51 206.505L2402 206.508C2383.78 206.425 2365.56 206.303 2347.37 206.124C2346.2 206.114 2348.29 205.695 2345.96 205.675C2317.83 205.44 2323.23 206.091 2304.62 206.888C2299.93 207.088 2285.67 206.126 2284.41 206.056C2279.81 205.796 2284.58 205.173 2283.04 205.123C2270.3 204.728 2272.37 206.789 2255.19 206.789C2254.65 206.786 2256.91 206.407 2255.46 206.369C2250.98 206.25 2246.54 206.401 2242.15 206.271C2232.12 205.968 2228.54 204.967 2213.21 205.55C2211.27 205.625 2214.24 206.795 2198.89 206.739C2192.77 206.716 2165.7 206.736 2158.11 206.661C2150.53 206.585 2155.73 206.208 2155.19 206.192C2134.77 205.694 2142.51 205.487 2132.28 204.75C2122.05 204.015 2124.89 205.767 2120.71 205.963C2116.54 206.158 2101.56 205.747 2097.88 205.604C2094.21 205.461 2098.79 205.222 2095.52 205.141C2073.84 204.612 2086 206.011 2078.86 206.289C2062.02 206.948 2048.9 205.648 2033.47 205.52C2029.3 205.486 2032.71 205.782 2028.99 205.81C2014.28 205.915 2005.43 205.51 1988.68 205.882C1985.94 205.942 1972.41 206.724 1963.65 206.15C1962.41 206.068 1965.93 205.744 1959.66 205.671C1950.29 205.562 1933.41 205.492 1923.34 205.6C1915.91 205.68 1924.43 206.214 1915.07 206.048C1910.91 205.974 1918.62 205.662 1910.81 205.549C1903.03 205.436 1883.16 205.449 1875.6 205.46C1868.05 205.471 1872.18 205.876 1871.57 205.903C1867.88 206.059 1853.39 206.255 1852.11 206.254C1787.53 206.304 1727.98 205.621 1665.11 205.847C1660.18 205.864 1663.46 206.291 1662.71 206.298C1645.82 206.477 1659.14 205.342 1647.34 204.962C1649.04 205.828 1642.08 205.671 1630.18 205.766C1624.45 205.813 1627.57 206.148 1627.04 206.183C1618.54 206.692 1612.62 206.034 1611.1 205.899C1605.47 205.404 1599.34 205.989 1595.5 205.658C1591.68 205.33 1600.49 204.843 1589.08 204.849C1585.88 205.159 1594.35 205.97 1585.69 206.101C1553 206.598 1491.98 205.962 1465.69 205.896C1439.46 205.83 1430.99 205.887 1415.71 205.775C1388.1 205.572 1398.22 206.174 1381.07 206.449C1363.88 206.724 1372.24 205.245 1369.77 204.927C1367.34 204.609 1364.69 204.936 1361.67 204.761C1358.66 204.586 1365.18 204.37 1358.1 204.305C1351.02 204.239 1331.67 204.805 1329.16 205.137C1323.86 205.842 1332.58 206.581 1313.85 206.321C1312.77 206.306 1316.27 205.917 1312.14 205.878C1279.38 205.578 1245.34 205.559 1212.62 205.295C1208.12 205.258 1212.15 204.825 1209.53 204.798C1182.25 204.522 1192 205.251 1177.05 206.062C1180.41 204.983 1172.14 204.323 1151.45 204.317C1139 204.313 1141.14 204.784 1133.1 205.116C1130.68 205.216 1121.88 204.892 1120.28 205.114C1115.02 205.838 1123.31 206.649 1101.97 206.326C1101.04 206.311 1104.02 205.914 1100.78 205.89C1079.87 205.733 1077.37 206.491 1054.76 206.582C1037.04 206.654 1005.53 206.193 985.355 206.117C985.779 204.905 966.723 205.182 958.992 206.018C945.899 205.984 931.757 206.032 919.101 205.916C914.746 205.877 917.607 205.525 917.058 205.487C908.636 204.892 902.944 205.706 900.118 205.738C869.486 206.048 844.53 205.431 815.297 206.034C814.26 206.055 812.578 206.898 804.764 206.283C804.258 206.24 813.913 205.857 800.162 205.827C786.408 205.798 760.481 205.346 741.386 205.737C736.766 205.83 725.078 206.514 715.698 205.98C714.448 205.907 715.816 205.666 714.012 205.531C708.18 205.103 704.997 205.955 698.143 205.231C691.289 204.508 677.032 203.966 657.775 204.465C657.162 204.48 652.604 205.155 646.548 205.144C636.881 205.126 623.158 204.986 613.064 204.99C608.231 204.992 611.324 205.411 610.485 205.419C577.99 205.654 554.863 205.28 520.051 205.118C513.67 205.088 495.331 205.659 482.977 205.207C469.411 204.713 483.351 202.655 452.171 203.146C439.594 203.342 423.672 205.952 401.072 204.599C357.24 204.935 316.704 204.242 272.75 204.721C270.773 204.742 264.523 205.471 259.876 205.461C252.978 205.445 249.19 205.104 244.265 205.082C223.624 204.979 204.736 205.27 184.835 205.225C177.279 205.209 179.921 204.857 170.909 204.837C161.904 204.818 155.898 205.281 143.694 205.057C134.476 204.887 125.261 203.939 113.027 203.829C112.56 204.763 104.157 204.744 89.2227 204.991C86.3522 205.039 89.4304 205.364 88.0723 205.403C82.5453 205.571 77.431 205.301 72.183 205.484C70.9066 205.528 70.8466 205.847 69.8027 205.901C60.9285 206.371 46.3086 205.653 43.7971 205.528C34.1736 205.053 29.6761 205.468 22.2944 205.281C14.9246 205.094 25.9443 204.861 17.3355 204.747C12.5281 204.684 7.35191 204.641 2 204.613L2.38707 205C2.46452 190.486 2.4399 174.681 2.45061 161.441C2.45449 154.21 2.02843 159.143 2.0191 158.108C1.91103 143.156 2.36424 128.035 1.51556 119.745C3.70994 109.378 1.30271 110.728 1.742 89.3552C1.77753 87.6716 2.81523 85.5299 2.96758 91.9934C3.11978 98.4567 2.79541 108.258 3.03289 117.225C3.08862 119.349 4.06101 131.514 4.11992 133.174C4.58027 146.176 3.02956 148.018 2.94439 148.706C2.02523 156.506 3.0728 171.372 3.14519 175.287C3.34317 185.977 3.34527 195.707 3.36515 205L2 203.635C8.27549 203.621 14.3526 203.6 20.3901 203.504C30.1873 203.351 31.1453 202.336 38.8381 202.367C64.4106 202.47 73.3375 203.887 97.435 202.658C102.602 202.396 97.4671 201.286 115.982 202.159C117.145 202.214 130.892 203.012 138.834 202.507C139.832 202.443 139.799 202.12 141.115 202.093C149.931 201.917 155.811 202.175 165.415 202.051C175.017 201.928 186.566 201.744 197.53 201.853C204.137 201.919 212.616 202.522 215.779 202.67C224.711 203.095 234.288 202.398 239.821 202.912C245.402 203.43 234.492 204.216 249.125 204.55C249.666 203.709 250.912 202.847 251.782 202.001C283.849 202.031 315.4 202.303 347.573 202.265C351.562 202.26 347.482 201.808 351.758 201.791C369.799 201.719 385.557 202.041 404.266 201.913C418.747 201.812 434.627 201.333 449.77 201.213C459.02 202.175 481.491 201.848 497.814 201.936C503.532 201.966 503.15 202.223 507.217 202.307C522.558 202.617 515.369 201.767 519.575 201.633C537.619 201.062 539.164 202.986 560.438 202.939C561.565 202.937 575.342 201.911 577.24 201.847C589.296 201.431 579.235 202.204 586.781 202.28C600.558 202.419 610.131 202.664 626.295 202.363C631.008 202.274 642.315 201.635 651.468 202.129C652.672 202.194 652.006 202.533 652.975 202.553C670.518 202.884 670.979 201.819 681.004 201.458C691.031 201.097 706.516 201.833 709.668 202.045C717.912 202.593 703.35 202.279 702.903 202.333C697.659 202.973 708.953 202.863 717.582 202.917C718.832 203.961 730.9 203.898 726.529 202.969C726.031 202.867 719.316 202.964 717.582 202.917C725.158 201.892 738.42 201.761 753.07 202.718C759.927 203.167 753.445 203.69 774.275 203.499C783.728 203.413 780.076 202.693 788.418 202.497C807.478 202.05 832.245 202.721 851.895 202.615C859.027 202.577 852.08 202.183 856.953 202.143C869.888 202.037 881.295 202.332 894.286 202.181C895.462 202.166 892.587 201.754 896.626 201.749C927.25 201.701 953.916 201.965 985.89 201.972C1001.34 201.976 1028.96 201.749 1044.96 201.794C1072.7 201.871 1106.82 202.47 1130.52 202.325C1145.97 202.231 1142.58 201.819 1149.2 201.539C1161.98 200.994 1184.6 201.969 1187.65 202.12C1187.74 202.125 1174.44 202.222 1181.54 202.434C1185.66 202.875 1187.5 202.122 1187.65 202.12C1189.65 202.218 1216.21 202.311 1221.49 202.233C1224.35 202.189 1222.75 201.799 1224.25 201.784C1259.77 201.434 1295.35 201.335 1331.38 201.518C1332.02 201.526 1331.06 201.962 1332.55 201.976C1353.41 202.17 1366.77 201.635 1383.97 201.318C1401.17 201.001 1414.81 201.107 1424.99 201.857C1437.97 201.763 1456.59 202.094 1467.3 202.295C1478.02 202.497 1479.51 201.646 1480.45 201.629C1509.86 201.091 1526.85 201.578 1557.36 201.654C1571.86 201.691 1600.63 201.568 1616.33 201.475C1628.74 201.4 1636.22 201.599 1647.65 201.472C1649.2 201.455 1647.64 201.076 1648.11 201.062C1660.87 200.609 1654.74 201.534 1657.37 201.7C1666.93 202.301 1672.83 202.621 1689.17 202.338C1692.94 202.273 1703.92 200.941 1710.79 200.863C1719.73 200.764 1716.36 201.242 1725.71 201.126C1726.51 201.116 1726.35 200.822 1732.12 200.835C1758.92 200.891 1788.14 201.063 1815.99 201.033C1819.79 201.03 1814.91 200.563 1820.41 200.551C1846.2 200.496 1874.47 200.513 1899.6 200.732C1905.78 200.787 1901.91 201.114 1903.25 201.211C1911.49 201.799 1923.18 200.945 1925.11 200.929C1971.11 200.518 2006.32 201.291 2053.21 200.923C2055.76 200.902 2075.41 199.986 2084.18 200.771C2084.78 200.824 2093.45 201.627 2101.12 201.078C2101.59 201.043 2096.19 200.63 2105.62 200.672C2115.05 200.714 2130.23 200.438 2143.19 200.892C2147.29 201.035 2156.99 201.837 2169.23 201.198C2170.03 201.153 2188.93 199.709 2195.68 200.705C2196.77 200.869 2195.63 201.924 2210.24 201.384C2213.03 201.279 2207.96 201.043 2215.31 200.896C2226.58 200.67 2241.51 200.953 2255.36 200.483C2257.78 200.399 2268.06 199.683 2276.31 200.227C2277.6 200.312 2275.15 200.664 2279.51 200.704C2300.22 200.893 2321.91 200.657 2342.94 200.901C2350.39 200.986 2346.58 201.556 2354.35 201.708C2362.12 201.861 2377.76 202.007 2385.89 201.747C2394.02 201.487 2385.14 200.58 2397.31 200.507C2398.88 200.498 2400.44 200.489 2402 200.481L2397.48 205C2397.22 153.653 2397.73 102.749 2397.8 51.4498C2397.81 43.6099 2397.49 50.1093 2397.48 38.5561C2397.48 28.7389 2397.46 17.278 2397.44 5L2402 9.56313C2361.01 9.62903 2310.9 9.68694 2282.46 9.15604C2252.84 8.60347 2290.11 8.18279 2267.48 7.95793C2256.56 7.85066 2244.75 8.90555 2242.11 8.93876C2216.36 9.27611 2198.46 8.80882 2175.28 8.95219C2170.5 8.98194 2175.19 9.40949 2171.12 9.43009C2157.2 9.50424 2142.58 9.3134 2129.28 9.3483C2123.32 9.36495 2124.41 9.6915 2118.93 9.6663C2105.79 9.60975 2094.18 9.47249 2081.38 9.16642C2080.21 9.13853 2088.08 8.73231 2078.36 8.7172C2062.63 8.69391 2043.11 8.39197 2025.02 8.70378C2019.65 8.79757 2019.44 9.5439 2007.9 9.02848C2005.48 8.92083 2008.57 8.02466 1995.13 8.79899C1992.87 8.92767 1970.29 9.9721 1959.2 9.29887C1956.28 9.12168 1948.82 8.38833 1942.36 8.50358C1941.49 8.52197 1944.99 8.92285 1939.64 8.96195C1920.79 9.09279 1901.03 9.05002 1881.66 9.17558C1876.49 9.2099 1884.19 9.62473 1876.49 9.66263C1855.29 9.76749 1828.82 9.66186 1808.09 9.53202C1800.45 9.48336 1805.73 9.13973 1805.17 9.10233C1796.23 8.49408 1790.94 9.31508 1787.97 9.36295C1769.52 9.6496 1755.46 9.26395 1738.44 9.36601C1733.75 9.39313 1737.08 9.78459 1736.14 9.81949C1726.45 10.1605 1733.67 9.45754 1727.53 9.38004C1710.34 9.16062 1691.18 9.19208 1673.8 9.2421C1667.41 9.26105 1674.59 9.71496 1668.86 9.72672C1634.94 9.80494 1599.68 9.7615 1566.58 9.51127C1560.35 9.46333 1564.27 9.11381 1562.97 9.03397C1554.02 8.47545 1540.9 9.23728 1537.88 9.30985C1524.15 9.64121 1518.82 9.33212 1506.69 9.38981C1447.47 9.67705 1374.35 9.47234 1318.45 9.34586C1245.6 9.18309 1189.07 8.85059 1119.6 8.93693C1115.19 8.94198 1119.64 9.40695 1115.84 9.41727C1066.7 9.52936 1018.32 9.34767 969.086 9.48197C965.045 9.49217 970.87 9.93296 964.385 9.96415C951.083 10.0312 934.233 10.0072 920.784 9.86649C914.224 9.79868 923.023 9.42043 916.42 9.3599C901.045 9.21809 884.565 9.1867 868.773 9.25736C862.052 9.2884 872.192 9.73922 863.457 9.74442C803.953 9.78915 745.515 9.86679 685.385 9.283C681.263 9.2429 677.645 8.32665 668.881 8.50236C668.221 8.75664 668.256 9.05576 667.968 9.32755C581.347 9.47396 495.61 9.15633 408.745 9.10722C405.083 9.10525 411.412 9.59073 404.322 9.58939C363.283 9.58222 323.433 9.71671 281.455 9.23417C277.29 9.18698 279.427 8.33291 267.153 8.46208C264.988 8.48565 246.502 8.59955 241.722 8.78495C241.073 8.81292 244.446 9.21156 238.489 9.22318C203.872 9.28372 167.595 9.19271 133.038 8.94914C127.461 8.90906 133.4 8.48454 129.428 8.45231C101.25 8.22696 70.6005 8.54967 43.675 8.16423C25.6521 7.9047 32.3247 7.17087 22.7476 6.44853C21.393 6.34662 10.2326 6.33047 9.6555 5.91021C8.17382 4.8534 13.5795 3.69621 11.3614 2.56976C10.8928 2.32713 -4.05377 2.58846 4.79557 2.00214C5.41379 1.9629 16.2501 1.7683 18.9191 1.5694C20.7774 1.43188 17.4288 1.00447 21.2202 0.828434C25.0113 0.652564 29.1772 1.01084 35.4627 0.80402C41.7455 0.594636 38.9829 0.108407 51.5303 0.050849ZM1515.54 203.194C1525.46 203.603 1526.93 202.107 1516.2 202.465C1515.68 202.484 1515.03 203.174 1515.54 203.194ZM315.219 203.431C328.189 204.09 337.064 203.12 327.915 202.611C318.767 202.102 311.268 203.231 315.219 203.431ZM180.728 203.912C195.887 204.432 198.273 202.312 182.038 202.74C181.093 202.765 179.842 203.882 180.728 203.912ZM67.1614 6.24285C67.0245 6.22299 59.002 6.20363 58.8103 6.22331C54.5384 6.69827 70.5801 6.73665 67.1614 6.24285ZM47.2685 204.436C52.0007 204.723 65.6251 204.392 59.7459 204.035C55.0124 203.749 41.3758 204.08 47.2685 204.436ZM2033.06 204.79C2033.21 204.813 2038.97 204.833 2038.85 204.707C2038.46 204.301 2030.46 204.416 2033.06 204.79ZM2.53911 23.4386C2.45929 56.9517 0.707539 77.2711 0.905207 40.7757C0.940971 34.1667 1.46383 55.0195 1.62176 46.6076C1.90948 31.2158 0.809595 20.9953 1.39898 5.28825C1.50686 2.44484 2.54756 21.5269 2.54155 23.4981C2.54074 23.4783 2.53993 23.4584 2.53911 23.4386ZM1521.26 204.991C1521.46 205.01 1529.42 205.029 1529.61 205.01C1533.92 204.535 1517.88 204.497 1521.26 204.991ZM2368.67 205.715C2369.11 205.757 2387.59 205.797 2388.19 205.758C2397.83 204.982 2360.47 204.9 2368.67 205.715ZM985.037 206.085C976.35 206.563 965.957 206.619 959.032 206.019C967.665 206.051 976.357 206.056 985.037 206.085Z" fill="white"/>
</svg>
