<svg width="111" height="106" viewBox="0 0 111 106" fill="none" xmlns="http://www.w3.org/2000/svg">
<path d="M99 105V55C101.605 56.7609 101.843 60.6076 102.547 64.0339C103.081 66.6346 103.934 69.1448 105.072 71.4628C106.907 75.1999 109.511 78.5337 110.411 82.7143C111.374 87.1865 110.175 92.0309 107.907 95.8001C105.638 99.5684 102.386 102.65 99 105Z" fill="white"/>
<path d="M100.611 83.9421C100.591 89.1847 99.767 94.4021 99.932 99.6407C99.949 100.169 100.043 100.811 100.467 100.993C100.817 101.143 101.197 100.878 101.46 100.568C102.401 99.4596 102.63 97.7902 103.25 96.4054C104.233 94.209 106.183 92.7729 107.146 90.5645C107.602 89.5176 107.813 88.347 107.92 87.1784C108.369 82.2848 106.993 77.1991 104.22 73.5022C103.549 72.6082 102.779 71.7484 102.462 70.617C102.264 69.909 101.915 67.2792 100.716 67.9037C99.876 68.3411 100.197 71.7695 100.203 72.6937C100.226 76.4479 100.625 80.1859 100.611 83.9421Z" fill="white"/>
<path opacity="0.7" d="M104.415 93.915C104.13 95.0524 103.846 96.1898 103.561 97.3272C103.457 97.7416 103.43 98.3359 103.784 98.4556C104.036 98.5411 104.273 98.2897 104.446 98.0574C105.24 96.9944 105.987 95.8821 106.68 94.7266C107.27 93.745 108.183 92.5091 108.404 91.3143C108.552 90.5148 108.249 89.4991 107.645 89.0496C106.834 88.4461 106.233 89.2618 105.785 90.019C105.098 91.1826 104.751 92.5704 104.415 93.915Z" fill="white"/>
<path d="M30.4576 20.2938C31.6188 17.7505 33.5671 15.5525 36.5051 14.793C40.8458 13.7208 45.992 17.9019 49.6436 14.1683C50.6913 13.0968 51.0296 11.8115 51.8013 10.6093C52.412 9.65728 53.5487 9.05846 54.6027 8.63956C56.3137 7.96041 58.2704 7.50633 59.4141 6H7.99609C8.70344 7.00178 10.0915 7.55214 11.1736 8.18547C14.9758 10.4121 20.0308 11.4942 23.1229 14.5533C24.3156 15.7337 25.1455 17.173 25.8836 18.6368C26.5266 19.9128 27.9679 25.1142 28.6115 25.1136C28.9301 25.1129 29.1816 24.147 29.2537 23.9491C29.5745 23.0668 29.7341 22.1401 30.0619 21.2551C30.1809 20.9312 30.3133 20.6098 30.4576 20.2938Z" fill="white"/>
<path d="M47.6943 30.1339C47.6943 30.6842 47.3 31.131 46.8139 31.131C46.3272 31.131 45.9336 30.6849 45.9336 30.1339C45.9336 29.5829 46.3279 29.1367 46.8139 29.1367C47.3 29.1367 47.6943 29.5835 47.6943 30.1339Z" fill="white"/>
<path d="M23.8352 36.0638C23.8149 36.1242 23.7953 36.1839 23.7771 36.243C22.6187 39.8837 21.7776 44.5573 25.2576 47.3622C26.8831 48.672 29.3925 49.0684 31.2036 48.0002C33.3543 46.7315 33.8999 43.9658 33.6506 41.5766C33.3445 38.6462 32.1182 36.251 30.4934 33.8112C29.9983 33.0677 29.396 32.3441 28.5605 31.9604C25.8984 30.7375 24.4417 34.2421 23.8352 36.0638Z" fill="white"/>
<path d="M46.7964 67.0015C50.235 67.0015 53.0225 63.8165 53.0225 59.8875C53.0225 55.9585 50.235 52.7734 46.7964 52.7734C43.3578 52.7734 40.5703 55.9585 40.5703 59.8875C40.5703 63.8165 43.3578 67.0015 46.7964 67.0015Z" fill="white"/>
<path d="M42.0201 59.6102C42.1056 58.868 42.2708 58.167 42.4396 57.6312C43.266 55.0102 46.8868 52.8719 49.1083 55.6018C49.3794 55.9344 49.5747 56.3181 49.7176 56.7157C50.2555 58.2154 49.8948 60.1221 48.4731 60.9559C47.9023 61.2911 47.2104 61.4312 46.6886 61.8315C45.7145 62.5791 45.2011 64.568 43.5651 63.8451C42.046 63.1732 41.8275 61.2865 42.0201 59.6102Z" fill="white"/>
<path opacity="0.7" d="M49.8849 62.0064C50.0957 61.6087 50.2379 61.1725 50.4543 60.7782C50.5481 60.6069 50.7078 60.3706 50.9501 60.4011C51.5069 60.4715 51.2982 61.6193 51.2478 61.9466C51.0762 63.0533 50.4711 64.3717 49.5214 65.0781C48.9514 65.5023 47.7986 65.9 47.2257 65.2753C47.0037 65.0336 47.0394 64.7243 47.2082 64.464C47.5359 63.9588 48.1586 63.7178 48.6418 63.36C49.0508 63.0573 49.4318 62.7087 49.714 62.2932C49.7764 62.2009 49.8324 62.1053 49.8849 62.0064Z" fill="white"/>
<path opacity="0.7" d="M51.2169 59.1734C51.0362 59.0426 50.9773 58.6668 51.0397 58.4743C51.0509 58.4391 51.0691 58.4033 51.0999 58.3807C51.1363 58.3548 51.186 58.3502 51.2302 58.3608C51.2743 58.3714 51.3135 58.3953 51.3485 58.4225C51.5313 58.5619 51.6847 58.856 51.5922 59.0791C51.5362 59.2145 51.3639 59.2636 51.2344 59.1846C51.2281 59.1813 51.2218 59.1773 51.2169 59.1734Z" fill="white"/>
<path d="M27.2088 16.2335C26.5624 14.4982 25.4138 12.871 23.7372 11.9436C22.2328 11.1118 20.4498 10.906 18.7493 10.5495C17.0489 10.193 15.2742 9.59548 14.2461 8.26309C15.9101 7.57333 17.8438 8.01082 19.5421 8.62092C21.2412 9.23102 22.9381 10.0177 24.7548 10.0071C27.6444 9.99115 30.2434 7.95771 33.1288 8.11239C34.865 8.20533 36.4464 9.08563 38.158 9.3784C42.7628 10.1651 47.2121 6.63063 51.8561 7.17434C52.0074 7.19227 52.1719 7.22148 52.2679 7.33367C52.4472 7.54279 52.2616 7.84817 52.0802 8.0553C50.2313 10.1664 48.1709 12.4043 45.3443 12.9952C43.1473 13.4546 40.8859 12.8272 38.6728 12.4442C36.4597 12.0611 33.9531 11.9907 32.2051 13.3331C30.9507 14.2964 30.333 15.812 29.9198 17.2911C29.7602 17.862 29.1257 21.5087 28.2726 21.1283C27.8111 20.9225 27.4658 16.9246 27.2088 16.2335Z" fill="white"/>
<path d="M24.8136 43.7179C24.9837 44.5603 25.2499 45.4293 25.8844 46.0408C26.5189 46.6522 27.6178 46.9051 28.3433 46.392C28.8756 46.0162 29.0717 45.3576 29.2355 44.7482C29.7503 42.8303 30.2686 40.8865 30.2511 38.9081C30.2398 37.6275 30.1012 35.7029 28.9512 34.8306C28.1381 34.2145 26.9412 34.2152 26.1848 34.9156C24.1433 36.8056 24.3289 41.3173 24.8136 43.7179Z" fill="white"/>
<path opacity="0.7" d="M28.4958 46.4927C28.3648 46.1209 28.4314 45.6927 28.6695 45.3721C28.9636 44.9764 29.463 44.7792 29.8909 44.5164C30.8413 43.9328 31.501 42.9416 31.6459 41.8768C31.6887 41.5621 31.7629 41.1578 32.0921 41.0994C32.2847 41.0655 32.4773 41.1884 32.5753 41.3484C32.6734 41.509 32.6965 41.6995 32.7133 41.8841C32.8141 43.016 32.728 44.1944 32.2034 45.2161C31.7202 46.1601 29.1765 48.4272 28.4958 46.4927Z" fill="white"/>
<path opacity="0.7" d="M44.234 13.6724C44.2684 13.2296 44.6395 12.8651 45.0597 12.6686C45.4799 12.4721 45.952 12.4057 46.4072 12.3015C47.3016 12.097 48.1553 11.7359 48.9131 11.242C49.0342 11.163 49.1582 11.0787 49.3024 11.0508C49.4467 11.0229 49.619 11.0694 49.6834 11.1942C49.7352 11.2944 49.7058 11.4139 49.6715 11.5208C49.3774 12.429 48.7436 13.2349 47.9094 13.7614C47.2504 14.1776 44.1101 15.2657 44.234 13.6724Z" fill="white"/>
<path opacity="0.7" d="M34.0873 14.601C34.1581 14.5745 34.2295 14.5499 34.3016 14.526C34.4816 14.4669 34.8227 14.3939 34.9165 14.214C35.0293 13.9969 34.8052 13.8309 34.5958 13.8137C33.2553 13.7075 31.4323 14.5546 30.8881 15.7495C30.7768 15.9938 30.6395 16.3012 30.6731 16.5727C30.7117 16.8828 31.0121 16.9531 31.2558 16.7639C31.3441 16.6955 31.4113 16.6073 31.4806 16.5216C32.1614 15.6745 33.0347 14.9901 34.0873 14.601Z" fill="white"/>
<line y1="-2.5" x2="100" y2="-2.5" transform="matrix(0 1 1 0 99.9961 5.86328)" stroke="white" stroke-width="5"/>
<line y1="-2.5" x2="100" y2="-2.5" transform="matrix(-1 0 0 1 99.9961 10.8633)" stroke="white" stroke-width="5"/>
<line x1="72.9961" y1="15" x2="92.9961" y2="15" stroke="white" stroke-width="4"/>
<line x1="90.9961" y1="17" x2="90.9961" y2="57" stroke="white" stroke-width="4"/>
<line y1="-1" x2="15" y2="-1" transform="matrix(0 -1 -1 0 102.996 15.8984)" stroke="white" stroke-width="2"/>
<line y1="-1" x2="15" y2="-1" transform="matrix(-1 0 0 1 102.996 2.86328)" stroke="white" stroke-width="2"/>
<path d="M104.88 31.9213C104.88 33.0573 105.801 33.9783 106.938 33.9783C108.074 33.9783 108.996 33.0573 108.996 31.9213C108.996 30.7853 108.075 29.8633 106.938 29.8633C105.801 29.8643 104.88 30.7853 104.88 31.9213Z" fill="white"/>
</svg>
