<svg width="111" height="106" viewBox="0 0 111 106" fill="none" xmlns="http://www.w3.org/2000/svg">
<path d="M11.7461 105L11.7461 55C9.14109 56.7609 8.90309 60.6076 8.19909 64.0339C7.66509 66.6346 6.81209 69.1448 5.67409 71.4628C3.83909 75.1999 1.23509 78.5337 0.335094 82.7143C-0.627906 87.1865 0.571092 92.0309 2.83909 95.8001C5.10809 99.5684 8.36009 102.65 11.7461 105Z" fill="white"/>
<path d="M10.1351 83.9421C10.1551 89.1847 10.9791 94.4021 10.8141 99.6407C10.7971 100.169 10.7031 100.811 10.2791 100.993C9.92911 101.143 9.54911 100.878 9.28611 100.568C8.34511 99.4596 8.11611 97.7902 7.49611 96.4054C6.51311 94.209 4.56311 92.7729 3.60011 90.5645C3.14411 89.5176 2.93311 88.347 2.82611 87.1784C2.37711 82.2848 3.75312 77.1991 6.52612 73.5022C7.19712 72.6082 7.96711 71.7484 8.28411 70.617C8.48211 69.909 8.83111 67.2792 10.0301 67.9037C10.8701 68.3411 10.5491 71.7695 10.5431 72.6937C10.5201 76.4479 10.1211 80.1859 10.1351 83.9421Z" fill="white"/>
<path opacity="0.7" d="M6.33138 93.915C6.61638 95.0524 6.90037 96.1898 7.18537 97.3272C7.28937 97.7416 7.31637 98.3359 6.96237 98.4556C6.71037 98.5411 6.47337 98.2897 6.30037 98.0574C5.50637 96.9944 4.75937 95.8821 4.06637 94.7266C3.47637 93.745 2.56337 92.5091 2.34237 91.3143C2.19437 90.5148 2.49737 89.4991 3.10137 89.0496C3.91237 88.4461 4.51337 89.2618 4.96137 90.019C5.64837 91.1826 5.99538 92.5704 6.33138 93.915Z" fill="white"/>
<path d="M83.803 18.5739C83.745 16.0092 84.0572 13.144 85.9952 11.4631C87.812 9.88706 90.5916 9.95207 91.9961 8H48.9961C49.5876 8.88379 50.7484 9.36932 51.6533 9.92806C53.5773 11.1164 55.0538 13.0884 55.5036 15.3181C55.9704 17.6315 54.5946 19.7077 54.8558 21.9936C55.1727 24.7616 58.275 26.3569 60.845 26.046C61.8476 25.9247 62.831 25.5306 63.576 24.8477C65.1632 23.3934 64.605 21.6106 64.7497 19.7107C64.8902 17.8658 66.4669 16.63 68.2415 16.4109C72.0098 15.9453 74.2084 19.966 74.4796 23.1949C74.6272 24.9507 74.0257 26.8442 74.7431 28.4537C75.5485 30.2593 77.4519 31.5203 79.4292 31.5572C81.4064 31.5941 83.3556 30.4058 84.2282 28.6317C84.951 27.1628 84.9463 25.4392 84.7032 23.8198C84.4613 22.201 83.8399 20.2108 83.803 18.5739Z" fill="white"/>
<path d="M82.3427 17.949C82.2642 16.4052 82.3737 14.8649 82.8054 13.3843C82.9453 12.9034 83.1199 12.4243 83.138 11.9242C83.1562 11.424 82.984 10.8828 82.567 10.6052C82.2917 10.4219 81.9491 10.3768 81.6199 10.3452C79.6439 10.1554 77.6367 10.2848 75.7011 10.7276C74.5397 10.9929 73.363 11.3736 72.1829 11.212C71.3541 11.0983 70.5875 10.7241 69.7875 10.481C67.4231 9.763 64.8578 10.2181 62.5075 10.9806C61.6969 11.2436 60.8886 11.5446 60.0406 11.6296C59.1925 11.7145 58.2794 11.5558 57.6381 10.9947C57.3863 10.7745 57.1655 10.4887 56.8434 10.402C56.2641 10.2456 55.7165 10.8582 55.679 11.4568C55.6415 12.0553 55.9361 12.617 56.1763 13.1664C57.0817 15.2385 57.282 17.6111 56.7374 19.8062C56.581 20.4352 56.3643 21.0631 56.3795 21.7109C56.4181 23.3677 58.6326 24.8003 60.1671 24.378C61.1235 24.1151 61.8708 23.3215 62.2714 22.4143C62.6714 21.507 62.764 20.4932 62.7564 19.5017C62.7517 18.9465 62.7189 18.383 62.853 17.8442C63.075 16.9528 63.7327 16.2301 64.463 15.6725C66.1732 14.3676 68.3766 13.7843 70.526 13.871C71.4367 13.9079 72.358 14.0642 73.1692 14.4801C74.9315 15.3832 75.8879 17.3464 76.3728 19.2662C76.695 20.5407 76.7377 21.9182 76.5152 23.2131C76.2926 24.5081 75.9921 25.8264 76.2065 27.1237C76.4203 28.4204 77.3058 29.7153 78.6013 29.9361C79.6427 30.1136 80.7092 29.5455 81.3611 28.7144C82.0129 27.8833 82.311 26.8285 82.478 25.7854C82.895 23.1715 82.4774 20.5928 82.3427 17.949Z" fill="white"/>
<path opacity="0.7" d="M60.1958 24.296C60.2386 23.8111 60.7335 23.5241 61.1107 23.2166C61.6126 22.8072 61.9769 22.2327 62.1332 21.6037C62.2545 21.1164 62.2562 20.5916 62.4841 20.1442C62.5643 19.986 62.6814 19.8337 62.8478 19.7734C63.0774 19.6897 63.3438 19.808 63.4967 19.9983C63.6496 20.1893 63.7111 20.4364 63.748 20.6783C63.8874 21.5808 63.7421 22.5308 63.3046 23.3326C62.9315 24.0173 62.3687 24.5286 61.6893 24.8975C61.1511 25.1892 60.1156 25.2126 60.1958 24.296Z" fill="#FDFEFF"/>
<path opacity="0.7" d="M78.5409 28.825C78.4917 27.9905 79.4265 27.3942 80.1246 26.8103C80.8227 26.2264 81.3662 25.4984 81.6966 24.7054C82.0409 23.879 82.1534 22.9964 82.4445 22.1553C82.5189 21.9404 82.6589 21.6891 82.9101 21.6727C83.2158 21.6528 83.3617 21.9849 83.4073 22.2514C83.5942 23.3355 83.6299 24.4442 83.5134 25.5441C83.415 26.4724 83.2029 27.41 82.7045 28.2423C82.2869 28.9398 81.4406 29.8734 80.5147 30.0579C79.6736 30.2248 78.5872 29.6169 78.5409 28.825Z" fill="#FDFEFF"/>
<line x1="13.4961" y1="5.86328" x2="13.4961" y2="105.863" stroke="white" stroke-width="5"/>
<line x1="10.9961" y1="8.36328" x2="110.996" y2="8.36328" stroke="white" stroke-width="5"/>
<line y1="-2" x2="20" y2="-2" transform="matrix(-1 0 0 1 37.9961 17)" stroke="white" stroke-width="4"/>
<line y1="-2" x2="40" y2="-2" transform="matrix(0 1 1 0 21.9961 17)" stroke="white" stroke-width="4"/>
<line x1="6.99609" y1="15.8984" x2="6.99609" y2="0.898438" stroke="white" stroke-width="2"/>
<line x1="7.99609" y1="1.86328" x2="22.9961" y2="1.86328" stroke="white" stroke-width="2"/>
<path d="M6.11209 31.9213C6.11209 33.0573 5.19109 33.9783 4.05409 33.9783C2.91809 33.9783 1.99609 33.0573 1.99609 31.9213C1.99609 30.7853 2.91709 29.8633 4.05409 29.8633C5.19109 29.8643 6.11209 30.7853 6.11209 31.9213Z" fill="white"/>
</svg>
