<svg width="107" height="105" viewBox="0 0 107 105" fill="none" xmlns="http://www.w3.org/2000/svg">
<line x1="97.4922" y1="100" x2="97.4922" stroke="white" stroke-width="5"/>
<line x1="99.9922" y1="97.5" x2="-0.0078125" y2="97.5" stroke="white" stroke-width="5"/>
<line y1="-2" x2="20" y2="-2" transform="matrix(1 0 0 -1 72.9922 89)" stroke="white" stroke-width="4"/>
<line y1="-2" x2="40" y2="-2" transform="matrix(0 -1 -1 0 88.9922 89)" stroke="white" stroke-width="4"/>
<line x1="103.992" y1="89.9648" x2="103.992" y2="104.965" stroke="white" stroke-width="2"/>
<line x1="102.992" y1="104" x2="87.9922" y2="104" stroke="white" stroke-width="2"/>
<path d="M99.5756 2.768C99.0596 1.384 98.6246 0.764994 98.3906 0.580994V74C99.8996 72.99 100.729 71.008 101.683 69.463C104.735 64.522 107.568 59.07 106.888 53.303C106.392 49.09 103.988 45.216 103.904 40.976C103.812 36.296 106.555 31.984 106.924 27.317C107.383 21.514 103.776 16.119 102.566 10.44C101.99 7.73299 100.543 5.36 99.5756 2.768Z" fill="white"/>
<path d="M104.118 49.2242C103.091 45.2832 101.225 41.3292 102.018 37.3642C102.691 34.0022 105.24 30.9052 105.953 27.5472C107.265 21.3682 102.26 15.4062 100.889 9.24725C100.728 8.52325 99.6795 8.57825 99.5965 9.31625C99.0545 14.1122 101.808 19.1242 102.134 24.0542C102.491 29.4502 99.9105 34.7382 99.3465 40.1272C98.7135 46.1672 100.567 52.1593 100.604 58.1913C100.613 59.6923 100.51 61.1952 100.216 62.6842C100.108 63.2312 98.6995 65.9722 100.495 65.8432C101.661 65.7592 102.747 63.2182 103.081 62.5762C103.756 61.2802 104.218 59.9373 104.505 58.5793C105.161 55.4773 104.92 52.3042 104.118 49.2242Z" fill="white"/>
<path opacity="0.7" d="M105.248 26.1531C104.822 25.9631 104.543 25.5351 104.409 25.0891C104.275 24.6431 104.263 24.1701 104.229 23.7051C104.099 21.9311 103.621 20.1831 102.832 18.5901C102.672 18.2661 102.557 17.7681 102.893 17.6351C103.131 17.5401 103.375 17.7451 103.543 17.9381C104.71 19.2711 105.562 20.8731 106.036 22.5791C106.241 23.3181 107.237 27.0411 105.248 26.1531Z" fill="white"/>
<path d="M69.1179 100.15L66.6979 100.16L63.9179 100.18L40.6899 100.37L28.2499 100.44H28.1799L17.6299 100.5L8.12989 100.55C10.1699 100.55 11.8999 99.0298 12.7899 97.1998C13.6799 95.3698 13.4399 93.0397 12.1799 91.4297C10.2869 89.0107 8.14188 86.6928 6.16788 84.3378C5.56388 83.6168 4.91989 82.7637 5.07389 81.8357C5.28989 80.5307 6.98189 79.9938 8.25589 80.3468C9.61789 80.7248 10.6919 81.7397 11.8829 82.4997C13.0739 83.2597 14.6509 83.7658 15.8689 83.0488C16.9409 82.4188 17.5069 80.9637 18.7309 80.7497C19.9239 80.5407 20.9049 81.6448 21.5789 82.6518C22.2529 83.6588 23.1139 84.8127 24.3249 84.7717C25.4449 84.7337 26.2499 83.6377 26.5549 82.5597C26.8599 81.4807 26.8529 80.3197 27.2699 79.2787C27.6869 78.2377 28.7689 77.3077 29.8459 77.6187C31.8859 78.2077 31.1639 81.9317 33.1199 82.7587C33.8209 83.0557 34.6559 82.8297 35.2699 82.3787C35.8839 81.9287 36.3219 81.2838 36.7479 80.6528C38.3009 78.3508 39.8549 76.0477 41.4079 73.7457C41.7519 73.2357 42.1099 72.7128 42.6249 72.3758C43.1399 72.0398 43.8579 71.9368 44.3589 72.2938C45.0659 72.7988 44.9889 73.8547 44.8359 74.7097C44.4629 76.7937 44.0899 78.8777 43.7169 80.9607C43.3859 82.8097 43.1319 84.9538 44.3889 86.3498C45.5039 87.5878 47.4399 87.7247 49.0369 87.2497C50.6339 86.7747 52.0309 85.8068 53.5379 85.0968C54.1569 84.8048 54.8209 84.5508 55.5049 84.5838C56.1889 84.6168 56.8959 85.0007 57.1209 85.6467C57.3289 86.2437 57.0949 86.8918 56.9309 87.5018C56.3139 89.8058 54.9299 96.3927 69.1179 100.15Z" fill="white"/>
<path d="M16.0948 96.5582C16.2288 97.7712 15.9038 99.0572 14.7098 100.5L28.1798 100.44H28.2498L40.6898 100.37L66.7478 100.18C66.7278 100.17 66.7178 100.17 66.6978 100.16C60.9198 98.0392 57.0028 98.1812 54.7428 93.6722C54.3728 92.8902 54.5248 91.9242 54.0898 91.1772C53.4088 90.0062 51.9318 89.5242 50.5768 89.5372C49.2218 89.5502 47.9038 89.9542 46.5578 90.1132C45.2118 90.2722 43.7278 90.1392 42.7098 89.2452C41.9718 88.5972 41.5888 87.6492 41.1098 86.7922C40.6308 85.9342 39.9438 85.0802 38.9788 84.9012C37.9498 84.7102 36.9428 85.3522 36.2358 86.1242C35.5298 86.8962 34.9928 87.8252 34.1938 88.5012C33.3958 89.1772 32.1878 89.5462 31.3048 88.9862C30.7048 88.6062 30.4078 87.9062 30.0388 87.2992C29.6698 86.6922 29.0808 86.0922 28.3738 86.1572C27.6008 86.2282 27.1458 87.0212 26.5948 87.5682C25.6048 88.5522 23.9628 88.8042 22.7228 88.1632C22.2038 87.8952 21.7598 87.4922 21.2268 87.2522C20.6938 87.0122 19.9968 86.9762 19.5868 87.3912C19.1758 87.8072 19.2018 88.5092 18.8218 88.9542C18.2218 89.6572 17.0898 89.3172 16.2538 88.9232L14.3358 88.0192C13.1218 87.4472 11.9608 88.9042 12.7938 89.9562C13.1088 90.3542 13.4348 90.7452 13.7488 91.1342C14.9168 92.5812 15.8908 94.7102 16.0948 96.5582Z" fill="white"/>
<path d="M55.4712 76.6378C56.0162 76.1518 56.6542 75.7058 57.3822 75.6528C57.8082 75.6218 58.2752 75.7548 58.5232 76.1028C58.7712 76.4508 58.7432 76.9408 58.5552 77.3248C58.3672 77.7088 58.0432 78.0078 57.7132 78.2808C57.0472 78.8328 54.3602 81.1158 53.4282 80.5488C52.1812 79.7908 54.9112 77.1358 55.4712 76.6378Z" fill="white"/>
<path d="M32.5266 74.2247C32.5056 73.9057 32.5226 73.5657 32.6996 73.3007C32.8036 73.1457 32.9746 73.0197 33.1616 73.0277C33.3486 73.0357 33.5096 73.1767 33.5916 73.3447C33.6736 73.5127 33.6896 73.7047 33.6956 73.8917C33.7076 74.2697 33.7736 75.8097 33.3286 75.9797C32.7316 76.2067 32.5486 74.5517 32.5266 74.2247Z" fill="white"/>
<path d="M3.87105 91.6648C3.60305 91.6178 3.32605 91.5348 3.14205 91.3348C3.03405 91.2178 2.96506 91.0508 3.01006 90.8978C3.05406 90.7448 3.20406 90.6398 3.35906 90.6058C3.51506 90.5718 3.67705 90.5978 3.83205 90.6308C4.14705 90.6978 5.43406 90.9538 5.48406 91.3568C5.55106 91.8968 4.14505 91.7128 3.87105 91.6648Z" fill="white"/>
<path d="M3.87768 71.5877C3.46568 71.1737 3.08068 70.6836 3.00668 70.1036C2.96368 69.7646 3.04868 69.3856 3.31668 69.1716C3.58468 68.9576 3.97668 68.9587 4.29168 69.0927C4.60668 69.2267 4.85968 69.4716 5.09268 69.7236C5.56268 70.2316 7.50569 72.2797 7.09369 73.0487C6.54169 74.0787 4.30068 72.0127 3.87768 71.5877Z" fill="white"/>
</svg>
