<svg width="107" height="105" viewBox="0 0 107 105" fill="none" xmlns="http://www.w3.org/2000/svg">
<line y1="-1" x2="15" y2="-1" transform="matrix(1 0 0 -1 3.99609 103)" stroke="white" stroke-width="2"/>
<line y1="-2.5" x2="100" y2="-2.5" transform="matrix(0 -1 -1 0 6.99609 100)" stroke="white" stroke-width="5"/>
<line y1="-2.5" x2="100" y2="-2.5" transform="matrix(1 0 0 -1 6.99609 95)" stroke="white" stroke-width="5"/>
<line x1="33.9961" y1="91" x2="13.9961" y2="91" stroke="white" stroke-width="4"/>
<line x1="15.9961" y1="89" x2="15.9961" y2="49" stroke="white" stroke-width="4"/>
<line y1="-1" x2="15" y2="-1" transform="matrix(0 1 1 0 3.99609 89.9648)" stroke="white" stroke-width="2"/>
<path d="M7.41266 2.768C7.92866 1.384 8.36366 0.764994 8.59766 0.580994L8.59766 74C7.08866 72.99 6.25966 71.008 5.30566 69.463C2.25366 64.522 -0.579323 59.07 0.100677 53.303C0.596677 49.09 3.00066 45.216 3.08466 40.976C3.17666 36.296 0.433667 31.984 0.0646667 27.317C-0.394333 21.514 3.21267 16.119 4.42267 10.44C4.99867 7.73299 6.44566 5.36 7.41266 2.768Z" fill="white"/>
<path d="M2.86982 49.2242C3.89682 45.2832 5.76283 41.3292 4.96983 37.3642C4.29683 34.0022 1.74783 30.9052 1.03483 27.5472C-0.277168 21.3682 4.72783 15.4062 6.09883 9.24725C6.25983 8.52325 7.30883 8.57825 7.39183 9.31625C7.93383 14.1122 5.17983 19.1242 4.85383 24.0542C4.49683 29.4502 7.07783 34.7382 7.64183 40.1272C8.27483 46.1672 6.42083 52.1593 6.38383 58.1913C6.37483 59.6923 6.47783 61.1952 6.77183 62.6842C6.87983 63.2312 8.28881 65.9722 6.49281 65.8432C5.32681 65.7592 4.24081 63.2182 3.90681 62.5762C3.23181 61.2802 2.76983 59.9373 2.48283 58.5793C1.82683 55.4773 2.06782 52.3042 2.86982 49.2242Z" fill="white"/>
<path opacity="0.7" d="M1.74046 26.1531C2.16646 25.9631 2.44545 25.5351 2.57945 25.0891C2.71345 24.6431 2.72547 24.1701 2.75947 23.7051C2.88947 21.9311 3.36744 20.1831 4.15644 18.5901C4.31644 18.2661 4.43147 17.7681 4.09547 17.6351C3.85747 17.5401 3.61344 17.7451 3.44544 17.9381C2.27844 19.2711 1.42646 20.8731 0.952463 22.5791C0.747463 23.3181 -0.248542 27.0411 1.74046 26.1531Z" fill="white"/>
<path d="M84.6866 92.3104C89.894 95.7908 97.2777 94.3193 102.996 96.8834L100.864 96.8922L98.4143 96.9098L69.5844 97.0772L58.6234 97.1389H58.5617L49.266 97.1918L40.8954 97.2358C42.6929 97.2358 44.2172 95.8965 45.0014 94.2841C45.7856 92.6717 45.5742 90.6187 44.464 89.2001C43.1255 87.4907 41.4585 86.0862 39.9782 84.4976C39.3782 83.8535 38.735 82.975 39.105 82.1776C39.3905 81.5626 40.1914 81.3371 40.8549 81.4807C41.5175 81.6252 42.0805 82.0464 42.6365 82.4349C44.0771 83.442 45.6226 84.2976 47.2403 84.984C48.199 85.3902 49.422 85.6968 50.1876 84.9919C50.8414 84.3901 50.8212 83.331 51.3569 82.6217C51.9842 81.7917 53.2548 81.6728 54.1984 82.1116C55.1421 82.5504 55.8144 83.4156 56.3581 84.3029L56.3748 84.3293C57.4374 86.0581 59.8419 86.2915 61.2403 84.821C62.8686 83.109 64.4043 81.0727 65.9419 79.2788C66.3886 78.7572 66.8547 78.2206 67.475 77.9245C68.0953 77.6285 68.9165 77.6382 69.3923 78.1342C69.847 78.6074 69.854 79.3396 69.8338 79.996C69.78 81.7195 69.7236 83.531 69.6681 85.3056C69.6135 87.0502 71.2144 88.4238 72.915 88.0291C72.9264 88.0265 72.9379 88.0238 72.9493 88.0212C74.7609 87.5894 76.5178 86.6414 78.3382 86.2484C79.2361 86.0545 80.2062 85.91 81.0476 86.2783C82.06 86.7207 82.6354 87.7885 83.0416 88.8159C83.4478 89.8433 83.7685 91.6971 84.6866 92.3104Z" fill="white"/>
<path d="M46.691 97.1941L58.5595 97.1412H58.6212L69.5822 97.0795L100.906 96.9121C100.888 96.9033 100.879 96.9033 100.862 96.8945C96.3503 95.2028 88.9834 97.6188 83.0359 92.9806C82.0957 91.9885 81.2146 90.8545 79.952 90.332C78.0823 89.5575 75.9782 90.3338 74.0415 90.9215C72.1048 91.5092 69.7311 91.807 68.2976 90.3778C67.6755 89.7575 67.3468 88.9072 66.8499 88.183C66.3521 87.4587 65.5388 86.8128 64.6744 86.9688C63.277 87.2208 62.9254 89.2227 61.6355 89.8183C60.038 90.5558 58.2837 88.7354 56.629 88.4614C56.066 88.368 55.5364 88.768 55.4016 89.3222C55.1399 90.399 53.7883 91.1849 52.5979 91.0501C51.1573 90.8871 49.9748 89.887 48.8232 89.0059C48.4514 88.7213 48.0558 88.4411 47.6434 88.1997C46.7121 87.6543 45.638 88.6975 46.1535 89.6465C47.4478 92.0325 49.1343 94.2415 46.691 97.1941Z" fill="white"/>
<path d="M74.5832 81.351C74.9656 81.01 75.4132 80.6964 75.9242 80.6594C76.2238 80.6373 76.5516 80.7307 76.7251 80.9757C76.8996 81.2206 76.8793 81.5643 76.7472 81.8339C76.615 82.1035 76.3877 82.3132 76.1559 82.5053C75.6889 82.893 73.8016 84.4957 73.1478 84.0974C72.2738 83.5635 74.1902 81.7008 74.5832 81.351Z" fill="white"/>
<path d="M41.6746 75.6023C41.4543 75.3133 41.2569 74.9803 41.2578 74.6172C41.2587 74.4049 41.3424 74.1776 41.5239 74.0683C41.7063 73.9582 41.9477 73.9908 42.131 74.0983C42.3143 74.2066 42.4508 74.3785 42.5733 74.552C42.8218 74.9027 43.8536 76.323 43.5373 76.7636C43.1152 77.3531 41.901 75.8984 41.6746 75.6023Z" fill="white"/>
</svg>
