<svg width="207" height="113" viewBox="0 0 207 113" fill="none" xmlns="http://www.w3.org/2000/svg">
<path d="M65.5987 1.06653C75.732 1.19986 83.332 1.99986 83.332 2.66653C83.332 3.99986 75.9987 13.1999 56.6654 36.2665C40.132 56.1332 41.332 54.1332 43.4654 57.1999C44.532 58.5332 52.6654 69.9999 61.5987 82.3999C70.6654 94.9332 78.2654 106 78.7987 107.067C79.332 108.8 77.0654 109.067 62.7987 108.8C53.5987 108.8 45.9987 108.267 45.9987 107.733C45.9987 107.2 45.1987 107.067 44.2654 107.467C43.332 107.733 40.7987 105.6 38.3987 102.4C29.4654 89.8665 14.532 70.9332 7.86536 63.0665C3.86536 58.6665 0.66536 54.5332 0.66536 53.9999C0.66536 53.4665 4.13203 49.0665 8.26536 44.2665C12.532 39.5999 20.3987 30.1332 25.732 23.4665C42.532 2.5332 43.1987 1.59986 45.5987 1.19986C46.932 0.933197 55.9987 0.799864 65.5987 1.06653Z" fill="black"/>
<path d="M201.331 2.66746C204.931 3.06746 206.664 4.00079 206.664 5.33413C206.664 6.40079 205.864 7.20079 204.931 6.93413C203.864 6.80079 203.331 7.33413 203.731 8.26746C203.997 9.20079 202.397 12.1341 200.131 14.8008C192.797 23.0675 174.664 45.6008 173.464 47.7341C172.797 48.9341 171.064 51.2008 169.731 52.5341C167.197 55.3341 166.531 60.0008 168.664 60.0008C169.331 60.0008 169.997 60.6675 169.997 61.3341C169.997 62.8008 171.331 64.5341 175.597 69.4675C176.931 70.8008 177.997 72.5341 177.997 73.3341C177.997 74.0008 178.531 74.6675 179.331 74.6675C179.997 74.6675 180.664 75.6008 180.664 76.6675C180.664 77.7341 181.197 78.6675 181.731 78.6675C182.397 78.6675 184.531 81.0675 186.797 84.1341C188.931 87.0675 191.997 91.2008 193.597 93.2008C195.197 95.2008 196.931 98.4008 197.331 100.267C197.864 102.267 199.064 104.134 200.131 104.534C201.064 104.934 201.597 106.134 201.197 107.334C200.664 108.534 201.064 109.334 202.131 109.467C203.197 109.467 202.531 110.134 200.664 110.934C195.731 112.934 165.864 113.467 163.331 111.601C162.264 110.667 158.264 105.467 154.664 100.001C150.931 94.5341 147.597 89.7341 147.197 89.3341C146.664 88.9341 142.931 83.6008 138.664 77.3341C134.397 71.0675 129.597 64.2675 127.864 62.2675C123.731 57.3341 123.864 54.4008 128.397 49.0675C130.397 46.6675 134.797 41.0675 137.997 36.6675C141.197 32.2675 144.531 28.0008 145.331 27.2008C145.997 26.4008 151.064 20.6675 156.531 14.2675L166.531 2.93413L175.197 2.13413C184.397 1.33413 192.397 1.60079 201.331 2.66746Z" fill="black"/>
<path d="M143.865 5.60104C142.532 7.33437 141.065 8.93437 140.665 9.33437C140.265 9.73437 135.998 14.801 131.198 20.6677C110.132 46.2677 104.532 53.8677 105.332 55.7344C105.732 56.801 108.532 61.0677 111.465 65.201C131.198 92.5344 140.665 106.268 140.665 107.601C140.665 108.534 141.465 109.334 142.265 109.468C143.198 109.468 142.798 110.001 141.198 110.668C139.732 111.201 130.798 111.734 121.465 111.734C107.198 111.734 103.998 111.468 102.132 109.601C100.932 108.401 94.5318 100.134 87.9984 91.3344C81.4651 82.5344 72.9318 71.0677 69.0651 65.8677C65.1984 60.6677 61.9984 55.7344 61.9984 54.9344C61.9984 54.1344 66.6651 48.1344 72.2651 41.7344C77.9984 35.201 87.7318 23.7344 93.8651 16.2677L105.198 2.6677H125.732H146.398L143.865 5.60104Z" fill="black"/>
</svg>
