<svg width="29" height="39" viewBox="0 0 29 39" fill="none" xmlns="http://www.w3.org/2000/svg">
<path d="M6.29297 38.1553L6.06348 38.3848C5.72486 38.3525 5.72431 38.3532 5.60352 38.2324C5.58915 38.0312 5.58915 38.0306 5.60352 37.8486C5.94484 38.0003 5.94493 38.0006 6.29297 38.1553ZM21.4385 38.2461C21.2561 38.2706 21.0837 38.2678 20.9014 38.2471C20.9945 38.2476 21.0876 38.2482 21.1807 38.249C21.2669 38.2494 21.3531 38.2478 21.4385 38.2461ZM6.34277 12.4814C6.04828 12.5424 5.85306 12.7703 5.60352 13.0186C5.88877 13.0186 6.02249 12.9276 6.26953 12.7881C6.34555 12.7455 6.42168 12.7031 6.5 12.6592C6.55819 12.626 6.61681 12.5928 6.67676 12.5586V12.4814H10.7441C10.3592 12.5462 10.0659 12.7496 9.68457 13.0713C9.54772 13.1818 9.41035 13.2919 9.27344 13.4023C9.20972 13.4548 9.14573 13.5075 9.08008 13.5615C8.84774 13.7491 8.60771 13.9208 8.3623 14.0908C8.41286 14.1161 8.46354 14.1419 8.51562 14.168C8.73107 14.0677 8.73136 14.0677 8.97559 13.9209C9.02124 13.8946 9.06722 13.868 9.11426 13.8408C9.26127 13.7558 9.40819 13.6699 9.55469 13.584C9.65149 13.5277 9.74883 13.4712 9.8457 13.415C9.98705 13.3331 10.1284 13.2511 10.2695 13.1689C10.6274 12.9607 10.9883 12.7573 11.3516 12.5586V12.4814H27.4453C27.4453 12.8251 27.4522 13.1703 27.4229 13.5127C27.411 13.6001 27.3992 13.6856 27.3877 13.7705C27.3738 13.8743 27.3597 13.9782 27.3457 14.082C27.3153 14.302 27.2855 14.522 27.2568 14.7422C27.2311 14.9411 27.205 15.14 27.1787 15.3389C27.1652 15.4403 27.1521 15.5421 27.1387 15.6436C27.1193 15.7938 27.1196 15.7942 27.1006 15.9414C27.0876 16.0372 27.0751 16.1307 27.0625 16.2236C27.0511 16.3099 27.0394 16.3938 27.0283 16.4775C27.0153 16.5436 27.0014 16.6023 26.9873 16.6562C26.9975 16.4916 26.9973 16.4796 26.9854 16.3135C26.8486 16.3135 26.7452 16.415 26.6338 16.4883C26.5748 16.5269 26.5149 16.5657 26.4541 16.6055C26.3568 16.6695 26.357 16.6701 26.2578 16.7354C25.647 17.1349 25.0331 17.53 24.418 17.9229C24.2568 18.0262 24.0958 18.13 23.9346 18.2334C23.6242 18.4322 23.3123 18.6295 23 18.8252C22.8597 18.9141 22.7194 19.0029 22.5791 19.0918C22.5141 19.132 22.4488 19.1725 22.3818 19.2139C22.2933 19.2703 22.2933 19.2706 22.2031 19.3281C22.1515 19.3605 22.0991 19.3925 22.0459 19.4258C21.9014 19.5555 21.879 19.6497 21.8506 19.8389C21.8677 19.0665 21.853 18.2995 21.8037 17.5283C21.797 17.4298 21.7897 17.3339 21.7832 17.2383C21.777 17.1415 21.7716 17.0471 21.7656 16.9531C21.7558 16.8181 21.7557 16.8179 21.7461 16.6855C21.7254 16.3941 21.6927 16.1839 21.5439 15.9307C21.2733 15.9693 21.2731 15.9689 21.0078 16.0068C21.0378 17.251 20.9589 18.4748 20.8418 19.7129C20.8211 19.9312 20.8002 20.1498 20.7803 20.3682C20.6409 21.8935 20.4888 23.4179 20.3311 24.9414C20.0616 27.5426 19.8312 30.1211 19.8438 32.7393C19.8441 32.7906 19.8454 32.8408 19.8457 32.8906C19.8481 33.2732 19.8799 33.6098 19.9922 33.9756C20.0132 34.0369 20.0342 34.0967 20.0547 34.1562C20.0911 34.2631 20.1281 34.3699 20.165 34.4766C20.2952 34.4505 20.4215 34.4257 20.5479 34.4004C20.6101 33.0404 20.6923 31.6848 20.8389 30.3311C20.8459 30.2668 20.8526 30.204 20.8594 30.1416C20.8792 29.9583 20.8994 29.775 20.9199 29.5918C20.9264 29.5346 20.9322 29.4784 20.9385 29.4229C20.9585 29.2418 20.9814 29.0621 21.0078 28.8818C21.0564 28.8125 21.0909 28.7652 21.1211 28.7275C21.1662 28.7245 21.1926 28.7089 21.3271 28.626C21.3228 28.6347 21.3188 28.6436 21.3145 28.6523C21.3902 28.6271 21.466 28.6022 21.5439 28.5762C21.5176 28.563 21.4914 28.5494 21.4648 28.5361C21.5093 28.5072 21.5542 28.4791 21.5986 28.4502C21.6311 28.4664 21.664 28.4824 21.6973 28.499C21.8939 28.4101 21.8942 28.4104 22.1172 28.2764C22.2042 28.2262 22.2912 28.1757 22.3809 28.124C22.4756 28.0686 22.5704 28.0135 22.665 27.958C22.7614 27.9021 22.8577 27.8459 22.9541 27.79C23.1524 27.6751 23.3508 27.5599 23.5488 27.4443C23.7842 27.3071 24.0203 27.1712 24.2568 27.0361C24.4671 26.916 24.6777 26.7945 24.8877 26.6738C24.9656 26.6295 25.0438 26.5857 25.124 26.54C25.1956 26.4986 25.2671 26.4568 25.3408 26.4141C25.4034 26.3781 25.4658 26.3417 25.5303 26.3047C25.7019 26.1999 25.7025 26.1989 25.832 25.9746C25.8165 26.847 25.7187 27.7329 25.6055 28.5947C25.5498 29.0051 25.5074 29.4146 25.4717 29.8271C25.4274 30.3455 25.3874 30.8606 25.2949 31.373C25.2525 31.6019 25.2201 31.8234 25.2012 32.0557C25.1507 32.8707 25.0255 33.6442 24.8564 34.4424C24.8393 34.5224 24.8223 34.6 24.8057 34.6777C24.585 35.7162 24.3585 36.7607 23.6143 37.5615C22.982 38.1115 22.2311 38.2306 21.4385 38.2461C21.4731 38.2414 21.5085 38.2393 21.5439 38.2324C21.8405 38.0016 22.027 37.6983 22.2334 37.3887C22.0374 37.3888 21.9491 37.4545 21.7803 37.5537C21.722 37.5879 21.6635 37.622 21.6035 37.6572C21.5124 37.7114 21.5128 37.7123 21.4199 37.7676C21.3585 37.8035 21.2967 37.839 21.2334 37.876C21.0027 38.011 21.0023 38.0112 20.7773 38.1553V38.2324C20.8191 38.2385 20.8607 38.2424 20.9014 38.2471C20.8285 38.2466 20.7555 38.2462 20.6826 38.2461C20.2357 38.2461 19.7914 38.2541 19.3477 38.1943C19.2488 38.1793 19.1881 38.1706 19.1396 38.1641C19.2728 38.1734 19.4078 38.1727 19.5518 38.1553C19.8786 37.9445 20.1255 37.6673 20.3945 37.3887C20.5476 37.2604 20.7027 37.1346 20.8594 37.0107C21.0833 36.8337 21.2315 36.7083 21.3906 36.4697C21.1674 36.4698 21.0393 36.5746 20.8477 36.6875C20.7686 36.7338 20.6888 36.7804 20.6074 36.8281C20.5245 36.8772 20.4419 36.927 20.3564 36.9775C20.276 37.0248 20.1952 37.0715 20.1123 37.1201C19.8742 37.2601 19.6361 37.4011 19.3984 37.542C19.3223 37.5866 19.2455 37.6318 19.167 37.6777C19.0971 37.719 19.0271 37.7603 18.9551 37.8027C18.8926 37.8394 18.83 37.8763 18.7656 37.9141C18.7215 37.9431 18.6773 37.972 18.6318 38.002V38.0791C18.7586 38.1114 18.8798 38.1335 19 38.1494C18.9718 38.1471 18.9391 38.1437 18.8975 38.1406C18.8372 38.1382 18.7782 38.1361 18.7197 38.1338C18.5867 38.128 18.4534 38.1225 18.3203 38.1172C18.2183 38.1131 18.2182 38.1134 18.1182 38.1094C18.0509 38.1064 17.9852 38.1035 17.9199 38.1006C17.7995 38.0958 17.6788 38.0886 17.5586 38.0791C17.2017 38.0127 16.8552 37.9853 16.4932 37.9707C16.412 37.9678 16.3327 37.9647 16.2539 37.9619C15.2415 37.924 14.2288 37.897 13.2158 37.8779C13.1147 37.8761 13.0161 37.8748 12.918 37.873C11.4612 37.8454 10.01 37.8378 8.55566 37.9434C8.18461 37.9712 7.81454 37.9969 7.44238 38.002C6.86318 37.9557 6.39755 37.8763 5.97363 37.4531C5.9211 37.3891 5.87033 37.3268 5.81934 37.2646C5.52763 36.92 5.44816 36.5978 5.37402 36.1631C5.39929 36.2641 5.42417 36.3656 5.4502 36.4697C5.73789 36.3642 5.98234 36.2319 6.23926 36.0654C6.31702 36.0153 6.39449 35.9647 6.47461 35.9131C6.59819 35.8328 6.59854 35.8329 6.72461 35.751C6.8962 35.64 7.0676 35.5288 7.23926 35.418C7.28205 35.3903 7.32505 35.3625 7.36914 35.334C7.64406 35.1565 7.92103 34.9819 8.19922 34.8096C8.26678 34.7676 8.33469 34.7258 8.4043 34.6826C8.53094 34.6042 8.65798 34.5258 8.78516 34.4482C8.92779 34.3596 9.06679 34.2652 9.20508 34.1699V34.0947C9.25837 34.2693 9.3299 34.4407 9.4248 34.6094C9.42858 34.6161 9.4317 34.6232 9.43555 34.6299C9.70155 34.6679 9.80518 34.6388 10.0342 34.4912C10.2725 34.144 10.2727 34.1438 10.1582 32.7969C10.1392 32.5835 10.1221 32.3697 10.1045 32.1562C10.4765 32.0199 10.8033 31.8097 11.1406 31.6025C11.2356 31.5453 11.236 31.5458 11.333 31.4873C11.3933 31.4505 11.4536 31.413 11.5156 31.375C11.5704 31.3415 11.6252 31.3079 11.6816 31.2734C11.8222 31.1882 11.8225 31.1885 11.8877 31.0283C11.5364 31.0284 11.1771 31.3419 10.8818 31.5166C10.8021 31.5628 10.7227 31.6096 10.6406 31.6572C10.5654 31.7016 10.4897 31.7453 10.4121 31.791C10.3425 31.8319 10.2729 31.8738 10.2012 31.916C10.1647 31.9421 10.1279 31.9677 10.0908 31.9941C10.0578 31.5864 10.0258 31.1785 9.99609 30.7705C10.0133 30.8049 10.0311 30.8396 10.0488 30.875L10.5088 30.5684C10.4583 30.5431 10.4075 30.5172 10.3555 30.4912C10.1619 30.5938 10.154 30.5978 9.99121 30.708C9.98167 30.5766 9.97222 30.4449 9.96289 30.3135C9.95852 30.2519 9.95443 30.1916 9.9502 30.1318C9.93352 29.8971 9.91605 29.6625 9.89941 29.4277L9.97168 29.5723L10.2021 29.3418C10.0445 29.3305 10.0425 29.3301 9.89844 29.416C9.89295 29.3386 9.88829 29.261 9.88281 29.1836C9.8539 28.7745 9.82498 28.3651 9.7959 27.9561C9.7571 27.4105 9.71743 26.8649 9.67871 26.3193C9.6993 26.3811 9.72099 26.4433 9.74219 26.5068C10.7429 25.8625 10.743 25.8623 11.7344 25.2041C11.6838 25.1788 11.6332 25.153 11.5811 25.127C11.3945 25.2085 11.3944 25.2088 11.1865 25.332C11.1082 25.3765 11.029 25.4209 10.9482 25.4668C10.8664 25.5141 10.7845 25.5616 10.7002 25.6104C10.6181 25.6569 10.5357 25.704 10.4512 25.752C10.0369 25.9776 10.0325 25.9795 9.67578 26.2676C9.63249 25.6576 9.58909 25.0475 9.5459 24.4375C9.49951 23.7822 9.45385 23.1269 9.40723 22.4717C9.3825 22.1244 9.35754 21.777 9.33301 21.4297C9.20187 19.57 9.05899 17.711 8.89941 15.8535L8.89844 15.8525L8.67676 15.8447C8.43822 15.8529 8.43789 15.8532 8.2998 15.9844C8.05624 16.4496 8.03696 16.9923 8.0332 17.5088C8.03352 17.5791 8.03388 17.6476 8.03418 17.7158C8.03352 17.9455 8.03327 18.1756 8.03418 18.4053C8.03459 18.4869 8.03574 18.5663 8.03613 18.6455C8.03904 19.8978 8.06085 21.1397 8.18652 22.3867C8.20077 22.5252 8.21514 22.6641 8.22852 22.8027C8.25291 23.0583 8.27709 23.314 8.30371 23.5693C8.33127 23.8311 8.3581 24.0933 8.38184 24.3555C8.38883 24.4355 8.39555 24.5132 8.40234 24.5908C8.40645 24.6377 8.41094 24.6846 8.41504 24.7314L8.28613 24.667L8.05566 24.8975C8.10548 24.8775 8.15503 24.856 8.20508 24.8359C8.15276 24.8641 8.08981 24.9022 8.00977 24.9502C7.97452 24.9326 7.93855 24.9156 7.90234 24.8975C7.69988 24.9899 7.6995 24.9898 7.46973 25.1279C7.42629 25.1529 7.38264 25.1783 7.33789 25.2041C7.19539 25.2863 7.05308 25.3699 6.91113 25.4531C6.81393 25.5097 6.71639 25.5656 6.61914 25.6221C6.47229 25.7073 6.32537 25.7933 6.17871 25.8789C5.88478 26.0503 5.58904 26.2176 5.29102 26.3818C5.22343 26.4195 5.15557 26.4573 5.08594 26.4961C4.96116 26.5654 4.83569 26.6345 4.70996 26.7021C4.52684 26.8015 4.52661 26.8016 4.30078 26.9668V27.2725L4.19824 26.6553C3.96879 25.2136 3.80713 23.7649 3.66699 22.3105C3.5944 21.5314 3.50535 20.7573 3.39551 19.9824C3.24495 18.9262 3.11849 17.8676 2.99707 16.8076C2.98098 16.667 2.96455 16.5263 2.94824 16.3857C2.94046 16.3187 2.93236 16.2536 2.9248 16.1885C2.90078 15.9741 2.87475 15.7605 2.84473 15.5469C2.74432 15.248 2.74399 15.2479 2.73438 14.9248C2.72465 14.7489 2.71008 14.5727 2.69141 14.3975C2.49164 13.6788 2.491 13.6783 2.46094 12.4814H6.34277ZM19 38.1494C19.0526 38.1537 19.0896 38.1574 19.1396 38.1641C19.0929 38.1608 19.0466 38.1556 19 38.1494ZM19.2451 36.3164C19.0445 36.4092 19.0444 36.4092 18.8184 36.5469C18.6891 36.6224 18.6886 36.6221 18.5566 36.6992C18.4651 36.7534 18.3737 36.808 18.2822 36.8623C18.1928 36.9148 18.1031 36.9671 18.0137 37.0195C17.8403 37.1211 17.6673 37.2233 17.4941 37.3252C17.1864 37.5046 16.8751 37.678 16.5625 37.8486V37.9258C16.8545 37.9961 17.1264 38.0573 17.4092 37.9336C17.5644 37.8267 17.7081 37.712 17.8516 37.5898C17.9573 37.5051 18.0632 37.4206 18.1689 37.3359C18.2208 37.2933 18.2728 37.2509 18.3262 37.207C18.5507 37.0245 18.782 36.8517 19.0146 36.6797C19.126 36.5962 19.1267 36.5968 19.2402 36.5117C19.2924 36.4726 19.3447 36.4329 19.3984 36.3926C19.3479 36.3673 19.2972 36.3424 19.2451 36.3164ZM11.2744 35.3965C11.0436 35.3966 10.9013 35.5123 10.7021 35.627C10.6152 35.6768 10.528 35.727 10.4385 35.7783C10.3438 35.833 10.2489 35.8876 10.1543 35.9424C10.0578 35.998 9.96076 36.0538 9.86426 36.1094C9.66601 36.2236 9.46754 36.3375 9.26953 36.4521C9.07918 36.5623 8.88896 36.6727 8.69824 36.7822C8.44419 36.9282 8.1902 37.0751 7.93652 37.2217C7.85919 37.2661 7.78182 37.3107 7.70215 37.3564C7.63083 37.3979 7.55883 37.4388 7.48535 37.4814C7.42322 37.5174 7.36089 37.5538 7.29688 37.5908C7.14514 37.69 7.0284 37.7925 6.90625 37.9258C7.51283 37.9994 7.83241 37.7688 8.31934 37.4277C8.47422 37.3227 8.62912 37.2171 8.78418 37.1123C8.86468 37.0574 8.94538 37.0028 9.02832 36.9463C9.28982 36.7707 9.55408 36.5999 9.82031 36.4316C9.86432 36.4038 9.90876 36.3763 9.9541 36.3477C10.169 36.2119 10.3844 36.0766 10.5996 35.9414C10.6767 35.8925 10.7536 35.8433 10.833 35.793C10.9359 35.7281 10.9361 35.7272 11.041 35.6611C11.2065 35.5615 11.2067 35.5617 11.2744 35.3965ZM17.8652 35.8564C17.6275 35.8565 17.4734 35.9829 17.2686 36.1006C17.2242 36.1259 17.1795 36.1506 17.1338 36.1768C16.9895 36.2594 16.8451 36.3426 16.7012 36.4258C16.6031 36.4822 16.5053 36.5393 16.4072 36.5957C15.8891 36.8941 15.3713 37.1934 14.8574 37.499C14.811 37.5264 14.7646 37.5538 14.7168 37.582C14.6154 37.643 14.516 37.7077 14.417 37.7725V37.8486C14.9383 37.8991 15.2513 37.8366 15.6328 37.5723L16.1367 37.1943C16.1936 37.1508 16.251 37.1074 16.3096 37.0625C16.6601 36.7987 17.0238 36.5529 17.3848 36.3037C17.4366 36.2674 17.4886 36.2308 17.542 36.1934C17.6108 36.1456 17.6114 36.1455 17.6816 36.0967C17.8008 36.0124 17.8006 36.012 17.8652 35.8564ZM15.4902 34.9365C15.2961 35.0242 15.2954 35.0245 15.0752 35.1572C14.9892 35.2069 14.9031 35.2565 14.8145 35.3076C14.7204 35.3627 14.6262 35.4176 14.5322 35.4727C14.4358 35.5285 14.3386 35.5849 14.2422 35.6406C14.0425 35.7562 13.8429 35.8721 13.6436 35.9883C13.268 36.2071 12.8913 36.4245 12.5146 36.6416C12.3471 36.7382 12.1791 36.8347 12.0117 36.9316C11.5641 37.1906 11.1143 37.4461 10.6611 37.6953V37.7725C11.4816 37.8851 11.9574 37.5948 12.5918 37.126C12.6843 37.0601 12.7773 36.9942 12.8701 36.9287C13.061 36.7937 13.2508 36.6572 13.4404 36.5205C13.8516 36.2253 14.2717 35.9432 14.6914 35.6602C14.8945 35.5231 15.0973 35.385 15.2998 35.2471C15.3663 35.2018 15.4325 35.156 15.501 35.1094C15.5476 35.0776 15.5945 35.0464 15.6426 35.0137C15.5922 34.9885 15.5422 34.9625 15.4902 34.9365ZM10.7383 34.3232C10.5416 34.4121 10.5414 34.4128 10.3184 34.5469C10.2315 34.5969 10.1442 34.6467 10.0547 34.6982C9.95996 34.7537 9.86521 34.8098 9.77051 34.8652C9.67366 34.9213 9.5764 34.9772 9.47949 35.0332C9.23141 35.1768 8.98384 35.3212 8.73633 35.4658C8.51563 35.5946 8.29419 35.7232 8.07324 35.8516C7.70416 36.0663 7.33524 36.2813 6.9668 36.4971C6.58926 36.718 6.21092 36.9389 5.83301 37.1592L6.13965 37.4658C6.21144 37.4192 6.28345 37.3722 6.35742 37.3242C7.03213 36.8867 7.70909 36.4525 8.38672 36.0195C9.2245 35.4841 10.059 34.9439 10.8916 34.4004C10.8157 34.3625 10.8157 34.3619 10.7383 34.3232ZM9.05176 32.874C9.05543 33.2433 9.08129 33.6031 9.16895 33.9531C9.16967 33.956 9.17016 33.959 9.1709 33.9619C9.136 33.9858 9.10049 34.0087 9.06543 34.0322C8.93188 34.0623 8.82311 34.1336 8.69824 34.209C8.78731 34.1684 8.87668 34.1297 8.96973 34.0957C8.47753 34.4208 7.97163 34.7182 7.45703 35.0088C7.31867 35.0872 7.18029 35.1656 7.04199 35.2441C6.95123 35.2957 6.86037 35.3471 6.76953 35.3984C6.54603 35.5251 6.32342 35.653 6.10254 35.7842C5.97842 35.8578 5.97819 35.8585 5.85156 35.9336C5.77791 35.9777 5.70381 36.0219 5.62793 36.0674C5.488 36.1426 5.45821 36.1578 5.37695 36.1611C5.35509 36.162 5.32935 36.1631 5.29688 36.1631C5.22443 35.9003 5.18866 35.6685 5.2207 35.3965C5.40152 35.1505 5.65129 35.0163 5.91016 34.8604C6.00139 34.8027 6.09261 34.7446 6.18359 34.6865C6.38929 34.5561 6.59617 34.4273 6.80371 34.2998C7.20147 34.0547 7.59292 33.7999 7.98438 33.5449C8.2484 33.3732 8.51313 33.2026 8.7793 33.0342C8.82978 33.0022 8.88061 32.9704 8.93262 32.9375C8.99668 32.9002 9.02617 32.8821 9.05176 32.874ZM17.8652 35.8564C17.9411 35.8312 18.0175 35.8054 18.0957 35.7793C18.0452 35.754 17.9944 35.7291 17.9424 35.7031C17.9171 35.7537 17.8913 35.8043 17.8652 35.8564ZM23.7666 35.4727C23.8425 35.5106 23.8425 35.5111 23.9199 35.5498C24.1105 35.4561 24.1103 35.4556 24.3125 35.3242C24.3822 35.2809 24.4526 35.238 24.5244 35.1934C24.5779 35.1593 24.6314 35.1249 24.6865 35.0898C24.6612 34.9887 24.6354 34.8874 24.6094 34.7832C24.1922 35.1245 24.1921 35.1245 23.7666 35.4727ZM11.2744 35.3965C11.4009 35.3459 11.5279 35.2953 11.6582 35.2432C11.6077 35.2179 11.5569 35.193 11.5049 35.167C11.429 35.2428 11.3526 35.3183 11.2744 35.3965ZM8.69824 34.209C8.58256 34.2617 8.46814 34.3195 8.35254 34.3877C8.27883 34.4309 8.20485 34.474 8.12891 34.5186C8.01227 34.5879 8.01242 34.5885 7.89355 34.6592C7.77301 34.7302 7.7724 34.7303 7.64941 34.8027C7.38978 34.9559 7.13203 35.1123 6.87305 35.2666C7.1728 35.09 7.47282 34.9138 7.77441 34.7402C7.87152 34.6845 7.96834 34.628 8.06543 34.5723C8.20686 34.4906 8.3485 34.4093 8.49023 34.3281C8.53487 34.3026 8.57875 34.2777 8.62207 34.2529C8.6481 34.238 8.67371 34.2238 8.69824 34.209ZM15.6426 34.9365C15.7184 34.9112 15.7949 34.8864 15.873 34.8604C15.8225 34.8351 15.7718 34.8093 15.7197 34.7832C15.6944 34.8338 15.6686 34.8844 15.6426 34.9365ZM9.04102 31.4883C9.0508 31.7691 9.05675 32.0506 9.05371 32.333C9.05256 32.4318 9.05343 32.5302 9.05273 32.6279C9.00749 32.6762 8.94501 32.7216 8.84766 32.7881C8.71284 32.8675 8.57643 32.9448 8.43945 33.0205C8.31916 33.0908 8.31893 33.0914 8.19629 33.1631C7.92579 33.3207 7.65343 33.475 7.38086 33.6289C7.24239 33.7074 7.10325 33.7856 6.96484 33.8643C6.87407 33.9158 6.78326 33.9672 6.69238 34.0186C6.46947 34.1447 6.24792 34.2734 6.02832 34.4053C5.94633 34.4543 5.86377 34.5032 5.7793 34.5537C5.67031 34.6198 5.67001 34.6199 5.55859 34.6875C5.37336 34.783 5.3734 34.7832 5.14355 34.7832C5.09042 34.488 5.07619 34.2342 5.14355 33.9404C5.38135 33.677 5.67334 33.5228 5.98145 33.3516C6.11153 33.2742 6.24217 33.1968 6.37207 33.1191C6.508 33.0383 6.64453 32.9584 6.78125 32.8789C7.06175 32.7144 7.33588 32.5406 7.6084 32.3633C7.65226 32.3348 7.69602 32.3057 7.74121 32.2764C7.87009 32.1925 7.99914 32.1085 8.12793 32.0244C8.28791 31.9203 8.44787 31.8162 8.6084 31.7129C8.67564 31.6693 8.74322 31.6259 8.8125 31.5811C8.93661 31.5101 8.96617 31.4923 9.04102 31.4883ZM9.89844 29.4258C9.91511 29.661 9.9325 29.8966 9.94922 30.1318C9.95344 30.1915 9.95756 30.2511 9.96191 30.3125C10.0017 30.8732 10.0454 31.4339 10.0908 31.9941C10.0769 32.0041 10.063 32.0143 10.0488 32.0244V32.1777C10.0674 32.1714 10.0852 32.163 10.1035 32.1562C10.1211 32.3694 10.1383 32.5828 10.1572 32.7959C10.2718 34.1429 10.2715 34.143 10.0332 34.4902C9.80418 34.6378 9.70059 34.6669 9.43457 34.6289C9.43094 34.6226 9.42836 34.6157 9.4248 34.6094C9.32985 34.4404 9.25832 34.2687 9.20508 34.0938V34.0947C9.19778 34.0708 9.19219 34.0465 9.18555 34.0225H9.18652C9.08392 33.6509 9.05661 33.2676 9.05273 32.874H9.05176C9.05095 32.7924 9.05215 32.7104 9.05273 32.6279L9.05371 32.627C9.05441 32.5298 9.05354 32.4321 9.05469 32.334C9.06243 31.6152 9.02085 30.9036 8.96875 30.1875C8.96648 30.1563 8.96422 30.1249 8.96191 30.0938C8.96041 30.0733 8.9595 30.0527 8.95801 30.0322C8.94416 29.8422 8.93117 29.652 8.91797 29.4619C8.86763 28.7558 8.80103 28.0574 8.70117 27.3564C8.69067 27.2799 8.68405 27.2032 8.67578 27.127H8.6748C8.6655 27.0413 8.65641 26.9559 8.64941 26.8701C8.64009 26.7558 8.63235 26.641 8.62598 26.5254C8.61146 26.2658 8.59792 26.0633 8.51562 25.8164C8.50108 25.7044 8.48998 25.592 8.48047 25.4795C8.47166 25.3785 8.47088 25.3782 8.46191 25.2754C8.45584 25.2028 8.4506 25.1295 8.44434 25.0547C8.4362 24.9609 8.42713 24.8672 8.41895 24.7734C8.42533 24.7648 8.42983 24.756 8.43457 24.7471C8.42871 24.7478 8.42303 24.7499 8.41699 24.751C8.42338 24.7484 8.43012 24.7467 8.43652 24.7441C8.43599 24.7452 8.43513 24.746 8.43457 24.7471C8.46083 24.7439 8.48595 24.7441 8.51562 24.7441C8.52026 24.8188 8.5255 24.8938 8.53027 24.9707C8.53668 25.068 8.54223 25.1654 8.54883 25.2656C8.55505 25.3625 8.56195 25.4597 8.56836 25.5596C8.58279 25.8161 8.58249 25.8163 8.66895 26.0469C8.67419 26.192 8.67554 26.3372 8.67383 26.4824C8.67314 26.5585 8.67259 26.6346 8.67188 26.7129C8.67099 26.7711 8.66986 26.8297 8.66895 26.8896C8.66323 26.8928 8.65709 26.8953 8.65137 26.8984C8.65779 26.9747 8.66751 27.0507 8.67578 27.127C8.69715 27.1207 8.71561 27.1191 8.74609 27.1191C8.84771 27.8325 8.94311 28.5452 8.97559 29.2656C8.98535 29.3256 8.99482 29.3855 9.00488 29.4473C9.02859 29.6632 9.03189 29.8219 8.97559 30.0322C8.97042 30.0375 8.9642 30.0417 8.95898 30.0469C8.96015 30.0628 8.96172 30.0788 8.96289 30.0947C8.96517 30.1256 8.9665 30.1566 8.96875 30.1875C8.99284 30.1857 9.01978 30.1846 9.05273 30.1846V31.335C9.04732 31.338 9.04154 31.3407 9.03613 31.3438C9.03811 31.3919 9.03934 31.4401 9.04102 31.4883C9.06439 31.487 9.09242 31.4883 9.12891 31.4883C9.14761 31.657 9.16083 31.8267 9.17188 31.9961C9.18384 32.137 9.18406 32.1372 9.19629 32.2812C9.15114 32.4687 9.12336 32.5521 9.05371 32.627C9.05312 32.7097 9.05193 32.7921 9.05273 32.874C9.07465 32.8673 9.09371 32.8672 9.12891 32.8672C9.16684 33.3983 9.16638 33.3986 9.20508 33.9404C9.194 33.9481 9.18199 33.9543 9.1709 33.9619C9.17559 33.9804 9.17951 33.9991 9.18457 34.0176C9.19134 34.0174 9.19817 34.0166 9.20508 34.0166C9.19887 34.0185 9.1927 34.0205 9.18652 34.0225C9.19305 34.0461 9.19791 34.0702 9.20508 34.0938V34.0166C9.28325 34.199 9.35968 34.3767 9.43555 34.5537C9.66764 34.5795 9.79108 34.5695 9.99609 34.4531C10.1954 34.1357 10.1948 34.1353 10.082 32.8105C10.0051 31.9464 9.94115 31.0811 9.87891 30.2158C9.87169 30.1154 9.87134 30.1152 9.86426 30.0166C9.83395 29.5957 9.80358 29.1748 9.77344 28.7539C9.75743 28.5303 9.74161 28.3066 9.72559 28.083C9.66911 27.2954 9.61295 26.5074 9.55664 25.7197C9.50426 24.987 9.45115 24.2542 9.39844 23.5215C9.35251 22.883 9.3064 22.244 9.26074 21.6055C9.23357 21.2251 9.20707 20.8442 9.17969 20.4639C9.07514 19.0141 8.96439 17.565 8.9082 16.1123C8.90535 16.0308 8.90218 15.9512 8.89941 15.8721C9.05833 17.7232 9.20134 19.5754 9.33203 21.4287C9.35657 21.7761 9.38152 22.1234 9.40625 22.4707C9.45287 23.1259 9.49853 23.7813 9.54492 24.4365C9.58813 25.0469 9.63149 25.6573 9.6748 26.2676C9.67145 26.2703 9.66845 26.2736 9.66504 26.2764C9.66976 26.2905 9.67399 26.3052 9.67871 26.3193C9.71741 26.8646 9.75615 27.4098 9.79492 27.9551C9.82401 28.3642 9.85292 28.7735 9.88184 29.1826C9.88734 29.2604 9.89292 29.3382 9.89844 29.416C9.8973 29.4167 9.89667 29.4183 9.89551 29.4189C9.89661 29.4212 9.89733 29.4236 9.89844 29.4258ZM14.8291 15.8447C14.5985 15.8569 14.5042 15.9143 14.4756 16.1514C14.4764 16.2121 14.4777 16.2711 14.4785 16.3301C14.479 16.4001 14.479 16.4682 14.4795 16.5361C14.4821 16.6913 14.4841 16.8468 14.4854 17.002C14.486 17.0875 14.4867 17.1708 14.4873 17.2539C14.5037 18.7609 14.4974 20.2645 14.4385 21.7705C14.3567 23.8194 14.3249 25.8645 14.3252 27.915C14.3253 28.139 14.3253 28.363 14.3252 28.5869C14.325 28.9452 14.3255 29.3038 14.3262 29.6621C14.3265 29.7969 14.3268 29.9316 14.3271 30.0664C14.3278 31.1563 14.3089 32.2721 14.4941 33.3496C14.5083 33.4253 14.5085 33.4258 14.5225 33.5C14.5824 33.8657 14.6537 34.172 14.877 34.4766C15.0298 34.553 15.0299 34.5537 15.1826 34.5537C15.3487 34.4298 15.4069 34.3611 15.4395 34.1543C15.4385 34.086 15.4375 34.0194 15.4365 33.9531C15.436 33.8745 15.4361 33.798 15.4355 33.7217C15.4338 33.6356 15.4314 33.5514 15.4297 33.4678C15.4281 33.2859 15.4273 33.1037 15.4258 32.9219C15.4184 32.3577 15.4131 31.7937 15.4111 31.2295C15.411 31.1751 15.4113 31.1222 15.4111 31.0693C15.4076 30.1252 15.4282 29.1836 15.4678 28.2402C15.5546 26.2261 15.5814 24.216 15.5811 22.2002C15.581 21.9689 15.581 21.7372 15.5811 21.5059C15.5812 21.1354 15.5808 20.765 15.5801 20.3945C15.5798 20.2553 15.5794 20.1158 15.5791 19.9766C15.5785 18.7927 15.6558 17.486 15.2715 16.3525C15.1609 16.1016 15.0859 15.9549 14.8291 15.8447ZM24.9932 33.1738C24.8483 33.1738 24.7339 33.3069 24.624 33.3916C24.5655 33.4366 24.5066 33.482 24.4463 33.5283C24.3848 33.5758 24.3231 33.6229 24.2598 33.6719C24.1671 33.7431 24.1668 33.7437 24.0723 33.8164C23.9192 33.9342 23.7661 34.0519 23.6133 34.1699C23.6892 34.2079 23.6892 34.2084 23.7666 34.2471C23.9672 34.1483 24.1544 34.0451 24.3457 33.9307C24.3991 33.9007 24.4528 33.8707 24.5078 33.8398C24.8253 33.658 24.8259 33.6575 24.9902 33.3418C24.9911 33.2864 24.9923 33.2309 24.9932 33.1738ZM9.18555 34.0225C9.11147 34.0455 9.03985 34.07 8.96973 34.0957C9.00166 34.0746 9.03363 34.0536 9.06543 34.0322C9.10293 34.0238 9.14237 34.0189 9.18457 34.0176C9.18501 34.0192 9.18511 34.0209 9.18555 34.0225ZM8.96875 30.1875C8.99684 30.5737 9.02033 30.9585 9.03613 31.3438C8.92471 31.4057 8.81302 31.4675 8.69824 31.5312C7.7506 32.0593 6.80768 32.594 5.87402 33.1465C5.80155 33.1892 5.72896 33.2324 5.6543 33.2764C5.59077 33.314 5.52736 33.3518 5.46191 33.3906C5.29746 33.4807 5.29695 33.4801 5.06738 33.5566C4.92705 33.2758 4.91318 33.017 4.99023 32.7139C5.13176 32.5801 5.13228 32.5804 5.32129 32.458C5.39104 32.4122 5.46134 32.3656 5.5332 32.3184C5.60696 32.2719 5.68084 32.2256 5.75684 32.1777C5.82761 32.1325 5.89876 32.0876 5.97168 32.041C6.19453 31.9001 6.41818 31.7606 6.64258 31.6221C7.27224 31.2317 7.89884 30.8372 8.51562 30.4268C8.81127 30.2323 8.86883 30.1948 8.96875 30.1875ZM10.2783 33.4805C10.3036 33.4299 10.3294 33.3793 10.3555 33.3271H10.2021C10.2274 33.3777 10.2523 33.4284 10.2783 33.4805ZM25.2227 31.6416C25.0294 31.6417 24.791 31.8976 24.6338 32.0146C24.2212 32.3197 23.8066 32.6222 23.3887 32.9199C23.3421 32.9531 23.295 32.9863 23.2471 33.0205C23.1394 33.0972 23.0316 33.1744 22.9238 33.251C22.9743 33.2762 23.0251 33.3011 23.0771 33.3271C23.3724 33.1954 23.6512 33.0315 23.9316 32.8711C24.0719 32.7914 24.2138 32.7138 24.3555 32.6367C24.445 32.586 24.5347 32.5354 24.624 32.4844C24.7056 32.4386 24.7871 32.3928 24.8711 32.3457C25.1214 32.1337 25.1607 31.9581 25.2227 31.6416ZM8.7002 27.3555C8.80006 28.0565 8.86666 28.7548 8.91699 29.4609C8.93022 29.6514 8.94413 29.8418 8.95801 30.0322C8.95836 30.0371 8.95863 30.042 8.95898 30.0469C8.73285 30.2713 8.46483 30.4009 8.18066 30.5439C8.01278 30.6347 7.84456 30.7255 7.67676 30.8164C7.58865 30.8629 7.50093 30.9101 7.41016 30.958C7.12977 31.1072 6.85482 31.2649 6.58105 31.4258C6.53592 31.4523 6.49084 31.4796 6.44434 31.5068C6.31096 31.5852 6.17727 31.6638 6.04395 31.7422C5.87789 31.8397 5.71153 31.9367 5.54492 32.0332C5.47476 32.0741 5.40432 32.1151 5.33203 32.1572C5.14373 32.2543 5.14334 32.2544 4.83691 32.3311C4.78634 31.8 4.7357 31.2688 4.68359 30.7217C4.91121 30.5699 5.13951 30.4181 5.37402 30.2617C5.28872 30.3123 5.20312 30.363 5.11523 30.415C4.85658 30.5683 4.85603 30.5684 4.68359 30.5684C4.58676 30.2778 4.5258 30.0237 4.60742 29.7256C4.79747 29.5209 5.02774 29.3941 5.26855 29.2559C5.40909 29.1701 5.54991 29.0838 5.69043 28.998C5.76393 28.9543 5.83736 28.9103 5.91309 28.8652C6.28888 28.6391 6.65728 28.401 7.02637 28.1641C7.22518 28.0376 7.424 27.9112 7.62305 27.7852C7.76908 27.6923 7.91502 27.5985 8.06055 27.5049C8.13712 27.4557 8.21407 27.4071 8.29297 27.3564C8.36306 27.3113 8.43267 27.2653 8.50488 27.2188C8.60259 27.1594 8.64263 27.1366 8.6748 27.127C8.68305 27.2029 8.68973 27.2792 8.7002 27.3555ZM25.4521 29.3418C25.2083 29.342 25.0651 29.4898 24.8662 29.626C24.8227 29.6556 24.7792 29.6853 24.7344 29.7158C24.592 29.8129 24.4496 29.9102 24.3076 30.0078C24.2104 30.0743 24.1129 30.1406 24.0156 30.207C23.7732 30.3727 23.5312 30.5389 23.2891 30.7051C23.0887 30.8425 22.8881 30.9802 22.6875 31.1172C22.3573 31.3427 22.027 31.5687 21.6973 31.7949C21.7478 31.8202 21.7985 31.8451 21.8506 31.8711C22.0373 31.7872 22.0378 31.7869 22.248 31.6592C22.3296 31.6118 22.4111 31.5644 22.4951 31.5156C22.5837 31.4633 22.6722 31.4108 22.7607 31.3584C22.8505 31.3059 22.9405 31.2536 23.0303 31.2012C23.3016 31.0424 23.5723 30.882 23.8428 30.7217C23.9228 30.6743 24.0035 30.627 24.0859 30.5781C24.4256 30.3766 24.7652 30.1736 25.1035 29.9697C25.1544 29.9391 25.2054 29.9085 25.2578 29.877C25.3742 29.8089 25.3747 29.8086 25.4521 29.7256C25.4553 29.5979 25.4554 29.4695 25.4521 29.3418ZM9.97168 30.7217L9.99609 30.7705C9.99457 30.7497 9.99272 30.7288 9.99121 30.708C9.98493 30.7123 9.97844 30.7171 9.97168 30.7217ZM10.5088 30.4912C10.635 30.4407 10.7615 30.3909 10.8916 30.3389C10.841 30.3136 10.7904 30.2878 10.7383 30.2617L10.5088 30.4912ZM5.52734 30.1846C5.65358 30.1341 5.78009 30.0843 5.91016 30.0322C5.85958 30.0069 5.80895 29.9811 5.75684 29.9551L5.52734 30.1846ZM5.91016 29.9551C5.98586 29.9298 6.06166 29.9049 6.13965 29.8789C6.08911 29.8536 6.03839 29.8278 5.98633 29.8018C5.96106 29.8523 5.93619 29.903 5.91016 29.9551ZM22.2334 29.3418C22.3599 29.2912 22.4869 29.2406 22.6172 29.1885C22.5667 29.1632 22.5159 29.1383 22.4639 29.1123C22.388 29.1882 22.3116 29.2636 22.2334 29.3418ZM10.3555 29.2656C10.4312 29.2404 10.5069 29.2145 10.585 29.1885C10.5344 29.1632 10.4837 29.1383 10.4316 29.1123C10.4064 29.1628 10.3815 29.2136 10.3555 29.2656ZM8.41797 24.7734C8.42614 24.867 8.43524 24.9611 8.44336 25.0547C8.4496 25.1293 8.45488 25.202 8.46094 25.2744C8.46992 25.3774 8.47068 25.3775 8.47949 25.4785C8.489 25.591 8.50011 25.7035 8.51465 25.8154C8.59693 26.0623 8.61048 26.2649 8.625 26.5244C8.6314 26.6403 8.64005 26.7555 8.64941 26.8701C8.65018 26.8795 8.65057 26.889 8.65137 26.8984C8.60589 26.9237 8.56051 26.9495 8.51367 26.9756C7.26593 27.6692 7.26592 27.6697 6.03027 28.3838C5.97853 28.4143 5.92635 28.4451 5.87305 28.4766C5.65058 28.6084 5.42906 28.7421 5.20898 28.8779C5.14013 28.9204 5.07094 28.9631 5 29.0068C4.94331 29.0426 4.88653 29.0784 4.82812 29.1152C4.68395 29.1888 4.68384 29.1885 4.4541 29.1885C4.41625 28.8991 4.40275 28.634 4.4541 28.3457C4.62514 28.1296 4.83908 28.0215 5.08105 27.8955C5.21354 27.8196 5.34609 27.7431 5.47852 27.667C5.54846 27.6282 5.61934 27.5897 5.69141 27.5498C6.07036 27.3356 6.43691 27.1013 6.80566 26.8701C6.94318 26.785 7.08109 26.7001 7.21875 26.6152C7.27675 26.5794 7.33478 26.5437 7.39453 26.5068C7.45622 26.4688 7.45659 26.4685 7.51953 26.4297C7.07391 26.6709 6.62985 26.9151 6.18848 27.1641C6.10665 27.2102 6.02473 27.2562 5.94043 27.3037C5.77187 27.3989 5.60297 27.4944 5.43457 27.5898C5.35317 27.6357 5.27137 27.6823 5.1875 27.7295C5.11478 27.7706 5.04172 27.8112 4.9668 27.8535C4.7608 27.9621 4.76014 27.9629 4.37695 28.1162C4.35166 27.838 4.32684 27.5591 4.30078 27.2725C4.41647 27.2003 4.53218 27.1281 4.65137 27.0537C5.41364 26.5778 6.17641 26.101 6.93555 25.6201C7.46793 25.2835 7.79681 25.0779 8.00977 24.9502C8.02516 24.9579 8.04031 24.966 8.05566 24.9736C7.81329 25.137 7.56851 25.296 7.32227 25.4531C7.50387 25.3395 7.68653 25.2282 7.875 25.125C7.99053 25.0598 7.99064 25.0597 8.1084 24.9932C8.17345 24.9588 8.23864 24.9241 8.30566 24.8887C8.35983 24.8396 8.39411 24.8056 8.41797 24.7734ZM25.6826 27.1191C25.431 27.1191 25.2511 27.2968 25.0498 27.4355C24.4564 27.8392 23.8514 28.2231 23.2422 28.6025C23.1722 28.6466 23.1014 28.6909 23.0293 28.7363C22.9665 28.7755 22.9036 28.8151 22.8389 28.8555C22.6839 28.9491 22.6839 28.9491 22.6172 29.1123C23.0103 28.9998 23.3294 28.8246 23.6758 28.6143C23.7903 28.5454 23.905 28.476 24.0195 28.4072C24.0783 28.3719 24.1368 28.3362 24.1973 28.2998C24.3814 28.1909 24.568 28.0865 24.7549 27.9824C24.8148 27.9486 24.8748 27.9147 24.9365 27.8799C25.0523 27.8147 25.1684 27.7499 25.2852 27.6865C25.461 27.5899 25.4613 27.5898 25.6826 27.4258V27.1191ZM25.9697 25.1465L25.959 25.3721C25.9241 25.5324 25.855 25.6483 25.7656 25.7461C25.6176 25.7604 25.5432 25.8198 25.3994 25.915C25.3407 25.9536 25.2822 25.9925 25.2217 26.0322C25.1573 26.075 25.0927 26.1181 25.0264 26.1621C24.8879 26.2532 24.7489 26.3436 24.6104 26.4346C24.5362 26.4833 24.4622 26.5328 24.3857 26.583C24.0192 26.8223 23.6495 27.0568 23.2803 27.292C23.3308 27.2598 23.3812 27.2275 23.4316 27.1953C23.7407 26.9983 24.0502 26.8015 24.3574 26.6016C24.4542 26.5382 24.454 26.5377 24.5488 26.4756C24.6648 26.3997 24.7815 26.3241 24.8975 26.248C25.1696 26.0675 25.4323 25.9008 25.7334 25.7812C25.6212 25.892 25.4804 25.9799 25.3252 26.0811C25.21 26.1529 25.0942 26.2248 24.9785 26.2959C24.8478 26.3774 24.7166 26.4585 24.5859 26.54C24.5159 26.5837 24.4462 26.6279 24.374 26.6729C23.9702 26.9259 23.5691 27.1832 23.168 27.4404C23.0457 27.5187 23.0456 27.5188 22.9209 27.5986C22.5722 27.8219 22.2235 28.0454 21.876 28.2705C21.8253 28.3033 21.7748 28.3364 21.7227 28.3701C21.6814 28.3968 21.6398 28.4234 21.5986 28.4502L21.5439 28.4229C21.9914 28.1214 22.4437 27.8274 22.8984 27.5371C23.026 27.4558 23.1527 27.3733 23.2803 27.292C22.6995 27.6624 22.119 28.0338 21.5439 28.4131C21.4741 28.4587 21.4736 28.4584 21.4023 28.5049L21.4648 28.5361C21.4217 28.5642 21.3791 28.593 21.3359 28.6211C21.3331 28.6228 21.3299 28.6243 21.3271 28.626C21.3451 28.5901 21.3623 28.5547 21.3799 28.5195C21.2338 28.6131 21.1858 28.6469 21.1211 28.7275C21.1104 28.7283 21.0984 28.7285 21.084 28.7285C21.0793 28.4986 21.081 28.269 21.084 28.0391C21.0824 27.9459 21.0807 27.8528 21.0791 27.7568C21.171 27.4704 21.2115 27.4446 21.4541 27.29C21.5166 27.2502 21.5792 27.21 21.6436 27.1689C22.0138 26.9432 22.389 26.7266 22.7656 26.5117C22.8962 26.4369 23.0267 26.3619 23.1572 26.2871C23.2473 26.2355 23.3376 26.1834 23.4277 26.1318C23.7563 25.9437 24.084 25.7532 24.4111 25.5625C24.5478 25.483 24.6846 25.4037 24.8213 25.3242C24.9525 25.2478 25.0838 25.1705 25.2148 25.0938C25.294 25.0478 25.3735 25.0024 25.4551 24.9551C25.56 24.8938 25.56 24.8935 25.667 24.8311C25.8357 24.7438 25.836 24.7441 25.9893 24.7441C25.9846 24.8782 25.9774 25.0126 25.9697 25.1465ZM21.3799 28.5195C21.387 28.515 21.3947 28.5107 21.4023 28.5059V28.5049L21.3906 28.499C21.3872 28.5059 21.3833 28.5126 21.3799 28.5195ZM26.1426 23.3643C26.1878 23.6975 26.1765 23.965 26.0654 24.2842C25.7711 24.5638 25.4403 24.7535 25.0879 24.9521C24.8578 25.0839 24.6354 25.2263 24.4121 25.3691C24.2322 25.4842 24.051 25.5975 23.8701 25.7109C23.5631 25.9041 23.2573 26.0998 22.9521 26.2959C22.909 26.3236 22.8658 26.3513 22.8213 26.3799C22.6071 26.5174 22.3926 26.655 22.1787 26.793C22.1008 26.843 22.0227 26.8937 21.9424 26.9453C21.873 26.99 21.8029 27.035 21.7314 27.0811C21.5699 27.1804 21.4085 27.2683 21.2373 27.3496C21.2331 27.2188 21.23 27.0879 21.2275 26.957C21.2258 26.8841 21.2245 26.8105 21.2227 26.7354C21.2401 26.4687 21.2723 26.2879 21.3906 26.0469C21.5703 25.9124 21.7316 25.8113 21.9277 25.707C22.0459 25.6409 22.1641 25.574 22.2822 25.5078C22.3473 25.472 22.4125 25.4363 22.4795 25.3994C22.886 25.1736 23.288 24.9381 23.6904 24.7051C23.8611 24.6069 24.0315 24.5083 24.2021 24.4102C24.5018 24.2373 24.8013 24.0636 25.0986 23.8867C25.1592 23.8507 25.2198 23.8144 25.2822 23.7773C25.3928 23.7114 25.503 23.6447 25.6133 23.5781C25.972 23.3641 25.9726 23.3643 26.1426 23.3643ZM19.6279 27.043C19.7038 27.0177 19.7802 26.9929 19.8584 26.9668C19.8079 26.9415 19.7571 26.9157 19.7051 26.8896C19.6798 26.9402 19.654 26.9909 19.6279 27.043ZM5.93652 26.3301C5.8679 26.374 5.80098 26.4164 5.73438 26.459C5.62235 26.5304 5.51045 26.6024 5.39844 26.6738C5.51095 26.6021 5.6238 26.5298 5.73633 26.458C5.83592 26.3943 5.83655 26.3943 5.93848 26.3291L5.93652 26.3301ZM7.08984 25.5986C6.96678 25.6772 6.84321 25.7561 6.71973 25.834C6.51553 25.9626 6.31204 26.0922 6.1084 26.2217C6.44221 26.0096 6.7766 25.7985 7.11133 25.5879C7.18178 25.5434 7.25209 25.4979 7.32227 25.4531C7.24488 25.5015 7.16704 25.5494 7.08984 25.5986ZM7.21289 24.1309C7.01866 24.2198 7.01861 24.2201 6.7998 24.3535C6.71582 24.4025 6.63145 24.4515 6.54492 24.502C6.45477 24.5554 6.36455 24.6087 6.27441 24.6621C6.18341 24.7155 6.09205 24.769 6.00098 24.8223C5.82192 24.927 5.64263 25.0325 5.46387 25.1377C5.16372 25.3138 4.86213 25.4873 4.55957 25.6592C4.47807 25.7057 4.39646 25.7519 4.3125 25.7998C4.231 25.8462 4.23061 25.8462 4.14746 25.8936C4.17274 25.9947 4.19759 26.096 4.22363 26.2002C5.27276 25.5387 6.32027 24.8735 7.36621 24.207C7.31568 24.1818 7.26495 24.1569 7.21289 24.1309ZM25.8359 25.9697C25.835 25.9714 25.833 25.9729 25.832 25.9746C25.8334 25.8964 25.8359 25.8182 25.8359 25.7402V25.9697ZM26.2959 21.832C26.3188 22.5083 26.3188 22.5086 26.1426 22.8281C25.9842 22.9561 25.8348 23.0614 25.6631 23.168C25.6133 23.2 25.563 23.2326 25.5117 23.2656C25.3395 23.3761 25.1663 23.4848 24.9932 23.5938C24.8581 23.6798 24.7228 23.7663 24.5879 23.8525C24.3012 24.0355 24.0138 24.2183 23.7266 24.4004C23.3428 24.6439 22.9606 24.8897 22.5791 25.1367C22.5015 25.1869 22.5011 25.187 22.4219 25.2383C22.3491 25.2855 22.3488 25.2858 22.2744 25.334C22.229 25.3634 22.1835 25.3926 22.1367 25.4229C22.0479 25.4813 21.9596 25.5412 21.8721 25.6016C21.5596 25.8169 21.5589 25.8164 21.3906 25.8164C21.2759 24.8258 21.2758 24.8255 21.5127 24.498C21.7193 24.3523 21.9303 24.2427 22.1572 24.1309C22.2552 24.0769 22.3529 24.022 22.4502 23.9668C22.6781 23.8379 22.9079 23.7114 23.1377 23.5859C23.5946 23.3347 24.045 23.0718 24.4951 22.8086C24.5708 22.7644 24.6466 22.7203 24.7246 22.6748C25.1497 22.426 25.5724 22.1733 25.9912 21.9141C26.1425 21.8318 26.1427 21.832 26.2959 21.832ZM25.7334 25.7812C25.7448 25.77 25.7549 25.7578 25.7656 25.7461C25.7874 25.744 25.8105 25.7402 25.8359 25.7402C25.8009 25.7524 25.7674 25.7678 25.7334 25.7812ZM11.7344 25.127C11.8608 25.0764 11.9879 25.0257 12.1182 24.9736C12.0677 24.9484 12.0168 24.9234 11.9648 24.8975C11.889 24.9733 11.8125 25.0488 11.7344 25.127ZM5.14355 24.2842C4.95583 24.3794 4.77782 24.478 4.59766 24.5859C4.5472 24.6155 4.49632 24.6453 4.44434 24.6758C4.31952 24.749 4.19461 24.8233 4.07031 24.8975V25.0508C4.37373 24.941 4.62924 24.7949 4.89941 24.6191C4.97415 24.5708 5.04897 24.5225 5.12598 24.4727C5.18239 24.4357 5.23876 24.3984 5.29688 24.3604C5.24636 24.3351 5.1956 24.3102 5.14355 24.2842ZM12.1182 24.8975C12.1939 24.8722 12.2696 24.8463 12.3477 24.8203C12.2971 24.795 12.2464 24.7702 12.1943 24.7441C12.1691 24.7946 12.1442 24.8454 12.1182 24.8975ZM8.20508 24.8359C8.30681 24.7812 8.36517 24.7599 8.41504 24.751C8.34407 24.7794 8.27452 24.8082 8.20508 24.8359ZM8.67773 15.8457C8.78704 15.8498 8.78725 15.8494 8.89844 15.8535C8.67865 15.8774 8.67849 15.8781 8.43945 15.9307C8.13138 16.3928 8.11529 16.966 8.11133 17.5098C8.11179 17.6142 8.11185 17.6144 8.1123 17.7168C8.11165 17.9465 8.1114 18.1765 8.1123 18.4062C8.11271 18.4879 8.11289 18.5672 8.11328 18.6465C8.11618 19.8971 8.1383 21.1375 8.26367 22.3828C8.27879 22.5286 8.29399 22.6745 8.30859 22.8203C8.32971 23.0318 8.35044 23.2437 8.37207 23.4551C8.39122 23.6268 8.40995 23.7987 8.42578 23.9707C8.43027 24.0251 8.4351 24.0781 8.43945 24.1309C8.44975 24.2417 8.45769 24.3527 8.46387 24.4639C8.46608 24.6195 8.46547 24.6873 8.4375 24.7432C8.42995 24.7394 8.42259 24.7352 8.41504 24.7314C8.41097 24.6849 8.4074 24.6383 8.40332 24.5918C8.39652 24.514 8.38982 24.4356 8.38281 24.3555C8.35909 24.0935 8.33223 23.8319 8.30469 23.5703C8.27807 23.315 8.25389 23.0592 8.22949 22.8037C8.21611 22.6651 8.20175 22.5262 8.1875 22.3877C8.06182 21.1407 8.04002 19.8988 8.03711 18.6465C8.03671 18.5673 8.03556 18.4879 8.03516 18.4062V17.5098C8.03892 16.9933 8.05725 16.4506 8.30078 15.9854C8.43887 15.8541 8.43919 15.8539 8.67773 15.8457ZM26.5059 20.7773C26.5023 20.852 26.4988 20.927 26.4951 21.0039C26.4246 21.3276 26.2252 21.4676 25.959 21.6523C25.892 21.6934 25.8248 21.7341 25.7559 21.7764C25.6806 21.8229 25.6049 21.87 25.5273 21.918C25.4474 21.9669 25.3675 22.016 25.2852 22.0664C25.1177 22.1699 24.9496 22.2733 24.7822 22.377C24.7002 22.4277 24.6187 22.479 24.5342 22.5312C24.2298 22.7208 23.9282 22.9145 23.6279 23.1104C23.1524 23.4198 22.6745 23.7265 22.1953 24.0303C22.1316 24.0709 22.0676 24.1115 22.002 24.1533C21.9433 24.1904 21.8846 24.2274 21.8242 24.2656C21.7458 24.3153 21.7458 24.3156 21.666 24.3662C21.5446 24.4371 21.544 24.4375 21.4678 24.4375C21.462 24.242 21.461 24.048 21.4629 23.8525C21.4608 23.7981 21.4582 23.7436 21.4561 23.6875C21.462 23.4264 21.4828 23.2711 21.6748 23.085C21.8561 22.9618 22.0405 22.855 22.2334 22.751C22.2968 22.7142 22.3605 22.6776 22.4258 22.6396C22.6303 22.5212 22.8363 22.4057 23.043 22.291C23.8483 21.8401 24.647 21.3776 25.4434 20.9111C25.5108 20.8717 25.5789 20.8326 25.6484 20.792C25.7665 20.7229 25.8843 20.6529 26.002 20.583C26.3552 20.3753 26.3553 20.375 26.5254 20.375C26.5208 20.509 26.5136 20.6434 26.5059 20.7773ZM5.29688 24.2842C5.37275 24.2589 5.44917 24.2331 5.52734 24.207C5.47688 24.1818 5.42601 24.1569 5.37402 24.1309C5.34873 24.1814 5.32293 24.2321 5.29688 24.2842ZM7.51953 24.0537C7.59523 24.0285 7.67103 24.0035 7.74902 23.9775C7.69853 23.9523 7.64773 23.9264 7.5957 23.9004C7.57047 23.9509 7.54553 24.0017 7.51953 24.0537ZM6.13965 21.6016C5.95939 21.6805 5.95965 21.6814 5.75879 21.8018C5.68218 21.8456 5.6053 21.8894 5.52637 21.9346C5.44601 21.9813 5.36502 22.028 5.28223 22.0762C5.20361 22.1213 5.12494 22.1664 5.04395 22.2129C4.82158 22.3407 4.59888 22.4691 4.37695 22.5977C4.19837 22.7001 4.01968 22.8023 3.84082 22.9043C3.86611 23.0054 3.89192 23.1067 3.91797 23.2109C4.18455 23.0419 4.45132 22.8724 4.71777 22.7031C4.79229 22.6559 4.86659 22.6082 4.94336 22.5596C5.39696 22.2713 5.84734 21.9791 6.29297 21.6787C6.24242 21.6534 6.19173 21.6276 6.13965 21.6016ZM26.9082 16.9268C26.9208 17.671 26.9212 17.6712 26.832 17.9229C26.6234 18.0776 26.6231 18.0775 26.3672 18.2148C26.2825 18.2612 26.1976 18.3077 26.1104 18.3555C26.0449 18.3897 25.9795 18.4247 25.9121 18.46C25.9655 18.4324 26.0192 18.4044 26.0742 18.376C26.144 18.3404 26.2143 18.3042 26.2861 18.2676C26.3554 18.2321 26.4247 18.1967 26.4961 18.1602C26.6787 18.0763 26.6788 18.0762 26.832 18.0762C26.8102 18.2822 26.7875 18.4884 26.7646 18.6943C26.7586 18.7519 26.7533 18.8098 26.7471 18.8691C26.6431 19.7931 26.6422 19.7928 26.3936 20.0527C26.3374 20.088 26.2815 20.1239 26.2236 20.1602C26.1546 20.2046 26.0857 20.2492 26.0146 20.2949C25.9304 20.3469 25.8456 20.3986 25.7588 20.4521C25.6537 20.5188 25.5483 20.5854 25.4434 20.6523C25.1991 20.8078 24.9543 20.9624 24.709 21.1162C24.2787 21.3862 23.8503 21.6597 23.4219 21.9326C23.3543 21.9756 23.2864 22.0182 23.2168 22.0625C23.1509 22.1045 23.0845 22.1462 23.0166 22.1895C22.9518 22.2306 22.8871 22.272 22.8203 22.3145C22.6747 22.4075 22.5296 22.5014 22.3848 22.5957C22.3089 22.6449 22.2325 22.6945 22.1543 22.7451C22.0853 22.7902 22.0164 22.8354 21.9453 22.8818C21.7744 22.9811 21.7739 22.9814 21.6211 22.9814C21.6133 22.3027 21.6323 21.6278 21.6729 20.9502C21.677 20.8546 21.6813 20.7587 21.6855 20.6602C21.694 20.523 21.6944 20.5228 21.7031 20.3828C21.7075 20.3004 21.7122 20.2178 21.7168 20.1328C21.8082 19.7881 22.0425 19.6801 22.333 19.5C22.3931 19.4667 22.4537 19.4328 22.5156 19.3984C22.5843 19.3601 22.6529 19.3217 22.7236 19.2822C22.7972 19.2415 22.8714 19.2011 22.9473 19.1592C23.596 18.7966 24.2415 18.4284 24.8828 18.0527C25.0355 17.9634 25.1882 17.8735 25.3408 17.7842C25.412 17.7426 25.4833 17.7011 25.5566 17.6582C25.839 17.4933 26.1217 17.3289 26.4053 17.166C26.4873 17.1188 26.5698 17.072 26.6543 17.0234C26.7946 16.9473 26.8242 16.9311 26.8682 16.9277C26.8191 16.9956 26.7543 17.0598 26.6611 17.127C26.7592 17.0563 26.822 16.9978 26.8721 16.9277C26.8826 16.9271 26.8941 16.9268 26.9082 16.9268ZM3.76465 22.1377L3.84082 21.9854H3.6875C3.7127 22.0358 3.73869 22.0858 3.76465 22.1377ZM3.84082 21.9854C3.96711 21.9348 4.09353 21.8841 4.22363 21.832C4.17311 21.8068 4.12236 21.7809 4.07031 21.7549C3.9945 21.8307 3.91893 21.9072 3.84082 21.9854ZM6.29297 21.6016C6.36884 21.5763 6.44527 21.5514 6.52344 21.5254C6.47289 21.5001 6.4222 21.4743 6.37012 21.4482C6.34483 21.4988 6.31903 21.5494 6.29297 21.6016ZM6.67676 21.3721C6.75255 21.3468 6.82816 21.321 6.90625 21.2949C6.85573 21.2697 6.80498 21.2448 6.75293 21.2188C6.72768 21.2692 6.70277 21.32 6.67676 21.3721ZM19.3984 21.2188C19.4742 21.1935 19.5498 21.1676 19.6279 21.1416C19.5775 21.1164 19.5266 21.0914 19.4746 21.0654C19.4494 21.1159 19.4244 21.1667 19.3984 21.2188ZM5.37402 19.8389C5.17704 19.9305 5.17638 19.9308 4.95605 20.0664C4.87365 20.115 4.79096 20.1638 4.70605 20.2139C4.61971 20.2656 4.5333 20.3178 4.44434 20.3711C4.35744 20.4225 4.27019 20.4734 4.18066 20.5264C3.96489 20.6542 3.74932 20.7832 3.53418 20.9121C3.60998 21.0258 3.61026 21.0257 3.6875 21.1416C4.29445 20.737 4.902 20.3329 5.52734 19.916C5.47684 19.8908 5.42605 19.8649 5.37402 19.8389ZM19.7812 20.9883C19.8571 20.963 19.9335 20.9382 20.0117 20.9121C19.9612 20.8868 19.9105 20.861 19.8584 20.835C19.8331 20.8855 19.8073 20.9362 19.7812 20.9883ZM20.0117 20.7588C20.0873 20.7966 20.0877 20.7963 20.165 20.835C20.3545 20.7496 20.5234 20.6369 20.7012 20.5283C20.676 20.4779 20.65 20.4279 20.624 20.376C20.4219 20.5023 20.2199 20.6287 20.0117 20.7588ZM4.60742 19.1494C4.40679 19.2574 4.21517 19.3685 4.02246 19.4893C3.96841 19.5224 3.91409 19.5556 3.8584 19.5898C3.72451 19.6722 3.59134 19.7557 3.45801 19.8389C3.4833 19.9147 3.50812 19.9912 3.53418 20.0693C3.93883 19.7911 4.34383 19.5122 4.76074 19.2256C4.71022 19.2003 4.65947 19.1754 4.60742 19.1494ZM5.52734 19.8389C5.60304 19.8136 5.67884 19.7887 5.75684 19.7627C5.70626 19.7374 5.65563 19.7116 5.60352 19.6855C5.57828 19.736 5.55334 19.7869 5.52734 19.8389ZM4.76074 19.1494C4.83654 19.1241 4.91214 19.0983 4.99023 19.0723C4.93976 19.047 4.88892 19.0221 4.83691 18.9961C4.81165 19.0466 4.78677 19.0974 4.76074 19.1494ZM4.22363 18.2295C3.99836 18.3406 3.99846 18.3412 3.75488 18.4932C3.67091 18.5436 3.58652 18.5945 3.5 18.6465C3.4355 18.686 3.37114 18.7259 3.30469 18.7666C3.32992 18.8423 3.35486 18.9181 3.38086 18.9961C3.7095 18.7686 4.03836 18.541 4.37695 18.3066C4.32643 18.2814 4.27569 18.2555 4.22363 18.2295ZM25.4521 18.7656C25.528 18.7403 25.6044 18.7155 25.6826 18.6895C25.632 18.6642 25.5814 18.6384 25.5293 18.6123C25.504 18.6628 25.4782 18.7136 25.4521 18.7656ZM4.37695 18.2295C4.45282 18.2042 4.52925 18.1794 4.60742 18.1533C4.55685 18.128 4.50621 18.1022 4.4541 18.0762C4.42881 18.1268 4.40301 18.1774 4.37695 18.2295ZM5.4502 15.3174C5.20645 15.3174 5.02156 15.4636 4.81543 15.583C4.7682 15.61 4.72054 15.6372 4.67188 15.665C4.57218 15.7222 4.47256 15.7795 4.37305 15.8369C4.22007 15.9252 4.06639 16.0129 3.91309 16.1006C3.81638 16.1561 3.71972 16.212 3.62305 16.2676C3.57712 16.2939 3.53071 16.3205 3.4834 16.3477C3.26633 16.4662 3.26571 16.4664 3.07422 16.6201C3.07108 16.7989 3.07097 16.9784 3.07422 17.1572C3.55975 16.8431 4.02241 16.507 4.47754 16.1504C4.53765 16.1039 4.59822 16.0577 4.66016 16.0098C4.93925 15.7921 5.20873 15.5776 5.4502 15.3174ZM23.9961 17.0801C24.1225 17.0295 24.2496 16.9789 24.3799 16.9268C24.3294 16.9015 24.2786 16.8766 24.2266 16.8506C24.1507 16.9264 24.0742 17.002 23.9961 17.0801ZM26.9854 16.6973C26.9506 16.7962 26.916 16.8663 26.8721 16.9277C26.8708 16.9278 26.8694 16.9276 26.8682 16.9277C26.9257 16.8481 26.9595 16.7624 26.9873 16.6562C26.9865 16.6689 26.9863 16.6827 26.9854 16.6973ZM26.249 15.5859C26.1571 15.6423 26.0646 15.6986 25.9727 15.7549C25.4347 16.0842 24.901 16.4179 24.3799 16.7734C24.4304 16.7987 24.4811 16.8245 24.5332 16.8506C24.7524 16.7491 24.7524 16.7488 25.001 16.6006C25.0473 16.574 25.0939 16.5469 25.1416 16.5195C25.2399 16.4629 25.3385 16.4058 25.4365 16.3486C25.5849 16.2621 25.7338 16.1764 25.8828 16.0908C26.3097 15.8444 26.7308 15.5942 27.1387 15.3174C27.1008 15.2038 27.101 15.2035 27.0625 15.0879C26.7914 15.2538 26.5199 15.4196 26.249 15.5859ZM23.46 16.2373C23.5863 16.1868 23.7127 16.136 23.8428 16.084C23.7924 16.0588 23.7424 16.0328 23.6904 16.0068L23.46 16.2373ZM26.9619 13.9453C26.8422 14.021 26.7222 14.0971 26.6025 14.1729C26.5388 14.2132 26.4748 14.2534 26.4092 14.2949C26.026 14.5372 25.6415 14.7773 25.2559 15.0156C25.1724 15.0673 25.0889 15.1196 25.0029 15.1729C24.8379 15.275 24.6723 15.377 24.5068 15.4785C24.394 15.5485 24.3936 15.5487 24.2783 15.6201C24.2111 15.6615 24.1435 15.7024 24.0742 15.7451C23.9105 15.8417 23.91 15.842 23.8428 16.0068C24.1567 15.9108 24.4275 15.7957 24.71 15.6289C24.7857 15.5845 24.8615 15.5399 24.9395 15.4941C25.0187 15.447 25.098 15.3991 25.1797 15.3506C25.2608 15.3028 25.3422 15.2553 25.4258 15.2061C25.6648 15.065 25.9041 14.9233 26.1426 14.7812C26.2078 14.7424 26.2727 14.7031 26.3398 14.6631C26.6577 14.4735 26.9754 14.2826 27.292 14.0908C27.2542 13.9396 27.2534 13.9395 27.2148 13.7852C27.0898 13.8643 27.0895 13.8645 26.9619 13.9453ZM2.9209 15.5469C2.94614 15.5974 2.97204 15.6482 2.99805 15.7002C3.17495 15.5738 3.35192 15.4476 3.53418 15.3174C3.48365 15.2921 3.43292 15.2672 3.38086 15.2412C3.22922 15.3423 3.07713 15.4427 2.9209 15.5469ZM5.4502 15.3174C5.52589 15.2922 5.60171 15.2672 5.67969 15.2412C5.62928 15.216 5.57927 15.19 5.52734 15.1641C5.50206 15.2146 5.47625 15.2653 5.4502 15.3174ZM23.5371 15.0107C23.6128 14.9855 23.6886 14.9606 23.7666 14.9346C23.716 14.9093 23.6654 14.8835 23.6133 14.8574C23.588 14.9079 23.5631 14.9587 23.5371 15.0107ZM23.9199 14.7812C23.9957 14.756 24.0713 14.7301 24.1494 14.7041C24.099 14.6789 24.0481 14.6539 23.9961 14.6279C23.9709 14.6784 23.9459 14.7293 23.9199 14.7812ZM27.4453 12.5586C27.2338 12.5586 27.1365 12.6461 26.959 12.7607C26.8909 12.8044 26.8231 12.8486 26.7529 12.8936C26.6796 12.9411 26.6058 12.9882 26.5303 13.0371C26.3777 13.1351 26.2249 13.2331 26.0723 13.3311C25.9948 13.3809 25.9177 13.4311 25.8379 13.4824C25.484 13.7095 25.1283 13.934 24.7725 14.1582C24.6513 14.2346 24.5303 14.3113 24.4092 14.3877C24.3236 14.4416 24.2376 14.4952 24.1494 14.5508C24.1999 14.576 24.2507 14.6019 24.3027 14.6279C24.4707 14.5564 24.4714 14.5563 24.6582 14.4443C24.7304 14.4032 24.8025 14.3618 24.877 14.3193C24.9545 14.2743 25.0325 14.2291 25.1123 14.1826C25.1911 14.1372 25.2704 14.0917 25.3516 14.0449C25.5125 13.9521 25.6733 13.859 25.834 13.7656C26.045 13.6437 26.257 13.524 26.4697 13.4053C26.5873 13.3387 26.7047 13.2717 26.8223 13.2051C26.8769 13.175 26.932 13.1452 26.9883 13.1143C27.2691 12.9653 27.2685 12.9645 27.4209 12.7012C27.4288 12.6541 27.4372 12.6071 27.4453 12.5586ZM3.38086 13.8613C3.20833 13.9374 3.20808 13.9373 3.02637 14.0479C2.96375 14.0841 2.90143 14.1209 2.83691 14.1582C2.76498 14.201 2.76464 14.2006 2.69141 14.2441L2.84473 14.5508C3.07227 14.3485 3.29974 14.1459 3.53418 13.9375C3.4837 13.9123 3.43287 13.8873 3.38086 13.8613ZM19.3984 14.2441C19.4741 14.2189 19.5499 14.194 19.6279 14.168C19.5774 14.1427 19.5267 14.1168 19.4746 14.0908C19.4494 14.1413 19.4244 14.1922 19.3984 14.2441ZM19.7812 14.0146C19.8571 13.9894 19.9335 13.9636 20.0117 13.9375C19.9612 13.9122 19.9104 13.8873 19.8584 13.8613C19.8331 13.9119 19.8073 13.9625 19.7812 14.0146ZM16.2559 13.8613C16.3317 13.836 16.4082 13.8112 16.4863 13.7852C16.4358 13.7599 16.3851 13.734 16.333 13.708C16.3077 13.7586 16.2819 13.8092 16.2559 13.8613ZM22.3105 12.5586C22.0044 12.5372 21.8438 12.5821 21.5879 12.749C21.5255 12.7891 21.4627 12.8288 21.3984 12.8701C21.3343 12.9126 21.2702 12.9553 21.2041 12.999C21.1403 13.0403 21.0764 13.0815 21.0107 13.124C20.6757 13.3412 20.3434 13.563 20.0117 13.7852C20.0621 13.8104 20.1131 13.8354 20.165 13.8613C20.3477 13.7824 20.348 13.7825 20.5518 13.6621C20.629 13.6183 20.7065 13.5744 20.7861 13.5293C20.8672 13.4825 20.9478 13.4349 21.0312 13.3867C21.1114 13.3415 21.1919 13.2966 21.2744 13.25C21.6428 13.0397 21.9836 12.8304 22.3105 12.5586ZM16.4863 13.708C16.6127 13.6575 16.739 13.6068 16.8691 13.5547C16.8186 13.5294 16.7679 13.5045 16.7158 13.4785L16.4863 13.708ZM18.4785 12.5586C18.0524 12.4847 17.7839 12.7434 17.458 12.9805C17.4014 13.0206 17.3444 13.0603 17.2861 13.1016C17.1465 13.2007 17.0076 13.3007 16.8691 13.4014C16.945 13.4393 16.9451 13.4398 17.0225 13.4785C17.1819 13.4106 17.1824 13.41 17.3564 13.3037C17.4215 13.2659 17.4867 13.2275 17.5537 13.1885C17.6555 13.128 17.6559 13.1281 17.7598 13.0664C17.8285 13.0265 17.8979 12.9864 17.9688 12.9453C18.2266 12.7951 18.2265 12.7946 18.4785 12.6348V12.5586ZM16.4863 12.6348C16.1539 12.4806 15.9763 12.6653 15.7002 12.8604C15.6177 12.9179 15.5352 12.9759 15.4502 13.0352C15.3874 13.0803 15.3244 13.1254 15.2598 13.1719C15.3356 13.2098 15.3358 13.2094 15.4131 13.248C15.6008 13.1528 15.7788 13.0542 15.959 12.9463C16.0347 12.9019 16.0351 12.9017 16.1123 12.8564C16.2372 12.7832 16.362 12.7089 16.4863 12.6348ZM14.6465 12.5586C14.3317 12.4241 14.197 12.5505 13.9375 12.7451C13.8692 12.7956 13.8009 12.8465 13.7305 12.8984C13.6788 12.938 13.6274 12.9778 13.5742 13.0186C13.6497 13.0563 13.6503 13.0561 13.7275 13.0947C13.9527 12.9837 13.9526 12.9831 14.1963 12.8311C14.2802 12.7806 14.3647 12.7307 14.4512 12.6787C14.5479 12.6194 14.5479 12.6191 14.6465 12.5586ZM24.8398 13.0947C24.9155 13.0695 24.9913 13.0446 25.0693 13.0186C25.0188 12.9933 24.9681 12.9675 24.916 12.9414C24.8908 12.9919 24.8658 13.0427 24.8398 13.0947ZM25.5293 12.5586C25.2854 12.702 25.2852 12.7021 25.0693 12.8652C25.1452 12.9031 25.1454 12.9028 25.2227 12.9414C25.4123 12.856 25.581 12.7434 25.7588 12.6348C25.6831 12.6095 25.6073 12.5846 25.5293 12.5586ZM8.05566 12.8652C8.13154 12.8399 8.20796 12.8141 8.28613 12.7881C8.23563 12.7628 8.18484 12.7379 8.13281 12.7119C8.10753 12.7625 8.08172 12.8131 8.05566 12.8652ZM8.28613 12.7119L8.74609 12.5586C8.645 12.5333 8.5436 12.5075 8.43945 12.4814C8.36359 12.5952 8.36352 12.5958 8.28613 12.7119ZM28.3809 8.52539C28.5947 8.57305 28.595 8.57303 28.7754 8.75195C28.9333 9.00772 28.9332 9.16587 28.9209 9.46387C28.9181 9.55012 28.915 9.63673 28.9121 9.72559C28.9086 9.80047 28.905 9.87597 28.9014 9.95312C28.9014 10.136 28.9027 10.3191 28.9043 10.502C28.905 10.627 28.9056 10.752 28.9062 10.877C28.9069 10.9404 28.9075 11.004 28.9082 11.0693C28.9086 11.1604 28.9088 11.161 28.9092 11.2539C28.9098 11.3368 28.9095 11.337 28.9102 11.4219C28.9015 11.5622 28.9008 11.5626 28.8242 11.7158H28.2881L28.4414 11.2559C28.3106 11.354 28.1832 11.4566 28.0586 11.5625V11.7158H26.1133C26.2766 11.6687 26.3434 11.5895 26.6787 11.1787C26.6267 11.1527 26.5759 11.1278 26.5254 11.1025C26.4727 11.1257 26.4212 11.1484 26.3701 11.1709C26.3091 11.2062 26.2497 11.2402 26.1904 11.2744C25.9569 11.4072 25.7415 11.5511 25.5293 11.7158H17.3965C17.4886 11.7086 17.5041 11.6932 17.5586 11.6387C17.5598 11.5876 17.5583 11.5365 17.5586 11.4854C17.9446 11.25 18.2449 10.9699 18.5557 10.6426C18.5051 10.6173 18.4544 10.5915 18.4023 10.5654C18.1768 10.6767 18.1763 10.677 17.9326 10.8291C17.8486 10.8796 17.7643 10.9304 17.6777 10.9824C17.6132 11.022 17.5489 11.0618 17.4824 11.1025C17.4913 11.1467 17.4999 11.191 17.5088 11.2354C17.1704 11.094 17.1378 11.1204 16.4092 11.7158H15.0303C15.2783 11.5817 15.3833 11.4371 15.4902 11.1787C15.1414 11.1787 15.1406 11.1794 14.4932 11.7158H12.8076C13.0503 11.4654 13.3239 11.2875 13.6143 11.0957C13.8171 10.9387 13.9537 10.7675 14.1104 10.5654C14.0281 10.6135 14.028 10.6142 13.9443 10.6631C13.6965 10.8079 13.4481 10.9529 13.2002 11.0977C13.1138 11.1482 13.0275 11.1989 12.9385 11.251C12.8561 11.2991 12.7734 11.3469 12.6885 11.3965C12.6122 11.441 12.5356 11.4854 12.457 11.5312C12.1711 11.6958 12.0207 11.7243 11.6895 11.7227C11.6042 11.7224 11.5185 11.7229 11.4307 11.7227C11.3414 11.722 11.2521 11.7214 11.1602 11.7207C11.026 11.7202 11.0255 11.7193 10.8887 11.7188C10.7887 11.7183 10.6888 11.7173 10.5889 11.7168C10.7728 11.6755 10.8658 11.5852 11.2744 11.1787C11.2471 11.1651 11.22 11.152 11.1934 11.1387C11.3251 11.0684 11.3479 11.0555 11.5049 10.9492C11.4543 10.9239 11.4037 10.8981 11.3516 10.8721C11.1505 10.9787 11.1499 10.9792 10.9678 11.1025C11.0023 11.1198 11.0215 11.1289 11.0391 11.1377C11.0138 11.1486 10.989 11.16 10.9639 11.1709C10.9019 11.2063 10.8414 11.24 10.7812 11.2744C10.7684 11.2816 10.7557 11.2887 10.7432 11.2959C10.7163 11.2825 10.6886 11.2696 10.6611 11.2559L10.4316 11.4854C10.4474 11.4791 10.4628 11.4721 10.4785 11.4658C10.3812 11.5376 10.2913 11.6183 10.2021 11.7158H8.4248C8.50809 11.7027 8.58859 11.6732 8.6875 11.6152C8.76778 11.5499 8.76799 11.5494 8.84668 11.4854C8.94143 11.4097 9.03578 11.3335 9.12891 11.2559C9.10285 11.2037 9.07705 11.1531 9.05176 11.1025C8.86298 11.2062 8.68656 11.3111 8.51562 11.4268C8.59119 11.3734 8.66687 11.3205 8.74414 11.2695C8.08984 11.6468 7.49903 11.7772 6.7373 11.7959H5.89062C5.58523 11.7955 5.27997 11.7926 4.97461 11.7881C4.5828 11.7824 4.19067 11.7815 3.79883 11.7822C3.49619 11.7824 3.19325 11.7807 2.89062 11.7783C2.7461 11.7773 2.60156 11.7774 2.45703 11.7773C2.25598 11.7769 2.05453 11.7732 1.85352 11.7695C1.79404 11.7698 1.73412 11.7702 1.67285 11.7705C1.50776 11.7659 1.5074 11.7665 1.23535 11.7158C0.99909 11.4358 0.979156 11.2183 0.991211 10.8584C0.993286 10.7783 0.994933 10.6978 0.99707 10.6152C0.999731 10.5485 1.00214 10.4818 1.00488 10.4131C1.00488 10.3045 1.00463 10.1955 1.00293 10.0869C0.998149 9.60614 1.00283 9.12587 1.08203 8.65039C1.21751 8.51491 1.41208 8.56289 1.5957 8.5625C1.7388 8.56192 1.73894 8.56212 1.88477 8.56152C1.99207 8.56148 2.09972 8.56155 2.20703 8.56152C2.3199 8.56122 2.43303 8.56092 2.5459 8.56055C2.85793 8.55963 3.17039 8.55894 3.48242 8.55859C3.63377 8.55839 3.78518 8.55795 3.93652 8.55762C3.72406 8.65442 3.50292 8.91022 2.99805 9.49316C3.05008 9.51918 3.10086 9.54408 3.15137 9.56934C3.21831 9.54022 3.21856 9.54026 3.28418 9.51172C3.33808 9.47973 3.39104 9.44901 3.44336 9.41797C3.50221 9.38324 3.55909 9.34914 3.61621 9.31543C3.67779 9.27821 3.73808 9.24218 3.79785 9.20605C4.1202 9.01666 4.42656 8.84851 4.68359 8.57324C4.64787 8.56471 4.63105 8.55991 4.61328 8.55566C5.38442 8.55395 6.15562 8.55367 6.92676 8.55273C7.15592 8.55245 7.38509 8.55207 7.61426 8.55176C8.45342 8.55062 9.29267 8.5497 10.1318 8.54883C9.95318 8.54647 9.86433 8.62804 9.51172 8.95605C9.56377 8.98208 9.61452 9.00794 9.66504 9.0332C9.91278 8.90282 10.1348 8.74488 10.3555 8.57324C10.2626 8.55958 10.1924 8.54972 10.1328 8.54883C10.7154 8.54822 11.2982 8.54727 11.8809 8.54688C12.2103 8.54665 12.5397 8.54711 12.8691 8.54688C12.9511 8.54682 13.0338 8.54596 13.1182 8.5459C14.446 8.54493 15.7738 8.54323 17.1016 8.54004C18.4635 8.53679 19.8255 8.53458 21.1875 8.53418C21.9527 8.53392 22.7182 8.53279 23.4834 8.53027C24.135 8.52813 24.7869 8.52746 25.4385 8.52832C25.7711 8.52872 26.1039 8.52826 26.4365 8.52637C26.7408 8.52465 27.0454 8.52491 27.3496 8.52637C27.4598 8.52658 27.5705 8.52653 27.6807 8.52539C27.83 8.52394 27.9795 8.52511 28.1289 8.52637C28.212 8.52626 28.2952 8.5255 28.3809 8.52539ZM25.9707 11.751C25.8867 11.7499 25.8442 11.7496 25.7891 11.7451L25.5293 11.7158H26.1133C26.0732 11.7274 26.0279 11.7391 25.9707 11.751ZM10.5889 11.7168C10.5349 11.7289 10.4735 11.739 10.3936 11.749C10.3305 11.738 10.2671 11.7272 10.2021 11.7158C10.3311 11.7166 10.46 11.7161 10.5889 11.7168ZM14.7471 11.7266L14.4932 11.7158H15.0303C14.8864 11.723 14.8142 11.7266 14.7471 11.7266ZM8.51562 11.4268C8.38613 11.5183 8.2582 11.613 8.13281 11.7158C8.25845 11.6092 8.38544 11.5148 8.51562 11.4268ZM17.3965 11.7158C17.3593 11.7187 17.3098 11.7205 17.2402 11.7227C17.0923 11.7213 17.0921 11.7221 16.9414 11.7207C16.8426 11.72 16.7434 11.7185 16.6416 11.7178L16.4092 11.7158H17.3965ZM2.99805 11.2559C2.74421 11.3828 2.58769 11.5129 2.38477 11.7158H3.15137C3.17742 11.5855 3.20225 11.4585 3.22754 11.332C3.14955 11.306 3.07375 11.2811 2.99805 11.2559ZM4.07031 10.7959C4.01808 10.7959 3.97176 10.8017 3.92871 10.8115C3.7989 10.841 3.69961 10.9095 3.56348 10.9873C3.50086 11.0229 3.43756 11.0581 3.37305 11.0947C3.32503 11.1224 3.27701 11.1502 3.22754 11.1787V11.5625C3.32523 11.4929 3.42255 11.4222 3.51953 11.3516C3.57377 11.3124 3.62869 11.2727 3.68457 11.2324C3.84313 11.1002 3.95351 10.9654 4.07031 10.7959ZM17.5586 11.2559C17.5606 11.3323 17.559 11.4088 17.5586 11.4854C17.5417 11.4008 17.5253 11.3178 17.5088 11.2354C17.5246 11.242 17.5413 11.2485 17.5586 11.2559ZM24.1494 11.4854C24.2253 11.4601 24.3017 11.4352 24.3799 11.4092C24.3293 11.3839 24.2787 11.3581 24.2266 11.332C24.2013 11.3826 24.1755 11.4332 24.1494 11.4854ZM10.8145 11.332C10.7005 11.3776 10.5892 11.4215 10.4785 11.4658C10.5608 11.4051 10.648 11.3504 10.7432 11.2959C10.7671 11.3079 10.7907 11.3201 10.8145 11.332ZM15.5664 11.2559C15.5916 11.2054 15.6166 11.1545 15.6426 11.1025H15.4902C15.5155 11.153 15.5404 11.2039 15.5664 11.2559ZM11.1934 11.1387C11.1722 11.1499 11.1489 11.164 11.1211 11.1787L11.0391 11.1377C11.0661 11.126 11.0934 11.1145 11.1211 11.1025L11.1934 11.1387ZM18.5557 10.5654C18.6314 10.5402 18.7072 10.5153 18.7852 10.4893C18.7346 10.464 18.6839 10.4391 18.6318 10.4131L18.5557 10.5654ZM18.4785 8.57324C18.0948 8.54762 17.682 8.49197 17.3193 8.63965C17.1098 8.80035 17.0091 8.97583 16.9434 9.18652C16.9251 9.18675 16.9072 9.18963 16.8896 9.19434C16.7612 9.22872 16.6517 9.37149 16.5576 9.45508C16.5016 9.50473 16.4454 9.55432 16.3877 9.60547C16.3443 9.64419 16.3005 9.68276 16.2559 9.72266C16.3317 9.76058 16.3319 9.76114 16.4092 9.7998C16.6561 9.66546 16.7186 9.63196 16.8174 9.49707C16.8404 9.46568 16.8638 9.42772 16.8936 9.38281C16.8857 9.41862 16.8766 9.45532 16.8691 9.49316C17.0422 9.49316 17.0426 9.49274 17.4609 9.25879C17.5187 9.22602 17.5748 9.19391 17.6309 9.16211C17.7161 9.11483 17.7162 9.1147 17.7998 9.06836C17.8553 9.03706 17.91 9.00694 17.9639 8.97656C18.1663 8.86258 18.3198 8.74336 18.4785 8.57324ZM22.9238 8.57324C22.3507 8.53032 21.8513 8.44892 21.4365 8.89551C21.3128 9.04044 21.313 9.04081 21.1465 9.17773C21.0362 9.26919 20.9259 9.36084 20.8164 9.45312C20.7012 9.56923 20.7012 9.56959 20.7012 9.72266C20.9311 9.79929 20.9314 9.79981 21.1074 9.7207C21.1769 9.67883 21.2441 9.63733 21.3115 9.59668C21.3876 9.55125 21.4613 9.50698 21.5352 9.46289C21.6146 9.41434 21.6924 9.36744 21.7695 9.32031C22.1645 9.08408 22.5594 8.85537 22.9238 8.57324ZM13.5596 8.55371C13.3068 8.53862 13.2123 8.55797 13.001 8.70508C12.9033 8.79307 12.9035 8.79348 12.8076 8.87988C12.7379 8.94132 12.6702 9.00091 12.6025 9.06055C12.5338 9.12284 12.4671 9.18368 12.4004 9.24414C12.2806 9.35255 12.1606 9.46068 12.041 9.56934C12.0931 9.59539 12.1438 9.62119 12.1943 9.64648C12.2445 9.62437 12.2931 9.60252 12.3418 9.58105C12.4022 9.54582 12.4609 9.51173 12.5195 9.47754C12.5856 9.4392 12.6498 9.40147 12.7139 9.36426C12.783 9.32324 12.8508 9.28395 12.918 9.24414C13.2642 9.04403 13.6073 8.86972 13.8809 8.57324C13.8115 8.5678 13.811 8.56782 13.7432 8.5625C13.6808 8.55965 13.6201 8.55648 13.5596 8.55371ZM15.6914 8.56836C15.4238 8.56454 15.2805 8.57188 15.0674 8.74316C15.022 8.7824 14.9777 8.82032 14.9336 8.8584C14.8603 8.92152 14.86 8.92153 14.7881 8.9834C14.7367 9.02792 14.6866 9.07105 14.6367 9.11426C14.461 9.2657 14.2857 9.41754 14.1104 9.56934C14.1625 9.59539 14.2131 9.62119 14.2637 9.64648C14.3134 9.62437 14.3619 9.60252 14.4102 9.58105C14.4699 9.5459 14.5279 9.51167 14.5859 9.47754C14.6836 9.42057 14.6837 9.42004 14.7793 9.36426C14.8481 9.32324 14.9156 9.28395 14.9824 9.24414C15.3424 9.03406 15.6961 8.82844 16.0264 8.57324C15.9529 8.57188 15.9528 8.57164 15.8809 8.57031C15.7852 8.56926 15.7849 8.56939 15.6914 8.56836ZM6.75293 9.56934H6.90625C6.88101 9.51885 6.85609 9.46803 6.83008 9.41602C6.80482 9.46654 6.77896 9.51728 6.75293 9.56934ZM8.59277 8.57324C7.85992 8.46098 7.20088 8.78221 6.90625 9.49316C7.16417 9.49316 7.29933 9.416 7.51953 9.29004C7.56831 9.26144 7.61574 9.23381 7.66309 9.20605C7.99543 9.01714 8.29936 8.82092 8.59277 8.57324ZM16.9365 9.32031C16.9216 9.34296 16.9064 9.36338 16.8936 9.38281C16.9086 9.31398 16.924 9.24864 16.9434 9.18652H16.9463C16.943 9.23202 16.9397 9.27616 16.9365 9.32031ZM1.54199 8.57324C1.43247 8.84705 1.36001 9.05703 1.31152 9.33984C1.42584 9.28032 1.5403 9.22029 1.6543 9.16016C1.70219 9.13486 1.74942 9.11049 1.7959 9.08594C2.08048 8.93825 2.30763 8.8037 2.53809 8.57324H1.54199ZM6.2373 8.59766C6.06376 8.57342 6.06323 8.57305 5.89941 8.66602C5.84445 8.7109 5.79065 8.75526 5.7373 8.79883C5.64092 8.87605 5.54489 8.95391 5.4502 9.0332C5.50225 9.05923 5.55299 9.08411 5.60352 9.10938C5.66556 9.07774 5.72591 9.0473 5.78613 9.0166C5.85751 8.97176 5.92682 8.92829 5.99609 8.88477C6.12097 8.80712 6.24607 8.72935 6.37012 8.65039C6.32503 8.63262 6.28106 8.6149 6.2373 8.59766ZM20.4717 8.57324C20.0064 8.50516 20.0057 8.5053 19.4746 9.0332C19.5266 9.0592 19.5775 9.08414 19.6279 9.10938C19.9296 8.95297 20.2059 8.78583 20.4717 8.57324ZM24.6094 8.57324C24.2374 8.51855 24.2371 8.51842 23.7666 8.95605C23.8187 8.98211 23.8693 9.00791 23.9199 9.0332C24.1676 8.90284 24.3887 8.74484 24.6094 8.57324ZM26.0811 8.59961C25.8709 8.56645 25.8702 8.56648 25.4521 8.95605C25.5042 8.98206 25.555 9.00796 25.6055 9.0332C25.6561 9.00728 25.7058 8.98219 25.7549 8.95703C25.8116 8.91954 25.8668 8.88307 25.9219 8.84668C26.0211 8.78188 26.1204 8.7165 26.2188 8.65039C26.172 8.6334 26.1265 8.6161 26.0811 8.59961ZM3.9375 8.55664C4.10295 8.4817 4.26379 8.50337 4.54883 8.54102C4.58043 8.54857 4.59726 8.55183 4.61328 8.55566C4.57232 8.55576 4.5312 8.55655 4.49023 8.55664C4.30599 8.55709 4.12174 8.55623 3.9375 8.55664ZM16.0312 4.33398C16.1316 4.33744 16.2325 4.34117 16.3359 4.34473C16.4107 4.34916 16.4855 4.35383 16.5625 4.3584V4.58789C16.4359 4.71248 16.4359 4.71314 16.2607 4.8457C16.1987 4.89324 16.1362 4.94028 16.0723 4.98926C16.0065 5.03846 15.9408 5.08798 15.873 5.13867C15.8073 5.18879 15.7416 5.23938 15.6738 5.29102C15.5109 5.41501 15.3475 5.5384 15.1836 5.66113C15.2822 5.60424 15.2822 5.60399 15.3828 5.5459C15.5729 5.43636 15.7641 5.32758 15.9551 5.21973C16.1449 5.11237 16.3307 5.0019 16.5166 4.8877C17.22 4.47078 17.764 4.41579 18.5557 4.58789C18.2701 4.88584 17.9675 5.14131 17.6406 5.39258C17.3016 5.65482 16.9674 5.92105 16.6396 6.19727C16.697 6.16414 16.7543 6.13081 16.8135 6.09668C17.0292 5.9722 17.2452 5.8481 17.4609 5.72363C17.5539 5.66998 17.6473 5.61616 17.7402 5.5625C17.7851 5.53659 17.8297 5.51009 17.876 5.4834C17.9203 5.45783 17.9651 5.43258 18.0107 5.40625C18.141 5.33112 18.2719 5.25555 18.4023 5.18066C18.5369 5.10281 18.6709 5.02409 18.8037 4.94336C19.2213 4.69094 19.551 4.67449 20.0215 4.77637C20.1471 4.8114 20.2711 4.8525 20.3945 4.89453C20.1109 5.19535 19.8157 5.42707 19.4746 5.66113C19.62 5.58948 19.7659 5.51731 19.9111 5.44531C19.9919 5.40536 20.073 5.36538 20.1562 5.32422C20.3928 5.20815 20.3926 5.20762 20.5918 5.06738C20.8199 4.9489 20.9194 4.96457 21.166 5.02441C21.23 5.03891 21.2944 5.05343 21.3604 5.06836C21.544 5.12479 21.5445 5.12432 21.8506 5.27734C21.5851 5.50487 21.5851 5.50536 21.3145 5.7373C21.3552 5.70883 21.3964 5.68071 21.4385 5.65137C21.8135 5.41323 22.0889 5.29547 22.5322 5.36523C23.0872 5.51951 23.6185 5.74627 24.1494 5.96777C23.906 6.21466 23.6577 6.45251 23.3975 6.68164C23.337 6.73497 23.2761 6.78782 23.2139 6.84277C23.1459 6.90243 23.1464 6.90308 23.0771 6.96387C23.2064 6.89372 23.3356 6.8232 23.4648 6.75293C23.5419 6.71136 23.6189 6.66978 23.6982 6.62695C23.8744 6.52911 24.0425 6.4261 24.2119 6.31738C24.5115 6.17051 24.5962 6.19324 24.916 6.27441C25.1479 6.36805 25.3723 6.47485 25.5967 6.58496C25.6567 6.61383 25.7165 6.64311 25.7783 6.67285C25.9253 6.74367 26.0722 6.81505 26.2188 6.88672C26.2188 7.11663 26.2188 7.1172 26.1182 7.24023C26.0756 7.28015 26.0331 7.3202 25.9893 7.36133C25.9252 7.42223 25.9247 7.42224 25.8594 7.48438C25.8262 7.51485 25.7929 7.54575 25.7588 7.57715C25.8032 7.54863 25.8478 7.51961 25.8936 7.49023C26.3756 7.19829 26.3761 7.19869 26.6738 7.17969C27.0324 7.31873 27.3592 7.51095 27.6748 7.73047V7.80664H2.07812C2.64417 7.10523 3.42004 6.76759 4.23828 6.42285C4.29427 6.399 4.35052 6.37516 4.4082 6.35059C4.80892 6.18829 4.80913 6.18833 5.06738 6.27441C4.76393 6.53994 4.76363 6.53971 4.4541 6.81055C4.69452 6.73039 4.88885 6.6248 5.10938 6.5C5.19285 6.45296 5.27631 6.40588 5.3623 6.35742C5.49337 6.28318 5.49421 6.28277 5.62793 6.20703C5.79987 6.10982 5.9715 6.01205 6.14355 5.91504C6.21988 5.87182 6.29636 5.82871 6.375 5.78418C6.70761 5.60133 7.02845 5.42554 7.39648 5.32715C7.45672 5.311 7.51704 5.29496 7.5791 5.27832C7.67284 5.2543 7.6729 5.25401 7.76855 5.22949C7.83286 5.21274 7.89761 5.19597 7.96387 5.17871C8.40375 5.06747 8.82798 4.99402 9.28223 4.97168C8.99291 5.27418 8.68449 5.53078 8.35254 5.78516C8.25804 5.85785 8.16361 5.93092 8.06934 6.00391C8.02811 6.03552 7.98681 6.06704 7.94434 6.09961C7.81997 6.20183 7.7077 6.31221 7.5957 6.42773C7.86253 6.27394 8.12969 6.11967 8.39648 5.96582C8.53069 5.88844 8.66558 5.81076 8.7998 5.7334C8.88665 5.68332 8.974 5.63363 9.06348 5.58203C9.15086 5.53184 9.2381 5.4814 9.32812 5.42969C9.49933 5.3301 9.66974 5.22809 9.83887 5.125C10.2611 4.86911 10.6143 4.67433 11.1025 4.59277C11.2464 4.56852 11.2466 4.56872 11.3936 4.54395C11.6922 4.50742 11.9706 4.49339 12.2705 4.51172C12.029 4.84966 11.7683 5.04815 11.4277 5.27734C11.8998 5.05036 12.3531 4.80626 12.7979 4.5293C13.0428 4.38732 13.2369 4.34864 13.5146 4.35059C13.6069 4.35096 13.6071 4.35118 13.7012 4.35156C13.7969 4.35253 13.797 4.35254 13.8945 4.35352C13.9592 4.35386 14.0242 4.35414 14.0908 4.35449C14.2505 4.35539 14.4106 4.35693 14.5703 4.3584C14.5152 4.40224 14.4601 4.44605 14.4033 4.49121C14.1986 4.65566 13.996 4.82255 13.7939 4.99023C13.3752 5.33377 12.9425 5.65433 12.501 5.96777C13.131 5.6264 13.7576 5.27902 14.3838 4.93066C14.4396 4.90002 14.4952 4.86848 14.5527 4.83691C14.669 4.77137 14.784 4.70316 14.8975 4.63281C15.3004 4.38884 15.5595 4.31273 16.0312 4.33398ZM19.168 5.89062C19.2438 5.86533 19.3203 5.84051 19.3984 5.81445C19.3479 5.78916 19.2972 5.76336 19.2451 5.7373C19.2199 5.78783 19.194 5.83857 19.168 5.89062ZM11.1211 5.50781C11.197 5.48252 11.2734 5.45672 11.3516 5.43066C11.301 5.4054 11.2503 5.38052 11.1982 5.35449C11.173 5.40507 11.1472 5.4557 11.1211 5.50781ZM14.877 0.90918C14.9416 0.877635 15.0066 0.845977 15.0732 0.813477C15.3529 0.752471 15.3894 0.755375 15.624 0.885742C15.8729 1.06282 15.8731 1.06312 16.0264 1.29297L16.1025 1.36914C16.3319 1.72355 16.4494 1.9324 16.4092 2.36523V2.51855C16.3824 2.97421 16.2692 3.27182 15.9492 3.5918C15.5545 3.87852 15.2038 3.95261 14.7236 3.89844C14.4556 3.78355 14.4549 3.78371 14.2637 3.66895C14.3901 3.49191 14.5162 3.31423 14.6465 3.13184C14.577 3.16976 14.5072 3.208 14.4355 3.24707C14.1868 3.36186 14.1863 3.3623 13.8799 3.3623C13.5093 2.89637 13.4616 2.49136 13.4658 1.90918C13.5295 1.4415 13.827 1.18079 14.1631 0.875977C14.4189 0.703166 14.5648 0.679688 14.877 0.679688V0.90918Z" fill="white"/>
</svg>
