<svg width="30" height="30" viewBox="0 0 30 30" fill="none" xmlns="http://www.w3.org/2000/svg">
<path d="M17.1731 6.23633C17.3215 6.31051 17.3215 6.31051 17.4729 6.38619C17.1482 6.71089 16.8235 7.03558 16.4988 7.36028C16.644 7.28866 16.7892 7.21681 16.9343 7.14486C17.0151 7.10487 17.096 7.06488 17.1793 7.02368C17.4038 6.91278 17.4038 6.91278 17.6227 6.76084C17.8079 6.77735 17.8953 6.80934 18.029 6.93938C18.0618 6.98246 18.0947 7.02554 18.1285 7.06993C18.3362 7.32621 18.563 7.53347 18.814 7.74664C19.0792 7.97933 19.3245 8.23192 19.5709 8.48423C19.3002 8.7753 19.0276 8.98121 18.6858 9.18202C18.6186 9.22237 18.6186 9.22237 18.5501 9.26353C18.4411 9.32895 18.3317 9.39371 18.2222 9.45832C18.3486 9.38971 18.4751 9.321 18.6015 9.25226C18.6766 9.2116 18.7518 9.17094 18.8292 9.12904C19.0036 9.03246 19.1723 8.93133 19.3414 8.8261C19.5709 8.70902 19.5709 8.70902 19.7348 8.70902C19.9126 8.8071 20.0349 8.93372 20.1703 9.08367C20.0671 9.32461 19.9541 9.45624 19.7489 9.61755C19.608 9.7252 19.608 9.7252 19.496 9.83297C19.496 9.88243 19.496 9.93188 19.496 9.98283C19.3829 10.0945 19.3829 10.0945 19.2283 10.223C18.9333 10.474 18.6567 10.7368 18.3835 11.0113C18.3356 11.0592 18.2876 11.1071 18.2382 11.1564C18.0794 11.3151 17.9209 11.4741 17.7623 11.633C17.6478 11.7476 17.5333 11.8621 17.4188 11.9765C17.1092 12.2861 16.7998 12.5959 16.4905 12.9058C16.1667 13.23 15.8427 13.554 15.5188 13.8781C14.9059 14.4912 14.2932 15.1045 13.6806 15.7179C12.9829 16.4164 12.285 17.1147 11.5871 17.813C10.1519 19.2489 8.71706 20.6851 7.28236 22.1215C7.04637 22.0089 6.88592 21.8932 6.70099 21.707C6.62002 21.626 6.62002 21.626 6.53741 21.5434C6.47995 21.4852 6.42249 21.4269 6.3633 21.3669C6.30385 21.3073 6.2444 21.2476 6.18315 21.1861C5.99346 20.9956 5.80431 20.8046 5.61517 20.6135C5.48661 20.4842 5.35802 20.355 5.22939 20.2257C4.91425 19.9089 4.59954 19.5917 4.28516 19.2742C4.40213 18.9934 4.57557 18.8158 4.79 18.6024C4.84394 18.5485 4.84394 18.5485 4.89898 18.4934C5.01764 18.3748 5.13683 18.2568 5.25603 18.1388C5.33895 18.0562 5.42183 17.9735 5.50469 17.8908C5.72286 17.6732 5.94149 17.456 6.16021 17.239C6.38179 17.0189 6.60295 16.7984 6.82414 16.578C7.21418 16.1894 7.60458 15.8012 7.99524 15.4132C8.3776 15.0329 8.75804 14.6507 9.13853 14.2686C9.72226 13.6824 10.3064 13.0966 10.8907 12.511C11.2441 12.1568 11.5973 11.8026 11.9502 11.448C12.2918 11.1047 12.6339 10.7618 12.9761 10.4191C13.1066 10.2884 13.2369 10.1575 13.3671 10.0265C13.5486 9.84394 13.7306 9.6618 13.9127 9.47976C13.9666 9.42527 14.0206 9.37078 14.0762 9.31463C14.1258 9.26526 14.1753 9.21589 14.2264 9.16503C14.2694 9.12193 14.3123 9.07883 14.3566 9.03443C14.4756 8.93381 14.4756 8.93381 14.7004 8.85888C14.7716 8.75303 14.8423 8.64686 14.9102 8.53892C15.0788 8.296 15.2945 8.09677 15.5048 7.89006C15.5526 7.84246 15.6004 7.79487 15.6496 7.74583C15.8012 7.5951 15.9533 7.4449 16.1054 7.29472C16.2087 7.19211 16.3121 7.08947 16.4153 6.9868C16.6675 6.73624 16.9202 6.48616 17.1731 6.23633ZM18.1472 7.43521C18.1225 7.48466 18.0978 7.53412 18.0723 7.58507C18.1465 7.56034 18.2207 7.53562 18.2971 7.51014C18.2476 7.48541 18.1982 7.46069 18.1472 7.43521ZM17.9974 9.53325C17.9726 9.58271 17.9479 9.63216 17.9224 9.68311C17.9966 9.65839 18.0708 9.63366 18.1472 9.60818C18.0978 9.58346 18.0483 9.55873 17.9974 9.53325Z" fill="white"/>
<path d="M21.2179 10.1319C21.3354 10.2239 21.3354 10.2239 21.4471 10.3391C21.4884 10.3811 21.5297 10.4232 21.5722 10.4665C21.6145 10.5106 21.6567 10.5547 21.7002 10.6002C21.7422 10.6432 21.7842 10.6862 21.8274 10.7305C21.9105 10.8156 21.9934 10.9009 22.0761 10.9865C22.3027 11.2202 22.5339 11.4488 22.7671 11.6759C22.8649 11.7716 22.8649 11.7716 22.9647 11.8693C23.0309 11.9338 23.097 11.9982 23.1652 12.0646C23.3159 12.2299 23.3159 12.2299 23.3159 12.3798C23.1373 12.5068 22.9584 12.6245 22.7727 12.7404C22.6569 12.8139 22.541 12.8875 22.4253 12.9611C22.3326 13.0197 22.3326 13.0197 22.2381 13.0794C21.8947 13.2978 21.5541 13.5204 21.2132 13.7426C21.0843 13.8264 20.9554 13.9102 20.8266 13.994C20.7322 14.0554 20.6379 14.1168 20.5435 14.1781C20.9792 13.9423 21.4133 13.7038 21.8448 13.4604C21.9651 13.3926 21.9651 13.3926 22.0878 13.3235C22.2527 13.2303 22.4176 13.137 22.5824 13.0436C22.662 12.9988 22.7416 12.954 22.8236 12.9078C22.8949 12.8675 22.9662 12.8272 23.0396 12.7857C23.2282 12.6862 23.4162 12.6047 23.6156 12.5297C23.4385 12.9602 23.0597 13.2604 22.7355 13.5833C22.6158 13.7028 22.4971 13.8232 22.3784 13.9438C21.9266 14.3981 21.4679 14.795 20.9391 15.1577C20.7582 15.2821 20.7582 15.2821 20.7319 15.4476C20.6657 15.7123 20.447 15.8753 20.2567 16.0604C20.1908 16.1258 20.1908 16.1258 20.1236 16.1925C19.9831 16.3318 19.8419 16.4702 19.7006 16.6087C19.6065 16.7015 19.5126 16.7945 19.4187 16.8875C19.2101 17.0938 19.0011 17.2997 18.7916 17.5051C18.6255 17.6691 18.4606 17.8344 18.2956 17.9996C18.1848 18.1104 18.074 18.2211 17.9633 18.3319C17.8991 18.3961 17.8349 18.4603 17.7687 18.5264C15.4217 20.8735 13.0747 23.2205 10.7277 25.5675C10.4917 25.4549 10.3312 25.3392 10.1463 25.153C10.0653 25.072 10.0653 25.072 9.98272 24.9894C9.92526 24.9312 9.86781 24.8729 9.80861 24.8129C9.74916 24.7533 9.68971 24.6936 9.62846 24.6321C9.43878 24.4416 9.24962 24.2506 9.06048 24.0595C8.93192 23.9302 8.80333 23.8009 8.67471 23.6717C8.35956 23.3549 8.04485 23.0377 7.73047 22.7202C7.85393 22.4055 8.08532 22.193 8.31964 21.9586C8.36512 21.9125 8.41059 21.8664 8.45744 21.8189C8.61017 21.6644 8.76342 21.5104 8.91669 21.3564C9.02628 21.2457 9.13583 21.135 9.24536 21.0243C9.60583 20.6603 9.9671 20.2971 10.3284 19.934C10.4531 19.8086 10.5779 19.6832 10.7026 19.5577C11.2221 19.0353 11.7419 18.513 12.2622 17.9913C13.0053 17.2462 13.7473 16.4999 14.4877 15.7519C15.0094 15.225 15.5325 14.6993 16.0566 14.1746C16.3688 13.862 16.6805 13.5488 16.9907 13.2342C20.36 9.81998 20.36 9.81998 21.2179 10.1319ZM20.1689 14.328C20.1441 14.3774 20.1194 14.4269 20.0939 14.4778C20.1681 14.4531 20.2423 14.4284 20.3187 14.4029C20.2693 14.3782 20.2198 14.3535 20.1689 14.328ZM20.5435 15.3021C20.5188 15.3515 20.4941 15.401 20.4686 15.4519C20.5428 15.4272 20.6169 15.4025 20.6934 15.377C20.6439 15.3523 20.5945 15.3276 20.5435 15.3021Z" fill="white"/>
<path d="M24.7469 0.0911112C25.2176 0.411596 25.5873 0.84773 25.9411 1.28999C25.8442 1.50612 25.7419 1.65507 25.5665 1.8145C25.6345 1.77587 25.7025 1.73723 25.7725 1.69742C26.0161 1.58971 26.0161 1.58971 26.1706 1.58971C26.3848 1.70028 26.5282 1.86355 26.6904 2.03929C26.5739 2.34526 26.3719 2.49503 26.1191 2.69493C26.0439 2.75482 25.9688 2.8147 25.8914 2.8764C25.8336 2.92161 25.7759 2.96681 25.7163 3.01338C25.7635 2.98982 25.8106 2.96625 25.8592 2.94197C26.2611 2.74098 26.6631 2.54 27.0651 2.33901C27.1532 2.40844 27.2404 2.47888 27.3273 2.54975C27.376 2.58887 27.4247 2.62799 27.4749 2.6683C27.5896 2.78859 27.5896 2.78859 27.5896 3.01338C27.6452 3.01957 27.7009 3.02575 27.7582 3.03212C28.0081 3.10026 28.1102 3.18103 28.264 3.38804C28.25 3.60353 28.1922 3.68438 28.0441 3.84347C27.9822 3.89717 27.9203 3.95088 27.8565 4.00621C27.7896 4.06445 27.7227 4.1227 27.6537 4.1827C27.3371 4.44816 27.016 4.70731 26.6904 4.96157C26.8623 4.87129 27.034 4.78074 27.2056 4.68995C27.2567 4.663 27.3077 4.63606 27.3604 4.6083C27.7216 4.41609 28.069 4.20923 28.41 3.9825C28.5637 3.91255 28.5637 3.91255 28.7229 3.92513C28.9593 4.03003 29.0439 4.21621 29.1631 4.43706C29.0662 4.72793 28.9249 4.8105 28.6854 4.99903C28.4587 5.17851 28.2411 5.35423 28.0392 5.56101C28.1651 5.48799 28.1651 5.48799 28.2935 5.41349C28.4039 5.35024 28.5142 5.28702 28.6246 5.22382C28.7075 5.17558 28.7075 5.17558 28.7921 5.12635C28.8455 5.09593 28.8989 5.0655 28.9538 5.03416C29.0029 5.0059 29.0519 4.97765 29.1025 4.94854C29.2381 4.88664 29.2381 4.88664 29.4628 4.88664C29.6515 5.45267 29.6515 5.45267 29.5378 5.7858C29.3665 5.9699 29.3665 5.9699 29.1584 6.1464C29.0896 6.20561 29.0207 6.26482 28.9497 6.32582C28.8699 6.39232 28.8699 6.39232 28.7885 6.46017C28.83 6.43853 28.8715 6.4169 28.9143 6.3946C28.9686 6.36679 29.0229 6.33897 29.0788 6.31031C29.1327 6.28249 29.1866 6.25467 29.2422 6.22601C29.3879 6.16045 29.3879 6.16045 29.5378 6.16045C29.4887 6.81458 29.0598 7.27214 28.6091 7.71056C28.5647 7.75462 28.5203 7.79868 28.4746 7.84407C28.3347 7.98275 28.194 8.12063 28.0532 8.25849C27.9574 8.35317 27.8616 8.44791 27.7659 8.5427C27.5329 8.77327 27.2992 9.00311 27.0651 9.23258C26.8454 9.13358 26.6914 9.0268 26.523 8.855C26.48 8.81154 26.437 8.76807 26.3928 8.72329C26.3488 8.67809 26.3049 8.63288 26.2596 8.58631C26.2145 8.54053 26.1694 8.49474 26.1229 8.44757C26.012 8.33493 25.9016 8.22182 25.7913 8.10863C25.8931 7.89429 25.9895 7.74452 26.1659 7.58412C26.1118 7.62276 26.0577 7.66139 26.002 7.7012C25.7913 7.80891 25.7913 7.80891 25.6086 7.81359C25.3413 7.70274 25.1215 7.53233 24.967 7.2844C24.9953 7.03624 25.0801 6.92219 25.2668 6.75989C25.0937 6.83407 24.9206 6.90825 24.7422 6.98468C24.6415 6.90459 24.5418 6.82316 24.4425 6.74116C24.3869 6.69595 24.3313 6.65075 24.2739 6.60417C24.1428 6.46017 24.1428 6.46017 24.1428 6.16045C24.2903 6.00005 24.2903 6.00005 24.48 5.842C24.5426 5.78906 24.6052 5.73613 24.6697 5.6816C24.7427 5.62191 24.7427 5.62191 24.8172 5.56101C24.762 5.59433 24.7069 5.62765 24.65 5.66199C24.5769 5.70439 24.5038 5.74679 24.4285 5.79048C24.3563 5.83308 24.2842 5.87567 24.2098 5.91956C23.9631 6.0231 23.8666 6.02753 23.6183 5.93566C23.4834 5.83526 23.4834 5.83526 23.3701 5.71555C23.3317 5.67624 23.2934 5.63693 23.2539 5.59642C23.1687 5.48608 23.1687 5.48608 23.1687 5.33622C23.127 5.31922 23.0853 5.30222 23.0423 5.2847C22.8216 5.15946 22.6681 4.99508 22.4943 4.81171C22.5806 4.62678 22.6478 4.5084 22.7941 4.36213C22.6457 4.43631 22.4973 4.51049 22.3445 4.58692C22.2522 4.50748 22.1602 4.42782 22.0682 4.34808C22.0169 4.30374 21.9656 4.25941 21.9128 4.21373C21.7252 4.0445 21.5479 3.86746 21.3704 3.68776C21.3042 3.62159 21.2381 3.55543 21.1699 3.48726C20.987 3.30432 20.804 3.12139 20.6211 2.93845C20.6705 2.83955 20.72 2.74064 20.771 2.63873C20.8204 2.63873 20.8699 2.63873 20.9208 2.63873C20.9383 2.59662 20.9558 2.55451 20.9738 2.51112C21.0946 2.2965 21.2445 2.15375 21.4219 1.9831C21.651 1.75957 21.8695 1.53705 22.0729 1.28999C22.7532 0.500306 23.6452 -0.268644 24.7469 0.0911112ZM25.4915 3.08831C25.4668 3.13777 25.4421 3.18722 25.4166 3.23817C25.4908 3.21345 25.565 3.18872 25.6414 3.16324C25.592 3.13852 25.5425 3.11379 25.4915 3.08831Z" fill="white"/>
<path d="M3.68575 19.873C4.06597 20.1914 4.42232 20.5243 4.77193 20.8758C4.82536 20.9292 4.87878 20.9826 4.93383 21.0377C5.10874 21.2126 5.28338 21.3878 5.45802 21.5631C5.5799 21.6851 5.70178 21.8071 5.82369 21.9291C6.14326 22.2489 6.46261 22.569 6.78191 22.8891C7.10827 23.2163 7.43484 23.5432 7.76139 23.8701C8.40119 24.5107 9.04075 25.1515 9.68016 25.7925C9.48139 25.9956 9.29891 26.1559 9.05379 26.3004C8.98956 26.3384 8.92533 26.3764 8.85915 26.4156C8.79009 26.4557 8.72103 26.4958 8.64987 26.5371C8.57811 26.5791 8.50634 26.6211 8.4324 26.6644C7.87876 26.9861 7.31997 27.2982 6.75789 27.6049C6.68238 27.6463 6.60687 27.6877 6.52907 27.7303C6.18708 27.9149 5.86102 28.0865 5.48407 28.1903C5.45317 28.1133 5.42226 28.0363 5.39041 27.957C4.70105 26.2852 3.69618 25.3832 2.04578 24.6899C1.9688 24.6582 1.89181 24.6264 1.8125 24.5936C1.8679 24.2512 1.98185 23.9341 2.10051 23.6096C2.12189 23.5507 2.14327 23.4918 2.1653 23.4311C2.2346 23.2409 2.30446 23.0509 2.37448 22.8609C2.39806 22.7967 2.42165 22.7325 2.44596 22.6663C3.35219 20.2066 3.35219 20.2066 3.68575 19.873Z" fill="white"/>
<path d="M20.0361 3.54296C20.2177 3.63684 20.3409 3.75629 20.4835 3.90241C20.5356 3.95476 20.5877 4.00711 20.6413 4.06105C20.762 4.20304 20.8441 4.31471 20.8441 4.51121C20.8885 4.51923 20.9328 4.52725 20.9785 4.53551C21.1653 4.59271 21.2534 4.66098 21.3921 4.79689C21.432 4.83446 21.4719 4.87203 21.513 4.91074C21.5934 5.03573 21.5934 5.03573 21.5733 5.19115C21.5185 5.33545 21.5185 5.33545 21.4436 5.48531C21.5178 5.43585 21.592 5.3864 21.6684 5.33545C21.9163 5.35936 22.0414 5.45468 22.2116 5.63048C22.2506 5.66979 22.2897 5.70911 22.3299 5.74961C22.4177 5.85996 22.4177 5.85996 22.4177 6.00982C22.4579 6.02527 22.498 6.04073 22.5394 6.05665C22.7894 6.20133 22.9994 6.37208 23.167 6.60926C23.1576 6.82468 23.1576 6.82468 23.0921 6.98391C23.1415 6.95918 23.191 6.93445 23.2419 6.90898C23.4892 6.94165 23.6136 7.02683 23.7852 7.20401C23.8242 7.24333 23.8632 7.28264 23.9034 7.32314C23.9912 7.43349 23.9912 7.43349 23.9912 7.58335C24.0549 7.61051 24.0549 7.61051 24.1198 7.63823C24.3248 7.75201 24.4656 7.88843 24.6316 8.054C24.6949 8.11708 24.7582 8.18015 24.8233 8.24513C24.8887 8.3111 24.9541 8.37707 25.0215 8.44504C25.0881 8.51102 25.1546 8.57699 25.2232 8.64496C25.286 8.70803 25.3489 8.7711 25.4137 8.83609C25.4714 8.89399 25.5292 8.9519 25.5887 9.01156C25.7146 9.15688 25.7146 9.15688 25.7146 9.30674C25.7795 9.33456 25.7795 9.33456 25.8457 9.36294C26.043 9.47254 26.1735 9.57936 26.314 9.75632C26.3053 10.0868 26.0437 10.2798 25.822 10.4951C25.7806 10.5362 25.7391 10.5774 25.6963 10.6198C25.564 10.7509 25.4309 10.8811 25.2978 11.0114C25.2078 11.1002 25.1179 11.1891 25.0281 11.278C24.8079 11.4957 24.5871 11.7127 24.3659 11.9293C24.1487 11.8309 23.9925 11.725 23.8238 11.557C23.7593 11.4928 23.7593 11.4928 23.6935 11.4273C23.6496 11.3828 23.6056 11.3383 23.5604 11.2924C23.5153 11.2479 23.4701 11.2033 23.4237 11.1575C23.3811 11.1147 23.3385 11.0719 23.2946 11.0278C23.2557 10.9887 23.2168 10.9496 23.1767 10.9094C23.0921 10.8053 23.0921 10.8053 23.0921 10.6555C23.0275 10.6276 23.0275 10.6276 22.9616 10.5991C22.7669 10.4916 22.6373 10.3675 22.4812 10.2091C22.423 10.1504 22.3648 10.0918 22.3048 10.0313C22.2447 9.96993 22.1846 9.90854 22.1226 9.8453C22.0628 9.78479 22.003 9.72427 21.9413 9.66193C21.8253 9.54456 21.7094 9.42707 21.5937 9.30943C21.3218 9.03311 21.0467 8.76028 20.7701 8.48866C20.6621 8.38202 20.5541 8.27539 20.4461 8.16874C20.3906 8.1145 20.3351 8.06027 20.2779 8.00439C20.2255 7.95247 20.1731 7.90056 20.1191 7.84707C20.0474 7.77648 20.0474 7.77648 19.9742 7.70447C19.8701 7.58335 19.8701 7.58335 19.8701 7.43349C19.805 7.40524 19.805 7.40524 19.7386 7.37641C19.5491 7.27194 19.4254 7.15341 19.2753 6.99796C19.2232 6.94445 19.1712 6.89094 19.1175 6.8358C19.0691 6.78577 19.0208 6.73574 18.9709 6.68419C18.9029 6.61773 18.8349 6.55128 18.7648 6.48281C18.5955 6.30872 18.4448 6.12711 18.2965 5.93489C18.3954 5.81125 18.4943 5.68762 18.5962 5.56024C18.5406 5.60042 18.485 5.6406 18.4277 5.682C18.3257 5.733 18.3257 5.733 18.2216 5.78503C18.0483 5.72415 18.0483 5.72415 17.9219 5.63517C18.0424 5.33862 18.2478 5.13395 18.4692 4.91016C18.5082 4.87049 18.5472 4.83082 18.5874 4.78995C18.6697 4.70656 18.7522 4.62338 18.8349 4.54039C18.9615 4.4129 19.0866 4.28407 19.2118 4.15515C19.292 4.07423 19.3723 3.9934 19.4527 3.91265C19.49 3.87387 19.5273 3.83509 19.5658 3.79513C19.8286 3.53567 19.8286 3.53567 20.0361 3.54296ZM20.1698 7.05884C20.1203 7.15775 20.0709 7.25665 20.0199 7.35856C20.1188 7.25965 20.2177 7.16074 20.3196 7.05884C20.2702 7.05884 20.2207 7.05884 20.1698 7.05884ZM24.0661 11.1051C24.1403 11.1298 24.2145 11.1545 24.2909 11.18C24.3404 11.0811 24.3898 10.9822 24.4408 10.8803C24.2933 10.8803 24.1781 11.0184 24.0661 11.1051Z" fill="white"/>
<path d="M1.66227 25.2676C2.53965 25.3726 3.20752 26.0448 3.76032 26.6912C4.20706 27.2916 4.42317 27.8399 4.58455 28.5645C2.73758 29.3402 2.73758 29.3402 1.99858 29.6182C1.87168 29.666 1.74553 29.7159 1.62012 29.7675C1.14907 29.9502 0.66712 30.0323 0.163671 29.9882C-0.0243784 29.7061 -0.0102985 29.5743 0.0138108 29.2389C0.066 29.0356 0.122364 28.8458 0.19177 28.6488C0.211281 28.5921 0.230792 28.5354 0.250894 28.477C0.434988 27.9523 0.634825 27.4336 0.838042 26.916C0.868214 26.8383 0.898386 26.7606 0.929473 26.6805C1.13034 26.1783 1.3695 25.7223 1.66227 25.2676Z" fill="white"/>
<path d="M12.9035 21.7461C12.9529 21.7708 13.0024 21.7955 13.0533 21.821C13.0199 21.845 12.9865 21.8691 12.9521 21.8938C12.2837 22.3747 11.6174 22.8581 10.9553 23.3477C10.4854 23.6951 10.014 24.0388 9.53161 24.3686C9.29475 24.266 9.23244 24.2196 9.08203 23.994C9.95942 23.4381 10.8622 22.9253 11.7637 22.4099C11.93 22.3136 12.0953 22.2157 12.2598 22.1164C12.3407 22.0677 12.4217 22.019 12.5051 21.9688C12.5781 21.9243 12.651 21.8798 12.7262 21.8339C12.814 21.7904 12.814 21.7904 12.9035 21.7461Z" fill="white"/>
<path d="M2.93648 28.1895C2.93648 28.4931 2.82459 28.5579 2.61802 28.7748C2.33362 29.078 2.33362 29.078 2.10288 29.4211C1.82962 29.7946 1.36915 29.8721 0.935023 29.9623C0.675065 30.0009 0.426471 29.9973 0.164062 29.9878C0.262744 29.6917 0.377203 29.6624 0.646132 29.511C0.730407 29.463 0.814681 29.4151 0.901509 29.3657C0.991304 29.3154 1.08111 29.2652 1.17094 29.2151C1.25815 29.1658 1.34532 29.1165 1.43246 29.0671C1.60286 28.9705 1.77334 28.8741 1.94391 28.7779C2.27807 28.5872 2.60791 28.3896 2.93648 28.1895Z" fill="white"/>
<path d="M12.3761 19.7227C12.4256 19.7474 12.475 19.7721 12.526 19.7976C11.8996 20.2047 11.2733 20.6119 10.6469 21.019C10.5858 21.0587 10.5248 21.0984 10.4618 21.1393C10.3392 21.219 10.2165 21.2986 10.0938 21.3781C9.76508 21.5912 9.43776 21.806 9.11199 22.0235C9.0438 22.0687 8.97561 22.1139 8.90535 22.1605C8.77424 22.2475 8.64349 22.335 8.51314 22.4231C8.45422 22.462 8.3953 22.5009 8.33459 22.541C8.28292 22.5756 8.23124 22.6102 8.178 22.6459C8.03019 22.7199 8.03019 22.7199 7.73047 22.7199C7.90185 22.32 8.17236 22.1071 8.55236 21.9106C9.02195 21.6623 9.48132 21.3985 9.94091 21.1323C10.0672 21.0594 10.0672 21.0594 10.1961 20.9851C10.5954 20.7546 10.9938 20.523 11.3903 20.2879C11.4561 20.2491 11.5218 20.2103 11.5895 20.1704C11.7119 20.0981 11.8339 20.0254 11.9557 19.9521C12.0932 19.871 12.2344 19.7961 12.3761 19.7227Z" fill="white"/>
<path d="M8.10764 26.3164C8.15709 26.3411 8.20655 26.3659 8.2575 26.3913C8.22592 26.4212 8.19433 26.451 8.16179 26.4818C8.12074 26.5215 8.07969 26.5612 8.03739 26.6021C7.97611 26.6608 7.97611 26.6608 7.91358 26.7206C7.7903 26.8453 7.7903 26.8453 7.73299 27.0657C7.56654 27.1783 7.56654 27.1783 7.34809 27.2955C7.26923 27.338 7.19036 27.3806 7.10911 27.4244C7.02599 27.4683 6.94288 27.5122 6.85724 27.5574C6.77558 27.6016 6.69391 27.6458 6.60977 27.6913C6.23924 27.8896 5.8876 28.065 5.48509 28.1897C5.46036 28.0908 5.43563 27.9918 5.41016 27.8899C5.46525 27.8582 5.52034 27.8266 5.5771 27.7939C5.78522 27.6741 5.99329 27.5543 6.20135 27.4344C6.29071 27.383 6.38007 27.3315 6.46946 27.2801C6.59934 27.2054 6.72917 27.1306 6.859 27.0558C6.9433 27.0072 7.0276 26.9587 7.11445 26.9087C7.40171 26.7406 7.68414 26.5653 7.96499 26.3867C8.01206 26.3635 8.05914 26.3403 8.10764 26.3164Z" fill="white"/>
<path d="M8.9294 16.6504C8.97885 16.6751 9.02831 16.6998 9.07926 16.7253C8.50173 17.1003 7.9237 17.4744 7.34328 17.8449C7.26385 17.8956 7.18443 17.9463 7.10259 17.9986C6.94053 18.102 6.77839 18.2052 6.61617 18.3083C6.26559 18.5319 5.91675 18.7564 5.57569 18.9943C5.52417 19.03 5.47266 19.0658 5.41958 19.1026C5.32753 19.167 5.23612 19.2324 5.14554 19.2989C4.94325 19.4404 4.84216 19.5007 4.59165 19.4787C4.53949 19.4603 4.48733 19.4418 4.43359 19.4228C4.54193 19.0978 4.78714 19.0261 5.07518 18.8749C5.19861 18.8082 5.32192 18.7414 5.44515 18.6744C5.5116 18.6383 5.57806 18.6022 5.64652 18.565C6.02181 18.3579 6.39128 18.1409 6.76111 17.9242C6.87502 17.8577 6.87502 17.8577 6.99122 17.7899C7.34481 17.5832 7.69743 17.3751 8.04809 17.1635C8.10725 17.128 8.1664 17.0925 8.22735 17.0559C8.33681 16.9901 8.44596 16.9238 8.55477 16.8569C8.67702 16.7835 8.80291 16.7162 8.9294 16.6504Z" fill="white"/>
<path d="M12.0792 18.6738C12.1287 18.6986 12.1781 18.7233 12.2291 18.7488C11.5614 19.1938 11.5614 19.1938 10.8803 19.6479C10.8309 19.6232 10.7814 19.5985 10.7305 19.573C10.8341 19.4612 10.9389 19.3506 11.0442 19.2405C11.1025 19.1788 11.1607 19.117 11.2207 19.0535C11.4187 18.887 11.5277 18.8544 11.7795 18.8237C11.8336 18.7959 11.8877 18.7681 11.9434 18.7394C11.9882 18.7178 12.033 18.6961 12.0792 18.6738Z" fill="white"/>
<path d="M11.7032 21.2969C11.7526 21.3216 11.8021 21.3463 11.853 21.3718C9.56123 22.8997 9.56123 22.8997 9.34606 23.0426C9.23252 23.1186 9.11946 23.1954 9.00748 23.2737C8.72373 23.4717 8.72373 23.4717 8.52801 23.4511C8.48783 23.4326 8.44765 23.414 8.40625 23.3949C8.49711 23.0952 8.69228 22.9981 8.95769 22.8556C9.01371 22.8265 9.06973 22.7974 9.12745 22.7674C9.24875 22.7025 9.36992 22.6374 9.49098 22.5722C9.55678 22.5367 9.62258 22.5012 9.69038 22.4646C9.92586 22.3343 10.1575 22.1985 10.389 22.0611C10.4702 22.0129 10.5515 21.9647 10.6352 21.915C10.7967 21.8189 10.9579 21.7223 11.1188 21.6253C11.1927 21.5815 11.2665 21.5378 11.3426 21.4927C11.4085 21.4531 11.4745 21.4135 11.5425 21.3728C11.622 21.3352 11.622 21.3352 11.7032 21.2969Z" fill="white"/>
<path d="M8.40556 20.7715C8.45502 20.7962 8.50447 20.8209 8.55542 20.8464C8.13507 21.2668 7.71471 21.6871 7.28161 22.1202C6.98189 21.9704 6.98189 21.9704 6.83203 21.7456C7.21012 21.4849 7.59508 21.2375 7.98876 21.001C8.06439 20.9555 8.14002 20.91 8.21795 20.8631C8.27986 20.8329 8.34177 20.8026 8.40556 20.7715Z" fill="white"/>
<path d="M3.61082 23.2441C3.66028 23.2689 3.70973 23.2936 3.76068 23.3191C3.47911 23.5597 3.19666 23.7993 2.91282 24.0372C2.80223 24.1302 2.69221 24.2238 2.58229 24.3175C2.49565 24.3889 2.49565 24.3889 2.40726 24.4618C2.35693 24.5039 2.30661 24.546 2.25476 24.5894C2.11222 24.6678 2.11222 24.6678 1.94392 24.6432C1.87887 24.6183 1.87887 24.6183 1.8125 24.5929C1.82743 24.419 1.82743 24.419 1.88743 24.2182C2.04344 24.1017 2.04344 24.1017 2.24803 24.0028C2.6545 23.799 3.0408 23.5732 3.42847 23.3358C3.51874 23.2904 3.51874 23.2904 3.61082 23.2441Z" fill="white"/>
<path d="M9.53024 14.1777C9.57969 14.2025 9.62915 14.2272 9.6801 14.2527C9.51319 14.373 9.34614 14.4932 9.179 14.6133C9.13211 14.6471 9.08521 14.681 9.0369 14.7159C8.78273 14.8982 8.52787 15.0705 8.25643 15.2268C8.42037 14.7349 8.95558 14.4791 9.38652 14.2366C9.45766 14.2074 9.45766 14.2074 9.53024 14.1777ZM6.53303 16.8752C6.63194 16.9247 6.73085 16.9741 6.83275 17.0251C6.58549 17.1982 6.33822 17.3713 6.08345 17.5496C6.034 17.5249 5.98455 17.5001 5.93359 17.4747C6.13141 17.2768 6.32922 17.079 6.53303 16.8752Z" fill="white"/>
<path d="M8.92467 21.8777C9.00117 21.9241 9.00117 21.9241 9.07921 21.9714C8.84872 22.1647 8.60943 22.3428 8.36269 22.5146C8.30696 22.5537 8.25123 22.5927 8.19381 22.6329C8.03019 22.7207 8.03019 22.7207 7.73047 22.7207C7.91975 22.279 8.40992 21.7463 8.92467 21.8777Z" fill="white"/>
<path d="M20.0373 3.53711C20.1691 3.61328 20.1691 3.61328 20.3189 3.83807C19.8881 3.913 19.8881 3.913 19.7195 3.913C19.5838 4.03554 19.4556 4.15956 19.3279 4.29C19.2708 4.34737 19.2708 4.34737 19.2126 4.40591C19.0908 4.5285 18.9696 4.65159 18.8484 4.7747C18.7661 4.85776 18.6838 4.94079 18.6014 5.02378C18.3992 5.2276 18.1975 5.43187 17.9961 5.6364C17.9961 5.31732 18.1818 5.19089 18.3953 4.97725C18.4566 4.91509 18.4566 4.91509 18.5192 4.85167C18.6058 4.76422 18.6928 4.67707 18.78 4.59019C18.9135 4.45675 19.0453 4.3218 19.1771 4.18667C19.2614 4.10199 19.3458 4.0174 19.4303 3.93291C19.4697 3.89225 19.5092 3.85159 19.5498 3.80971C19.8259 3.53867 19.8259 3.53867 20.0373 3.53711Z" fill="white"/>
<path d="M2.8601 25.9414C3.15982 26.0913 3.15982 26.0913 3.23475 26.2411C3.05097 26.3558 2.86674 26.4696 2.68214 26.583C2.62979 26.6158 2.57744 26.6486 2.5235 26.6824C2.38865 26.7647 2.24993 26.8406 2.1108 26.9155C2.06134 26.8908 2.01189 26.866 1.96094 26.8406C2.25766 26.5438 2.55438 26.2471 2.8601 25.9414Z" fill="white"/>
<path d="M5.11046 24.5938C5.15991 24.6185 5.20937 24.6432 5.26032 24.6687C5.09372 24.8035 4.92664 24.9376 4.75923 25.0714C4.71233 25.1095 4.66544 25.1475 4.61712 25.1868C4.36669 25.386 4.14624 25.5445 3.83665 25.6428C3.81192 25.5933 3.78719 25.5439 3.76172 25.4929C4.0084 25.2183 4.27769 25.0492 4.59532 24.8701C4.66645 24.8283 4.66645 24.8283 4.73903 24.7856C4.86009 24.7166 4.98507 24.6546 5.11046 24.5938Z" fill="white"/>
<path d="M7.65521 19.4238C7.70467 19.4486 7.75412 19.4733 7.80507 19.4988C7.73193 19.5452 7.73193 19.5452 7.65732 19.5927C7.43649 19.7331 7.21569 19.8735 6.99489 20.0139C6.91815 20.0627 6.84141 20.1115 6.76235 20.1617C6.6887 20.2086 6.61505 20.2554 6.53916 20.3037C6.47128 20.3468 6.4034 20.39 6.33345 20.4345C6.19869 20.5208 6.065 20.6089 5.93182 20.6976C5.85764 20.6976 5.78346 20.6976 5.70703 20.6976C5.70703 20.6482 5.70703 20.5987 5.70703 20.5478C5.98129 20.3856 6.256 20.2242 6.53115 20.0635C6.62475 20.0086 6.71822 19.9536 6.81155 19.8984C6.94552 19.8191 7.07991 19.7407 7.21441 19.6624C7.29525 19.6149 7.37608 19.5674 7.45936 19.5185C7.52399 19.4873 7.58862 19.456 7.65521 19.4238Z" fill="white"/>
<path d="M5.78162 25.4922C5.83108 25.5169 5.88053 25.5416 5.93148 25.5671C5.77569 25.7017 5.61955 25.8359 5.46317 25.9699C5.39725 26.027 5.39725 26.027 5.32999 26.0852C5.11612 26.2678 4.92082 26.4331 4.65767 26.5412C4.60822 26.4423 4.55876 26.3434 4.50781 26.2415C4.71641 26.1141 4.92579 25.988 5.13535 25.8622C5.19485 25.8258 5.25435 25.7894 5.31565 25.752C5.37264 25.7179 5.42963 25.6839 5.48834 25.6488C5.56721 25.6011 5.56721 25.6011 5.64768 25.5525C5.71398 25.5226 5.71398 25.5226 5.78162 25.4922Z" fill="white"/>
<path d="M1.663 25.2676C1.88554 25.3047 1.88554 25.3047 2.11258 25.3425C2.13731 25.4167 2.16204 25.4909 2.18751 25.5673C2.07846 25.6301 1.96914 25.6925 1.85969 25.7546C1.76842 25.8068 1.76842 25.8068 1.67529 25.86C1.51314 25.9419 1.51314 25.9419 1.36328 25.9419C1.44261 25.687 1.51382 25.4914 1.663 25.2676Z" fill="white"/>
<path d="M9.26326 22.8507C9.32122 22.8971 9.32122 22.8971 9.38034 22.9444C9.17461 23.1654 8.98013 23.3387 8.70597 23.4689C8.53269 23.4455 8.53269 23.4455 8.40625 23.394C8.48343 23.1538 8.6017 23.0468 8.809 22.9163C9.08062 22.7945 9.08062 22.7945 9.26326 22.8507Z" fill="white"/>
<path d="M12.3757 19.7227C12.4252 19.7474 12.4746 19.7721 12.5256 19.7976C12.2822 19.9571 12.0387 20.1162 11.795 20.2753C11.7261 20.3205 11.6571 20.3657 11.586 20.4122C11.5194 20.4557 11.4527 20.4992 11.3841 20.544C11.3229 20.584 11.2617 20.624 11.1986 20.6652C11.0447 20.7607 10.8906 20.8438 10.7273 20.9215C10.7025 20.8474 10.6778 20.7732 10.6523 20.6967C10.9359 20.5319 11.2202 20.3683 11.5047 20.205C11.5856 20.1579 11.6666 20.1108 11.75 20.0623C11.8272 20.0181 11.9045 19.974 11.9841 19.9284C12.0555 19.8872 12.1269 19.846 12.2005 19.8036C12.2873 19.7635 12.2873 19.7635 12.3757 19.7227Z" fill="white"/>
<path d="M5.85869 17.5508C5.90814 17.5755 5.9576 17.6002 6.00855 17.6257C5.96354 17.6699 5.91854 17.7142 5.87217 17.7597C5.70528 17.9241 5.53872 18.0887 5.37239 18.2536C5.30035 18.3249 5.22818 18.3961 5.15587 18.4671C5.05192 18.5692 4.9485 18.6719 4.84508 18.7745C4.78269 18.8361 4.7203 18.8978 4.65602 18.9612C4.49514 19.1191 4.49514 19.1191 4.43502 19.3491C4.38556 19.3244 4.33611 19.2996 4.28516 19.2742C4.39858 19.0068 4.55529 18.8368 4.76108 18.6338C4.82483 18.5705 4.88858 18.5072 4.95426 18.442C5.02091 18.3766 5.08755 18.3113 5.15622 18.2439C5.22344 18.1773 5.29067 18.1108 5.35993 18.0422C5.52585 17.8781 5.69211 17.7143 5.85869 17.5508Z" fill="white"/>
<path d="M20.6211 9.68164C20.72 9.73109 20.8189 9.78055 20.9208 9.8315C20.6423 10.1464 20.2977 10.3558 19.9467 10.5808C19.8973 10.5561 19.8478 10.5313 19.7969 10.5059C20.0689 10.2339 20.3409 9.96188 20.6211 9.68164Z" fill="white"/>
<path d="M11.7035 21.2969C11.753 21.3216 11.8024 21.3463 11.8534 21.3718C10.9178 22.0047 10.9178 22.0047 10.4297 22.271C10.4575 22.0869 10.4754 21.9957 10.6208 21.8741C10.6941 21.8334 10.6941 21.8334 10.7689 21.7918C10.8221 21.762 10.8753 21.7322 10.9301 21.7015C11.0139 21.6565 11.0139 21.6565 11.0994 21.6106C11.1828 21.5635 11.1828 21.5635 11.2678 21.5154C11.5738 21.347 11.5738 21.347 11.7035 21.2969Z" fill="white"/>
<path d="M12.0792 18.6738C12.1287 18.6986 12.1781 18.7233 12.2291 18.7488C11.5614 19.1938 11.5614 19.1938 10.8803 19.6479C10.8309 19.6232 10.7814 19.5985 10.7305 19.573C11.0974 19.1428 11.5801 18.9234 12.0792 18.6738Z" fill="white"/>
<path d="M6.00854 22.1953C6.08272 22.2695 6.1569 22.3437 6.23333 22.4201C6.07453 22.5223 5.91529 22.6236 5.75565 22.7245C5.71044 22.7537 5.66524 22.7829 5.61867 22.813C5.50164 22.8865 5.38063 22.9535 5.25924 23.0195C5.20978 22.9948 5.16033 22.9701 5.10938 22.9446C5.4061 22.6973 5.70282 22.4501 6.00854 22.1953Z" fill="white"/>
<path d="M8.1797 24.4434C8.25388 24.4681 8.32806 24.4928 8.40449 24.5183C8.40449 24.5677 8.40449 24.6172 8.40449 24.6681C8.21307 24.8002 8.21307 24.8002 7.96428 24.9445C7.88256 24.9927 7.80085 25.0409 7.71666 25.0905C7.64692 25.1242 7.57718 25.1579 7.50533 25.1927C7.45588 25.1679 7.40642 25.1432 7.35547 25.1177C7.48736 25.0029 7.62024 24.8891 7.75353 24.7759C7.82743 24.7124 7.90132 24.6489 7.97745 24.5836C8.04419 24.5373 8.11093 24.491 8.1797 24.4434Z" fill="white"/>
<path d="M3.61187 26.7656C3.68605 26.7904 3.76023 26.8151 3.83666 26.8406C3.7454 27.1143 3.67601 27.1372 3.42923 27.2714C3.33897 27.3218 3.33897 27.3218 3.24688 27.3733C3.19424 27.3953 3.1416 27.4173 3.08736 27.44C3.03791 27.4153 2.98845 27.3905 2.9375 27.3651C3.16004 27.1673 3.38258 26.9694 3.61187 26.7656Z" fill="white"/>
<path d="M9.97977 23.9931C9.79036 24.2028 9.66476 24.3271 9.38033 24.3678C9.33088 24.2936 9.28142 24.2194 9.23047 24.143C9.50957 23.9436 9.64848 23.889 9.97977 23.9931Z" fill="white"/>
<path d="M24.2166 11.1055C24.1979 11.246 24.1979 11.246 24.1417 11.4052C23.9872 11.4989 23.9872 11.4989 23.842 11.555C23.7678 11.4561 23.6936 11.3572 23.6172 11.2553C23.8486 11.1231 23.9344 11.1055 24.2166 11.1055Z" fill="white"/>
<path d="M2.8601 25.9414C2.90955 25.9661 2.95901 25.9909 3.00996 26.0163C2.95316 26.0705 2.95316 26.0705 2.89522 26.1258C2.84654 26.1731 2.79786 26.2205 2.7477 26.2692C2.69902 26.3162 2.65034 26.3631 2.60018 26.4115C2.46888 26.5307 2.46888 26.5307 2.48545 26.6907C2.30749 26.8172 2.30749 26.8172 2.1108 26.9155C2.06134 26.8908 2.01189 26.866 1.96094 26.8406C2.25766 26.5438 2.55438 26.2471 2.8601 25.9414Z" fill="white"/>
<path d="M22.5026 6.02411C22.6431 6.08499 22.6431 6.08499 22.7181 6.23485C22.6215 6.28517 22.5246 6.33504 22.4277 6.38471C22.3738 6.41253 22.3199 6.44035 22.2644 6.46901C22.1186 6.53457 22.1186 6.53457 21.9688 6.53457C22.2092 5.99822 22.2092 5.99822 22.5026 6.02411Z" fill="white"/>
<path d="M7.65484 21.5215C7.70429 21.5462 7.75375 21.5709 7.8047 21.5964C7.63161 21.7695 7.45852 21.9426 7.28019 22.1209C7.18128 22.0715 7.08237 22.022 6.98047 21.9711C7.19623 21.8033 7.41262 21.649 7.65484 21.5215Z" fill="white"/>
<path d="M9.52878 14.1777C9.57823 14.2025 9.62769 14.2272 9.67864 14.2527C9.35719 14.4752 9.03574 14.6977 8.70455 14.927C8.65509 14.9023 8.60564 14.8776 8.55469 14.8521C8.8174 14.5437 9.1576 14.3347 9.52878 14.1777Z" fill="white"/>
<path d="M4.2113 27.7402C4.26075 27.7402 4.31021 27.7402 4.36116 27.7402C4.34711 27.9135 4.34711 27.9135 4.28623 28.1149C4.10359 28.2554 4.10359 28.2554 3.91158 28.3397C3.86213 28.3149 3.81267 28.2902 3.76172 28.2647C3.83299 28.1769 3.90492 28.0896 3.97714 28.0025C4.01713 27.9538 4.05712 27.9051 4.09832 27.855C4.15424 27.7982 4.15424 27.7982 4.2113 27.7402Z" fill="white"/>
<path d="M7.43289 23.6191C7.48235 23.6686 7.5318 23.718 7.58275 23.769C7.33549 23.9421 7.08822 24.1152 6.83345 24.2935C6.784 24.2688 6.73455 24.2441 6.68359 24.2186C6.93086 24.0208 7.17813 23.823 7.43289 23.6191Z" fill="white"/>
<path d="M12.9016 21.7461C12.9511 21.7708 13.0006 21.7955 13.0515 21.821C12.9588 21.8987 12.8649 21.9749 12.7705 22.0505C12.6923 22.1144 12.6923 22.1144 12.6125 22.1796C12.4521 22.2706 12.4521 22.2706 12.2823 22.2469C12.2394 22.23 12.1965 22.2131 12.1523 22.1957C12.2736 22.1185 12.3955 22.0421 12.5176 21.9662C12.5854 21.9236 12.6532 21.881 12.7231 21.8371C12.8115 21.7921 12.8115 21.7921 12.9016 21.7461Z" fill="white"/>
<path d="M6.3814 20.248C6.28734 20.5302 6.19192 20.5676 5.93182 20.6976C5.85764 20.6976 5.78346 20.6976 5.70703 20.6976C5.70703 20.6482 5.70703 20.5987 5.70703 20.5478C6.21281 20.248 6.21281 20.248 6.3814 20.248Z" fill="white"/>
<path d="M1.51314 25.5684C1.63678 25.5931 1.76041 25.6178 1.88779 25.6433C1.72488 25.8306 1.60827 25.9008 1.36328 25.943C1.41274 25.8194 1.46219 25.6957 1.51314 25.5684Z" fill="white"/>
<path d="M0.613643 28.4902C0.509241 28.7425 0.390432 28.8638 0.164062 29.0147C0.187478 28.8368 0.187478 28.8368 0.238993 28.6401C0.463783 28.4902 0.463783 28.4902 0.613643 28.4902Z" fill="white"/>
<path d="M19.3448 6.38477C19.2954 6.5084 19.2459 6.63203 19.195 6.75942C19.0095 6.68524 19.0095 6.68524 18.8203 6.60956C19.1575 6.38477 19.1575 6.38477 19.3448 6.38477Z" fill="white"/>
</svg>
