<svg width="64" height="61" viewBox="0 0 64 61" fill="none" xmlns="http://www.w3.org/2000/svg">
<path d="M30.2503 1.27249C27.3681 2.29886 24.2469 4.2442 23.9448 5.22284C23.756 5.81957 23.9448 6.12987 24.6874 6.44017C25.2663 6.67886 25.4551 6.70273 26.6382 6.75047L27.2297 6.77434V9.08965C27.2297 10.7963 27.1919 11.4288 27.0787 11.5124C26.9906 11.572 26.2983 11.8346 25.5306 12.0852C22.2457 13.1593 18.105 14.8183 9.67249 18.4464C6.62673 19.7472 3.35442 21.1436 2.38531 21.5255C1.01346 22.0745 0.610712 22.2893 0.510026 22.528C0.434511 22.6951 0.371582 23.3873 0.371582 24.0795C0.358996 25.1417 0.396754 25.4042 0.635884 25.81C1.13932 26.7051 1.95739 27.1825 3.00202 27.1825H3.56838V40.8476V54.5127H3.06494C1.96998 54.5127 0.912772 55.2646 0.358996 56.4461C-0.383566 58.0095 0.0695227 59.931 1.31552 60.5516C1.98257 60.8738 7.07982 61.0051 13.5741 60.85C16.8086 60.7784 28.4631 60.7187 40.7343 60.7187C64.4585 60.7187 62.558 60.7784 63.3258 59.9549C64.3326 58.8688 64.1816 56.3864 63.0741 55.3839C62.5203 54.8946 62.2182 54.7633 61.2995 54.5843L60.5191 54.4292L60.4814 40.8834L60.4562 27.3376L61.2617 27.278C63.0489 27.1348 63.7663 26.1681 63.7663 23.9005C63.7789 22.6951 63.5523 22.17 63.0363 22.17C62.8853 22.17 62.2812 21.9193 61.7022 21.609C59.399 20.3917 53.9494 17.9809 49.5695 16.2265C46.7629 15.1047 41.5146 13.0997 41.3887 13.0997C41.3384 13.0997 40.9482 12.9445 40.5203 12.7655C40.105 12.5746 39.5134 12.3597 39.2366 12.2881C38.9471 12.2046 38.645 12.0614 38.5569 11.9659C38.4688 11.8704 38.2674 11.7869 38.0912 11.7869C37.9276 11.7869 37.6004 11.7033 37.3613 11.6198L36.9208 11.4408V9.17319V6.89368H37.5249C38.8841 6.89368 40.0672 6.1418 40.0672 5.28251C40.0672 4.67385 39.5638 4.2084 37.8521 3.2417C33.6485 0.854779 32.3647 0.52061 30.2503 1.27249ZM32.3773 1.91696C32.0752 2.14371 28.1107 4.23227 28.1107 4.1726C28.1107 4.12486 28.4128 3.77875 28.7777 3.39685C29.407 2.74044 29.4951 2.68077 30.8796 2.23919C31.6725 1.98856 32.3521 1.79761 32.3773 1.83342C32.4025 1.85728 32.4025 1.89309 32.3773 1.91696ZM34.2148 2.52562C34.4414 2.68077 34.4162 2.70464 33.9505 2.97914C32.9185 3.5878 32.0123 4.04131 32.0123 3.95777C32.0123 3.76682 33.5729 2.35854 33.7743 2.35854C33.8876 2.35854 34.089 2.43014 34.2148 2.52562ZM36.0649 3.50426L36.4551 3.69521L35.5993 4.16066C35.1336 4.42322 34.7057 4.61417 34.6427 4.60224C34.542 4.56644 35.486 3.3133 35.6118 3.3133C35.6496 3.3133 35.851 3.39685 36.0649 3.50426ZM29.5455 4.99608L28.6645 5.8315L27.9471 5.7957L27.2423 5.7599L28.7148 4.96028C29.5203 4.5187 30.2377 4.14873 30.3132 4.14873C30.3761 4.14873 30.0363 4.53063 29.5455 4.99608ZM37.6759 4.31581C37.6759 4.35161 37.6256 4.41129 37.5501 4.44709C37.4871 4.48289 37.4242 4.45903 37.4242 4.39935C37.4242 4.32774 37.4871 4.26807 37.5501 4.26807C37.6256 4.26807 37.6759 4.29194 37.6759 4.31581ZM32.9814 5.10349C32.4025 5.89118 32.1633 6.01052 31.3075 5.87924L30.7285 5.7957L31.962 5.10349C32.6542 4.72159 33.2835 4.39935 33.359 4.39935C33.4471 4.38742 33.2835 4.70965 32.9814 5.10349ZM25.9711 4.98415C25.6816 5.36605 25.4803 5.5212 25.3922 5.42573C25.2663 5.31832 25.518 4.97221 25.8327 4.80513C26.2732 4.57837 26.2732 4.57837 25.9711 4.98415ZM37.9276 5.46153C37.9276 5.59281 37.2983 5.86731 37.2102 5.77183C37.1725 5.74796 37.3109 5.64055 37.5123 5.53314C37.9402 5.30638 37.9276 5.31832 37.9276 5.46153ZM35.0077 5.77183C34.8944 5.87924 34.7057 5.93891 34.5798 5.91505C34.3784 5.87924 34.4036 5.8315 34.7182 5.67635C35.1587 5.4496 35.2972 5.49733 35.0077 5.77183ZM35.6622 8.98224V11.2021L34.8819 11.1066C33.8624 10.9872 29.7594 10.9992 28.9036 11.1185L28.2366 11.2259V8.99417V6.77434H31.9494H35.6622V8.98224ZM30.3132 12.1807C30.1748 12.2762 29.105 12.8729 27.9219 13.5174C26.7514 14.1499 25.7446 14.6989 25.6942 14.7347C25.6313 14.7586 25.5935 14.7586 25.5935 14.7228C25.5935 14.6273 29.3063 12.2762 29.6588 12.1449C29.8098 12.0852 30.0741 12.0375 30.2503 12.0375C30.5523 12.0256 30.5523 12.0375 30.3132 12.1807ZM34.0512 12.121C34.2022 12.1807 32.8807 12.9565 29.4826 14.8183C26.8521 16.2504 24.6748 17.4081 24.6496 17.3842C24.6244 17.3603 26.399 16.143 28.589 14.687C32.5157 12.0733 32.5912 12.0375 33.2079 12.0375C33.5604 12.0375 33.9379 12.0733 34.0512 12.121ZM36.3922 12.6223C36.3418 12.7655 31.2194 15.594 31.1313 15.5224C31.0935 15.4985 31.1565 15.4269 31.2571 15.3672C31.3578 15.3076 32.415 14.6392 33.5855 13.8874C35.0203 12.9684 35.8384 12.5149 36.0775 12.5149C36.2789 12.5029 36.4173 12.5507 36.3922 12.6223ZM26.034 13.0042C25.8956 13.0758 23.2903 14.508 20.2572 16.1669C17.2114 17.8258 14.6816 19.1744 14.6313 19.1624C14.581 19.1386 15.8395 18.1838 17.4253 17.0381C19.0112 15.8924 20.3075 14.9257 20.3075 14.8779C20.3075 14.7586 22.5981 13.9112 24.4608 13.3264C25.9334 12.861 26.5123 12.7536 26.034 13.0042ZM38.3052 13.04C38.3052 13.0877 36.5054 14.126 35.8006 14.4602C35.0581 14.8302 35.4105 14.5318 36.6439 13.7561C37.6885 13.0997 38.3052 12.8252 38.3052 13.04ZM40.1176 13.5651C40.256 13.6129 40.3063 13.6845 40.2434 13.7203C39.8029 13.9709 35.1965 16.4891 35.0958 16.5368C35.0329 16.5607 35.0581 16.513 35.1587 16.4056C35.4608 16.1191 39.6015 13.4577 39.7526 13.4696C39.8155 13.4696 39.9917 13.5174 40.1176 13.5651ZM41.7411 14.138C41.7915 14.1738 41.4013 14.4483 40.8601 14.7347C40.3315 15.0211 39.8784 15.236 39.8533 15.2121C39.8155 15.1644 41.4517 14.0783 41.5901 14.0664C41.6279 14.0544 41.7034 14.0902 41.7411 14.138ZM43.264 14.7466C43.3269 14.8541 40.4574 16.4891 40.3567 16.4056C40.2938 16.3339 42.8613 14.6631 43.05 14.6512C43.1256 14.6512 43.2263 14.6989 43.264 14.7466ZM45.1393 15.4508C45.2526 15.4866 45.3533 15.5582 45.3533 15.6059C45.3533 15.7133 39.8155 18.7567 39.7526 18.6851C39.7274 18.6612 40.7846 17.8735 42.1187 16.9426C43.6793 15.8446 44.5981 15.2718 44.724 15.3195C44.8246 15.3553 45.0134 15.4269 45.1393 15.4508ZM46.6748 16.2027C46.5741 16.3578 45.8567 16.7159 45.7812 16.6442C45.7182 16.5846 46.486 16.0833 46.6496 16.0833C46.7125 16.0833 46.7125 16.143 46.6748 16.2027ZM48.5375 16.9426C48.7262 17.0023 48.8773 17.0978 48.8773 17.1336C48.8773 17.241 43.7926 20.0098 43.7297 19.9501C43.6793 19.9024 43.7926 19.8069 46.121 18.0048C47.1782 17.1813 47.883 16.7159 47.9963 16.7636C48.097 16.7994 48.3361 16.8829 48.5375 16.9426ZM22.4345 17.6826C22.4093 17.7064 20.9242 18.697 19.137 19.8905L15.8899 22.0506H15.0592H14.216L18.2308 19.8427C21.6164 17.9929 22.7491 17.4081 22.4345 17.6826ZM50.1988 17.8735C50.1107 18.0048 48.7388 18.7328 48.6759 18.6731C48.5878 18.6015 50.0478 17.6468 50.161 17.7064C50.2114 17.7422 50.2365 17.8138 50.1988 17.8735ZM11.208 18.8999C11.1576 18.9476 9.86128 19.6756 8.32581 20.5111L5.51918 22.0506L4.57524 22.0387C3.4551 22.0387 3.2789 22.1461 6.58897 20.8094C7.79721 20.3201 9.33268 19.6756 9.98714 19.3773C11.2205 18.8283 11.3464 18.7686 11.208 18.8999ZM53.1313 19.055C53.2571 19.1266 53.018 19.3176 52.3132 19.6995C50.9917 20.4275 50.7148 20.5111 51.3944 19.9501C51.6965 19.6995 52.0992 19.3653 52.2754 19.2221C52.6153 18.9357 52.867 18.8879 53.1313 19.055ZM12.8693 19.2221C12.8441 19.246 11.9505 19.8905 10.8933 20.6543L8.98027 22.0506H8.19995H7.41963L10.113 20.5707C11.5981 19.7592 12.8441 19.1147 12.8693 19.1386C12.8945 19.1624 12.8945 19.1982 12.8693 19.2221ZM22.8247 19.604C22.8247 19.6398 21.9688 20.2008 20.9242 20.8572C19.4013 21.8239 18.9608 22.0626 18.6588 22.0267C18.3189 21.9909 18.5707 21.8239 20.5215 20.7736C22.8498 19.4966 22.8247 19.5085 22.8247 19.604ZM36.4803 19.7711C36.4047 19.8308 35.6622 20.3678 34.8063 20.9765C33.3464 22.0029 33.2205 22.0626 32.7045 22.0267L32.1633 21.9909L34.2652 20.8333C36.1782 19.783 36.7949 19.4847 36.4803 19.7711ZM54.7297 19.9024C54.6542 20.0217 53.5466 20.6185 53.4208 20.6185C53.383 20.6065 53.597 20.4036 53.899 20.1411C54.2011 19.8905 54.5283 19.7114 54.6164 19.7472C54.7171 19.783 54.7674 19.8547 54.7297 19.9024ZM42.0809 19.9501C41.9803 20.0456 41.3258 20.5588 40.6336 21.0839C39.4002 22.0387 39.375 22.0506 38.6828 22.0506H37.9906L38.9974 21.4897C39.5512 21.1913 40.4574 20.6901 41.0111 20.3678C42.0306 19.795 42.4082 19.6398 42.0809 19.9501ZM27.6702 20.1172C27.5947 20.1769 26.9025 20.6423 26.1096 21.1436C25.0272 21.8477 24.5993 22.0506 24.335 22.0267C24.0203 21.9909 24.2343 21.8477 25.7572 21.0123C27.3555 20.1291 28.0226 19.8188 27.6702 20.1172ZM13.3601 21.2271C12.5295 21.7523 11.9254 22.0506 11.7617 22.0267C11.5729 22.0029 11.9128 21.7642 12.97 21.1913C13.7881 20.7378 14.518 20.3798 14.581 20.3798C14.6565 20.3798 14.1027 20.7617 13.3601 21.2271ZM56.7812 20.6662C57.0706 20.8094 57.0581 20.8333 56.1015 21.3703C55.5603 21.6687 55.0947 21.8955 55.0695 21.8716C54.9688 21.7761 56.1015 20.4991 56.2903 20.4991C56.4036 20.5111 56.6301 20.5827 56.7812 20.6662ZM22.359 21.6329C21.994 21.8597 21.6038 22.0506 21.478 22.0506C21.2514 22.0506 22.6485 21.2271 22.8876 21.2152C22.9505 21.2152 22.7114 21.4061 22.359 21.6329ZM30.7537 21.3942C30.7537 21.5016 29.8098 22.0506 29.621 22.0506C29.5203 22.0506 29.7217 21.8835 30.0615 21.6926C30.7411 21.3107 30.7537 21.3107 30.7537 21.3942ZM47.6187 21.8119C47.4425 21.9432 47.1908 22.0506 47.0523 22.0506C46.8761 22.0506 46.9391 21.9671 47.3041 21.7642C47.8704 21.43 48.0844 21.4778 47.6187 21.8119ZM53.8864 21.7164C53.7606 21.8955 53.5466 22.0029 53.2697 22.0267L52.8418 22.0626L53.3452 21.7642C53.9745 21.3823 54.1256 21.3823 53.8864 21.7164ZM59.1599 21.5852C59.4997 21.7045 59.4997 21.7164 59.2732 21.8835C59.034 22.0387 58.3166 22.1222 58.3166 21.979C58.3166 21.8358 58.5809 21.4539 58.6942 21.4539C58.7571 21.4539 58.9585 21.5136 59.1599 21.5852ZM57.3098 21.9313C57.3098 21.9909 57.1839 22.0506 57.0329 22.0506C56.7937 22.0506 56.7812 22.0267 56.9322 21.9313C57.1713 21.7761 57.3098 21.7761 57.3098 21.9313ZM3.02719 23.256C3.12787 23.3515 3.24115 23.3515 3.41735 23.256C3.58096 23.1725 4.60041 23.1247 6.13588 23.1247C8.40133 23.1247 8.87959 23.1844 8.47684 23.4231C8.41391 23.4589 8.35098 23.5424 8.35098 23.6021C8.35098 23.6618 8.6027 23.5902 8.90476 23.435C9.44595 23.1605 9.58439 23.1486 12.3029 23.1367C15.3613 23.1128 15.4242 23.1247 14.8578 23.6976C14.6061 23.9602 14.6691 23.9482 15.399 23.5782C16.1668 23.1963 16.3052 23.1605 17.526 23.1367C18.621 23.1247 18.8224 23.1486 18.7594 23.2918C18.6965 23.435 18.7343 23.435 19.0237 23.2918C19.4391 23.0889 24.6496 23.0412 24.5237 23.2441C24.4734 23.3276 24.5615 23.3276 24.7755 23.2441C25.2285 23.077 25.3418 23.0889 25.2663 23.3037C25.2034 23.4589 25.2285 23.4589 25.5432 23.3037C26.0592 23.0531 31.5718 23.0412 31.4711 23.2918C31.4082 23.435 31.4459 23.435 31.7354 23.2918C31.962 23.1844 32.4906 23.1247 33.2583 23.1247H34.4288L34.1015 23.5305C33.7995 23.9124 33.7869 23.9482 34.0134 24.0198C34.1519 24.0556 34.5672 23.9124 35.121 23.6021C35.9768 23.1367 36.0398 23.1247 37.1725 23.1247H38.3555L37.978 23.4947L37.613 23.8647L38.3178 23.4947C38.9597 23.1486 39.1107 23.1247 40.1931 23.1247H41.3761L40.9356 23.5544L40.5077 23.996L41.3384 23.5544L42.169 23.1247H45.605H49.0409L48.7514 23.4231C48.3864 23.7931 48.4619 23.7931 49.1416 23.4231C49.645 23.1486 49.8338 23.1247 51.1805 23.1247C52.6278 23.1247 52.6656 23.1367 52.5901 23.3754L52.502 23.614L53.0054 23.3754C53.4837 23.1367 53.7354 23.1247 58.153 23.1247H62.7972L62.6461 24.2704C62.558 24.903 62.4196 25.5713 62.3441 25.7503L62.1931 26.0845L33.1702 26.1322C17.1988 26.1561 3.75716 26.1322 3.29149 26.0845C2.32238 25.989 1.52948 25.6429 1.22742 25.2133C1.00087 24.8791 0.963115 23.9482 1.16449 23.447C1.29035 23.1486 1.34069 23.1247 2.09584 23.1247C2.53634 23.1247 2.95167 23.1844 3.02719 23.256ZM18.6462 33.7704L18.6713 40.3105H13.7629H8.85442V33.7465V27.1825L13.7377 27.2064L18.6084 27.2422L18.6462 33.7704ZM22.5478 27.2541L22.8247 27.3257L22.7995 41.0147L22.7617 54.6917H21.1885H19.6153L19.653 41.3847C19.6656 34.0687 19.6782 27.9105 19.6782 27.6957V27.3138L20.9116 27.266C21.5787 27.2541 22.1576 27.2183 22.1954 27.2064C22.2331 27.1944 22.3842 27.2183 22.5478 27.2541ZM40.0672 40.9669V54.7514H32.0752H24.0832V40.9669V27.1825H32.0752H40.0672V40.9669ZM44.1954 27.3018C44.3212 27.3018 44.3464 30.0826 44.3212 40.9908L44.2835 54.6917L42.6851 54.7275L41.0741 54.7633V41.0385V27.3138L42.3075 27.266C42.9745 27.2422 43.6416 27.2422 43.78 27.266C43.9185 27.278 44.1073 27.3018 44.1954 27.3018ZM55.1702 33.7465V40.3105H50.3246H45.4791V33.7465V27.1825H50.3246H55.1702V33.7465ZM59.3235 28.006C59.3361 28.734 59.3361 52.7464 59.3235 53.7608V54.3814L57.7503 54.4172L56.177 54.453V40.8834V27.3138L57.5992 27.278C58.367 27.2541 59.0844 27.266 59.1725 27.2899C59.2732 27.3138 59.3235 27.5644 59.3235 28.006ZM7.84755 40.8715V54.453L6.2114 54.4172L4.57524 54.3814V40.8357V27.3018H6.2114H7.84755V40.8715ZM13.1336 48.1516V54.7872L11.1828 54.7037C10.1004 54.6559 9.14389 54.5962 9.0432 54.5604C8.87959 54.5008 8.85442 53.6057 8.85442 47.9964V41.504H10.994H13.1336V48.1516ZM18.6713 48.1277V54.7514H16.5318H14.3922V48.1277V41.504H16.5318H18.6713V48.1277ZM49.7583 48.1277V54.7514H47.6187H45.4791V48.1277V41.504H47.6187H49.7583V48.1277ZM55.145 48.0203C55.1702 53.7012 55.145 54.5008 54.9814 54.5604C54.8807 54.5962 53.8864 54.6559 52.7789 54.7037L50.7651 54.7872V48.1396V41.504L52.9425 41.5279L55.1073 41.5637L55.145 48.0203ZM5.44366 55.6465C10.1759 55.7181 56.8063 55.6823 58.002 55.5988C58.8201 55.551 59.4242 55.5629 59.4619 55.6226C59.5123 55.6942 59.7137 55.6942 59.9024 55.6465C60.5443 55.4913 60.9471 55.551 61.4002 55.8374C62.6713 56.649 63.1748 58.6659 62.3063 59.4894L61.9917 59.7878L33.9505 59.8475C18.5203 59.8833 5.24229 59.9191 4.4368 59.9191C3.05236 59.9429 2.95167 59.931 2.47341 59.6207C1.85671 59.2388 1.56723 58.6779 1.47913 57.7112C1.40362 56.8519 1.61758 56.3148 2.20911 55.9091C2.54893 55.6704 3.40476 55.4555 3.61872 55.5629C3.68165 55.5988 4.49973 55.6346 5.44366 55.6465Z" fill="black"/>
</svg>
