<svg width="61" height="61" viewBox="0 0 61 61" fill="none" xmlns="http://www.w3.org/2000/svg">
<path d="M28.6203 0.605899C27.2357 1.19078 26.4359 1.94278 25.8272 3.25578L25.493 3.96003L25.4571 18.0331C25.4213 33.6697 25.3736 32.6671 26.2211 33.9323C26.6508 34.565 27.0089 34.8753 27.7728 35.2692C30.0885 36.4509 33.5023 35.2931 34.6005 32.9416L34.9228 32.2493L34.887 28.4893C34.8631 26.1976 34.9108 23.2851 35.0302 21.0291C35.3167 15.2161 35.3764 11.3606 35.2331 9.033C34.8989 3.88841 34.0992 1.51307 32.4161 0.653644C32.0461 0.462662 31.6522 0.391043 30.6256 0.355234C29.432 0.307488 29.2529 0.331361 28.6203 0.605899ZM30.3869 1.38176C30.1601 1.59662 29.0142 2.21731 29.0142 2.13376C29.0142 1.96665 29.6588 1.41757 29.9094 1.35789C30.3272 1.2624 30.5063 1.2624 30.3869 1.38176ZM32.1058 2.03827C32.2251 2.16957 32.058 2.3128 31.2583 2.76639C30.7092 3.07673 30.2198 3.36321 30.1482 3.38708C30.0885 3.42289 30.4108 3.10061 30.8644 2.6709C31.7477 1.83535 31.879 1.76373 32.1058 2.03827ZM32.9532 3.26772C32.9532 3.3274 32.7265 3.48257 32.44 3.63775L31.9386 3.91228L32.3326 3.55419C32.7026 3.1961 32.9532 3.08867 32.9532 3.26772ZM27.8206 4.05552C27.8206 4.07939 27.6057 4.30618 27.3431 4.55685C26.9373 4.95075 26.8657 4.98656 26.8657 4.78364C26.8657 4.62847 27.0328 4.44942 27.3192 4.28231C27.7728 4.01971 27.8206 3.99584 27.8206 4.05552ZM33.4307 4.93881C33.4307 5.22529 33.3113 5.33272 32.7384 5.655C32.3684 5.86985 31.7596 6.20407 31.4015 6.41893C31.0434 6.62185 30.8405 6.69347 30.9479 6.58604C31.4493 6.0489 33.1442 4.62847 33.2875 4.62847C33.371 4.61653 33.4307 4.75977 33.4307 4.93881ZM27.1641 6.40699C27.0447 6.53829 26.9134 6.60991 26.8776 6.5741C26.8418 6.53829 26.9134 6.43086 27.0328 6.33537C27.367 6.09665 27.4147 6.13245 27.1641 6.40699ZM29.3723 6.5741C29.3723 6.62185 27.2118 8.47199 27.0089 8.60329C26.8895 8.67491 26.8537 8.60329 26.8895 8.31682C26.9253 7.97066 27.0328 7.86323 28.119 7.2306C29.3723 6.50248 29.3723 6.50248 29.3723 6.5741ZM33.6456 6.8367C33.6217 7.0993 33.4068 7.26641 32.4877 7.80355C31.879 8.14971 31.3538 8.42424 31.3299 8.41231C31.2821 8.36456 33.4665 6.55023 33.5859 6.53829C33.6456 6.52636 33.6694 6.66959 33.6456 6.8367ZM33.7888 8.65104C33.7888 8.79427 33.4546 9.05687 32.8219 9.4269C32.2848 9.73725 31.8312 9.97598 31.8073 9.96404C31.7596 9.90436 33.5859 8.44812 33.7052 8.43618C33.753 8.43618 33.7888 8.53167 33.7888 8.65104ZM29.0142 8.96138C29.0142 9.033 27.0089 10.7041 26.9373 10.7041C26.9015 10.7041 26.8657 10.5728 26.8657 10.4176C26.8657 10.1908 27.0566 10.0237 27.9161 9.53433C29.0023 8.88976 29.0142 8.88976 29.0142 8.96138ZM33.7888 10.3341C33.7888 10.3938 33.5381 10.5847 33.2278 10.7518L32.6548 11.0622L33.1323 10.6444C33.6217 10.2266 33.7888 10.1431 33.7888 10.3341ZM28.3338 11.4561C26.8657 12.6497 26.8657 12.6497 26.8657 12.3991C26.8657 12.22 27.0924 12.0171 27.6773 11.6709C28.5726 11.1338 28.8352 11.0503 28.3338 11.4561ZM33.6456 12.1484C33.6217 12.3155 33.3233 12.5542 32.7145 12.8765C31.7357 13.4137 31.7477 13.354 32.7981 12.4826C33.5739 11.8381 33.7052 11.7903 33.6456 12.1484ZM27.5818 13.7001C27.1163 14.0702 26.8657 14.1895 26.8657 14.0582C26.8657 13.9866 27.0686 13.8314 27.3192 13.7001C27.8802 13.3898 27.9519 13.3898 27.5818 13.7001ZM28.6561 14.5596C28.6561 14.6073 27.2357 15.7413 27.0208 15.8845C26.9134 15.9442 26.8657 15.8964 26.8657 15.7532C26.8657 15.598 27.1521 15.3712 27.737 15.0251C28.6203 14.5118 28.6561 14.4999 28.6561 14.5596ZM33.5501 15.5383C33.5501 15.9203 33.4904 16.0039 32.9294 16.362C32.058 16.911 30.6018 17.6869 30.745 17.5317C30.8882 17.3766 33.4785 15.1325 33.5262 15.1206C33.5381 15.1206 33.5501 15.3116 33.5501 15.5383ZM29.7304 17.0781C29.7304 17.114 27.6773 18.9044 27.1402 19.3341L26.8657 19.549V19.0954V18.6418L28.2742 17.8421C29.7185 17.0065 29.7304 17.0065 29.7304 17.0781ZM33.4307 17.6511C33.4307 17.7346 33.1442 17.9614 32.7981 18.1405L32.1774 18.4866L32.7145 17.9972C33.2875 17.484 33.4307 17.4124 33.4307 17.6511ZM33.18 19.7758C32.6906 20.0981 31.7596 20.6233 31.7596 20.5636C31.7596 20.5278 32.1177 20.2055 32.5713 19.8474C33.192 19.3341 33.383 19.2386 33.4188 19.3938C33.4426 19.5012 33.3352 19.6683 33.18 19.7758ZM28.1429 20.3487C28.0235 20.4681 27.7012 20.7426 27.4028 20.9575C27.0089 21.232 26.8657 21.2917 26.8657 21.1604C26.8657 21.0649 27.176 20.7904 27.558 20.5636C28.3577 20.0742 28.3935 20.0622 28.1429 20.3487ZM33.4307 21.3752C33.4307 21.614 33.2517 21.7691 32.4519 22.2227C31.1867 22.9509 31.1867 22.9509 31.4015 22.7241C31.5925 22.5331 33.3472 21.0888 33.4068 21.0888C33.4188 21.0888 33.4307 21.2201 33.4307 21.3752ZM28.6561 21.7333C28.6561 21.793 27.0089 23.118 26.9373 23.118C26.8895 23.118 26.8657 23.0225 26.8657 22.9031C26.8657 22.7599 27.1641 22.5211 27.737 22.1869C28.6203 21.6737 28.6561 21.6498 28.6561 21.7333ZM33.4307 23.1538C33.4307 23.2373 33.2039 23.4283 32.9294 23.5835L32.4161 23.8461L32.8936 23.4283C33.4426 22.9389 33.4307 22.9509 33.4307 23.1538ZM29.1336 23.2851C29.1336 23.3209 27.6296 24.5861 27.0089 25.0755C26.8776 25.171 26.8537 25.1233 26.8895 24.8487C26.9253 24.5503 27.0805 24.4071 27.9996 23.87C29.1575 23.2015 29.1336 23.2135 29.1336 23.2851ZM33.5501 24.9084C33.5501 25.1472 33.2755 25.3501 32.058 26.0424C31.7357 26.2214 31.5447 26.293 31.6402 26.1856C31.9267 25.8753 33.3591 24.6816 33.4665 24.6816C33.5143 24.6697 33.5501 24.7771 33.5501 24.9084ZM27.7012 26.2334C27.1641 26.6989 26.8657 26.866 26.8657 26.6989C26.8657 26.5915 27.9161 25.8633 28.0593 25.8753C28.0951 25.8753 27.928 26.0304 27.7012 26.2334ZM33.6098 26.6869C33.5262 26.8302 32.5952 27.3435 32.5952 27.248C32.5952 27.2241 32.8219 27.0331 33.0965 26.8302C33.5739 26.4721 33.7769 26.4243 33.6098 26.6869ZM28.8948 27.1047C28.8948 27.1525 27.2357 28.5252 27.0208 28.6565C26.9134 28.7161 26.8657 28.6565 26.8657 28.4655C26.8657 28.2506 27.0686 28.0716 27.8564 27.6299C28.8829 27.0331 28.8948 27.0331 28.8948 27.1047ZM33.4785 28.3103C33.3591 28.4058 33.2039 28.4774 33.1323 28.4774C33.0726 28.4893 33.1442 28.3819 33.3113 28.2506C33.4785 28.1313 33.6336 28.0477 33.6575 28.0835C33.6933 28.1074 33.6098 28.2148 33.4785 28.3103ZM27.9399 29.5994C27.9399 29.6233 27.6893 29.8262 27.3909 30.0411C27.0805 30.2559 26.8537 30.3634 26.8895 30.2679C26.9492 30.0888 27.9399 29.4562 27.9399 29.5994ZM33.6694 29.7785C33.6694 29.9098 33.4188 30.1366 33.001 30.3753C32.631 30.5902 32.3087 30.7453 32.2848 30.7334C32.2609 30.6976 33.562 29.5756 33.6456 29.5636C33.6575 29.5636 33.6694 29.6591 33.6694 29.7785ZM27.5222 31.4734C27.4147 31.6525 26.985 31.8554 26.985 31.736C26.985 31.6764 27.1044 31.5689 27.2596 31.4973C27.6057 31.3302 27.6057 31.3302 27.5222 31.4734ZM33.383 32.1299C33.3113 32.309 32.619 32.7865 32.4161 32.7865C32.3564 32.7865 32.5474 32.5477 32.8339 32.2493C33.3233 31.748 33.5501 31.7002 33.383 32.1299ZM29.3126 31.927C27.6057 33.3833 27.546 33.4191 27.4267 33.0968C27.3789 32.9774 27.6415 32.7506 28.2742 32.3926C29.1216 31.8912 29.5872 31.6883 29.3126 31.927ZM30.1721 33.5862C29.1455 34.6247 29.1336 34.6366 28.8113 34.4575C28.6442 34.3621 28.5009 34.2308 28.5009 34.1711C28.5129 34.0636 30.9957 32.5597 31.1628 32.5477C31.1986 32.5477 30.745 33.0132 30.1721 33.5862Z" fill="black"/>
<path d="M14.4536 5.41685C12.9377 5.66751 11.0756 6.81341 9.32092 8.55612C4.21211 13.6052 1.10863 19.7883 0.189519 26.7591C-0.0611471 28.6093 -0.0611471 32.3812 0.177582 34.1597C0.583422 37.1796 1.20412 39.2685 2.63649 42.2765C6.40842 50.2739 12.1618 55.9198 19.2879 58.6055C23.8715 60.3363 29.2309 60.7898 34.2681 59.8707C34.9605 59.7514 35.6647 59.6439 35.8438 59.6439C36.0228 59.6439 36.3451 59.5723 36.5599 59.4768C37.2284 59.1904 41.1077 57.9848 41.4897 57.937C41.9791 57.8893 48.5561 54.0816 48.6516 53.7951C48.6874 53.6757 49.2365 53.1505 49.881 52.6253C54.6676 48.6744 58.1053 43.5537 59.6809 38.0391C60.4209 35.4369 60.6716 33.5271 60.6716 30.6982C60.6597 26.0549 59.5854 21.8055 57.2458 17.1503C55.5389 13.7604 52.9248 10.1079 50.6927 7.99511C48.6635 6.07335 47.3983 5.41685 45.7868 5.40491C44.629 5.40491 43.8412 5.65558 42.8505 6.32401C41.9791 6.89696 41.1555 7.9593 40.8929 8.83066C40.6422 9.69008 40.6661 10.8002 40.9645 11.588C41.1794 12.1729 41.3345 12.34 42.2417 13.0562C46.6701 16.5058 49.6065 21.5907 50.4301 27.2605C50.6808 28.9793 50.6808 32.047 50.4301 33.73C49.5946 39.4356 46.7656 44.1505 42.2059 47.4091C41.1555 48.1611 38.5772 49.5338 37.491 49.9277C35.0679 50.7871 33.4326 51.1214 31.1647 51.2288C25.7455 51.4914 20.4815 49.3309 16.2321 45.0935C12.9496 41.799 10.813 37.8123 9.89387 33.2526C9.66707 32.1067 9.61933 31.5098 9.61933 29.5642C9.61933 26.9621 9.82225 25.6013 10.5265 23.4647C11.5292 20.4209 13.8568 16.8639 15.8263 15.3599C17.4735 14.1185 18.9536 12.2922 19.4311 10.9076C19.7534 9.95268 19.7176 8.65161 19.3237 7.89962C18.4643 6.22852 16.2679 5.1065 14.4536 5.41685ZM15.2772 6.57468C15.134 6.70598 12.2812 8.32933 12.2454 8.29352C12.1976 8.24578 13.5942 7.06407 14.0836 6.74179C14.3342 6.56274 15.4443 6.41951 15.2772 6.57468ZM45.5958 6.65823L45.9778 6.78953L44.9871 7.37442C44.438 7.6967 43.9486 7.9593 43.9009 7.9593C43.7457 7.9593 44.9274 6.53887 45.0826 6.53887C45.1542 6.52693 45.381 6.58661 45.5958 6.65823ZM17.008 7.18344C17.1393 7.27893 17.2229 7.37442 17.1871 7.39829C17.0677 7.49378 13.1764 9.72589 12.9019 9.85719C12.6154 9.98849 12.6154 9.98849 12.8422 9.82138C12.9735 9.71395 13.8568 9.04551 14.8117 8.32933C15.7666 7.61315 16.6022 7.01633 16.6618 7.01633C16.7335 7.01633 16.8886 7.08794 17.008 7.18344ZM47.6847 7.51765C47.8876 7.66089 47.816 7.73251 46.9089 8.25771C46.3598 8.56806 45.8584 8.85453 45.7868 8.87841C45.7271 8.91421 46.0256 8.57999 46.4553 8.15028C46.8969 7.72057 47.3028 7.36248 47.3624 7.36248C47.4221 7.36248 47.5654 7.4341 47.6847 7.51765ZM17.8436 8.42482C17.8794 8.4845 17.6048 8.7113 17.2348 8.91421C16.8528 9.12907 16.3038 9.43942 16.0053 9.60653C15.2772 10.0243 15.4324 9.88106 16.6141 9.03358C17.6764 8.29352 17.7481 8.25771 17.8436 8.42482ZM49.1171 8.38901C49.2245 8.42482 49.3081 8.50838 49.3081 8.55612C49.3081 8.60387 48.8664 8.90228 48.3293 9.20069L47.3386 9.74976L48.1144 9.03358C48.5442 8.65161 48.9023 8.32933 48.9142 8.31739C48.9261 8.31739 49.0097 8.3532 49.1171 8.38901ZM43.1608 9.86913C42.4804 10.5614 42.4446 10.5853 42.3253 10.3346C42.2536 10.1556 42.2536 10.0482 42.3253 10.0243C42.3969 10.0004 42.743 9.79751 43.1011 9.57072C43.4592 9.35586 43.7815 9.16488 43.8173 9.16488C43.8412 9.15294 43.5547 9.47523 43.1608 9.86913ZM50.3824 9.55878C50.2869 9.64234 49.9407 9.86913 49.6065 10.0482L49.0097 10.3705L49.5468 9.88106C49.8452 9.61846 50.1914 9.39167 50.3227 9.39167C50.5256 9.39167 50.5256 9.41554 50.3824 9.55878ZM18.2733 9.91687C18.2733 10.072 18.2017 10.2511 18.13 10.3227C17.7839 10.5853 12.7586 13.4501 12.9138 13.2829C13.057 13.1278 18.0942 9.64234 18.1897 9.6304C18.2375 9.6304 18.2733 9.7617 18.2733 9.91687ZM51.5163 10.5614C51.5163 10.645 51.1105 10.9315 50.6211 11.206L49.7259 11.6835L50.4421 11.015C51.1224 10.3824 51.5163 10.2153 51.5163 10.5614ZM43.8173 11.4209C43.1011 12.0654 43.0414 12.1012 42.9459 11.8625C42.9101 11.7551 43.1489 11.5402 43.6144 11.2657C44.0202 11.027 44.3783 10.836 44.4141 10.836C44.4499 10.836 44.1754 11.0986 43.8173 11.4209ZM8.05565 12.1251C7.12461 12.8294 6.80232 12.9726 7.24397 12.4832C7.47076 12.2206 8.70022 11.4447 8.8912 11.4328C8.95089 11.4209 8.58086 11.7431 8.05565 12.1251ZM52.6861 11.8386L52.889 12.1251L52.0296 12.6264C50.3227 13.6052 50.1795 13.6888 50.1198 13.6888C50.084 13.6888 50.5495 13.2113 51.1463 12.6145C51.7431 12.0296 52.2922 11.5402 52.3519 11.5402C52.4235 11.5522 52.5667 11.6835 52.6861 11.8386ZM17.2109 12.4593C16.5664 13.3665 15.5159 14.1782 13.5584 15.3121C12.4483 15.9448 11.3979 16.5535 11.2308 16.649C11.0636 16.7564 10.992 16.7803 11.0517 16.6968C11.1711 16.5655 17.3422 12.137 17.4138 12.137C17.4377 12.137 17.3422 12.2803 17.2109 12.4593ZM44.5812 12.7219C44.2232 13.0084 43.9486 13.1516 43.8889 13.08C43.7576 12.9607 43.7338 12.9726 44.4141 12.5787C45.1781 12.1251 45.2497 12.1848 44.5812 12.7219ZM46.0256 13.5217C45.3571 14.1304 45.0229 14.2737 44.9393 13.9872C44.9035 13.8917 46.4911 12.8652 46.6821 12.8652C46.7179 12.8652 46.4195 13.1636 46.0256 13.5217ZM53.4262 13.2113C53.3904 13.271 53.2949 13.3307 53.2352 13.3307C53.1636 13.3307 53.1516 13.271 53.1874 13.2113C53.2233 13.1397 53.3187 13.092 53.3784 13.092C53.45 13.092 53.462 13.1397 53.4262 13.2113ZM48.6516 13.6649C48.5203 13.7843 48.0189 14.2498 47.5415 14.7034L46.6701 15.527L46.4195 15.2644C46.0972 14.9421 46.0852 14.954 47.5176 14.1185C48.6874 13.4381 49.0574 13.2949 48.6516 13.6649ZM54.5601 14.6318C54.5601 14.7034 52.4116 15.9686 52.137 16.0641C52.0535 16.088 52.4832 15.6464 53.0681 15.0853C54.1304 14.0707 54.1424 14.0588 54.3572 14.3095C54.4646 14.4408 54.5601 14.584 54.5601 14.6318ZM6.21744 14.9182C6.21744 14.9421 5.97871 15.1331 5.68029 15.3479C5.38188 15.5628 5.14315 15.6822 5.14315 15.6105C5.14315 15.5509 5.36995 15.3599 5.65642 15.1928C6.16969 14.8705 6.21744 14.8585 6.21744 14.9182ZM8.24663 15.2883C8.24663 15.336 4.31954 18.1053 3.85401 18.3798C3.74659 18.4514 3.77046 18.344 3.92563 18.0336C4.11662 17.6517 4.46277 17.4129 6.16969 16.4222C8.28244 15.1928 8.24663 15.2047 8.24663 15.2883ZM55.0615 16.3148C54.2259 16.8161 53.3665 17.2816 53.3665 17.2339C53.3665 17.21 53.7485 16.8519 54.2259 16.4342C55.0137 15.7538 55.0973 15.706 55.2405 15.909C55.3718 16.088 55.3479 16.1477 55.0615 16.3148ZM49.6662 16.9116C49.1171 17.4368 48.6158 17.8665 48.568 17.8665C48.4725 17.8665 48.1861 17.3891 48.2577 17.3294C48.3412 17.2458 50.5614 15.9686 50.6211 15.9686C50.6569 15.9686 50.2272 16.3983 49.6662 16.9116ZM9.49996 16.5416C9.20155 16.8161 2.82748 21.3161 2.77973 21.2803C2.70811 21.1968 3.0304 20.2538 3.17364 20.1344C3.35268 19.9912 9.47609 16.4342 9.55965 16.4342C9.58352 16.4342 9.55965 16.4819 9.49996 16.5416ZM55.6822 17.4487C55.5628 17.5442 55.4076 17.6159 55.336 17.6159C55.2763 17.6278 55.3479 17.5204 55.5151 17.3891C55.6822 17.2697 55.8373 17.1861 55.8612 17.222C55.897 17.2458 55.8135 17.3533 55.6822 17.4487ZM11.7082 18.2724C11.3621 18.5946 9.70288 19.6331 9.92968 19.3824C10.0371 19.2511 11.9827 17.8665 12.0544 17.8665C12.0902 17.8665 11.935 18.0456 11.7082 18.2724ZM51.0389 17.974C49.9527 18.9527 49.511 19.2989 49.4275 19.2392C49.1529 19.0721 49.3558 18.8095 50.1198 18.3679C50.8718 17.9143 51.2895 17.7352 51.0389 17.974ZM56.9474 19.5854C56.9474 19.6092 56.7445 19.7525 56.5058 19.8957L56.0522 20.1583L56.3387 19.848C56.5893 19.5854 56.9474 19.4302 56.9474 19.5854ZM50.5614 20.1344C50.5256 20.1941 50.3704 20.3135 50.2272 20.3851C49.9765 20.5045 49.9765 20.4925 50.2511 20.2657C50.5495 19.9912 50.6808 19.9435 50.5614 20.1344ZM6.53972 20.5642C6.32486 20.779 2.21872 23.6915 2.18291 23.6557C2.15904 23.6318 2.17097 23.4528 2.20678 23.2737C2.2784 22.9753 2.57681 22.7605 4.40309 21.71C6.43229 20.5522 6.70683 20.397 6.53972 20.5642ZM9.92968 21.4116C9.75063 21.7697 9.45222 22.0085 8.4973 22.5456C7.8408 22.9276 7.26784 23.2379 7.2201 23.2379C7.18429 23.2379 7.80499 22.7246 8.60473 22.1039C9.40447 21.4833 10.0849 20.97 10.1087 20.97C10.1445 20.97 10.061 21.1729 9.92968 21.4116ZM51.5402 22.462C51.3612 22.6291 51.1463 22.7605 51.0747 22.7605C50.9076 22.7605 51.0031 22.665 51.4208 22.3904C51.8864 22.092 51.9341 22.1278 51.5402 22.462ZM5.62061 23.1663C5.52512 23.2618 4.64182 23.966 3.65109 24.73L1.86062 26.1146L1.82482 25.7326C1.80094 25.5297 1.83675 25.3029 1.89643 25.2432C2.00386 25.1358 5.64449 23.0111 5.73998 22.9992C5.76385 22.9992 5.7161 23.0708 5.62061 23.1663ZM8.96282 23.9183C8.96282 24.0735 8.79571 24.2525 8.48536 24.4435C7.11267 25.279 7.02912 25.2671 8.15114 24.3599C8.78378 23.8586 8.96282 23.7512 8.96282 23.9183ZM58.3798 24.6345C58.3798 24.7061 58.0933 24.9209 57.7591 25.1239C57.413 25.3148 56.9236 25.6013 56.6848 25.7446C56.4342 25.8878 56.2312 25.9833 56.2312 25.9475C56.2312 25.9117 56.6729 25.5058 57.21 25.0403C58.153 24.2167 58.3679 24.1451 58.3798 24.6345ZM58.4872 26.3891C58.2724 26.592 57.0907 27.2485 57.2458 27.0814C57.6636 26.6517 58.5708 26.0072 58.6066 26.1146C58.6305 26.1862 58.5708 26.3175 58.4872 26.3891ZM54.202 26.2698C54.202 26.3652 52.4116 27.9289 52.3638 27.8812C52.34 27.8573 52.2922 27.726 52.2683 27.6066C52.2445 27.4276 52.4474 27.2485 53.1874 26.8069C54.2498 26.1743 54.202 26.1981 54.202 26.2698ZM3.88982 26.4369C3.53173 26.7472 1.69351 28.1318 1.63383 28.1318C1.59802 28.1318 1.56221 28.0244 1.56221 27.905C1.56221 27.7379 1.8845 27.4873 2.73199 27.0098C3.85401 26.3652 4.11662 26.2339 3.88982 26.4369ZM53.4859 28.7764C53.4859 28.8003 53.2471 29.0151 52.9487 29.2539C52.5787 29.5523 52.4116 29.6358 52.4116 29.5165C52.4116 29.421 52.6384 29.2061 52.9248 29.039C53.45 28.7167 53.4859 28.7048 53.4859 28.7764ZM58.9766 29.409C58.9766 29.8387 58.9289 29.8865 58.2843 30.2446C56.2551 31.3905 55.8373 31.6053 56.0522 31.3905C56.4103 31.0324 58.8573 28.9674 58.9169 28.9674C58.9528 28.9674 58.9766 29.1703 58.9766 29.409ZM2.2784 30.5669C2.2784 30.6027 2.12323 30.734 1.92031 30.8772C1.72932 31.0204 1.56221 31.0801 1.56221 31.0085C1.56221 30.9369 1.70545 30.8056 1.89643 30.7101C2.26646 30.5072 2.2784 30.4952 2.2784 30.5669ZM8.12727 30.8772C8.12727 31.1876 8.03178 31.283 7.26784 31.7247C6.79039 31.9992 6.2055 32.3334 5.97871 32.4647L5.56093 32.7035L5.79966 32.4528C6.21744 32.0231 7.94822 30.5311 8.04372 30.5191C8.09146 30.5191 8.12727 30.6743 8.12727 30.8772ZM54.7989 31.1517C54.2617 31.6531 52.1967 33.3839 52.149 33.3839C52.1132 33.3839 52.1251 33.1929 52.1609 32.9541C52.2325 32.5483 52.3161 32.4647 53.5455 31.7605C54.9063 30.9727 55.0973 30.8891 54.7989 31.1517ZM58.9766 31.5098C58.9766 31.7844 58.9169 31.8321 57.0071 32.9064C56.7206 33.0735 56.6013 33.1093 56.7087 32.99C56.8997 32.787 58.8692 31.2353 58.9408 31.2353C58.9528 31.2353 58.9766 31.3547 58.9766 31.5098ZM3.22138 33.3839C2.541 33.9687 1.97999 34.4343 1.96805 34.4223C1.96805 34.4104 1.92031 34.2552 1.87256 34.0762C1.80094 33.7778 1.86062 33.7181 3.01846 33.0377C3.69884 32.6438 4.29566 32.3096 4.34341 32.3096C4.40309 32.3096 3.88982 32.787 3.22138 33.3839ZM8.11533 32.9541C7.90048 33.1451 6.81426 33.7658 6.81426 33.6942C6.81426 33.551 8.18695 32.5722 8.2347 32.6796C8.25857 32.7512 8.19889 32.8825 8.11533 32.9541ZM58.714 34.1717C58.523 34.3626 55.0376 36.3799 55.0376 36.2963C55.0376 36.2725 55.8851 35.5682 56.9236 34.7565L58.7976 33.2645L58.8334 33.6345C58.8573 33.8494 58.8095 34.0881 58.714 34.1717ZM53.5455 34.1955C53.1755 34.5297 51.7193 35.6518 51.6596 35.6518C51.6238 35.6518 51.6238 35.5443 51.6596 35.4011C51.6954 35.2579 52.0893 34.9475 52.6384 34.6252C53.5097 34.112 53.7723 33.9926 53.5455 34.1955ZM3.47205 35.0908C3.47205 35.1146 3.20945 35.3534 2.88716 35.6279C2.44551 35.9979 2.29034 36.0815 2.23065 35.9502C2.19485 35.8428 2.38583 35.6637 2.79167 35.425C3.43624 35.043 3.47205 35.0311 3.47205 35.0908ZM8.84346 35.5085C8.84346 35.7234 8.80765 35.7473 7.70949 36.368C6.93362 36.7977 6.99331 36.6902 7.99597 35.8428C8.71216 35.2459 8.84346 35.1863 8.84346 35.5085ZM58.5469 35.9144C58.5111 36.0695 58.4634 36.1889 58.4514 36.2008C57.8069 36.5828 55.7777 37.7287 55.6941 37.7645C55.6344 37.7884 55.6822 37.7287 55.8135 37.6332C57.592 36.2844 58.4514 35.6637 58.535 35.6637C58.5947 35.6518 58.5947 35.7711 58.5469 35.9144ZM53.7843 35.986C52.901 36.7738 50.5972 38.5046 50.6688 38.3255C50.7285 38.2062 50.8121 37.9674 50.8718 37.8003C50.9553 37.5855 51.397 37.2632 52.3877 36.7022C53.7485 35.9144 54.0111 35.7831 53.7843 35.986ZM9.32092 36.9409C9.32092 37.0006 9.118 37.1319 8.87927 37.2393L8.42568 37.4422L8.78378 37.1438C9.15381 36.8335 9.32092 36.7738 9.32092 36.9409ZM4.54633 37.478C4.54633 37.5616 3.09008 38.7552 2.98265 38.7552C2.92297 38.7552 2.87522 38.6717 2.87522 38.5762C2.87522 38.4807 3.23332 38.1942 3.6869 37.9316C4.52246 37.4303 4.54633 37.4184 4.54633 37.478ZM58.1411 37.8003C58.1411 37.9197 57.6756 38.23 56.5297 38.8746C55.5986 39.3879 55.8015 39.1849 57.0668 38.3494C58.1888 37.6093 58.1411 37.6332 58.1411 37.8003ZM10.2758 39.2685C10.2758 39.364 9.98936 39.5788 9.65514 39.7579L9.02251 40.0921L9.55965 39.6027C10.1326 39.0895 10.2758 39.0178 10.2758 39.2685ZM57.5084 39.7698C57.3533 40.2831 58.6424 39.5072 45.5481 47.051C39.7708 50.3813 34.8172 53.246 34.5427 53.4012C34.2562 53.5683 34.0294 53.6757 34.0294 53.6399C34.0294 53.5206 38.052 50.7275 38.4459 50.5723C39.8663 50.0232 42.3849 48.567 43.5666 47.6121C43.9247 47.3256 57.3413 39.4475 57.6278 39.3521C57.6278 39.3521 57.5801 39.543 57.5084 39.7698ZM3.83014 39.8892C3.74659 39.9847 3.59141 40.0682 3.48398 40.0682C3.35268 40.0563 3.38849 40.0086 3.59141 39.8892C3.97338 39.6743 4.00919 39.6743 3.83014 39.8892ZM50.9792 39.8773C50.9792 39.9011 50.6092 40.1995 50.1436 40.5338C49.6901 40.868 49.3081 41.0948 49.3081 41.047C49.3081 40.8919 49.7855 40.498 50.3824 40.1518C50.9434 39.8176 50.9792 39.8056 50.9792 39.8773ZM11.0517 40.7964C11.1591 40.9993 11.2308 41.1783 11.2069 41.2022C11.1353 41.2738 9.01057 42.4913 8.66441 42.6465C8.43762 42.7539 8.78378 42.372 9.55965 41.62C10.252 40.9635 10.8249 40.4263 10.8368 40.4263C10.8488 40.4263 10.9562 40.5934 11.0517 40.7964ZM4.90442 42.1929C4.67763 42.372 4.47471 42.5033 4.46277 42.4794C4.37922 42.4078 4.48665 42.2645 4.77312 42.0736C5.27445 41.7513 5.35801 41.8348 4.90442 42.1929ZM12.1857 42.5988C12.2931 42.7659 12.1499 42.8972 11.3024 43.3985C9.46415 44.4847 9.40447 44.4608 10.6936 43.2433C11.5292 42.4316 11.8992 42.1452 11.9708 42.2526C12.0305 42.3242 12.126 42.4913 12.1857 42.5988ZM7.41108 42.2526C7.41108 42.2645 6.93362 42.7539 6.34874 43.3388L5.28639 44.4012L5.09541 44.0311C4.86861 43.6014 4.76119 43.7088 6.39648 42.7659C7.36334 42.2168 7.41108 42.1929 7.41108 42.2526ZM13.26 44.0192C13.26 44.0908 11.7201 45.0219 11.2904 45.189C11.2308 45.2128 11.5769 44.8905 12.0663 44.4489C12.7228 43.876 12.9974 43.6969 13.1167 43.7924C13.1883 43.864 13.26 43.9595 13.26 44.0192ZM7.3514 45.0338C6.38455 45.9648 6.27712 46.0364 6.13388 45.8455C6.05032 45.7261 5.97871 45.5709 5.97871 45.4874C5.97871 45.368 8.18695 44.0073 8.366 44.0192C8.40181 44.0192 7.94822 44.4728 7.3514 45.0338ZM14.2268 45.1532C14.3462 45.3083 14.3462 45.3561 14.2029 45.4516C13.7732 45.7261 12.1857 46.6333 12.126 46.6333C12.0902 46.6333 12.4721 46.2513 12.9854 45.7977C13.4987 45.3322 13.9523 44.9622 13.9881 44.9622C14.0358 44.9622 14.1313 45.0457 14.2268 45.1532ZM54.6198 45.6545C54.4408 45.8097 53.2949 46.4423 53.4023 46.3229C53.5575 46.1558 54.4885 45.5709 54.6198 45.5709C54.6914 45.559 54.6914 45.5948 54.6198 45.6545ZM8.13921 46.5975C7.30365 47.3375 7.17235 47.4211 7.04105 47.2181C6.99331 47.1346 6.9575 47.051 6.96943 47.0391C7.04105 46.9675 8.66441 46.0364 8.72409 46.0364C8.74797 46.0364 8.48536 46.2871 8.13921 46.5975ZM15.3846 46.299C15.4682 46.3826 15.5279 46.4781 15.5279 46.5258C15.5279 46.5975 13.8448 47.6121 13.439 47.7911C13.3793 47.815 13.7255 47.4688 14.2149 47.0033C14.7043 46.5378 15.134 46.1558 15.1817 46.1558C15.2175 46.1558 15.3011 46.2155 15.3846 46.299ZM9.54771 47.5404C9.39254 47.7075 9.01057 48.0656 8.70022 48.3163C8.16308 48.7699 8.13921 48.7818 8.00791 48.555C7.90048 48.3402 7.9721 48.2566 8.80765 47.7792C9.32092 47.4808 9.76257 47.2301 9.78644 47.2301C9.82225 47.2301 9.71482 47.3733 9.54771 47.5404ZM16.6022 47.5285C16.5902 47.5882 16.256 47.8269 15.8502 48.0537L15.1101 48.4476L15.7069 47.8985C16.256 47.3972 16.638 47.242 16.6022 47.5285ZM52.6622 48.3879C52.2564 49.0922 51.5044 49.677 49.7259 50.7036C48.6755 51.3004 47.625 51.9092 47.3983 52.0405C46.5269 52.5418 47.3147 51.9569 49.9646 50.1068C51.4805 49.0564 52.7219 48.1969 52.7458 48.1969C52.7577 48.185 52.7219 48.2805 52.6622 48.3879ZM18.0823 48.5192C18.2733 48.7341 18.2136 48.7818 16.8886 49.5457C16.1247 49.9874 15.4921 50.3336 15.4682 50.3097C15.4085 50.2381 17.6048 48.3044 17.7481 48.3044C17.8197 48.3044 17.9629 48.3999 18.0823 48.5192ZM10.4907 48.9967C10.2042 49.2593 9.81031 49.6054 9.59546 49.7845C9.22543 50.0948 9.21349 50.0948 9.09412 49.868C8.97476 49.6532 9.05831 49.5696 9.94161 49.0444C10.4907 48.7221 10.9443 48.4715 10.9681 48.4953C10.992 48.5073 10.7772 48.7341 10.4907 48.9967ZM19.3476 49.4264C19.3476 49.4503 19.264 49.5099 19.1566 49.5457C19.0611 49.5816 19.0133 49.5696 19.0491 49.498C19.1208 49.3786 19.3476 49.3309 19.3476 49.4264ZM21.3768 50.4529C21.3768 50.5007 20.6248 50.9781 19.6937 51.5033C18.7746 52.0405 18.0345 52.4344 18.0584 52.3866C18.0823 52.3389 18.6433 51.7779 19.3117 51.1333L20.5173 49.9755L20.947 50.1784C21.1858 50.2858 21.3768 50.4171 21.3768 50.4529ZM10.9323 50.632C10.3952 51.1094 10.1565 51.2049 10.1565 50.9304C10.1565 50.8349 11.3262 50.0948 11.4695 50.1068C11.5053 50.1068 11.2666 50.3336 10.9323 50.632ZM12.8422 51.3481C12.2573 51.9092 11.7082 52.3627 11.6366 52.3627C11.565 52.3627 11.4217 52.2672 11.3024 52.1479C11.1114 51.933 11.1711 51.8853 12.4483 51.1333C13.1883 50.7036 13.821 50.3455 13.8568 50.3455C13.8926 50.3455 13.439 50.7991 12.8422 51.3481ZM23.4537 51.2168L23.9192 51.372L23.0359 51.8853C22.5465 52.1718 21.711 52.6612 21.1619 52.9715C20.6248 53.2938 20.1354 53.5564 20.0876 53.5564C19.9205 53.5444 22.6301 51.0617 22.8091 51.0617C22.9046 51.0497 23.203 51.1214 23.4537 51.2168ZM26.1394 51.9569C26.1633 51.9808 26.1633 52.0166 26.1394 52.0405C26.0797 52.0882 23.2627 53.6996 23.1075 53.7712C22.9166 53.8667 23.2388 53.5564 24.2773 52.6373C25.1845 51.8375 25.2919 51.7779 25.6739 51.8375C25.9007 51.8733 26.1155 51.933 26.1394 51.9569ZM34.1368 51.8137C34.0175 51.933 28.2641 55.2275 28.2283 55.2036C28.2163 55.1797 29.0042 54.4994 29.9949 53.6877L31.7973 52.2076L32.8835 52.0046C34.1965 51.754 34.1965 51.754 34.1368 51.8137ZM15.7069 53.2102C15.0743 53.8309 14.4894 54.3681 14.4178 54.4039C14.3342 54.4516 14.0955 54.3681 13.8806 54.2129L13.4987 53.9503L15.134 52.9954C16.0411 52.4702 16.7931 52.0524 16.817 52.0763C16.8409 52.0882 16.3396 52.6015 15.7069 53.2102ZM29.601 52.2911C29.5771 52.3031 28.6461 52.8521 27.524 53.4967C26.4139 54.1413 25.3038 54.7739 25.0771 54.9052C24.516 55.2275 24.6951 55.0484 26.4497 53.5086L27.8821 52.2553L28.7654 52.2434C29.2548 52.2434 29.6249 52.2672 29.601 52.2911ZM44.056 53.0073C43.9605 53.0909 42.0268 54.4397 39.7589 56.0033C35.3663 59.0471 35.4498 58.9994 33.6713 59.2023C33.1461 59.262 33.1461 59.262 33.4087 59.071C33.7549 58.8442 44.0919 52.8521 44.1754 52.8521C44.1993 52.8402 44.1515 52.9118 44.056 53.0073ZM18.9895 53.1267C18.9895 53.1505 18.3688 53.7474 17.6168 54.4516L16.2441 55.7288L15.874 55.502C15.6592 55.3827 15.504 55.2275 15.504 55.1678C15.5159 55.0962 16.256 54.6068 17.1632 54.0696C18.7149 53.1625 18.9895 53.0192 18.9895 53.1267ZM20.3383 54.7261C20.207 54.8336 19.634 55.323 19.073 55.8004C18.1181 56.6121 18.0345 56.6598 17.7481 56.5285C17.581 56.445 17.4377 56.3495 17.4377 56.3137C17.4377 56.2301 20.3144 54.5352 20.4815 54.5232C20.5531 54.5232 20.4815 54.6068 20.3383 54.7261ZM23.2627 55.0246C23.024 55.2394 22.2839 55.884 21.6274 56.4689C20.5173 57.4357 20.386 57.5193 20.0279 57.4476C19.6221 57.3641 19.2521 57.185 19.3476 57.1015C19.4669 56.9941 23.585 54.6307 23.6447 54.6426C23.6805 54.6426 23.5134 54.8097 23.2627 55.0246ZM26.3304 55.4423C26.1871 55.5498 25.3516 56.254 24.4444 56.9941L22.8211 58.3429L22.2601 58.1758C21.8423 58.0564 21.7348 57.9848 21.8661 57.9012C22.3197 57.6148 26.4617 55.2275 26.5094 55.2394C26.5452 55.2394 26.4617 55.323 26.3304 55.4423ZM43.4592 55.502C43.4592 55.5259 42.9579 55.8959 42.3611 56.3256C41.3942 57.006 39.8067 57.8177 39.6754 57.6864C39.6395 57.6506 43.316 55.4781 43.4353 55.4662C43.4473 55.4662 43.4592 55.4901 43.4592 55.502ZM28.9803 56.0153C28.9445 56.0511 28.0612 56.6957 27.0227 57.4476C25.2203 58.7487 24.6354 59.0352 24.4325 58.701C24.3967 58.6532 25.3993 58.0087 26.6646 57.2805C28.849 56.0153 29.1474 55.8482 28.9803 56.0153ZM33.731 57.567C32.9909 58.128 30.7946 59.4172 30.6395 59.3813C30.532 59.3575 31.2243 58.9039 32.1554 58.3668C33.8384 57.3999 34.1846 57.2209 33.731 57.567ZM27.1063 58.9278C26.9391 59.0591 26.7601 59.1665 26.6885 59.1665C26.6288 59.1665 26.7362 59.0591 26.9272 58.9278C27.3808 58.6294 27.5002 58.6294 27.1063 58.9278Z" fill="black"/>
</svg>
