<svg width="483" height="490" viewBox="0 0 483 490" fill="none" xmlns="http://www.w3.org/2000/svg">
<path d="M465.27 0.0546875C471.02 -0.0703125 471.02 -0.0703125 473.27 1.05469C471.641 5.47195 468.252 8.07062 464.832 11.1172C463.666 12.1701 462.501 13.2235 461.336 14.2773C460.562 14.9697 460.562 14.9697 459.772 15.676C458.226 17.0944 456.742 18.5614 455.27 20.0547C455.915 19.6556 456.561 19.2566 457.226 18.8455C460.149 17.0481 463.084 15.27 466.02 13.4922C467.035 12.8638 468.051 12.2354 469.098 11.5879C470.567 10.7033 470.567 10.7033 472.066 9.80078C472.967 9.25092 473.868 8.70105 474.796 8.13452C477.27 7.05469 477.27 7.05469 479.532 7.25806C481.27 8.05469 481.27 8.05469 482.27 10.0547C483.027 19.5277 479.445 25.4697 473.582 32.4648C463.483 43.7755 463.483 43.7755 457.707 47.4922C454.718 49.4985 452.79 51.7764 450.582 54.6172C445.816 60.6678 440.469 66.0556 435.02 71.4922C434.143 72.3688 433.267 73.2455 432.365 74.1487C428.466 78.0147 424.575 81.6441 420.27 85.0547C419.193 86.2109 418.15 87.3987 417.145 88.6172C410.793 96.0346 403.798 102.835 396.375 109.172C391.809 113.255 387.57 117.696 383.27 122.055C381.604 123.722 379.937 125.389 378.27 127.055C377.381 127.943 376.493 128.831 375.578 129.746C364.924 140.4 364.924 140.4 354.27 151.055C353.401 151.942 352.533 152.829 351.638 153.743C349.744 155.592 347.988 157.124 345.809 158.598C344.864 159.242 344.864 159.242 343.9 159.899C343.238 160.342 342.577 160.786 341.895 161.242C341.204 161.711 340.514 162.179 339.803 162.661C337.63 164.133 335.45 165.595 333.27 167.055C332.177 167.788 332.177 167.788 331.062 168.535C326.805 171.387 322.541 174.226 318.27 177.055C324.24 173.861 330.108 170.649 335.711 166.84C336.225 166.581 336.74 166.322 337.27 166.055C337.93 166.385 338.59 166.715 339.27 167.055C331.285 175.039 323.3 183.024 315.316 191.009C314.795 191.53 314.274 192.05 313.737 192.587C312.428 193.897 311.117 195.205 309.806 196.514C307.257 199.067 304.718 201.63 302.18 204.195C299.519 206.883 296.852 209.566 294.185 212.249C292.776 213.668 291.369 215.089 289.963 216.512C287.931 218.569 285.892 220.619 283.852 222.668C283.221 223.308 282.591 223.949 281.942 224.609C280.422 226.129 278.85 227.598 277.27 229.055C276.61 229.055 275.95 229.055 275.27 229.055C275.27 229.715 275.27 230.375 275.27 231.055C273.65 232.767 271.973 234.425 270.27 236.055C268.903 237.429 267.537 238.803 266.172 240.178C264.088 242.276 262 244.371 259.913 246.466C258.816 247.568 257.721 248.67 256.626 249.774C255.03 251.381 253.432 252.986 251.832 254.59C251.349 255.078 250.865 255.567 250.367 256.071C247.482 258.956 244.457 261.515 241.27 264.055C240.713 264.797 240.156 265.54 239.582 266.305C239.149 266.882 238.716 267.46 238.27 268.055C237.61 268.055 236.95 268.055 236.27 268.055C235.87 268.942 235.87 268.942 235.462 269.847C234.244 272.101 232.999 273.576 231.195 275.383C230.249 276.338 230.249 276.338 229.283 277.312C228.247 278.342 228.247 278.342 227.189 279.394C226.461 280.126 225.732 280.858 224.982 281.612C222.572 284.03 220.155 286.441 217.738 288.852C216.064 290.527 214.39 292.203 212.717 293.879C209.209 297.389 205.698 300.896 202.185 304.4C197.672 308.902 193.168 313.412 188.667 317.926C185.213 321.386 181.755 324.842 178.295 328.297C176.632 329.959 174.97 331.622 173.31 333.287C170.994 335.608 168.673 337.921 166.35 340.233C165.659 340.928 164.968 341.623 164.256 342.34C163.625 342.965 162.994 343.59 162.344 344.234C161.795 344.782 161.247 345.33 160.681 345.895C159.27 347.055 159.27 347.055 157.27 347.055C157.012 347.643 156.754 348.232 156.488 348.838C155.169 351.238 153.792 352.678 151.777 354.523C150.728 355.495 150.728 355.495 149.657 356.487C148.911 357.169 148.164 357.852 147.395 358.555C145.849 359.987 144.305 361.42 142.762 362.855C142 363.564 141.237 364.272 140.452 365.002C135.602 369.563 130.944 374.315 126.27 379.055C123.948 381.383 121.623 383.707 119.277 386.012C118.656 386.624 118.035 387.236 117.395 387.867C116.778 388.472 116.162 389.076 115.527 389.699C113.647 391.66 111.876 393.657 110.105 395.715C105.872 400.584 101.341 405.13 96.7695 409.68C95.9536 410.5 95.1376 411.319 94.2969 412.164C90.8125 415.643 87.3425 419.059 83.5508 422.203C81.3557 424.037 79.68 425.755 77.8125 427.974C72.9767 433.691 67.5896 438.899 62.3008 444.191C61.1354 445.36 59.9701 446.529 58.8048 447.697C56.3725 450.136 53.9381 452.572 51.5024 455.007C48.3906 458.119 45.2857 461.237 42.1825 464.358C39.782 466.769 37.3771 469.176 34.9708 471.582C33.8242 472.73 32.6792 473.879 31.5359 475.03C29.9356 476.641 28.329 478.244 26.7207 479.846C25.8106 480.758 24.9005 481.67 23.9628 482.609C20.0642 486.149 16.9296 488.826 11.6445 489.555C7.78273 488.983 6.63271 488.08 4.26953 485.055C5.7475 481.384 7.74569 479.644 10.8945 477.305C11.7118 476.691 12.5291 476.077 13.3711 475.445C13.9976 474.986 14.6241 474.528 15.2695 474.055C14.5103 474.488 13.751 474.921 12.9688 475.367C11.4779 476.202 11.4779 476.202 9.95703 477.055C8.47783 477.89 8.47783 477.89 6.96875 478.742C4.26953 480.055 4.26953 480.055 1.26953 480.055C0.964344 478.499 0.701772 476.934 0.457031 475.367C0.306211 474.497 0.155391 473.627 0 472.73C0.313926 469.614 1.26732 468.458 3.57397 466.401C7.11054 463.593 10.7668 460.968 14.457 458.367C16.0767 457.219 17.6952 456.069 19.3125 454.918C20.0243 454.416 20.7361 453.913 21.4695 453.396C23.383 452.038 23.383 452.038 25.2695 450.055C24.4265 450.56 23.5834 451.065 22.7148 451.586C21.6191 452.236 20.5234 452.885 19.3945 453.555C18.304 454.204 17.2134 454.854 16.0898 455.523C13.2695 457.055 13.2695 457.055 11.2695 457.055C12.8743 453.058 15.6767 450.375 18.6875 447.406C19.223 446.871 19.7585 446.336 20.3102 445.785C21.4434 444.655 22.5791 443.527 23.717 442.401C25.4388 440.698 27.1526 438.986 28.8652 437.273C37.9362 428.234 37.9362 428.234 42.1328 424.766C45.2108 422.217 47.7046 419.332 50.292 416.294C54.2773 411.781 58.6191 407.604 62.8945 403.367C63.8227 402.444 64.7508 401.52 65.707 400.568C67.4319 398.852 69.1579 397.137 70.8853 395.423C75.2095 391.128 79.5107 386.809 83.8066 382.486C89.1782 377.082 94.5549 371.682 99.9344 366.286C103.182 363.028 106.427 359.769 109.668 356.505C112.815 353.337 115.965 350.174 119.12 347.015C120.318 345.813 121.514 344.61 122.708 343.405C124.378 341.72 126.054 340.042 127.732 338.365C128.221 337.869 128.709 337.373 129.213 336.863C132.029 334.063 134.855 332.051 138.27 330.055C139.301 328.407 140.297 326.738 141.27 325.055C143.123 322.926 145.126 320.963 147.145 318.992C147.661 318.476 148.178 317.96 148.711 317.428C150.97 315.194 153.188 313.117 155.715 311.184C157.865 309.391 159.491 307.715 161.293 305.602C165.983 300.122 171.097 295.077 176.204 289.99C177.902 288.298 179.594 286.6 181.285 284.902C182.376 283.812 183.467 282.722 184.559 281.633C185.058 281.132 185.557 280.631 186.071 280.114C188.277 277.922 190.5 275.87 192.932 273.928C195.049 272.231 196.667 270.587 198.387 268.504C203.094 263.003 208.257 257.96 213.395 252.867C214.38 251.886 215.366 250.905 216.352 249.924C218.164 248.119 219.978 246.317 221.793 244.515C225.81 240.524 229.806 236.516 233.772 232.476C236.14 230.066 238.518 227.665 240.896 225.264C242.133 224.011 243.368 222.756 244.601 221.497C255.536 210.337 266.963 200.98 280.082 192.43C280.882 191.902 281.682 191.375 282.506 190.832C284.424 189.568 286.345 188.309 288.27 187.055C287.522 187.465 286.774 187.875 286.004 188.297C285.019 188.836 284.034 189.375 283.02 189.93C282.045 190.463 281.07 190.997 280.066 191.547C277.818 192.759 275.562 193.93 273.27 195.055C274.363 191.773 275.035 191.183 277.625 189.066C282.71 184.751 287.405 180.07 292.108 175.347C293.593 173.856 295.085 172.37 296.576 170.885C297.533 169.927 298.489 168.97 299.445 168.012C300.728 166.727 300.728 166.727 302.036 165.417C304.278 163.147 304.278 163.147 305.946 160.745C306.383 160.187 306.82 159.629 307.27 159.055C307.93 159.055 308.59 159.055 309.27 159.055C309.54 158.459 309.81 157.864 310.088 157.25C311.262 155.068 312.421 153.661 314.171 151.926C314.755 151.342 315.34 150.758 315.942 150.156C316.572 149.536 317.202 148.916 317.852 148.277C318.503 147.629 319.154 146.981 319.825 146.313C321.906 144.243 323.994 142.18 326.082 140.117C327.476 138.733 328.87 137.348 330.264 135.963C333.4 132.847 336.541 129.736 339.684 126.627C341.131 125.192 342.571 123.749 344.01 122.305C345.78 120.543 347.563 118.821 349.406 117.137C356.688 110.435 363.825 103.607 370.832 96.6172C371.581 95.8725 372.33 95.1278 373.102 94.3606C373.819 93.6422 374.535 92.9238 375.273 92.1836C375.901 91.5553 376.528 90.9269 377.174 90.2795C378.823 88.5285 380.365 86.7596 381.906 84.9166C385.467 80.7523 389.3 76.8985 393.187 73.0398C393.957 72.2715 394.726 71.5031 395.52 70.7115C397.18 69.0549 398.841 67.3996 400.504 65.7452C403.132 63.1295 405.758 60.5106 408.382 57.8909C413.946 52.3385 419.514 46.7901 425.082 41.2422C431.552 34.7954 438.021 28.3469 444.486 21.8943C447.077 19.3096 449.671 16.728 452.265 14.1465C453.843 12.572 455.421 10.9974 456.999 9.42261C457.725 8.70209 458.451 7.98157 459.198 7.23921C460.184 6.25318 460.184 6.25318 461.19 5.24724C461.764 4.6756 462.338 4.10396 462.929 3.515C464.374 2.07556 464.374 2.07556 465.27 0.0546875ZM28.2695 447.055C27.9395 447.715 27.6095 448.375 27.2695 449.055C28.2595 448.725 29.2495 448.395 30.2695 448.055C29.6095 447.725 28.9495 447.395 28.2695 447.055ZM17.2695 471.055C16.9395 471.715 16.6095 472.375 16.2695 473.055C17.2595 472.725 18.2495 472.395 19.2695 472.055C18.6095 471.725 17.9495 471.395 17.2695 471.055Z" fill="#D5405D"/>
</svg>
