<svg width="29" height="28" viewBox="0 0 29 28" fill="none" xmlns="http://www.w3.org/2000/svg">
<path d="M3.70374 0.0208075C3.75195 0.0225957 3.80016 0.0243838 3.84983 0.0262262C4.31676 0.147179 4.68276 0.471198 5.01363 0.808099C5.05308 0.847355 5.09253 0.886612 5.13317 0.927058C5.26387 1.05739 5.39376 1.1885 5.52367 1.31963C5.61773 1.41375 5.71184 1.50782 5.80599 1.60185C6.03413 1.82993 6.26176 2.05852 6.48916 2.28734C6.75401 2.55378 7.0195 2.81959 7.28502 3.08537C7.75844 3.55927 8.23136 4.03367 8.70397 4.50838C9.16281 4.96926 9.62188 5.42991 10.0813 5.89024C10.1096 5.91866 10.138 5.94708 10.1672 5.97636C10.3095 6.11894 10.4518 6.26152 10.5941 6.4041C11.7729 7.58518 12.9509 8.76707 14.1283 9.94947C14.308 9.86388 14.429 9.77361 14.5702 9.63223C14.6134 9.5893 14.6566 9.54637 14.701 9.50214C14.7479 9.45498 14.7947 9.40783 14.843 9.35924C14.8927 9.30961 14.9425 9.25997 14.9937 9.20884C15.1301 9.07276 15.2661 8.93634 15.402 8.79985C15.5446 8.65673 15.6875 8.5139 15.8304 8.37104C16.0706 8.13081 16.3106 7.89038 16.5504 7.6498C16.8268 7.37251 17.1035 7.09551 17.3804 6.81868C17.6759 6.52316 17.9713 6.22743 18.2666 5.93164C18.3512 5.84687 18.4359 5.76215 18.5206 5.67743C18.6793 5.51864 18.8378 5.35961 18.9963 5.20055C19.0428 5.15407 19.0893 5.10759 19.1372 5.0597C19.3712 4.82441 19.596 4.5848 19.8125 4.33334C19.9331 4.19515 20.061 4.06518 20.1907 3.93543C20.2171 3.90893 20.2435 3.88243 20.2707 3.85512C20.3564 3.76919 20.4422 3.68347 20.5281 3.59775C20.5887 3.53712 20.6493 3.47649 20.7099 3.41584C20.8362 3.28942 20.9627 3.1631 21.0892 3.03686C21.2502 2.87612 21.411 2.71514 21.5718 2.55408C21.6966 2.42902 21.8216 2.30409 21.9466 2.1792C22.0059 2.11994 22.0652 2.06064 22.1244 2.00129C22.4159 1.70933 22.7079 1.42068 23.0229 1.15397C23.2296 0.973258 23.4163 0.770279 23.6054 0.571448C23.9285 0.240363 24.2384 0.0402627 24.7055 0C25.5454 0.0171105 26.1572 0.757631 26.6986 1.31731C26.7778 1.40288 26.8523 1.49085 26.926 1.58116C27.0357 1.71231 27.141 1.81937 27.2717 1.92816C27.3288 1.97752 27.3288 1.97752 27.387 2.02787C27.4591 2.08999 27.5313 2.15186 27.6038 2.2134C27.9357 2.51595 28.2303 2.95559 28.2566 3.4159C28.1788 3.8826 27.9239 4.17538 27.5914 4.49616C27.552 4.53512 27.5126 4.57408 27.472 4.61423C27.3468 4.73783 27.2209 4.86064 27.0949 4.9834C26.9696 5.10631 26.8445 5.22937 26.7195 5.35258C26.642 5.42888 26.5643 5.50499 26.4864 5.58085C26.315 5.74888 26.1498 5.91833 25.994 6.10104C25.6951 6.4476 25.3658 6.76557 25.0421 7.08865C24.9703 7.16047 24.8985 7.23231 24.8267 7.30415C24.6769 7.45408 24.5269 7.60391 24.3769 7.75366C24.1856 7.94463 23.9946 8.13584 23.8037 8.32713C23.6557 8.47532 23.5075 8.62338 23.3594 8.77141C23.2889 8.84182 23.2185 8.91227 23.1482 8.98277C23.0494 9.08164 22.9505 9.18033 22.8516 9.27898C22.8232 9.3075 22.7947 9.33602 22.7655 9.3654C22.6113 9.51866 22.4532 9.66462 22.2888 9.80681C22.0685 9.99772 21.8614 10.199 21.656 10.4056C21.618 10.4435 21.5801 10.4815 21.541 10.5206C21.4172 10.6444 21.2935 10.7685 21.1699 10.8925C21.0835 10.9791 20.997 11.0656 20.9106 11.1521C20.6842 11.3787 20.4581 11.6054 20.2319 11.8321C20.0007 12.064 19.7692 12.2956 19.5378 12.5273C19.0847 12.9811 18.6317 13.435 18.1788 13.889C18.2494 14.0433 18.3219 14.157 18.4418 14.2767C18.4728 14.308 18.5039 14.3394 18.5359 14.3716C18.57 14.4055 18.6042 14.4393 18.6393 14.4742C18.6937 14.5288 18.6937 14.5288 18.7492 14.5845C18.871 14.7066 18.9932 14.8283 19.1154 14.9501C19.2028 15.0375 19.2901 15.1249 19.3774 15.2123C19.6148 15.45 19.8525 15.6873 20.0904 15.9246C20.3392 16.173 20.5878 16.4217 20.8364 16.6703C21.2543 17.0881 21.6723 17.5057 22.0906 17.9231C22.5203 18.352 22.9498 18.7812 23.379 19.2105C23.4055 19.2369 23.4319 19.2633 23.4591 19.2905C23.4986 19.33 23.4986 19.33 23.5389 19.3704C24.0529 19.8844 24.5671 20.3982 25.0814 20.912C25.2294 21.0598 25.3773 21.2077 25.5252 21.3556C25.7582 21.5885 25.9913 21.8213 26.2245 22.0539C26.3099 22.1392 26.3952 22.2245 26.4805 22.3098C26.5974 22.4267 26.7144 22.5433 26.8314 22.66C26.8648 22.6935 26.8982 22.7269 26.9326 22.7614C27.1383 22.966 27.3511 23.159 27.5718 23.3473C27.9043 23.6456 28.1975 24.0989 28.2308 24.5525C28.2135 24.954 28.0137 25.2554 27.7304 25.5304C27.6572 25.5939 27.5831 25.6566 27.5084 25.7183C27.0975 26.0655 26.7434 26.4738 26.3987 26.8851C25.948 27.4115 25.4003 27.9257 24.6788 27.9987C24.0829 27.9768 23.6436 27.5998 23.243 27.1919C23.2035 27.1526 23.1641 27.1134 23.1235 27.0729C22.9928 26.9426 22.8629 26.8115 22.733 26.6804C22.6389 26.5863 22.5448 26.4922 22.4506 26.3981C22.2225 26.1701 21.9949 25.9415 21.7675 25.7127C21.5026 25.4462 21.2371 25.1804 20.9716 24.9146C20.4982 24.4407 20.0253 23.9663 19.5527 23.4916C19.0938 23.0307 18.6347 22.5701 18.1754 22.1098C18.147 22.0813 18.1186 22.0529 18.0894 22.0236C17.9471 21.8811 17.8048 21.7385 17.6625 21.5959C16.4837 20.4148 15.3058 19.2329 14.1283 18.0505C13.9466 18.137 13.825 18.2291 13.6822 18.372C13.6381 18.4158 13.594 18.4597 13.5485 18.5049C13.5007 18.5531 13.4528 18.6013 13.4034 18.6509C13.3272 18.727 13.3272 18.727 13.2494 18.8046C13.1101 18.9437 12.9711 19.0831 12.8322 19.2226C12.6865 19.3688 12.5405 19.5147 12.3945 19.6607C12.1491 19.9061 11.9039 20.1518 11.6588 20.3976C11.3764 20.681 11.0936 20.964 10.8107 21.2469C10.5087 21.5488 10.2069 21.851 9.90522 22.1532C9.81872 22.2398 9.73217 22.3264 9.64562 22.413C9.48344 22.5752 9.3215 22.7377 9.15958 22.9002C9.11204 22.9478 9.06449 22.9953 9.0155 23.0442C8.7787 23.2823 8.55092 23.5244 8.33188 23.7789C8.21647 23.9113 8.09439 24.036 7.97027 24.1603C7.91952 24.2112 7.86877 24.2621 7.81649 24.3146C7.7623 24.3687 7.70812 24.4227 7.65392 24.4768C7.59706 24.5337 7.54021 24.5906 7.48337 24.6475C7.36487 24.7661 7.24627 24.8846 7.12759 25.003C6.97662 25.1537 6.8259 25.3046 6.67525 25.4555C6.5581 25.5729 6.44081 25.6901 6.32349 25.8073C6.26791 25.8628 6.21237 25.9184 6.15687 25.9741C5.87426 26.2572 5.5896 26.5335 5.28593 26.794C5.1796 26.8862 5.08048 26.9835 4.98319 27.0851C4.94882 27.1204 4.91445 27.1557 4.87904 27.1921C4.80947 27.2641 4.74011 27.3364 4.67097 27.4088C4.33944 27.748 4.03112 27.9586 3.55115 28C2.71118 27.9829 2.09947 27.2424 1.55807 26.6827C1.47884 26.5971 1.40436 26.5092 1.3306 26.4188C1.22091 26.2877 1.11567 26.1806 0.98489 26.0718C0.927812 26.0225 0.927812 26.0225 0.869581 25.9721C0.797568 25.91 0.725344 25.8481 0.652836 25.7866C0.320919 25.4841 0.0263294 25.0444 0 24.5841C0.0755572 24.1308 0.317202 23.8397 0.640915 23.5281C0.677859 23.4916 0.714803 23.4551 0.752867 23.4175C0.870149 23.3018 0.988163 23.1869 1.10627 23.0721C1.22363 22.9571 1.34083 22.8419 1.45788 22.7267C1.53043 22.6553 1.60317 22.5841 1.67615 22.5132C1.84053 22.3523 1.99808 22.1897 2.14713 22.0145C2.46239 21.6492 2.81087 21.3144 3.15212 20.9738C3.22889 20.897 3.30564 20.8202 3.38239 20.7433C3.54269 20.583 3.70308 20.4227 3.86355 20.2625C4.06826 20.0581 4.27273 19.8534 4.47712 19.6487C4.6354 19.4902 4.7938 19.3319 4.95225 19.1736C5.02766 19.0982 5.10302 19.0228 5.17834 18.9474C5.28398 18.8416 5.3898 18.736 5.49567 18.6304C5.52615 18.5998 5.55663 18.5692 5.58803 18.5377C5.7475 18.3791 5.91062 18.2275 6.08076 18.0803C6.29674 17.8932 6.50003 17.6962 6.70143 17.4936C6.75673 17.4383 6.75673 17.4383 6.81315 17.3819C6.93336 17.2617 7.05338 17.1412 7.1734 17.0208C7.25734 16.9367 7.3413 16.8527 7.42527 16.7687C7.64505 16.5487 7.86466 16.3285 8.08423 16.1083C8.30879 15.8832 8.53352 15.6582 8.75824 15.4332C9.19824 14.9926 9.63807 14.5519 10.0778 14.111C10.0073 13.9567 9.93469 13.843 9.81488 13.7233C9.78381 13.692 9.75274 13.6606 9.72074 13.6284C9.6866 13.5945 9.65247 13.5607 9.6173 13.5258C9.56291 13.4712 9.56291 13.4712 9.50742 13.4155C9.38561 13.2934 9.2634 13.1717 9.1412 13.0499C9.05387 12.9625 8.96656 12.8751 8.87927 12.7877C8.64186 12.55 8.4041 12.3127 8.16627 12.0754C7.9174 11.827 7.66882 11.5783 7.4202 11.3297C7.00235 10.9119 6.58428 10.4943 6.16607 10.0769C5.73637 9.64795 5.30687 9.21884 4.87758 8.78952C4.85117 8.76311 4.82477 8.7367 4.79757 8.7095C4.77121 8.68314 4.74485 8.65677 4.71769 8.62961C4.2037 8.11558 3.68949 7.60176 3.17522 7.088C3.02725 6.94015 2.87932 6.79226 2.7314 6.64437C2.49845 6.41146 2.26535 6.17871 2.03214 5.94605C1.94674 5.86082 1.86139 5.77553 1.77608 5.6902C1.65926 5.57334 1.54226 5.45666 1.42522 5.34002C1.37513 5.2898 1.37513 5.2898 1.32404 5.23858C1.11834 5.03404 0.905551 4.841 0.684834 4.65274C0.352284 4.3544 0.0591173 3.90109 0.0257927 3.44755C0.0431601 3.04601 0.242918 2.7446 0.526257 2.46959C0.599464 2.40605 0.673477 2.34343 0.748204 2.28168C1.15909 1.93452 1.51326 1.52623 1.85794 1.11494C2.32462 0.569856 2.936 -0.0228397 3.70374 0.0208075ZM3.53034 0.627694C3.44795 0.737558 3.44795 0.737558 3.36388 0.849641C3.47375 0.81302 3.58361 0.776398 3.6968 0.738667C3.64187 0.702046 3.58694 0.665425 3.53034 0.627694ZM24.5832 0.731515C24.5343 0.778507 24.4854 0.8255 24.435 0.873916C24.3855 0.920766 24.336 0.967615 24.285 1.01588C24.2288 1.07092 24.2288 1.07092 24.1714 1.12707C24.2263 1.15454 24.2263 1.15454 24.2824 1.18256C24.4459 1.10619 24.4459 1.10619 24.6222 0.998761C24.683 0.963499 24.7438 0.928237 24.8065 0.891906C24.8533 0.859648 24.9 0.82739 24.9482 0.794154C24.9482 0.757533 24.9482 0.720912 24.9482 0.683181C24.7765 0.603349 24.7401 0.617635 24.5832 0.731515ZM25.4476 1.12707C25.3927 1.18201 25.3377 1.23694 25.2811 1.29353C25.3544 1.27522 25.4276 1.25691 25.5031 1.23805C25.4848 1.20143 25.4665 1.16481 25.4476 1.12707ZM4.46668 1.68194C4.43235 1.71856 4.39802 1.75518 4.36265 1.79292C4.5694 1.73085 4.5694 1.73085 4.69557 1.57097C4.57107 1.55829 4.57107 1.55829 4.46668 1.68194ZM25.836 1.62646C25.711 1.70296 25.5985 1.78083 25.4823 1.86921C25.413 1.92042 25.3436 1.97157 25.2742 2.02267C25.2388 2.04895 25.2034 2.07524 25.1669 2.10232C24.997 2.22693 24.8236 2.34638 24.65 2.46569C24.5601 2.52771 24.5601 2.52771 24.4684 2.59097C24.4038 2.63539 24.4038 2.63539 24.3379 2.6807C24.3745 2.69901 24.4111 2.71732 24.4488 2.73619C24.5702 2.67739 24.6837 2.61576 24.7995 2.54741C24.8339 2.52762 24.8682 2.50784 24.9036 2.48745C25.0135 2.42397 25.123 2.35988 25.2326 2.29576C25.3069 2.2527 25.3813 2.20968 25.4556 2.16669C25.6382 2.06106 25.8204 1.95488 26.0025 1.8484C26.0025 1.79347 26.0025 1.73854 26.0025 1.68194C25.9475 1.66363 25.8926 1.64532 25.836 1.62646ZM26.4464 2.18132C26.4175 2.20087 26.3886 2.22041 26.3588 2.24054C26.0564 2.44498 25.7539 2.64931 25.4514 2.85357C25.3387 2.92969 25.226 3.00584 25.1133 3.08202C24.9508 3.19187 24.7883 3.30162 24.6257 3.41135C24.5758 3.44512 24.5259 3.47888 24.4745 3.51367C24.1919 3.70428 23.9067 3.889 23.6165 4.06787C23.6532 4.08618 23.6898 4.10449 23.7275 4.12336C23.8427 4.07524 23.8427 4.07524 23.9707 3.9983C24.0211 3.96954 24.0716 3.94078 24.1235 3.91115C24.1782 3.87933 24.2329 3.8475 24.2893 3.81471C24.3738 3.76628 24.3738 3.76628 24.4599 3.71687C24.6415 3.61247 24.8227 3.50735 25.0037 3.40203C25.0646 3.3667 25.1254 3.33136 25.1881 3.29496C25.4761 3.12764 25.7637 2.95985 26.051 2.79146C26.2745 2.66057 26.4986 2.53117 26.7238 2.40327C26.5865 2.29341 26.5865 2.29341 26.4464 2.18132ZM5.18454 2.71538C4.95185 2.93126 4.71614 3.14175 4.47362 3.34654C4.51024 3.36486 4.54686 3.38317 4.58459 3.40203C4.71639 3.3411 4.71639 3.3411 4.86246 3.24966C4.91718 3.21694 4.97189 3.18421 5.02827 3.1505C5.08556 3.11563 5.14285 3.08076 5.20188 3.04484C5.2596 3.01018 5.31733 2.97553 5.3768 2.93982C5.51987 2.85384 5.66269 2.76746 5.8053 2.6807C5.73374 2.60437 5.65954 2.53046 5.58335 2.45876C5.40031 2.45876 5.31453 2.59383 5.18454 2.71538ZM24.2269 2.73619C24.2086 2.77281 24.1903 2.80943 24.1714 2.84716C24.2263 2.82885 24.2813 2.81054 24.3379 2.79168C24.3013 2.77337 24.2646 2.75506 24.2269 2.73619ZM27.0567 2.79168C26.9307 2.84521 26.9307 2.84521 26.7893 2.92888C26.7339 2.96009 26.6785 2.99131 26.6215 3.02347C26.5314 3.07525 26.5314 3.07525 26.4394 3.12807C26.3772 3.1634 26.3149 3.19874 26.2507 3.23515C25.7232 3.53493 25.1992 3.84078 24.6758 4.14763C24.3259 4.35264 23.9748 4.55552 23.6235 4.75799C23.5635 4.79253 23.5036 4.82707 23.4419 4.86266C23.3204 4.93268 23.1989 5.00268 23.0773 5.07268C22.7761 5.24623 22.475 5.42001 22.1739 5.59376C22.0537 5.66312 21.9334 5.73248 21.8132 5.80183C21.7537 5.83617 21.6942 5.8705 21.6329 5.90587C19.6492 7.05028 19.6492 7.05028 19.4689 7.15434C19.3488 7.22364 19.2286 7.29296 19.1085 7.36228C18.7459 7.57151 18.3832 7.78058 18.0204 7.98955C17.8408 8.09311 17.6613 8.19688 17.4818 8.30069C17.2396 8.44075 16.9967 8.57974 16.7535 8.71814C16.6345 8.7864 16.5154 8.85468 16.3963 8.92296C16.3421 8.95354 16.2879 8.98413 16.232 9.01563C15.6544 9.34844 15.2198 9.79439 14.7584 10.2697C14.5407 10.4908 14.3212 10.6874 14.0696 10.869C13.8906 11.0006 13.7239 11.1462 13.5561 11.2916C13.5056 11.3348 13.5056 11.3348 13.4541 11.379C13.3037 11.5086 13.1578 11.6389 13.0186 11.7805C13.2203 11.7043 13.4054 11.6138 13.5934 11.5083C13.6502 11.4765 13.707 11.4446 13.7656 11.4119C13.8258 11.3779 13.886 11.3439 13.948 11.3089C14.0105 11.2737 14.073 11.2386 14.1374 11.2023C14.5142 10.9898 14.889 10.7744 15.2611 10.5537C15.6113 10.346 15.9638 10.1423 16.3166 9.93906C16.378 9.90366 16.4394 9.86826 16.5027 9.83179C16.6287 9.75921 16.7547 9.68664 16.8807 9.61408C17.1841 9.43936 17.4872 9.26438 17.7904 9.08942C17.9107 9.02006 18.0309 8.9507 18.1511 8.88135C18.2106 8.84701 18.2701 8.81268 18.3314 8.77731C24.6431 5.13599 24.6431 5.13599 24.8237 5.03179C24.9429 4.96298 25.0622 4.89416 25.1815 4.82534C25.4628 4.66305 25.7441 4.50079 26.0254 4.33864C26.1581 4.26218 26.2907 4.18571 26.4234 4.10923C26.5168 4.05536 26.6103 4.00153 26.7038 3.94769C26.7605 3.91496 26.8173 3.88224 26.8757 3.84853C26.9504 3.80548 26.9504 3.80548 27.0267 3.76156C27.1669 3.67992 27.3062 3.59682 27.4451 3.513C27.4187 3.23587 27.3368 3.06757 27.1677 2.84716C27.1128 2.8197 27.1128 2.8197 27.0567 2.79168ZM0.922467 3.62398C0.940778 3.6606 0.959088 3.69722 0.977954 3.73495C1.0512 3.66171 1.12444 3.58847 1.1999 3.513C1.07097 3.50275 1.07097 3.50275 0.922467 3.62398ZM2.91999 3.84593C2.79371 3.90145 2.79371 3.90145 2.65426 3.98616C2.57594 4.03149 2.57594 4.03149 2.49604 4.07773C2.44139 4.10996 2.38675 4.14218 2.33044 4.17538C2.27537 4.20739 2.22029 4.23939 2.16355 4.27237C2.02705 4.35178 1.89081 4.43159 1.75477 4.51177C1.79139 4.58501 1.82801 4.65825 1.86574 4.73371C2.13494 4.73371 2.16588 4.68504 2.35472 4.50483C2.403 4.45955 2.45128 4.41428 2.50102 4.36763C2.54773 4.32364 2.59443 4.27965 2.64256 4.23433C2.77087 4.12192 2.90084 4.01174 3.03096 3.90141C2.99434 3.8831 2.95772 3.86479 2.91999 3.84593ZM7.0815 4.01239C6.97623 4.10825 6.87105 4.20421 6.76592 4.30022C6.72177 4.3404 6.72177 4.3404 6.67672 4.38139C6.49238 4.54991 6.31353 4.72227 6.13822 4.90017C6.40094 4.80587 6.63548 4.67065 6.87689 4.53257C6.91798 4.50926 6.95907 4.48594 7.00141 4.46191C7.10218 4.40471 7.20282 4.34728 7.30344 4.28982C7.30344 4.23489 7.30344 4.17996 7.30344 4.12336C7.2302 4.08674 7.15696 4.05012 7.0815 4.01239ZM23.5056 4.12336C23.4873 4.15998 23.469 4.1966 23.4501 4.23433C23.505 4.21602 23.5599 4.19771 23.6165 4.17885C23.5799 4.16053 23.5433 4.14222 23.5056 4.12336ZM26.3354 4.7892C26.3171 4.82582 26.2988 4.86244 26.2799 4.90017C26.3348 4.88186 26.3898 4.86355 26.4464 4.84469C26.4097 4.82638 26.3731 4.80807 26.3354 4.7892ZM26.1689 4.90017C26.114 4.95511 26.0591 5.01004 26.0025 5.06663C26.094 5.03001 26.1856 4.99339 26.2799 4.95566C26.2433 4.93735 26.2067 4.91904 26.1689 4.90017ZM25.8915 5.06663C25.8732 5.10325 25.8549 5.13988 25.836 5.17761C25.8909 5.1593 25.9459 5.14099 26.0025 5.12212C25.9659 5.10381 25.9292 5.0855 25.8915 5.06663ZM7.93114 5.34407C7.87932 5.39042 7.87932 5.39042 7.82645 5.4377C7.80034 5.46173 7.77423 5.48577 7.74734 5.51053C7.92347 5.51053 7.97278 5.48748 8.1184 5.39955C8.17906 5.36293 8.23971 5.32631 8.3022 5.28858C8.3022 5.25196 8.3022 5.21534 8.3022 5.17761C8.10306 5.17761 8.07423 5.21447 7.93114 5.34407ZM4.20789 5.60069C4.15568 5.63073 4.10346 5.66078 4.04967 5.69173C3.99502 5.72348 3.94037 5.75524 3.88407 5.78796C3.829 5.81972 3.77392 5.85148 3.71718 5.8842C3.58079 5.96288 3.44454 6.04178 3.3084 6.12088C3.36333 6.19412 3.41826 6.26737 3.47486 6.34283C3.72169 6.26309 3.87276 6.13775 4.06094 5.96136C4.11251 5.91343 4.16408 5.86551 4.21721 5.81614C4.34138 5.69733 4.46379 5.57726 4.58459 5.45504C4.42852 5.45504 4.34276 5.5227 4.20789 5.60069ZM8.49294 5.87119C8.42417 5.92526 8.42417 5.92526 8.35401 5.98043C8.3186 6.00847 8.2832 6.03651 8.24672 6.06539C8.30165 6.09286 8.30165 6.09286 8.35769 6.12088C8.48272 6.06572 8.48272 6.06572 8.61432 5.98563C8.68234 5.94626 8.68234 5.94626 8.75173 5.90609C8.7865 5.88542 8.82126 5.86475 8.85707 5.84345C8.83876 5.78852 8.82045 5.73358 8.80159 5.67699C8.68668 5.67699 8.5779 5.80418 8.49294 5.87119ZM9.07208 6.37057C9.01944 6.41635 8.9668 6.46213 8.91256 6.50929C8.96749 6.53675 8.96749 6.53675 9.02353 6.56478C9.16086 6.50295 9.28315 6.42154 9.41194 6.34283C9.39363 6.30621 9.37532 6.26959 9.35645 6.23186C9.21278 6.23186 9.17887 6.27772 9.07208 6.37057ZM18.5118 6.73124C18.4935 6.76786 18.4751 6.80448 18.4563 6.84221C18.5112 6.8239 18.5661 6.80559 18.6227 6.78672C18.5861 6.76841 18.5495 6.7501 18.5118 6.73124ZM24.3934 6.73124C24.2905 6.77849 24.2905 6.77849 24.1792 6.85391C24.1359 6.88161 24.0926 6.90931 24.048 6.93785C24.0018 6.96809 23.9555 6.99832 23.9079 7.02948C23.8373 7.07483 23.8373 7.07483 23.7654 7.12111C23.6693 7.18294 23.5734 7.24497 23.4776 7.30718C23.3509 7.38945 23.2238 7.47122 23.0966 7.5527C22.9182 7.66691 22.7402 7.78154 22.5623 7.89646C22.5989 7.91477 22.6355 7.93308 22.6733 7.95194C22.8203 7.88572 22.8203 7.88572 22.986 7.787C23.049 7.75077 23.112 7.71455 23.1769 7.67722C23.2098 7.65795 23.2427 7.63868 23.2767 7.61882C23.3756 7.56106 23.4749 7.50422 23.5744 7.44747C23.913 7.25111 24.2187 7.05483 24.5043 6.78672C24.4677 6.76841 24.4311 6.7501 24.3934 6.73124ZM9.74486 6.78672C9.68993 6.86912 9.68993 6.86912 9.63389 6.95318C9.72544 6.91656 9.81699 6.87994 9.91132 6.84221C9.85639 6.8239 9.80146 6.80559 9.74486 6.78672ZM18.3453 6.84221C18.263 6.89507 18.181 6.94832 18.0991 7.00173C18.0534 7.03135 18.0077 7.06096 17.9606 7.09147C17.8398 7.16616 17.8398 7.16616 17.7904 7.2861C18.0496 7.19971 18.2392 7.05947 18.4563 6.8977C18.4197 6.87939 18.383 6.86107 18.3453 6.84221ZM4.86203 7.00867C4.7624 7.05112 4.7624 7.05112 4.66089 7.11618C4.59909 7.15394 4.53729 7.19171 4.47362 7.23062C4.49193 7.28555 4.51024 7.34048 4.52911 7.39708C4.67559 7.28721 4.82208 7.17735 4.973 7.06416C4.93638 7.04585 4.89976 7.02754 4.86203 7.00867ZM5.21575 7.64677C5.17041 7.67252 5.12506 7.69827 5.07834 7.7248C5.04358 7.74482 5.00881 7.76485 4.973 7.78548C4.99131 7.82211 5.00962 7.85873 5.02849 7.89646C5.27455 7.81912 5.40989 7.69638 5.58335 7.50805C5.43118 7.50805 5.34725 7.57162 5.21575 7.64677ZM10.428 7.95194C10.3832 7.99314 10.3383 8.03434 10.2921 8.07679C10.241 8.12485 10.241 8.12485 10.1888 8.17389C10.2437 8.20136 10.2437 8.20136 10.2997 8.22938C10.4506 8.14882 10.4506 8.14882 10.6118 8.03864C10.6675 8.00209 10.7231 7.96554 10.7805 7.92789C10.8446 7.88486 10.8446 7.88486 10.9101 7.84097C10.8918 7.80435 10.8735 7.76773 10.8546 7.73C10.6348 7.73 10.5866 7.80484 10.428 7.95194ZM22.3404 8.00743C22.322 8.04405 22.3037 8.08067 22.2849 8.1184C22.3398 8.10009 22.3947 8.08178 22.4513 8.06292C22.4147 8.04461 22.3781 8.0263 22.3404 8.00743ZM5.97176 8.06292C5.95345 8.09954 5.93514 8.13616 5.91627 8.17389C5.97121 8.15558 6.02614 8.13727 6.08273 8.1184C6.04611 8.10009 6.00949 8.08178 5.97176 8.06292ZM5.52787 8.34035C5.56449 8.37697 5.60111 8.41359 5.63884 8.45133C5.73039 8.35977 5.82195 8.26822 5.91627 8.17389C5.75564 8.17389 5.6612 8.25614 5.52787 8.34035ZM6.08273 8.83973C6.08273 8.87635 6.08273 8.91297 6.08273 8.95071C6.24278 8.87896 6.35308 8.80314 6.47114 8.67327C6.30786 8.67327 6.21507 8.74919 6.08273 8.83973ZM11.569 8.86748C11.5163 8.91325 11.4637 8.95903 11.4095 9.00619C11.6091 9.00619 11.6921 8.95302 11.8534 8.83973C11.8534 8.80311 11.8534 8.76649 11.8534 8.72876C11.7097 8.72876 11.6758 8.77462 11.569 8.86748ZM11.888 9.59921C11.8567 9.62864 11.8254 9.65807 11.7931 9.6884C11.6063 9.86457 11.4237 10.0445 11.243 10.2269C11.4318 10.1554 11.604 10.0735 11.7781 9.97158C11.8248 9.9444 11.8715 9.91722 11.9196 9.88921C11.9675 9.86103 12.0155 9.83285 12.0649 9.80381C12.1384 9.7609 12.1384 9.7609 12.2135 9.71712C12.334 9.64677 12.4544 9.57625 12.5747 9.50557C12.5028 9.39128 12.5028 9.39128 12.4082 9.28363C12.1641 9.28363 12.055 9.43878 11.888 9.59921ZM7.69185 9.3946C7.52852 9.47517 7.52852 9.47517 7.35199 9.58534C7.2912 9.62189 7.2304 9.65843 7.16776 9.69609C7.12098 9.72477 7.0742 9.75346 7.02601 9.78301C7.04432 9.83794 7.06263 9.89287 7.0815 9.94947C7.26364 9.86675 7.41058 9.76158 7.56701 9.63735C7.61135 9.60231 7.6557 9.56726 7.70139 9.53115C7.73486 9.5044 7.76834 9.47765 7.80282 9.45009C7.7662 9.43178 7.72958 9.41347 7.69185 9.3946ZM13.407 10.3379C13.1049 10.5851 13.1049 10.5851 12.7966 10.8373C12.8516 10.8647 12.8516 10.8647 12.9076 10.8927C13.0709 10.8122 13.0709 10.8122 13.2475 10.702C13.3083 10.6655 13.3691 10.6289 13.4317 10.5912C13.4785 10.5626 13.5252 10.5339 13.5734 10.5043C13.5185 10.4494 13.4636 10.3945 13.407 10.3379ZM8.35769 10.6153C8.24783 10.6886 8.13796 10.7618 8.02477 10.8373C8.06139 10.8739 8.09801 10.9105 8.13574 10.9482C8.24561 10.8567 8.35547 10.7651 8.46866 10.6708C8.43204 10.6525 8.39542 10.6342 8.35769 10.6153ZM9.80035 10.6153C9.66323 10.6762 9.66323 10.6762 9.51034 10.7677C9.45312 10.8004 9.3959 10.8331 9.33695 10.8668C9.27701 10.9017 9.21707 10.9366 9.15531 10.9725C9.06476 11.0245 9.06476 11.0245 8.97238 11.0775C8.82274 11.1635 8.67335 11.2499 8.52415 11.3366C8.6157 11.4282 8.70726 11.5197 8.80159 11.6141C8.8352 11.5832 8.86882 11.5523 8.90346 11.5204C9.22942 11.2236 9.56383 10.9421 9.91132 10.6708C9.8747 10.6525 9.83808 10.6342 9.80035 10.6153ZM20.4538 10.6153C20.3439 10.6886 20.2341 10.7618 20.1209 10.8373C20.1758 10.8647 20.1758 10.8647 20.2319 10.8927C20.3417 10.8195 20.4516 10.7463 20.5648 10.6708C20.5282 10.6525 20.4915 10.6342 20.4538 10.6153ZM20.0099 10.8927C19.955 10.9477 19.9 11.0026 19.8434 11.0592C19.935 11.0226 20.0266 10.986 20.1209 10.9482C20.0843 10.9299 20.0476 10.9116 20.0099 10.8927ZM19.7325 11.0592C19.7142 11.0958 19.6959 11.1324 19.677 11.1702C19.7319 11.1519 19.7869 11.1336 19.8434 11.1147C19.8068 11.0964 19.7702 11.0781 19.7325 11.0592ZM10.2997 12.058C10.1364 12.1385 10.1364 12.1385 9.95987 12.2487C9.89907 12.2852 9.83828 12.3218 9.77564 12.3595C9.72886 12.3881 9.68208 12.4168 9.63389 12.4464C9.68882 12.5013 9.74375 12.5562 9.80035 12.6128C10.0018 12.448 10.2032 12.2832 10.4107 12.1135C10.3741 12.0951 10.3375 12.0768 10.2997 12.058ZM11.057 12.5244C10.9862 12.5657 10.9862 12.5657 10.914 12.6078C10.8646 12.637 10.8153 12.6661 10.7644 12.6961C10.7146 12.7252 10.6649 12.7543 10.6136 12.7843C10.4903 12.8564 10.3672 12.9287 10.2442 13.0012C10.2809 13.0745 10.3175 13.1477 10.3552 13.2232C10.6037 13.1432 10.7555 13.0158 10.9448 12.8382C10.997 12.7897 11.0492 12.7411 11.103 12.6911C11.2065 12.5922 11.3091 12.4929 11.4095 12.3909C11.2601 12.3909 11.1857 12.4489 11.057 12.5244ZM18.5118 12.5573C18.2646 12.7221 18.2646 12.7221 18.0124 12.8903C18.0673 12.9177 18.0673 12.9177 18.1234 12.9458C18.2882 12.8359 18.4529 12.726 18.6227 12.6128C18.5861 12.5945 18.5495 12.5762 18.5118 12.5573ZM17.9014 12.9458C17.8831 12.9824 17.8648 13.019 17.8459 13.0567C17.9009 13.0384 17.9558 13.0201 18.0124 13.0012C17.9758 12.9829 17.9391 12.9646 17.9014 12.9458ZM11.6869 13.1677C11.6686 13.2043 11.6503 13.2409 11.6314 13.2787C11.6863 13.2604 11.7413 13.2421 11.7979 13.2232C11.7612 13.2049 11.7246 13.1866 11.6869 13.1677ZM11.5204 13.2787C11.3571 13.3592 11.3571 13.3592 11.1806 13.4694C11.1198 13.506 11.059 13.5425 10.9963 13.5802C10.9496 13.6088 10.9028 13.6375 10.8546 13.6671C10.9095 13.6854 10.9645 13.7037 11.0211 13.7226C11.1767 13.6432 11.1767 13.6432 11.3366 13.5318C11.3918 13.4953 11.4469 13.4587 11.5037 13.4211C11.5459 13.3924 11.588 13.3637 11.6314 13.3342C11.5948 13.3158 11.5582 13.2975 11.5204 13.2787ZM11.7979 13.889C11.7796 13.9256 11.7612 13.9623 11.7424 14C11.7973 13.9817 11.8522 13.9634 11.9088 13.9445C11.8722 13.9262 11.8356 13.9079 11.7979 13.889ZM10.9654 14.3671C10.8554 14.4296 10.7449 14.4912 10.6344 14.5527C10.5644 14.5924 10.4945 14.6321 10.4246 14.6719C10.3915 14.6902 10.3584 14.7085 10.3244 14.7273C10.1445 14.8312 10.036 14.9101 9.96681 15.1097C10.18 15.0314 10.3642 14.9318 10.5568 14.8117C10.6152 14.7753 10.6737 14.7388 10.7339 14.7013C10.7943 14.6633 10.8547 14.6252 10.917 14.5861C10.9779 14.5483 11.0388 14.5105 11.1015 14.4715C11.1598 14.435 11.2181 14.3985 11.2781 14.3609C11.3313 14.3276 11.3844 14.2943 11.4392 14.26C11.5554 14.1805 11.6481 14.1037 11.7424 14C11.4755 14 11.1968 14.2352 10.9654 14.3671ZM7.0815 18.217C7.06319 18.2536 7.04487 18.2902 7.02601 18.328C7.08094 18.3097 7.13587 18.2913 7.19247 18.2725C7.15585 18.2542 7.11923 18.2359 7.0815 18.217ZM6.80406 18.3835C6.55687 18.5482 6.55687 18.5482 6.30468 18.7164C6.49407 18.7164 6.54853 18.6793 6.70349 18.5777C6.74319 18.5519 6.78289 18.5262 6.82379 18.4996C6.8539 18.4796 6.88401 18.4596 6.91504 18.4389C6.87841 18.4206 6.84179 18.4023 6.80406 18.3835ZM5.25043 20.1035C5.23212 20.1402 5.21381 20.1768 5.19495 20.2145C5.24988 20.1962 5.30481 20.1779 5.36141 20.159C5.32479 20.1407 5.28816 20.1224 5.25043 20.1035ZM4.973 20.27C4.95469 20.3066 4.93638 20.3432 4.91751 20.381C4.97244 20.3627 5.02738 20.3444 5.08397 20.3255C5.04735 20.3072 5.01073 20.2889 4.973 20.27ZM4.80654 20.381C4.67037 20.4448 4.67037 20.4448 4.52564 20.537C4.47578 20.5671 4.42593 20.5973 4.37457 20.6283C4.24587 20.7034 4.24587 20.7034 4.19619 20.8249C4.4612 20.7338 4.68413 20.5882 4.91751 20.4365C4.88089 20.4182 4.84427 20.3998 4.80654 20.381ZM24.4939 21.9623C24.4344 22.0164 24.4344 22.0164 24.3736 22.0716C24.3435 22.0996 24.3134 22.1277 24.2824 22.1566C24.3373 22.184 24.3373 22.184 24.3934 22.212C24.5313 22.1442 24.5313 22.1442 24.6777 22.049C24.7282 22.0176 24.7787 21.9862 24.8308 21.9539C24.8889 21.9169 24.8889 21.9169 24.9482 21.8791C24.9299 21.8425 24.9116 21.8059 24.8927 21.7681C24.6831 21.7681 24.6452 21.8235 24.4939 21.9623ZM21.619 23.4882C21.4809 23.5498 21.4809 23.5498 21.3347 23.6408C21.2842 23.6703 21.2337 23.6998 21.1816 23.7301C21.1429 23.7602 21.1041 23.7902 21.0642 23.8212C21.0642 23.8761 21.0642 23.931 21.0642 23.9876C21.3405 23.9039 21.5215 23.7348 21.73 23.5437C21.6934 23.5254 21.6568 23.5071 21.619 23.4882ZM2.80902 23.5992C2.79071 23.6358 2.7724 23.6724 2.75353 23.7102C2.80846 23.6919 2.86339 23.6736 2.91999 23.6547C2.88337 23.6364 2.84675 23.6181 2.80902 23.5992ZM2.64256 23.7102C2.48195 23.7837 2.48195 23.7837 2.29967 23.8912C2.26586 23.9104 2.23206 23.9297 2.19724 23.9495C2.12557 23.9905 2.05402 24.0317 1.98259 24.0731C1.87383 24.1361 1.7646 24.1982 1.65528 24.2602C1.58568 24.3001 1.5161 24.3401 1.44656 24.3801C1.38334 24.4165 1.32012 24.4529 1.25498 24.4904C1.1034 24.5886 0.988072 24.6869 0.86698 24.8199C0.903602 24.8382 0.940223 24.8565 0.977954 24.8754C1.1261 24.8019 1.1261 24.8019 1.29267 24.6944C1.32374 24.6752 1.35482 24.6559 1.38683 24.6361C1.48662 24.5741 1.58601 24.5115 1.68541 24.4488C1.75156 24.4077 1.81774 24.3665 1.88395 24.3254C2.17677 24.1431 2.46719 23.958 2.75353 23.7657C2.71691 23.7474 2.68029 23.729 2.64256 23.7102ZM3.64132 25.2638C3.48787 25.3356 3.48787 25.3356 3.3149 25.4405C3.28304 25.459 3.25117 25.4776 3.21834 25.4967C3.11633 25.5562 3.01469 25.6163 2.91305 25.6765C2.84408 25.7169 2.77508 25.7572 2.70606 25.7975C2.53665 25.8966 2.36758 25.9962 2.19866 26.0961C2.23528 26.1694 2.2719 26.2426 2.30964 26.3181C2.4773 26.2037 2.6449 26.0892 2.81248 25.9747C2.85951 25.9427 2.90654 25.9106 2.95499 25.8775C3.22297 25.6944 3.48895 25.509 3.75229 25.3193C3.71567 25.301 3.67905 25.2827 3.64132 25.2638ZM2.14318 25.3748C2.03058 25.4299 2.03058 25.4299 1.91429 25.51C1.8741 25.5363 1.8339 25.5625 1.79248 25.5896C1.76173 25.6102 1.73097 25.6309 1.69928 25.6522C1.71759 25.6888 1.7359 25.7255 1.75477 25.7632C1.91956 25.6533 2.08436 25.5435 2.25415 25.4303C2.21753 25.412 2.18091 25.3936 2.14318 25.3748ZM3.03096 26.4845C3.01265 26.5211 2.99434 26.5578 2.97548 26.5955C3.03041 26.5772 3.08534 26.5589 3.14194 26.54C3.10532 26.5217 3.06869 26.5034 3.03096 26.4845ZM2.8645 26.5955C2.80957 26.6504 2.75464 26.7054 2.69804 26.762C2.7896 26.7253 2.88115 26.6887 2.97548 26.651C2.93886 26.6327 2.90223 26.6144 2.8645 26.5955Z" fill="black"/>
<path d="M3.70374 0.0208075C3.75195 0.0225957 3.80016 0.0243838 3.84983 0.0262262C4.31676 0.147179 4.68276 0.471198 5.01363 0.808099C5.05308 0.847355 5.09253 0.886612 5.13317 0.927058C5.26387 1.05739 5.39376 1.1885 5.52367 1.31963C5.61773 1.41375 5.71184 1.50782 5.80599 1.60185C6.03413 1.82993 6.26176 2.05852 6.48916 2.28734C6.75401 2.55378 7.0195 2.81959 7.28502 3.08537C7.75844 3.55927 8.23136 4.03367 8.70397 4.50838C9.16281 4.96926 9.62188 5.42991 10.0813 5.89024C10.1096 5.91866 10.138 5.94708 10.1672 5.97636C10.3095 6.11894 10.4518 6.26152 10.5941 6.4041C11.7729 7.58518 12.9509 8.76707 14.1283 9.94947C14.308 9.86388 14.429 9.77361 14.5702 9.63223C14.6134 9.5893 14.6566 9.54637 14.701 9.50214C14.7479 9.45498 14.7947 9.40783 14.843 9.35924C14.8927 9.30961 14.9425 9.25997 14.9937 9.20884C15.1301 9.07276 15.2661 8.93634 15.402 8.79985C15.5446 8.65673 15.6875 8.5139 15.8304 8.37104C16.0706 8.13081 16.3106 7.89038 16.5504 7.6498C16.8268 7.37251 17.1035 7.09551 17.3804 6.81868C17.6759 6.52316 17.9713 6.22743 18.2666 5.93164C18.3512 5.84687 18.4359 5.76215 18.5206 5.67743C18.6793 5.51864 18.8378 5.35961 18.9963 5.20055C19.0428 5.15407 19.0893 5.10759 19.1372 5.0597C19.3712 4.82441 19.596 4.5848 19.8125 4.33334C19.9331 4.19515 20.061 4.06518 20.1907 3.93543C20.2171 3.90893 20.2435 3.88243 20.2707 3.85512C20.3564 3.76919 20.4422 3.68347 20.5281 3.59775C20.5887 3.53712 20.6493 3.47649 20.7099 3.41584C20.8362 3.28942 20.9627 3.1631 21.0892 3.03686C21.2502 2.87612 21.411 2.71514 21.5718 2.55408C21.6966 2.42902 21.8216 2.30409 21.9466 2.1792C22.0059 2.11994 22.0652 2.06064 22.1244 2.00129C22.4159 1.70933 22.7079 1.42068 23.0229 1.15397C23.2296 0.973258 23.4163 0.770279 23.6054 0.571448C23.9285 0.240363 24.2384 0.0402627 24.7055 0C25.5454 0.0171105 26.1572 0.757631 26.6986 1.31731C26.7778 1.40288 26.8523 1.49085 26.926 1.58116C27.0357 1.71231 27.141 1.81937 27.2717 1.92816C27.3288 1.97752 27.3288 1.97752 27.387 2.02787C27.4591 2.08999 27.5313 2.15186 27.6038 2.2134C27.9357 2.51595 28.2303 2.95559 28.2566 3.4159C28.1788 3.8826 27.9239 4.17538 27.5914 4.49616C27.552 4.53512 27.5126 4.57408 27.472 4.61423C27.3468 4.73783 27.2209 4.86064 27.0949 4.9834C26.9696 5.10631 26.8445 5.22937 26.7195 5.35258C26.642 5.42888 26.5643 5.50499 26.4864 5.58085C26.315 5.74888 26.1498 5.91833 25.994 6.10104C25.6951 6.4476 25.3658 6.76557 25.0421 7.08865C24.9703 7.16047 24.8985 7.23231 24.8267 7.30415C24.6769 7.45408 24.5269 7.60391 24.3769 7.75366C24.1856 7.94463 23.9946 8.13584 23.8037 8.32713C23.6557 8.47532 23.5075 8.62338 23.3594 8.77141C23.2889 8.84182 23.2185 8.91227 23.1482 8.98277C23.0494 9.08164 22.9505 9.18033 22.8516 9.27898C22.8232 9.3075 22.7947 9.33602 22.7655 9.3654C22.6113 9.51866 22.4532 9.66462 22.2888 9.80681C22.0685 9.99772 21.8614 10.199 21.656 10.4056C21.618 10.4435 21.5801 10.4815 21.541 10.5206C21.4172 10.6444 21.2935 10.7685 21.1699 10.8925C21.0835 10.9791 20.997 11.0656 20.9106 11.1521C20.6842 11.3787 20.4581 11.6054 20.2319 11.8321C20.0007 12.064 19.7692 12.2956 19.5378 12.5273C19.0847 12.9811 18.6317 13.435 18.1788 13.889C18.2494 14.0433 18.3219 14.157 18.4418 14.2767C18.4728 14.308 18.5039 14.3394 18.5359 14.3716C18.57 14.4055 18.6042 14.4393 18.6393 14.4742C18.6937 14.5288 18.6937 14.5288 18.7492 14.5845C18.871 14.7066 18.9932 14.8283 19.1154 14.9501C19.2028 15.0375 19.2901 15.1249 19.3774 15.2123C19.6148 15.45 19.8525 15.6873 20.0904 15.9246C20.3392 16.173 20.5878 16.4217 20.8364 16.6703C21.2543 17.0881 21.6723 17.5057 22.0906 17.9231C22.5203 18.352 22.9498 18.7812 23.379 19.2105C23.4055 19.2369 23.4319 19.2633 23.4591 19.2905C23.4986 19.33 23.4986 19.33 23.5389 19.3704C24.0529 19.8844 24.5671 20.3982 25.0814 20.912C25.2294 21.0598 25.3773 21.2077 25.5252 21.3556C25.7582 21.5885 25.9913 21.8213 26.2245 22.0539C26.3099 22.1392 26.3952 22.2245 26.4805 22.3098C26.5974 22.4267 26.7144 22.5433 26.8314 22.66C26.8648 22.6935 26.8982 22.7269 26.9326 22.7614C27.1383 22.966 27.3511 23.159 27.5718 23.3473C27.9043 23.6456 28.1975 24.0989 28.2308 24.5525C28.2135 24.954 28.0137 25.2554 27.7304 25.5304C27.6572 25.5939 27.5831 25.6566 27.5084 25.7183C27.0975 26.0655 26.7434 26.4738 26.3987 26.8851C25.948 27.4115 25.4003 27.9257 24.6788 27.9987C24.0829 27.9768 23.6436 27.5998 23.243 27.1919C23.2035 27.1526 23.1641 27.1134 23.1235 27.0729C22.9928 26.9426 22.8629 26.8115 22.733 26.6804C22.6389 26.5863 22.5448 26.4922 22.4506 26.3981C22.2225 26.1701 21.9949 25.9415 21.7675 25.7127C21.5026 25.4462 21.2371 25.1804 20.9716 24.9146C20.4982 24.4407 20.0253 23.9663 19.5527 23.4916C19.0938 23.0307 18.6347 22.5701 18.1754 22.1098C18.147 22.0813 18.1186 22.0529 18.0894 22.0236C17.9471 21.8811 17.8048 21.7385 17.6625 21.5959C16.4837 20.4148 15.3058 19.2329 14.1283 18.0505C13.9466 18.137 13.825 18.2291 13.6822 18.372C13.6381 18.4158 13.594 18.4597 13.5485 18.5049C13.5007 18.5531 13.4528 18.6013 13.4034 18.6509C13.3272 18.727 13.3272 18.727 13.2494 18.8046C13.1101 18.9437 12.9711 19.0831 12.8322 19.2226C12.6865 19.3688 12.5405 19.5147 12.3945 19.6607C12.1491 19.9061 11.9039 20.1518 11.6588 20.3976C11.3764 20.681 11.0936 20.964 10.8107 21.2469C10.5087 21.5488 10.2069 21.851 9.90522 22.1532C9.81872 22.2398 9.73217 22.3264 9.64562 22.413C9.48344 22.5752 9.3215 22.7377 9.15958 22.9002C9.11204 22.9478 9.06449 22.9953 9.0155 23.0442C8.7787 23.2823 8.55092 23.5244 8.33188 23.7789C8.21647 23.9113 8.09439 24.036 7.97027 24.1603C7.91952 24.2112 7.86877 24.2621 7.81649 24.3146C7.7623 24.3687 7.70812 24.4227 7.65392 24.4768C7.59706 24.5337 7.54021 24.5906 7.48337 24.6475C7.36487 24.7661 7.24627 24.8846 7.12759 25.003C6.97662 25.1537 6.8259 25.3046 6.67525 25.4555C6.5581 25.5729 6.44081 25.6901 6.32349 25.8073C6.26791 25.8628 6.21237 25.9184 6.15687 25.9741C5.87426 26.2572 5.5896 26.5335 5.28593 26.794C5.1796 26.8862 5.08048 26.9835 4.98319 27.0851C4.94882 27.1204 4.91445 27.1557 4.87904 27.1921C4.80947 27.2641 4.74011 27.3364 4.67097 27.4088C4.33944 27.748 4.03112 27.9586 3.55115 28C2.71118 27.9829 2.09947 27.2424 1.55807 26.6827C1.47884 26.5971 1.40436 26.5092 1.3306 26.4188C1.22091 26.2877 1.11567 26.1806 0.98489 26.0718C0.927812 26.0225 0.927812 26.0225 0.869581 25.9721C0.797568 25.91 0.725344 25.8481 0.652836 25.7866C0.320919 25.4841 0.0263294 25.0444 0 24.5841C0.0755572 24.1308 0.317202 23.8397 0.640915 23.5281C0.677859 23.4916 0.714803 23.4551 0.752867 23.4175C0.870149 23.3018 0.988163 23.1869 1.10627 23.0721C1.22363 22.9571 1.34083 22.8419 1.45788 22.7267C1.53043 22.6553 1.60317 22.5841 1.67615 22.5132C1.84053 22.3523 1.99808 22.1897 2.14713 22.0145C2.46239 21.6492 2.81087 21.3144 3.15212 20.9738C3.22889 20.897 3.30564 20.8202 3.38239 20.7433C3.54269 20.583 3.70308 20.4227 3.86355 20.2625C4.06826 20.0581 4.27273 19.8534 4.47712 19.6487C4.6354 19.4902 4.7938 19.3319 4.95225 19.1736C5.02766 19.0982 5.10302 19.0228 5.17834 18.9474C5.28398 18.8416 5.3898 18.736 5.49567 18.6304C5.52615 18.5998 5.55663 18.5692 5.58803 18.5377C5.7475 18.3791 5.91062 18.2275 6.08076 18.0803C6.29674 17.8932 6.50003 17.6962 6.70143 17.4936C6.75673 17.4383 6.75673 17.4383 6.81315 17.3819C6.93336 17.2617 7.05338 17.1412 7.1734 17.0208C7.25734 16.9367 7.3413 16.8527 7.42527 16.7687C7.64505 16.5487 7.86466 16.3285 8.08423 16.1083C8.30879 15.8832 8.53352 15.6582 8.75824 15.4332C9.19824 14.9926 9.63807 14.5519 10.0778 14.111C10.0073 13.9567 9.93469 13.843 9.81488 13.7233C9.78381 13.692 9.75274 13.6606 9.72074 13.6284C9.6866 13.5945 9.65247 13.5607 9.6173 13.5258C9.56291 13.4712 9.56291 13.4712 9.50742 13.4155C9.38561 13.2934 9.2634 13.1717 9.1412 13.0499C9.05387 12.9625 8.96656 12.8751 8.87927 12.7877C8.64186 12.55 8.4041 12.3127 8.16627 12.0754C7.9174 11.827 7.66882 11.5783 7.4202 11.3297C7.00235 10.9119 6.58428 10.4943 6.16607 10.0769C5.73637 9.64795 5.30687 9.21884 4.87758 8.78952C4.85117 8.76311 4.82477 8.7367 4.79757 8.7095C4.77121 8.68314 4.74485 8.65677 4.71769 8.62961C4.2037 8.11558 3.68949 7.60176 3.17522 7.088C3.02725 6.94015 2.87932 6.79226 2.7314 6.64437C2.49845 6.41146 2.26535 6.17871 2.03214 5.94605C1.94674 5.86082 1.86139 5.77553 1.77608 5.6902C1.65926 5.57334 1.54226 5.45666 1.42522 5.34002C1.37513 5.2898 1.37513 5.2898 1.32404 5.23858C1.11834 5.03404 0.905551 4.841 0.684834 4.65274C0.352284 4.3544 0.0591173 3.90109 0.0257927 3.44755C0.0431601 3.04601 0.242918 2.7446 0.526257 2.46959C0.599464 2.40605 0.673477 2.34343 0.748204 2.28168C1.15909 1.93452 1.51326 1.52623 1.85794 1.11494C2.32462 0.569856 2.936 -0.0228397 3.70374 0.0208075ZM2.04347 1.7448C1.86903 1.95119 1.68569 2.13555 1.48472 2.31577C0.974151 2.76238 0.974151 2.76238 0.71786 3.37429C0.821978 3.90434 1.37975 4.35922 1.78685 4.67996C1.95636 4.81776 2.08528 4.97574 2.22359 5.14379C2.25198 5.17326 2.28038 5.20273 2.30964 5.23309C2.34626 5.23309 2.38288 5.23309 2.42061 5.23309C2.43434 5.26514 2.44808 5.29718 2.46222 5.3302C2.54174 5.47332 2.63058 5.56941 2.75353 5.67699C2.79015 5.67699 2.82677 5.67699 2.8645 5.67699C2.87802 5.70932 2.89154 5.74165 2.90547 5.77496C2.98768 5.92055 3.07957 6.00017 3.20783 6.10701C3.42096 6.28994 3.60296 6.48178 3.7796 6.69981C3.86447 6.80143 3.86447 6.80143 4.02972 6.84221C4.0446 6.87425 4.05948 6.9063 4.07481 6.93931C4.15142 7.08446 4.25146 7.15868 4.37868 7.25923C4.52466 7.38587 4.64491 7.53271 4.77034 7.67928C4.94129 7.8773 5.12572 8.05236 5.32673 8.21897C5.50995 8.37351 5.66405 8.54379 5.81787 8.72724C5.93727 8.86374 6.06463 8.98977 6.19371 9.11717C6.25213 9.1755 6.3105 9.23388 6.36884 9.2923C6.39924 9.32269 6.42964 9.35309 6.46095 9.38441C6.73991 9.66336 6.73991 9.66336 6.82957 9.75306C6.90864 9.8321 6.9878 9.91105 7.06697 9.99C7.15959 10.0829 7.25095 10.1771 7.34159 10.272C7.4539 10.4061 7.4539 10.4061 7.58088 10.3934C7.59232 10.4243 7.60376 10.4552 7.61556 10.487C7.69994 10.6289 7.80131 10.7089 7.92984 10.8102C8.03881 10.905 8.12894 11.0081 8.22244 11.1182C8.32874 11.2431 8.42328 11.3447 8.55189 11.4476C8.7133 11.5767 8.83627 11.7226 8.97021 11.8794C9.16259 12.097 9.37151 12.2981 9.5784 12.5019C9.62418 12.5488 9.66995 12.5957 9.71712 12.644C9.84091 12.7647 9.96812 12.8775 10.0986 12.9908C10.3068 13.1736 10.4888 13.3669 10.6654 13.5802C10.74 13.6737 10.74 13.6737 10.8546 13.7226C10.8337 14.0151 10.6753 14.1673 10.487 14.3745C10.4258 14.4436 10.3647 14.5127 10.3036 14.582C10.2741 14.6153 10.2446 14.6487 10.2142 14.6831C10.112 14.8015 10.0182 14.9251 9.92519 15.0508C9.77242 15.2518 9.60229 15.4075 9.40912 15.569C9.30369 15.6622 9.21486 15.7584 9.1241 15.8657C8.86229 16.1747 8.57084 16.455 8.28278 16.7392C8.20912 16.8121 8.13575 16.8854 8.06247 16.9587C7.93237 17.0887 7.80176 17.2181 7.67087 17.3473C7.54711 17.4696 7.42365 17.5922 7.30021 17.7148C7.23492 17.7795 7.16953 17.8441 7.10405 17.9086C7.00921 18.0021 6.91473 18.096 6.82032 18.1899C6.79085 18.2188 6.76137 18.2477 6.73101 18.2775C6.66074 18.3477 6.59338 18.4208 6.52663 18.4944C6.52663 18.531 6.52663 18.5677 6.52663 18.6054C6.49382 18.6203 6.461 18.6353 6.4272 18.6507C6.30458 18.7164 6.22032 18.7843 6.12001 18.88C6.08523 18.9129 6.05044 18.9459 6.0146 18.9798C5.97757 19.0153 5.94055 19.0508 5.9024 19.0874C5.8228 19.1631 5.74318 19.2387 5.66355 19.3144C5.6228 19.3532 5.58205 19.392 5.54006 19.432C5.42106 19.5447 5.3011 19.6563 5.18064 19.7674C4.7999 20.1191 4.43665 20.4737 4.0928 20.8619C3.95825 21.0088 3.81549 21.1365 3.66343 21.2646C3.47479 21.4278 3.29299 21.5979 3.11073 21.7681C3.07602 21.8004 3.04132 21.8327 3.00556 21.866C2.90252 21.9623 2.80021 22.0593 2.69804 22.1566C2.661 22.1912 2.62396 22.2258 2.5858 22.2615C2.53246 22.3125 2.53246 22.3125 2.47805 22.3646C2.44572 22.3952 2.4134 22.4259 2.38009 22.4574C2.29224 22.5478 2.29224 22.5478 2.30964 22.7114C2.2801 22.7229 2.25056 22.7345 2.22012 22.7463C2.0341 22.8532 1.89365 23.0001 1.74436 23.1518C1.71273 23.1837 1.6811 23.2156 1.64851 23.2485C1.06773 23.7901 1.06773 23.7901 0.787218 24.487C0.792843 24.8757 0.998201 25.1677 1.26146 25.4407C1.45312 25.6359 1.45312 25.6359 1.69928 25.7077C1.71187 25.7397 1.72446 25.7718 1.73743 25.8048C1.82915 25.962 1.94322 26.0424 2.08769 26.1516C2.24146 26.2976 2.3741 26.4589 2.50926 26.6219C2.58395 26.7131 2.58395 26.7131 2.69804 26.762C2.72322 26.8054 2.7484 26.8489 2.77434 26.8937C2.86573 27.0414 2.93965 27.1159 3.08645 27.2058C3.12307 27.2058 3.15969 27.2058 3.19742 27.2058C3.19742 27.2425 3.19742 27.2791 3.19742 27.3168C3.36788 27.4305 3.53711 27.4586 3.74072 27.455C3.99415 27.3988 4.15265 27.1957 4.32692 27.0145C4.37092 26.9706 4.41492 26.9267 4.46025 26.8814C4.60529 26.736 4.7487 26.5892 4.89215 26.4423C4.99277 26.3408 5.09348 26.2395 5.19429 26.1382C5.43236 25.8986 5.66941 25.6581 5.906 25.417C6.17434 25.1437 6.44394 24.8717 6.71365 24.5997C7.17503 24.1345 7.63547 23.6684 8.09485 23.2011C8.2926 23.0001 8.49083 22.7995 8.69061 22.6004C8.72325 22.5678 8.75589 22.5352 8.78952 22.5015C11.4754 19.8157 14.1613 17.1298 16.8472 14.4439C16.9192 14.3718 16.9192 14.3718 16.9927 14.2983C17.1146 14.1765 17.2367 14.0549 17.359 13.9335C17.4794 13.8138 17.5997 13.694 17.7199 13.5742C17.783 13.5114 17.8461 13.4487 17.9092 13.386C18.3153 12.9885 18.3153 12.9885 18.694 12.5656C18.8357 12.3942 18.9959 12.2554 19.1648 12.1115C19.4123 11.8935 19.6421 11.6569 19.8747 11.4233C19.925 11.3732 19.9753 11.3231 20.0271 11.2715C20.2442 11.0542 20.4575 10.837 20.6565 10.603C20.8125 10.4209 20.9813 10.2678 21.1638 10.1127C21.4138 9.89248 21.6447 9.65197 21.8791 9.41541C21.9304 9.36391 21.9816 9.31241 22.0344 9.25935C22.1296 9.16364 22.2248 9.06787 22.3199 8.97203C22.4559 8.83514 22.5923 8.69873 22.7288 8.5623C22.8054 8.48503 22.8821 8.40772 22.9587 8.33038C23.0451 8.24354 23.1314 8.15669 23.2177 8.06985C23.2604 8.02672 23.3031 7.98359 23.347 7.93916C23.5823 7.70288 23.8226 7.47804 24.0754 7.26066C24.2408 7.11331 24.3797 6.94512 24.523 6.77675C24.6529 6.63918 24.786 6.51508 24.9272 6.38943C25.2353 6.11511 25.5277 5.82707 25.8187 5.5348C25.8934 5.4604 25.8934 5.4604 25.9696 5.38449C26.2214 5.13237 26.4644 4.87676 26.6963 4.60633C26.8053 4.48212 26.9229 4.36869 27.0429 4.25514C27.3455 3.95904 27.3455 3.95904 27.4497 3.55982C27.4314 3.26261 27.3565 3.07601 27.1677 2.84716C27.1311 2.82885 27.0945 2.81054 27.0567 2.79168C26.9307 2.84521 26.9307 2.84521 26.7893 2.92888C26.7339 2.96009 26.6785 2.99131 26.6215 3.02347C26.5314 3.07525 26.5314 3.07525 26.4394 3.12807C26.3772 3.1634 26.3149 3.19874 26.2507 3.23515C25.7232 3.53493 25.1992 3.84078 24.6758 4.14763C24.3259 4.35264 23.9748 4.55552 23.6235 4.75799C23.5635 4.79253 23.5036 4.82707 23.4419 4.86266C23.3204 4.93268 23.1989 5.00268 23.0773 5.07268C22.7761 5.24623 22.475 5.42001 22.1739 5.59376C22.0537 5.66312 21.9334 5.73248 21.8132 5.80183C21.7537 5.83617 21.6942 5.8705 21.6329 5.90587C19.6492 7.05028 19.6492 7.05028 19.4689 7.15434C19.3488 7.22364 19.2286 7.29296 19.1085 7.36228C18.7459 7.57151 18.3832 7.78058 18.0204 7.98955C17.8408 8.09311 17.6613 8.19688 17.4818 8.30069C17.2396 8.44075 16.9967 8.57974 16.7535 8.71814C16.6345 8.7864 16.5154 8.85468 16.3963 8.92296C16.3421 8.95354 16.2879 8.98413 16.232 9.01563C15.6959 9.3245 15.288 9.72549 14.8566 10.1645C14.7736 10.2488 14.6905 10.3331 14.6073 10.4172C14.5712 10.454 14.5351 10.4907 14.4979 10.5286C14.3342 10.6826 14.1893 10.6935 13.9664 10.6894C13.6475 10.638 13.4306 10.2987 13.2327 10.0672C13.0208 9.82539 12.7971 9.59258 12.5435 9.3946C12.3801 9.26055 12.251 9.10837 12.1139 8.9481C11.9963 8.81269 11.8708 8.68736 11.7424 8.5623C11.6932 8.5108 11.644 8.4593 11.5933 8.40624C11.481 8.27215 11.481 8.27215 11.354 8.28486C11.332 8.23465 11.332 8.23465 11.3095 8.18343C11.2398 8.05713 11.1789 7.9981 11.0661 7.91033C10.8782 7.75582 10.7248 7.58656 10.5674 7.40163C10.3955 7.20545 10.2084 7.02477 10.0223 6.84221C9.87883 6.69874 9.73591 6.55541 9.59574 6.40872C9.48343 6.27463 9.48343 6.27463 9.35645 6.28734C9.34179 6.25387 9.32713 6.22039 9.31202 6.18591C9.24229 6.05961 9.18143 6.00058 9.06862 5.91281C8.87983 5.75778 8.72381 5.58801 8.56707 5.40107C8.44758 5.26448 8.32048 5.13863 8.19123 5.01115C8.02574 4.84718 7.86052 4.68296 7.69532 4.5187C7.65172 4.47557 7.60813 4.43244 7.56321 4.388C7.34209 4.16781 7.12818 3.94598 6.92892 3.7057C6.82082 3.57836 6.70171 3.463 6.58212 3.34654C6.54206 3.3042 6.50201 3.26186 6.46074 3.21823C6.36953 3.11199 6.36953 3.11199 6.24919 3.1246C6.22978 3.0761 6.22978 3.0761 6.20996 3.02663C6.12123 2.87329 6.02019 2.79987 5.87813 2.69458C5.65302 2.52024 5.46845 2.34098 5.28663 2.1228C5.13717 1.94684 4.97144 1.78779 4.80654 1.62646C4.52911 1.34902 4.52911 1.34902 4.40773 1.22071C4.31652 1.11447 4.31652 1.11447 4.19619 1.12707C4.1773 1.07901 4.1773 1.07901 4.15804 1.02997C4.03927 0.826367 3.91208 0.715093 3.6838 0.64525C2.93636 0.514101 2.47375 1.23407 2.04347 1.7448ZM24.5832 0.731515C24.5343 0.778507 24.4854 0.8255 24.435 0.873916C24.3855 0.920766 24.336 0.967615 24.285 1.01588C24.2288 1.07092 24.2288 1.07092 24.1714 1.12707C24.2263 1.15454 24.2263 1.15454 24.2824 1.18256C24.4459 1.10619 24.4459 1.10619 24.6222 0.998761C24.683 0.963499 24.7438 0.928237 24.8065 0.891906C24.8533 0.859648 24.9 0.82739 24.9482 0.794154C24.9482 0.757533 24.9482 0.720912 24.9482 0.683181C24.7765 0.603349 24.7401 0.617635 24.5832 0.731515ZM25.4476 1.12707C25.3927 1.18201 25.3377 1.23694 25.2811 1.29353C25.3544 1.27522 25.4276 1.25691 25.5031 1.23805C25.4848 1.20143 25.4665 1.16481 25.4476 1.12707ZM25.836 1.62646C25.711 1.70296 25.5985 1.78083 25.4823 1.86921C25.413 1.92042 25.3436 1.97157 25.2742 2.02267C25.2388 2.04895 25.2034 2.07524 25.1669 2.10232C24.997 2.22693 24.8236 2.34638 24.65 2.46569C24.5601 2.52771 24.5601 2.52771 24.4684 2.59097C24.4038 2.63539 24.4038 2.63539 24.3379 2.6807C24.3745 2.69901 24.4111 2.71732 24.4488 2.73619C24.5702 2.67739 24.6837 2.61576 24.7995 2.54741C24.8339 2.52762 24.8682 2.50784 24.9036 2.48745C25.0135 2.42397 25.123 2.35988 25.2326 2.29576C25.3069 2.2527 25.3813 2.20968 25.4556 2.16669C25.6382 2.06106 25.8204 1.95488 26.0025 1.8484C26.0025 1.79347 26.0025 1.73854 26.0025 1.68194C25.9475 1.66363 25.8926 1.64532 25.836 1.62646ZM26.4464 2.18132C26.4175 2.20087 26.3886 2.22041 26.3588 2.24054C26.0564 2.44498 25.7539 2.64931 25.4514 2.85357C25.3387 2.92969 25.226 3.00584 25.1133 3.08202C24.9508 3.19187 24.7883 3.30162 24.6257 3.41135C24.5758 3.44512 24.5259 3.47888 24.4745 3.51367C24.1919 3.70428 23.9067 3.889 23.6165 4.06787C23.6532 4.08618 23.6898 4.10449 23.7275 4.12336C23.8427 4.07524 23.8427 4.07524 23.9707 3.9983C24.0211 3.96954 24.0716 3.94078 24.1235 3.91115C24.1782 3.87933 24.2329 3.8475 24.2893 3.81471C24.3738 3.76628 24.3738 3.76628 24.4599 3.71687C24.6415 3.61247 24.8227 3.50735 25.0037 3.40203C25.0646 3.3667 25.1254 3.33136 25.1881 3.29496C25.4761 3.12764 25.7637 2.95985 26.051 2.79146C26.2745 2.66057 26.4986 2.53117 26.7238 2.40327C26.5865 2.29341 26.5865 2.29341 26.4464 2.18132ZM24.2269 2.73619C24.2086 2.77281 24.1903 2.80943 24.1714 2.84716C24.2263 2.82885 24.2813 2.81054 24.3379 2.79168C24.3013 2.77337 24.2646 2.75506 24.2269 2.73619ZM23.5056 4.12336C23.4873 4.15998 23.469 4.1966 23.4501 4.23433C23.505 4.21602 23.5599 4.19771 23.6165 4.17885C23.5799 4.16053 23.5433 4.14222 23.5056 4.12336ZM18.5118 6.73124C18.4935 6.76786 18.4751 6.80448 18.4563 6.84221C18.5112 6.8239 18.5661 6.80559 18.6227 6.78672C18.5861 6.76841 18.5495 6.7501 18.5118 6.73124ZM18.3453 6.84221C18.263 6.89507 18.181 6.94832 18.0991 7.00173C18.0534 7.03135 18.0077 7.06096 17.9606 7.09147C17.8398 7.16616 17.8398 7.16616 17.7904 7.2861C18.0496 7.19971 18.2392 7.05947 18.4563 6.8977C18.4197 6.87939 18.383 6.86107 18.3453 6.84221ZM24.4939 21.9623C24.4344 22.0164 24.4344 22.0164 24.3736 22.0716C24.3435 22.0996 24.3134 22.1277 24.2824 22.1566C24.3373 22.184 24.3373 22.184 24.3934 22.212C24.5313 22.1442 24.5313 22.1442 24.6777 22.049C24.7282 22.0176 24.7787 21.9862 24.8308 21.9539C24.8889 21.9169 24.8889 21.9169 24.9482 21.8791C24.9299 21.8425 24.9116 21.8059 24.8927 21.7681C24.6831 21.7681 24.6452 21.8235 24.4939 21.9623ZM21.619 23.4882C21.4809 23.5498 21.4809 23.5498 21.3347 23.6408C21.2842 23.6703 21.2337 23.6998 21.1816 23.7301C21.1429 23.7602 21.1041 23.7902 21.0642 23.8212C21.0642 23.8761 21.0642 23.931 21.0642 23.9876C21.3405 23.9039 21.5215 23.7348 21.73 23.5437C21.6934 23.5254 21.6568 23.5071 21.619 23.4882Z" fill="black"/>
<path d="M17.515 14.4434C17.7223 14.5299 17.8539 14.6575 18.0118 14.8155C18.0387 14.8423 18.0656 14.869 18.0933 14.8966C18.1833 14.9862 18.2728 15.0762 18.3623 15.1662C18.4267 15.2306 18.4912 15.2949 18.5557 15.3592C18.7306 15.5339 18.9052 15.7089 19.0798 15.884C19.2623 16.0671 19.4452 16.2498 19.628 16.4326C19.9348 16.7396 20.2415 17.0467 20.548 17.354C20.9027 17.7096 21.2577 18.0649 21.6129 18.42C21.9543 18.7613 22.2955 19.1028 22.6366 19.4444C22.782 19.5899 22.9273 19.7354 23.0728 19.8809C23.2438 20.052 23.4147 20.2232 23.5855 20.3946C23.6484 20.4576 23.7112 20.5205 23.7742 20.5834C23.8598 20.669 23.9452 20.7548 24.0307 20.8406C24.1026 20.9127 24.1026 20.9127 24.1759 20.9862C24.2844 21.1018 24.2844 21.1018 24.3399 21.2127C24.4357 21.2968 24.5348 21.3756 24.6344 21.4551C24.7283 21.5457 24.7283 21.5457 24.8393 21.7676C24.6745 21.8958 24.5097 22.024 24.3399 22.156C24.4269 22.1091 24.5138 22.0622 24.6034 22.0138C24.8619 21.8744 24.8619 21.8744 25.0029 21.8922C25.1378 21.9418 25.2042 22.0018 25.3047 22.1041C25.3403 22.1398 25.3758 22.1756 25.4125 22.2124C25.4503 22.2513 25.4882 22.2902 25.5272 22.3303C25.5668 22.3702 25.6063 22.4101 25.647 22.4512C25.7735 22.579 25.8994 22.7073 26.0253 22.8357C26.1509 22.9632 26.2765 23.0906 26.4024 23.2179C26.4806 23.2971 26.5587 23.3764 26.6366 23.4559C26.8426 23.6651 27.0537 23.8566 27.2807 24.0426C27.4526 24.2488 27.4768 24.4293 27.466 24.6902C27.3875 25.228 26.9539 25.5612 26.5628 25.8944C26.2552 26.1592 25.9926 26.4666 25.7318 26.7768C25.4578 27.1009 25.21 27.3473 24.7664 27.3891C24.3564 27.3544 24.0983 27.0338 23.8236 26.7534C23.7857 26.7152 23.7478 26.677 23.7088 26.6377C23.5883 26.5162 23.4681 26.3944 23.3481 26.2724C23.2283 26.1512 23.1085 26.03 22.9885 25.9089C22.9141 25.8339 22.8399 25.7587 22.7658 25.6833C22.555 25.4703 22.3378 25.2687 22.1102 25.0736C21.95 24.9341 21.7991 24.7857 21.6488 24.6356C21.619 24.6065 21.5893 24.5774 21.5586 24.5475C21.4847 24.4738 21.4138 24.3971 21.3436 24.32C21.3436 24.2834 21.3436 24.2468 21.3436 24.209C21.2887 24.1907 21.2337 24.1724 21.1771 24.1535C21.1588 24.0986 21.1405 24.0437 21.1217 23.9871C21.3048 23.8406 21.4879 23.6941 21.6765 23.5432C21.5323 23.629 21.5323 23.629 21.3852 23.7166C21.2214 23.8141 21.2214 23.8141 21.0662 23.8761C20.8876 23.825 20.7803 23.7134 20.6535 23.5813C20.6227 23.5495 20.5918 23.5177 20.5601 23.4849C20.5257 23.4492 20.4913 23.4135 20.4558 23.3767C20.3634 23.2841 20.2709 23.1917 20.1784 23.0993C20.0963 23.0173 20.0143 22.9352 19.9323 22.8532C19.8847 22.8056 19.8372 22.7581 19.7882 22.7091C18.0502 20.9711 16.3122 19.2331 14.5742 17.4951C14.6721 17.2857 14.7929 17.1521 14.9576 16.9882C14.9852 16.9606 15.0128 16.933 15.0412 16.9045C15.1323 16.8135 15.2236 16.723 15.3151 16.6325C15.3784 16.5694 15.4417 16.5063 15.5049 16.4431C15.6712 16.2772 15.8379 16.1116 16.0046 15.9461C16.1748 15.7771 16.3446 15.6078 16.5145 15.4384C16.8477 15.1064 17.1813 14.7748 17.515 14.4434Z" fill="black"/>
<path d="M24.7279 0.572837C24.6513 0.750974 24.5657 0.85301 24.4158 0.975116C24.3808 1.00401 24.3457 1.03291 24.3096 1.06268C24.2829 1.08414 24.2561 1.1056 24.2286 1.12771C24.2694 1.10432 24.3102 1.08093 24.3523 1.05683C24.4065 1.02643 24.4606 0.996032 24.5164 0.964713C24.5698 0.934457 24.6232 0.904202 24.6783 0.873029C24.8313 0.798467 24.9469 0.751444 25.1163 0.739298C25.2593 0.810011 25.3353 0.900096 25.4493 1.01673C25.4493 1.07166 25.4493 1.1266 25.4493 1.18319C25.5042 1.18319 25.5591 1.18319 25.6157 1.18319C25.7225 1.28429 25.803 1.39917 25.8932 1.51611C25.8138 1.71001 25.7241 1.79498 25.5505 1.90972C25.5045 1.94055 25.4586 1.97138 25.4112 2.00314C25.3631 2.03468 25.315 2.06622 25.2655 2.09872C25.1708 2.16163 25.0762 2.22462 24.9817 2.28772C24.9187 2.32919 24.9187 2.32919 24.8544 2.3715C24.7145 2.46874 24.5825 2.57361 24.4505 2.68133C24.5189 2.64012 24.5189 2.64012 24.5887 2.59808C24.7582 2.49633 24.9285 2.39594 25.099 2.29593C25.1727 2.25248 25.2462 2.20866 25.3194 2.16448C25.4248 2.10099 25.5309 2.03885 25.6372 1.97691C25.6697 1.95692 25.7023 1.93693 25.7358 1.91633C25.8886 1.82892 25.9761 1.78849 26.1519 1.82023C26.3057 1.92023 26.3977 2.03309 26.5035 2.18195C25.9535 2.5968 25.377 2.97026 24.8008 3.34717C24.702 3.41197 24.6032 3.47677 24.5044 3.5416C24.2646 3.69889 24.0246 3.85601 23.7847 4.01302C24.2162 3.77866 24.6461 3.54161 25.0747 3.30209C25.1352 3.26843 25.1956 3.23478 25.2579 3.2001C25.5241 3.05121 25.7888 2.90156 26.0475 2.73986C26.0854 2.71617 26.1234 2.69248 26.1625 2.66807C26.2304 2.62517 26.2978 2.58157 26.3646 2.53713C26.509 2.44562 26.5939 2.40279 26.7669 2.41214C26.9229 2.4711 27.0053 2.55665 27.1139 2.68133C27.0441 2.89053 26.9865 2.90368 26.7963 3.00667C26.7408 3.03717 26.6853 3.06767 26.628 3.0991C26.5675 3.13175 26.5069 3.16441 26.4446 3.19805C26.3166 3.26832 26.1887 3.33869 26.0609 3.40916C26.0119 3.43609 26.0119 3.43609 25.9619 3.46356C25.6411 3.64021 25.3246 3.82405 25.0088 4.00955C24.8984 4.07429 24.7879 4.13903 24.6774 4.20375C24.6221 4.23615 24.5668 4.26855 24.5099 4.30194C24.2156 4.4738 23.9204 4.64396 23.6251 4.81411C23.5652 4.84865 23.5053 4.88319 23.4435 4.91878C23.322 4.98879 23.2005 5.0588 23.079 5.12879C22.7778 5.30235 22.4767 5.47612 22.1755 5.64988C22.0553 5.71923 21.9351 5.78859 21.8149 5.85795C21.7554 5.89228 21.6959 5.92662 21.6345 5.96199C19.6509 7.1064 19.6509 7.1064 19.4705 7.21045C19.3504 7.27976 19.2303 7.34908 19.1101 7.41839C18.8083 7.59258 18.5063 7.76669 18.2043 7.94065C18.1442 7.97534 18.084 8.01003 18.0219 8.04578C17.9021 8.11482 17.7823 8.18382 17.6624 8.25277C17.3549 8.42986 17.0485 8.60857 16.7435 8.78986C16.682 8.82626 16.6205 8.86267 16.5571 8.90017C16.4393 8.96999 16.3217 9.04018 16.2044 9.11077C16.1521 9.1417 16.0999 9.17263 16.046 9.20449C16 9.23203 15.9539 9.25957 15.9065 9.28794C15.8696 9.30504 15.8326 9.32213 15.7946 9.33974C15.7579 9.32143 15.7213 9.30312 15.6836 9.28426C15.9091 9.05034 16.1358 8.81766 16.3636 8.58593C16.4406 8.50736 16.5172 8.4285 16.5934 8.3493C17.1479 7.77413 17.721 7.31574 18.4024 6.89833C18.3498 6.92694 18.2972 6.95555 18.2429 6.98503C18.1857 7.01135 18.1285 7.03767 18.0695 7.06479C18.0146 7.03732 18.0146 7.03732 17.9586 7.0093C18.5874 6.38045 19.2162 5.7516 19.8451 5.12275C19.8872 5.08065 19.9293 5.03854 19.9726 4.99516C20.1504 4.81751 20.3283 4.64003 20.5062 4.46256C20.8876 4.082 21.269 3.7013 21.6502 3.32052C21.8806 3.09046 22.1109 2.86046 22.3415 2.63057C22.565 2.40768 22.7883 2.18465 23.0116 1.96152C23.0965 1.87672 23.1814 1.79198 23.2664 1.70728C23.3854 1.58871 23.5042 1.46997 23.623 1.35118C23.6579 1.3165 23.6927 1.28181 23.7287 1.24607C23.8807 1.09373 24.0264 0.940773 24.1624 0.773881C24.3461 0.554073 24.4502 0.5668 24.7279 0.572837ZM24.2286 2.73682C24.2102 2.77344 24.1919 2.81006 24.1731 2.84779C24.228 2.82948 24.2829 2.81117 24.3395 2.79231C24.3029 2.774 24.2663 2.75569 24.2286 2.73682ZM23.5072 4.12399C23.4889 4.16061 23.4706 4.19723 23.4517 4.23496C23.5067 4.21665 23.5616 4.19834 23.6182 4.17948C23.5816 4.16117 23.545 4.14286 23.5072 4.12399ZM18.5134 6.73187C18.4951 6.76849 18.4768 6.80511 18.4579 6.84284C18.5129 6.82453 18.5678 6.80622 18.6244 6.78735C18.5878 6.76904 18.5511 6.75073 18.5134 6.73187Z" fill="black"/>
<path d="M20.5106 17.4395C20.5838 17.4761 20.6571 17.5127 20.7325 17.5504C20.7325 17.6054 20.7325 17.6603 20.7325 17.7169C20.6129 17.8071 20.6129 17.8071 20.4471 17.9031C20.3877 17.9376 20.3284 17.9721 20.2673 18.0077C20.2045 18.0433 20.1417 18.079 20.0771 18.1157C19.9839 18.1701 19.9839 18.1701 19.8888 18.2257C19.4235 18.4937 19.4235 18.4937 19.2344 18.4937C20.108 17.727 20.108 17.727 20.5106 17.4395Z" fill="black"/>
<path d="M26.9481 23.8203C27.0213 23.8569 27.0946 23.8936 27.17 23.9313C27.17 23.9862 27.17 24.0411 27.17 24.0977C27.0905 24.1632 27.0905 24.1632 26.9793 24.2256C26.9387 24.2489 26.8982 24.2721 26.8564 24.2961C26.7919 24.3318 26.7919 24.3318 26.7261 24.3682C26.6429 24.4154 26.5596 24.4627 26.4764 24.51C26.4352 24.5332 26.3939 24.5563 26.3514 24.5802C26.1877 24.6753 26.0303 24.7791 25.8732 24.8848C25.8434 24.8997 25.8136 24.9147 25.7828 24.93C25.7462 24.9117 25.7096 24.8934 25.6719 24.8746C26.092 24.5163 26.5143 24.1621 26.9481 23.8203Z" fill="black"/>
<path d="M18.1207 18.7168C18.1574 18.7351 18.194 18.7534 18.2317 18.7723C17.4885 19.4174 17.4885 19.4174 17.1983 19.6497C17.1667 19.6752 17.135 19.7007 17.1025 19.727C17.011 19.771 17.011 19.771 16.8883 19.7509C16.8556 19.7392 16.8228 19.7276 16.7891 19.7156C16.7891 19.6423 16.7891 19.5691 16.7891 19.4936C16.8274 19.4721 16.8658 19.4505 16.9053 19.4283C17.0782 19.3311 17.2509 19.2338 17.4237 19.1364C17.4841 19.1025 17.5445 19.0685 17.6067 19.0336C17.6641 19.0012 17.7215 18.9688 17.7807 18.9355C17.8338 18.9056 17.887 18.8756 17.9418 18.8448C18.0597 18.7825 18.0597 18.7825 18.1207 18.7168Z" fill="black"/>
<path d="M19.3465 16.2754C19.4198 16.312 19.493 16.3486 19.5685 16.3864C19.5685 16.4413 19.5685 16.4962 19.5685 16.5528C19.4489 16.643 19.4489 16.643 19.283 16.739C19.2237 16.7735 19.1643 16.808 19.1032 16.8436C19.0404 16.8792 18.9777 16.9149 18.913 16.9516C18.8198 17.0061 18.8198 17.0061 18.7248 17.0616C18.2595 17.3296 18.2595 17.3296 18.0703 17.3296C18.4879 16.9679 18.9045 16.6075 19.3465 16.2754Z" fill="black"/>
<path d="M24.5036 25.1523C24.5402 25.1707 24.5768 25.189 24.6145 25.2078C23.8046 25.9108 23.8046 25.9108 23.3938 26.2066C23.3206 26.17 23.2473 26.1333 23.1719 26.0956C23.1719 26.0407 23.1719 25.9858 23.1719 25.9292C23.2924 25.8381 23.2924 25.8381 23.4593 25.741C23.5189 25.7063 23.5784 25.6715 23.6398 25.6357C23.7028 25.5998 23.7659 25.5639 23.8308 25.5269C23.9247 25.4717 23.9247 25.4717 24.0204 25.4155C24.3662 25.2159 24.3662 25.2159 24.5036 25.1523Z" fill="black"/>
<path d="M16.902 17.6074C16.9386 17.6257 16.9752 17.644 17.013 17.6629C16.6128 18.0049 16.2121 18.3438 15.7923 18.6617C15.6813 18.5854 15.6813 18.5854 15.5703 18.4952C15.5703 18.4586 15.5703 18.422 15.5703 18.3842C15.7803 18.2364 16.0069 18.1137 16.2292 17.9854C16.2918 17.9484 16.3544 17.9114 16.4189 17.8733C16.4786 17.8385 16.5383 17.8038 16.5999 17.768C16.6551 17.7359 16.7103 17.7038 16.7672 17.6707C16.8116 17.6498 16.8561 17.6289 16.902 17.6074Z" fill="black"/>
<path d="M21.6746 22.4902C21.7113 22.5085 21.7479 22.5269 21.7856 22.5457C21.7361 22.5851 21.7361 22.5851 21.6857 22.6253C21.3283 22.9104 20.9737 23.1988 20.6204 23.489C20.5471 23.4158 20.4739 23.3425 20.3984 23.267C20.6944 23.0603 20.9988 22.8697 21.3105 22.6879C21.3617 22.6574 21.3617 22.6574 21.4139 22.6264C21.4989 22.5774 21.5866 22.5334 21.6746 22.4902Z" fill="black"/>
<path d="M24.2824 21.1016C24.3007 21.1382 24.319 21.1748 24.3379 21.2125C24.3745 21.2492 24.4111 21.2858 24.4489 21.3235C24.2482 21.4456 24.0469 21.5667 23.8455 21.6876C23.7595 21.7399 23.7595 21.7399 23.6718 21.7933C23.6171 21.826 23.5624 21.8588 23.506 21.8925C23.4555 21.923 23.4049 21.9535 23.3528 21.9849C23.2911 22.0146 23.2911 22.0146 23.2282 22.0448C23.1915 22.0265 23.1549 22.0082 23.1172 21.9894C23.2305 21.8934 23.3437 21.7974 23.457 21.7015C23.4887 21.6747 23.5203 21.6479 23.5528 21.6203C23.6164 21.5665 23.6801 21.5128 23.7439 21.4591C23.8072 21.4055 23.8702 21.3514 23.9327 21.2969C24.1595 21.1016 24.1595 21.1016 24.2824 21.1016Z" fill="black"/>
<path d="M22.5637 22.8789C22.6004 22.8972 22.637 22.9155 22.6747 22.9344C22.4676 23.1105 22.2601 23.2861 22.0521 23.4612C21.9601 23.5391 21.8687 23.6177 21.7774 23.6965C21.698 23.7638 21.698 23.7638 21.617 23.8326C21.5694 23.8734 21.5219 23.9143 21.4729 23.9563C21.343 24.0441 21.343 24.0441 21.1211 24.0441C21.266 23.8949 21.4112 23.7532 21.5719 23.621C21.7214 23.5033 21.7214 23.5033 21.8032 23.4123C21.9372 23.2857 22.0873 23.1914 22.2412 23.0904C22.3015 23.0508 22.3618 23.0111 22.4239 22.9702C22.4701 22.94 22.5162 22.9099 22.5637 22.8789Z" fill="black"/>
<path d="M18.3996 15.2754C18.4545 15.3303 18.5095 15.3853 18.5661 15.4419C18.2839 15.6751 17.9917 15.8858 17.6817 16.0799C17.6206 16.1183 17.5594 16.1566 17.4964 16.1961C17.4466 16.2219 17.3967 16.2476 17.3453 16.2742C17.3087 16.2558 17.2721 16.2375 17.2344 16.2187C17.3869 16.0926 17.5395 15.9666 17.6921 15.8407C17.7353 15.805 17.7784 15.7694 17.8228 15.7326C17.8647 15.6981 17.9065 15.6636 17.9496 15.628C17.988 15.5964 18.0263 15.5647 18.0659 15.5321C18.1752 15.4438 18.2866 15.359 18.3996 15.2754Z" fill="black"/>
<path d="M25.0583 21.8789C25.0583 21.9155 25.0583 21.9521 25.0583 21.9899C24.8562 22.1089 24.6538 22.2274 24.4511 22.3455C24.3822 22.3857 24.3134 22.4261 24.2446 22.4666C24.1458 22.5248 24.0467 22.5825 23.9475 22.6401C23.8879 22.675 23.8284 22.7099 23.767 22.7458C23.6157 22.8222 23.6157 22.8222 23.4492 22.8222C23.7979 22.5463 24.1491 22.2914 24.5347 22.0696C24.5677 22.0504 24.6007 22.0312 24.6347 22.0114C24.7885 21.9251 24.8789 21.8789 25.0583 21.8789Z" fill="black"/>
<path d="M15.8504 16.6641C15.887 16.6824 15.9237 16.7007 15.9614 16.7195C15.1314 17.3937 15.1314 17.3937 14.6852 17.6073C14.6486 17.5524 14.6119 17.4975 14.5742 17.4409C14.601 17.4252 14.6279 17.4096 14.6555 17.3935C14.7788 17.3215 14.9019 17.2494 15.025 17.1773C15.0672 17.1527 15.1094 17.1281 15.1529 17.1028C15.3907 16.9634 15.6229 16.8196 15.8504 16.6641Z" fill="black"/>
<path d="M26.0035 22.8789C26.0584 22.9155 26.1133 22.9521 26.1699 22.9899C26.1699 23.0265 26.1699 23.0631 26.1699 23.1009C25.997 23.2297 25.8074 23.3343 25.622 23.4442C25.57 23.4759 25.518 23.5076 25.4644 23.5403C25.4147 23.57 25.365 23.5997 25.3138 23.6304C25.2679 23.6578 25.222 23.6853 25.1747 23.7136C25.1369 23.7311 25.0991 23.7487 25.0602 23.7667C25.0236 23.7484 24.9869 23.7301 24.9492 23.7112C25.104 23.5827 25.2589 23.4545 25.4139 23.3263C25.458 23.2897 25.502 23.2531 25.5474 23.2154C25.5896 23.1805 25.6318 23.1457 25.6753 23.1097C25.7337 23.0614 25.7337 23.0614 25.7933 23.012C25.8925 22.9344 25.8925 22.9344 26.0035 22.8789Z" fill="black"/>
<path d="M17.4037 7.56445C17.4403 7.58276 17.4769 7.60107 17.5147 7.61994C16.9413 8.1933 16.3679 8.76667 15.7946 9.34003C15.7579 9.32172 15.7213 9.30341 15.6836 9.28454C16.2512 8.71691 16.8189 8.14928 17.4037 7.56445Z" fill="black"/>
<path d="M23.341 24.3203C23.3776 24.3386 23.4142 24.3569 23.452 24.3758C23.3103 24.4943 23.1679 24.612 23.0254 24.7295C22.9854 24.763 22.9454 24.7965 22.9042 24.831C22.5345 25.1348 22.5345 25.1348 22.2868 25.2081C22.2501 25.1532 22.2135 25.0982 22.1758 25.0416C22.2227 25.0128 22.2696 24.984 22.318 24.9543C22.3483 24.9357 22.3786 24.917 22.4098 24.8978C22.4759 24.8572 22.542 24.8166 22.6081 24.7761C22.7931 24.6627 22.9757 24.5466 23.1572 24.4278C23.2482 24.3746 23.2482 24.3746 23.341 24.3203Z" fill="black"/>
<path d="M22.7308 23.8203C22.7674 23.8386 22.8041 23.8569 22.8418 23.8758C22.717 23.9741 22.5921 24.0723 22.4673 24.1706C22.4145 24.2121 22.4145 24.2121 22.3606 24.2546C22.2924 24.3082 22.2241 24.3617 22.1556 24.4151C22.0821 24.4728 22.0093 24.5313 21.9367 24.5902C21.843 24.6526 21.843 24.6526 21.7182 24.6353C21.6862 24.6227 21.6541 24.6101 21.6211 24.5971C21.6876 24.3976 21.7318 24.3816 21.9087 24.2789C21.9556 24.2517 22.0025 24.2244 22.0508 24.1964C22.1001 24.1684 22.1494 24.1404 22.2002 24.1116C22.2493 24.0828 22.2984 24.054 22.349 24.0243C22.6218 23.8676 22.6218 23.8676 22.7308 23.8203Z" fill="black"/>
<path d="M25.4488 22.3223C25.5037 22.3589 25.5586 22.3955 25.6152 22.4332C25.6152 22.4699 25.6152 22.5065 25.6152 22.5442C25.5211 22.6128 25.5211 22.6128 25.3905 22.6886C25.3437 22.7157 25.2968 22.7429 25.2486 22.7709C25.1991 22.7991 25.1496 22.8273 25.0985 22.8563C25.0496 22.8849 25.0007 22.9135 24.9504 22.943C24.5824 23.1546 24.5824 23.1546 24.3945 23.1546C24.74 22.8688 25.0867 22.5868 25.4488 22.3223Z" fill="black"/>
<path d="M17.1269 18.4395C17.1635 18.4578 17.2001 18.4761 17.2378 18.4949C17.1047 18.6082 16.9703 18.7199 16.8356 18.8313C16.7977 18.8636 16.7599 18.8958 16.7209 18.929C16.6841 18.9592 16.6472 18.9894 16.6093 19.0205C16.5756 19.0487 16.5419 19.0769 16.5071 19.106C16.4055 19.1608 16.4055 19.1608 16.2818 19.1418C16.2494 19.1298 16.217 19.1177 16.1836 19.1053C16.1836 19.0687 16.1836 19.0321 16.1836 18.9943C16.3288 18.884 16.4906 18.7979 16.6483 18.7065C16.7144 18.6668 16.7144 18.6668 16.7818 18.6264C16.824 18.6017 16.8662 18.577 16.9097 18.5515C16.9681 18.5173 16.9681 18.5173 17.0277 18.4823C17.0604 18.4682 17.0931 18.454 17.1269 18.4395Z" fill="black"/>
<path d="M19.9534 16.8848C20.0266 16.9214 20.0999 16.958 20.1753 16.9957C19.9779 17.1603 19.7759 17.2986 19.5546 17.4292C19.4966 17.4639 19.4386 17.4986 19.3788 17.5344C19.3304 17.558 19.282 17.5817 19.2321 17.6061C19.1954 17.5878 19.1588 17.5695 19.1211 17.5506C19.3958 17.3309 19.6704 17.1112 19.9534 16.8848Z" fill="black"/>
<path d="M20.0081 21.4355C20.0447 21.4539 20.0813 21.4722 20.1191 21.491C20.0038 21.5828 19.8882 21.674 19.7723 21.765C19.7234 21.804 19.7234 21.804 19.6736 21.8438C19.5091 21.9723 19.3804 22.0607 19.1758 22.1014C19.1758 22.0465 19.1758 21.9915 19.1758 21.9349C19.3109 21.8383 19.4419 21.7542 19.585 21.6714C19.6238 21.6478 19.6625 21.6243 19.7025 21.6001C19.8021 21.5412 19.9049 21.4879 20.0081 21.4355Z" fill="black"/>
<path d="M22.8979 19.8262C22.9528 19.8445 23.0078 19.8628 23.0644 19.8817C22.9872 20.1132 22.8266 20.1714 22.6239 20.2839C22.5881 20.3048 22.5522 20.3257 22.5152 20.3472C22.4229 20.3994 22.3276 20.4461 22.2321 20.492C22.1954 20.4737 22.1588 20.4554 22.1211 20.4365C22.2466 20.3329 22.3726 20.2302 22.4991 20.1279C22.5348 20.0983 22.5704 20.0687 22.6071 20.0383C22.6417 20.0105 22.6762 19.9828 22.7117 19.9543C22.7434 19.9284 22.7751 19.9025 22.8077 19.8759C22.8375 19.8595 22.8672 19.8431 22.8979 19.8262Z" fill="black"/>
<path d="M5.02992 19.8809C5.06654 19.8992 5.10316 19.9175 5.14089 19.9363C4.90045 20.1768 4.66001 20.4172 4.41957 20.6577C4.38295 20.6394 4.34632 20.6211 4.30859 20.6022C4.54663 20.3641 4.78467 20.1261 5.02992 19.8809Z" fill="black"/>
<path d="M22.451 19.3262C22.4876 19.3445 22.5242 19.3628 22.562 19.3817C22.562 19.4183 22.562 19.4549 22.562 19.4926C22.4202 19.5904 22.4202 19.5904 22.236 19.6972C22.1755 19.7329 22.115 19.7686 22.0526 19.8054C22.001 19.8304 21.9493 19.8553 21.8961 19.881C21.8595 19.8627 21.8229 19.8444 21.7852 19.8256C22.0049 19.6608 22.2246 19.496 22.451 19.3262Z" fill="black"/>
<path d="M19.176 21.1582C19.2126 21.1765 19.2492 21.1948 19.2869 21.2137C19.2077 21.2803 19.1278 21.346 19.0476 21.4114C18.981 21.4664 18.981 21.4664 18.913 21.5226C18.8509 21.5619 18.8509 21.5619 18.7876 21.6021C18.7326 21.5838 18.6777 21.5655 18.6211 21.5466C18.7763 21.364 18.9648 21.2657 19.176 21.1582Z" fill="black"/>
</svg>
