<svg width="40" height="40" viewBox="0 0 40 40" fill="none" xmlns="http://www.w3.org/2000/svg">
<path d="M20.4118 0.093958C20.72 0.254509 20.861 0.390032 21.0101 0.711627C21.0461 0.787778 21.0821 0.86393 21.1191 0.942389C21.1568 1.02514 21.1945 1.1079 21.2334 1.19316C21.2739 1.27971 21.3144 1.36625 21.3561 1.45542C21.4859 1.73347 21.6142 2.01226 21.7424 2.2911C21.8265 2.47192 21.9108 2.6527 21.9951 2.83342C22.206 3.28621 22.4156 3.73968 22.6247 4.19341C22.753 4.47169 22.8817 4.74979 23.0105 5.02785C23.0937 5.20752 23.1769 5.3872 23.26 5.56687C23.3167 5.68912 23.3167 5.68912 23.3744 5.81384C23.8998 6.95012 24.3851 8.09122 24.8228 9.26727C25.5018 11.2619 25.5018 11.2619 26.8065 12.811C27.4114 13.0327 28.0284 13.0933 28.6644 13.1278C29.7384 13.2003 30.7945 13.358 31.858 13.526C33.4567 13.7781 35.052 14.0206 36.6684 14.1102C37.2285 14.1446 37.7646 14.2161 38.3121 14.3399C38.3697 14.3528 38.4273 14.3657 38.4867 14.379C38.991 14.5005 39.6121 14.691 39.9857 15.0791C40.0522 15.6206 39.8809 16.0064 39.5958 16.4561C39.3262 16.7977 39.0357 17.1132 38.7379 17.4281C38.6658 17.5061 38.5937 17.5841 38.5217 17.6622C38.1135 18.0971 37.6895 18.4923 37.2325 18.8709C36.9607 19.1 36.7022 19.3426 36.4438 19.5879C36.3347 19.6904 36.2251 19.7925 36.1132 19.8918C35.6715 20.2846 35.2626 20.7061 34.8543 21.1357C34.745 21.2501 34.6357 21.3644 34.5263 21.4786C34.26 21.7571 33.9941 22.036 33.7284 22.3152C33.5785 22.4726 33.4284 22.6299 33.2781 22.7869C33.1376 22.9336 32.9975 23.0806 32.8578 23.228C32.335 23.7732 31.7752 24.254 31.1948 24.7309C30.8551 25.0169 30.621 25.3239 30.5682 25.7841C30.5339 26.1902 30.6047 26.5333 30.7008 26.9254C30.9189 27.8879 31.0867 28.8576 31.2515 29.8313C31.2651 29.9111 31.2787 29.9909 31.2927 30.0732C31.4217 30.8308 31.5496 31.5885 31.6682 32.348C31.8509 33.5104 32.0822 34.6492 32.3616 35.7901C32.5707 36.6463 32.7644 37.4941 32.7576 38.3819C32.7573 38.4404 32.757 38.499 32.7568 38.5593C32.7478 39.017 32.6875 39.3714 32.4993 39.7842C32.0786 40.0755 31.5685 39.9954 31.0864 39.8962C29.872 39.5408 28.8217 38.829 27.7719 38.1254C27.4771 37.9297 27.1785 37.7405 26.8796 37.5516C26.8224 37.5154 26.7652 37.4793 26.7063 37.442C26.5317 37.3316 26.3572 37.2214 26.1826 37.1112C25.9372 36.9561 25.6919 36.8008 25.4466 36.6454C25.388 36.6084 25.3295 36.5713 25.2691 36.5331C24.8742 36.2826 24.4839 36.0261 24.0974 35.7617C23.9207 35.6465 23.9207 35.6465 23.7127 35.5674C23.5311 35.4912 23.5311 35.4912 23.3801 35.3292C23.185 35.1328 23.0066 35.0916 22.7513 35.0052C22.6998 34.925 22.6484 34.8448 22.5953 34.7622C22.5053 34.7505 22.4152 34.7388 22.3224 34.7267C22.2323 34.7117 22.1423 34.6967 22.0495 34.6812C21.9948 34.5746 21.943 34.4664 21.8935 34.3572C21.6376 34.2218 21.4126 34.1247 21.1283 34.0787C21.072 34.0637 21.0157 34.0487 20.9577 34.0332C20.9373 33.9804 20.9169 33.9277 20.8959 33.8734C20.8139 33.6885 20.8139 33.6885 20.6092 33.6484C20.5312 33.6417 20.4532 33.6351 20.3728 33.6282C20.2964 33.6198 20.22 33.6115 20.1413 33.6029C19.4814 33.6635 18.9536 34.0225 18.4232 34.4078C17.7206 34.8994 16.9893 35.3166 16.2397 35.7241C16.1828 35.755 16.1259 35.786 16.0673 35.8179C15.7246 36.0043 15.3814 36.1898 15.0381 36.3751C13.7803 37.0544 12.5495 37.7535 11.3593 38.5556C10.2573 39.2972 9.16082 39.9808 7.80893 40C7.62251 39.9462 7.62251 39.9462 7.48482 39.7557C6.86027 38.3639 7.47185 36.3826 7.82685 34.9868C8.18476 33.5775 8.43749 32.1683 8.65878 30.7306C8.72869 30.2769 8.79962 29.8234 8.87141 29.37C8.88882 29.26 8.90616 29.15 8.92343 29.0399C9.04579 28.2629 9.19062 27.4958 9.38366 26.7342C9.49989 26.2536 9.54219 25.8227 9.3418 25.3544C9.01173 24.9135 8.61552 24.5679 8.20068 24.2166C7.62021 23.7234 7.08274 23.1959 6.55511 22.6425C6.48477 22.5691 6.41443 22.4957 6.34196 22.4202C6.08108 22.148 5.82055 21.8755 5.56004 21.603C5.30383 21.335 5.04731 21.0673 4.79073 20.7997C4.72426 20.73 4.65779 20.6603 4.58931 20.5885C4.20974 20.1926 3.82159 19.8145 3.41139 19.4531C3.3439 19.393 3.3439 19.393 3.27505 19.3318C3.15679 19.2266 3.03804 19.1221 2.91912 19.0177C2.87608 18.9798 2.83303 18.9419 2.78869 18.9029C2.51031 18.6586 2.22833 18.4196 1.94433 18.1824C1.1553 17.5113 0.312746 16.6801 0.00783854 15.6359C-0.00799075 15.4524 -0.00385576 15.334 0.0581014 15.1601C1.58456 13.6734 4.87643 13.9659 6.84117 13.8164C7.11498 13.7955 7.38877 13.7741 7.66255 13.7527C7.85848 13.7377 8.05447 13.7235 8.25047 13.7093C8.37024 13.7001 8.49002 13.6908 8.60979 13.6815C8.66449 13.6778 8.71919 13.6741 8.77554 13.6702C9.05069 13.648 9.1807 13.6221 9.41613 13.459C9.91002 13.432 9.91002 13.432 10.118 13.54C10.4201 13.5244 10.7197 13.4783 11.0197 13.4388C11.1023 13.4289 11.185 13.419 11.2702 13.4087C11.8242 13.337 12.3543 13.2386 12.8524 12.9659C13.0034 12.892 13.0034 12.892 13.2334 12.8832C13.5045 12.801 13.5253 12.7673 13.6629 12.5263C13.726 12.3994 13.7871 12.2715 13.8466 12.1428C13.88 12.0737 13.9135 12.0047 13.9479 11.9335C14.2114 11.3806 14.4439 10.815 14.6721 10.2456C14.9089 9.66083 15.1746 9.09425 15.4501 8.52814C15.4933 8.43929 15.5366 8.35045 15.5811 8.25891C15.6242 8.17036 15.6674 8.0818 15.7118 7.99056C16.457 6.45956 17.143 4.9029 17.7726 3.31689C19.151 -0.15479 19.151 -0.15479 20.4118 0.093958ZM20.3338 2.11897C20.3081 2.17243 20.2824 2.22589 20.2558 2.28097C20.3073 2.28097 20.3588 2.28097 20.4118 2.28097C20.3861 2.22751 20.3603 2.17405 20.3338 2.11897ZM22.6511 8.06048C22.5801 8.10213 22.5091 8.14378 22.4359 8.18669C22.3583 8.23254 22.2806 8.27839 22.2006 8.32564C22.12 8.37305 22.0395 8.42047 21.9565 8.46932C21.3139 8.84865 20.6748 9.23409 20.0369 9.62186C19.4644 9.96984 18.8907 10.3154 18.316 10.6595C18.2327 10.7094 18.1494 10.7592 18.0635 10.8106C17.7151 11.0192 17.3667 11.2276 17.0182 11.436C16.8344 11.5459 16.6507 11.6558 16.4669 11.7658C16.295 11.8686 16.1232 11.9714 15.9512 12.0741C15.7222 12.2112 15.4934 12.3489 15.2649 12.487C15.1916 12.5313 15.1183 12.5756 15.0428 12.6213C14.9736 12.6637 14.9045 12.706 14.8332 12.7497C14.7724 12.7868 14.7116 12.824 14.6489 12.8623C14.4895 12.97 14.3553 13.0859 14.217 13.2211C13.9435 13.4783 13.6418 13.615 13.3031 13.7609C12.7523 14.0171 12.3034 14.3615 11.8336 14.75C11.4242 15.0864 11.0135 15.4158 10.5859 15.7271C10.6373 15.7538 10.6888 15.7805 10.7418 15.8081C10.9242 15.7233 10.9242 15.7233 11.1293 15.5929C11.2098 15.5441 11.2904 15.4953 11.3733 15.445C11.4609 15.391 11.5484 15.3371 11.6387 15.2816C11.7303 15.2257 11.822 15.17 11.9137 15.1143C12.1046 14.9984 12.2953 14.8822 12.4858 14.7658C12.9167 14.5029 13.3501 14.2444 13.7832 13.9855C13.9522 13.8843 14.1211 13.7831 14.2901 13.6818C17.3315 11.8593 17.3315 11.8593 17.5849 11.7074C17.7538 11.6062 17.9226 11.505 18.0915 11.4038C18.5157 11.1496 18.9401 10.8954 19.3645 10.6414C20.2148 10.1326 21.0646 9.62272 21.913 9.11033C21.9905 9.06365 22.068 9.01697 22.1479 8.96887C22.5128 8.74808 22.8715 8.52406 23.2192 8.27501C23.142 8.07453 23.142 8.07453 23.0632 7.87001C22.9133 7.87001 22.7778 7.98606 22.6511 8.06048ZM23.4532 9.08501C23.2253 9.226 22.998 9.36803 22.7708 9.51027C22.7065 9.55005 22.6421 9.58983 22.5759 9.63082C22.2624 9.82773 21.9801 10.0093 21.7375 10.3C22.1677 10.1758 22.5189 9.96083 22.8975 9.72289C22.9587 9.68499 23.0198 9.64709 23.0827 9.60804C23.2325 9.51511 23.3819 9.42177 23.5311 9.32802C23.5054 9.24783 23.4797 9.16764 23.4532 9.08501ZM23.268 10.3962C23.1633 10.4698 23.0586 10.5433 22.9539 10.6167C22.897 10.6566 22.8401 10.6965 22.7815 10.7377C22.4374 10.9768 22.0898 11.2103 21.7424 11.4442C21.6726 11.4912 21.6029 11.5382 21.531 11.5866C21.366 11.6978 21.2008 11.809 21.0357 11.92C21.0871 11.9468 21.1386 11.9735 21.1916 12.001C21.3958 11.9029 21.3958 11.9029 21.6257 11.7574C21.7135 11.7041 21.8013 11.6509 21.8918 11.596C21.985 11.5387 22.0782 11.4813 22.1713 11.4239C22.2623 11.3684 22.3533 11.3129 22.4444 11.2575C22.6209 11.15 22.7974 11.0424 22.9737 10.9347C23.2869 10.7451 23.6029 10.5614 23.9211 10.381C23.9211 10.2741 23.9211 10.1672 23.9211 10.057C23.6624 10.057 23.4753 10.2483 23.268 10.3962ZM21.5816 10.3C21.5558 10.3535 21.5301 10.4069 21.5036 10.462C21.5808 10.4353 21.658 10.4086 21.7375 10.381C21.6861 10.3543 21.6346 10.3276 21.5816 10.3ZM24.155 11.11C23.9494 11.2343 23.7594 11.3632 23.5653 11.5049C23.4397 11.5943 23.3141 11.6835 23.1884 11.7726C23.0849 11.8463 23.0849 11.8463 22.9793 11.9215C22.5497 12.224 22.114 12.5169 21.679 12.811C21.5072 12.9274 21.3354 13.0439 21.1636 13.1604C21.0533 13.2351 21.0533 13.2351 20.9407 13.3113C20.7116 13.4673 20.4836 13.6249 20.2558 13.783C20.3073 13.8098 20.3588 13.8365 20.4118 13.864C20.5967 13.778 20.5967 13.778 20.8048 13.646C20.8863 13.5967 20.9677 13.5474 21.0517 13.4966C21.1397 13.4425 21.2277 13.3883 21.3184 13.3325C21.409 13.2771 21.4997 13.2218 21.5904 13.1666C21.7309 13.081 21.8713 12.9953 22.0117 12.9093C22.335 12.7115 22.6605 12.5182 22.9874 12.3269C23.0731 12.2764 23.1589 12.2258 23.2472 12.1737C23.4115 12.0768 23.5762 11.9806 23.7414 11.8852C23.8153 11.8413 23.8891 11.7973 23.9652 11.752C24.0629 11.6949 24.0629 11.6949 24.1625 11.6366C24.335 11.4953 24.3627 11.4137 24.389 11.191C24.3118 11.1643 24.2346 11.1376 24.155 11.11ZM24.2041 12.5443C24.145 12.5842 24.086 12.624 24.0251 12.6651C23.3355 13.1319 22.6509 13.6066 21.9666 14.0817C21.8374 14.1713 21.7082 14.2609 21.579 14.3505C21.2678 14.5663 20.9568 14.7821 20.6458 14.9981C20.6972 15.0248 20.7487 15.0515 20.8017 15.0791C20.9993 14.9864 20.9993 14.9864 21.2233 14.8462C21.3111 14.7936 21.3988 14.741 21.4892 14.6869C21.585 14.6286 21.6807 14.5703 21.7765 14.512C21.8741 14.4533 21.9717 14.3946 22.0693 14.336C22.2722 14.214 22.4749 14.0917 22.6774 13.9691C22.9781 13.7872 23.2795 13.6065 23.5811 13.4261C23.6753 13.3698 23.7695 13.3135 23.8636 13.2572C23.9088 13.2302 23.954 13.2031 24.0006 13.1753C24.3382 12.9733 24.6755 12.7706 25.0128 12.568C24.9614 12.4344 24.9099 12.3007 24.8569 12.163C24.6485 12.163 24.3812 12.4242 24.2041 12.5443ZM28.2016 14.375C28.1134 14.4357 28.1134 14.4357 28.0234 14.4977C27.9628 14.5408 27.9022 14.584 27.8397 14.6285C27.7779 14.6714 27.7161 14.7142 27.6524 14.7584C27.4998 14.8644 27.3478 14.9713 27.1964 15.0791C27.2736 15.1191 27.2736 15.1191 27.3523 15.1601C27.5146 15.0869 27.5146 15.0869 27.6917 14.9731C27.758 14.9326 27.8244 14.8921 27.8927 14.8504C27.9621 14.8073 28.0315 14.7641 28.1029 14.7196C28.1729 14.6768 28.2429 14.6339 28.315 14.5897C28.4883 14.4834 28.6613 14.3765 28.834 14.269C28.5543 14.1616 28.4451 14.2046 28.2016 14.375ZM29.6675 14.6487C29.6096 14.6879 29.5517 14.727 29.492 14.7673C29.3662 14.8524 29.2405 14.9375 29.1147 15.0227C28.8304 15.2153 28.5458 15.4073 28.2611 15.5993C27.9581 15.8038 27.6552 16.0084 27.3523 16.2131C27.4038 16.2398 27.4553 16.2665 27.5083 16.2941C27.7238 16.1907 27.7238 16.1907 27.9683 16.0384C28.0143 16.0109 28.0603 15.9833 28.1078 15.955C28.256 15.8661 28.4037 15.7763 28.5513 15.6866C28.6479 15.6285 28.7444 15.5705 28.841 15.5125C29.0785 15.3699 29.3155 15.2265 29.5524 15.0827C29.6922 14.9979 29.832 14.9131 29.9719 14.8285C30.1905 14.6961 30.4091 14.5636 30.6277 14.431C30.1888 14.1958 30.0655 14.3783 29.6675 14.6487ZM9.70857 14.431C9.34364 14.5321 9.17253 14.7088 8.90314 14.9756C8.59714 15.2745 8.26463 15.5388 7.93444 15.8081C7.98591 15.8348 8.03738 15.8615 8.09041 15.8891C8.26013 15.8052 8.41853 15.7172 8.58055 15.6192C8.65264 15.5764 8.65264 15.5764 8.72618 15.5328C8.82789 15.4723 8.92943 15.4115 9.0308 15.3504C9.18626 15.2567 9.34233 15.1643 9.49853 15.0719C9.59711 15.0131 9.69566 14.9542 9.79416 14.8952C9.84103 14.8675 9.88791 14.8397 9.9362 14.8111C10.1877 14.6669 10.1877 14.6669 10.3519 14.431C10.1374 14.4243 9.92318 14.431 9.70857 14.431ZM31.6762 14.6671C31.6226 14.7015 31.5691 14.7359 31.5139 14.7713C31.4563 14.8094 31.3986 14.8474 31.3393 14.8867C31.2786 14.926 31.218 14.9652 31.1556 15.0057C30.9531 15.1373 30.7514 15.2701 30.5497 15.4031C30.3999 15.5012 30.2501 15.5994 30.1003 15.6976C29.4395 16.1321 28.7812 16.5696 28.1322 17.0231C28.1836 17.0498 28.2351 17.0765 28.2881 17.1041C28.4882 17.0101 28.4882 17.0101 28.7152 16.8683C28.8038 16.8154 28.8923 16.7624 28.9835 16.7078C29.0799 16.6492 29.1763 16.5906 29.2727 16.532C29.3707 16.473 29.4687 16.4141 29.5667 16.3553C29.819 16.2036 30.0709 16.0512 30.3226 15.8984C30.5139 15.7824 30.7055 15.6668 30.897 15.5512C31.3797 15.2598 31.8617 14.9673 32.3433 14.6741C32.3047 14.5939 32.3047 14.5939 32.2653 14.512C31.9641 14.512 31.9107 14.5144 31.6762 14.6671ZM6.54048 14.9981C6.47957 15.0582 6.41865 15.1183 6.35588 15.1803C6.31065 15.2271 6.26541 15.2739 6.2188 15.3221C6.52483 15.3221 6.67337 15.2051 6.93528 15.0436C7.02002 14.9919 7.10476 14.9402 7.19207 14.887C7.25691 14.8435 7.32175 14.7999 7.38855 14.7551C7.38855 14.7283 7.38855 14.7016 7.38855 14.6741C6.98536 14.6352 6.82904 14.7074 6.54048 14.9981ZM33.3912 14.9158C33.3088 14.9686 33.3088 14.9686 33.2247 15.0224C33.1655 15.0611 33.1062 15.0999 33.0451 15.1398C32.983 15.1799 32.9209 15.2199 32.8569 15.2612C32.6593 15.3888 32.4622 15.5173 32.2653 15.6461C32.2036 15.6863 32.1419 15.7265 32.0783 15.768C31.7723 15.9677 31.4667 16.1681 31.1617 16.3694C30.8981 16.5431 30.6339 16.7155 30.369 16.887C30.3014 16.931 30.2337 16.9749 30.164 17.0202C30.0341 17.1046 29.9041 17.1887 29.774 17.2725C29.6863 17.3296 29.6863 17.3296 29.5968 17.3879C29.5454 17.4211 29.494 17.4544 29.441 17.4887C29.3001 17.5914 29.1857 17.703 29.068 17.8331C29.55 17.7012 29.95 17.4327 30.3742 17.1699C30.5412 17.0675 30.7082 16.9652 30.8753 16.863C30.9621 16.8097 31.0489 16.7564 31.1384 16.7015C31.5886 16.4258 32.0416 16.1551 32.4944 15.884C32.6196 15.8089 32.6196 15.8089 32.7473 15.7322C33.2082 15.4561 33.6707 15.1835 34.1369 14.9171C33.8258 14.7016 33.6925 14.7209 33.3912 14.9158ZM4.19123 14.912C3.8177 15.0494 3.67938 15.3806 3.48938 15.7271C3.84143 15.6178 4.13842 15.4706 4.45442 15.2765C4.53706 15.2263 4.61969 15.176 4.70482 15.1243C4.76695 15.0826 4.82907 15.041 4.89308 14.9981C4.89308 14.9713 4.89308 14.9446 4.89308 14.9171C4.65895 14.9113 4.4254 14.9171 4.19123 14.912ZM20.4898 15.0791C20.4126 15.1592 20.3354 15.2394 20.2558 15.3221C20.3845 15.2686 20.5132 15.2151 20.6458 15.1601C20.5943 15.1333 20.5428 15.1066 20.4898 15.0791ZM35.3846 14.9981C34.8957 15.3188 34.4067 15.6396 33.903 15.9701C33.9802 16.0102 33.9802 16.0102 34.0589 16.0511C34.2212 15.9779 34.2212 15.9779 34.3983 15.8641C34.4646 15.8236 34.531 15.7831 34.5993 15.7415C34.6687 15.6983 34.7381 15.6551 34.8095 15.6106C34.8795 15.5678 34.9495 15.5249 35.0215 15.4807C35.1949 15.3744 35.3679 15.2675 35.5406 15.1601C35.4891 15.1066 35.4377 15.0531 35.3846 14.9981ZM36.2766 15.5651C36.1466 15.6555 36.0165 15.7457 35.8864 15.8359C35.8179 15.8841 35.7494 15.9324 35.6789 15.9821C35.3008 16.2443 34.9133 16.4909 34.5268 16.7396C34.3668 16.8433 34.2067 16.947 34.0467 17.0509C33.9695 17.101 33.8923 17.1511 33.8128 17.2028C33.4322 17.4504 33.0528 17.6998 32.6734 17.9493C32.1666 18.2823 31.658 18.6121 31.1492 18.9418C30.478 19.3767 29.8094 19.8154 29.146 20.2631C29.1974 20.2898 29.2489 20.3165 29.3019 20.3441C29.4842 20.2594 29.4842 20.2594 29.6894 20.1289C29.7699 20.0801 29.8505 20.0313 29.9335 19.981C30.021 19.9271 30.1085 19.8731 30.1987 19.8176C30.2903 19.7618 30.3819 19.7062 30.4735 19.6505C30.6642 19.5347 30.8548 19.4185 31.0452 19.3022C31.4795 19.0373 31.9164 18.7772 32.353 18.5165C33.0734 18.0853 33.7919 17.651 34.5093 17.2145C34.9455 16.9497 35.3833 16.6881 35.823 16.4295C35.873 16.4 35.9231 16.3705 35.9746 16.3402C36.2196 16.1958 36.4649 16.0518 36.7105 15.9085C36.7986 15.8567 36.8867 15.8048 36.9775 15.7514C37.0559 15.7056 37.1342 15.6598 37.2149 15.6126C37.386 15.5011 37.5127 15.3968 37.6462 15.2411C37.0586 15.0967 36.7594 15.2098 36.2766 15.5651ZM26.8844 15.2411C26.8587 15.2945 26.833 15.348 26.8065 15.4031C26.8837 15.3763 26.9609 15.3496 27.0404 15.3221C26.9889 15.2953 26.9375 15.2686 26.8844 15.2411ZM38.2953 15.784C38.2243 15.8301 38.1533 15.8761 38.0801 15.9235C38.0061 15.9723 37.932 16.0211 37.8558 16.0713C37.7826 16.1188 37.7095 16.1663 37.6341 16.2153C37.2706 16.4521 36.9098 16.6923 36.5544 16.9421C36.6059 16.9688 36.6573 16.9955 36.7104 17.0231C36.8967 16.9381 36.8967 16.9381 37.1042 16.8092C37.1829 16.7625 37.2616 16.7158 37.3426 16.6677C37.4663 16.593 37.4663 16.593 37.5926 16.5168C37.6741 16.4683 37.7557 16.4197 37.8398 16.3697C38.0617 16.2373 38.2832 16.1043 38.504 15.9701C38.5771 15.928 38.6502 15.886 38.7255 15.8426C38.7811 15.8045 38.8367 15.7664 38.8939 15.7271C38.8939 15.6736 38.8939 15.6201 38.8939 15.5651C38.6169 15.5651 38.5272 15.6326 38.2953 15.784ZM33.747 16.0511C33.6698 16.1313 33.5926 16.2114 33.513 16.2941C33.6417 16.2406 33.7704 16.1871 33.903 16.1321C33.8515 16.1053 33.8 16.0786 33.747 16.0511ZM2.08567 16.1321C2.00847 16.1722 2.00847 16.1722 1.92971 16.2131C1.92971 16.2665 1.92971 16.32 1.92971 16.3751C2.03264 16.3216 2.13558 16.2681 2.24164 16.2131C2.19017 16.1863 2.1387 16.1596 2.08567 16.1321ZM27.1964 16.2941C27.1192 16.3743 27.042 16.4544 26.9624 16.5371C27.0911 16.4836 27.2198 16.4301 27.3523 16.3751C27.3009 16.3483 27.2494 16.3216 27.1964 16.2941ZM5.43897 16.7801C5.41323 16.8335 5.3875 16.887 5.36098 16.9421C5.43819 16.9153 5.51539 16.8886 5.59493 16.8611C5.54346 16.8343 5.49199 16.8076 5.43897 16.7801ZM2.70954 17.1851C2.73528 17.2385 2.76101 17.292 2.78753 17.3471C3.05011 17.2342 3.17635 17.1058 3.33341 16.8611C3.0775 16.8611 2.91395 17.0374 2.70954 17.1851ZM5.20502 16.9421C5.02753 17.0231 5.02753 17.0231 4.83155 17.1468C4.75816 17.1909 4.68478 17.235 4.60917 17.2805C4.53237 17.3275 4.45557 17.3745 4.37644 17.423C4.29904 17.4697 4.22163 17.5165 4.14188 17.5646C3.95004 17.6805 3.75856 17.797 3.56736 17.9141C3.56736 17.9943 3.56736 18.0745 3.56736 18.1571C3.6703 18.2105 3.77324 18.264 3.87929 18.3191C3.94705 18.2595 4.0148 18.1998 4.08461 18.1384C4.17539 18.0586 4.26617 17.9787 4.35694 17.8989C4.42359 17.8402 4.42359 17.8402 4.49159 17.7804C4.78027 17.5265 5.07012 17.2742 5.36098 17.0231C5.30951 16.9963 5.25804 16.9696 5.20502 16.9421ZM36.3984 17.0231C36.3212 17.1033 36.244 17.1834 36.1645 17.2661C36.2932 17.2126 36.4218 17.1591 36.5544 17.1041C36.5029 17.0773 36.4515 17.0506 36.3984 17.0231ZM27.9762 17.1041C27.899 17.1843 27.8218 17.2644 27.7423 17.3471C27.8709 17.2936 27.9996 17.2401 28.1322 17.1851C28.0807 17.1583 28.0292 17.1316 27.9762 17.1041ZM36.0085 17.2661C35.9313 17.3463 35.8541 17.4264 35.7746 17.5091C35.9032 17.4556 36.0319 17.4021 36.1645 17.3471C36.113 17.3203 36.0615 17.2936 36.0085 17.2661ZM6.92065 17.4281C6.7127 17.5275 6.7127 17.5275 6.47834 17.6746C6.34504 17.755 6.34504 17.755 6.20905 17.837C6.11482 17.8948 6.02059 17.9525 5.92636 18.0103C5.83338 18.0665 5.74037 18.1226 5.64733 18.1787C5.23198 18.4303 4.82337 18.6871 4.42518 18.9671C4.50238 19.074 4.57959 19.1809 4.65913 19.2911C4.93336 19.1882 5.14425 19.0704 5.37225 18.8823C5.43151 18.8338 5.49077 18.7854 5.55183 18.7355C5.6127 18.6849 5.67357 18.6344 5.73628 18.5823C5.85697 18.4831 5.9777 18.384 6.09848 18.2849C6.15704 18.2367 6.21561 18.1885 6.27596 18.1389C6.53961 17.9244 6.80759 17.7162 7.07662 17.5091C7.02515 17.4823 6.97368 17.4556 6.92065 17.4281ZM37.0223 17.7521C36.9966 17.8055 36.9708 17.859 36.9443 17.9141C37.0215 17.8873 37.0987 17.8606 37.1783 17.8331C37.1268 17.8063 37.0753 17.7796 37.0223 17.7521ZM28.912 17.8331C28.8863 17.8865 28.8605 17.94 28.834 17.9951C28.9112 17.9683 28.9884 17.9416 29.068 17.9141C29.0165 17.8873 28.965 17.8606 28.912 17.8331ZM7.77847 18.4001C7.75274 18.4535 7.727 18.507 7.70049 18.5621C7.77769 18.5353 7.8549 18.5086 7.93444 18.4811C7.88297 18.4543 7.8315 18.4276 7.77847 18.4001ZM7.54452 18.5621C7.46732 18.6423 7.39011 18.7225 7.31057 18.8051C7.43924 18.7516 7.56792 18.6982 7.70049 18.6431C7.64902 18.6163 7.59755 18.5896 7.54452 18.5621ZM9.49411 18.5621C9.46838 18.6155 9.44264 18.669 9.41613 18.7241C9.49333 18.6973 9.57053 18.6706 9.65008 18.6431C9.59861 18.6163 9.54714 18.5896 9.49411 18.5621ZM9.26016 18.7241C9.04467 18.8274 9.04467 18.8274 8.80018 18.9797C8.75415 19.0073 8.70813 19.0348 8.66071 19.0632C8.5125 19.152 8.36482 19.2418 8.21713 19.3316C8.1206 19.3896 8.02403 19.4477 7.92743 19.5056C7.68996 19.6483 7.45292 19.7917 7.21607 19.9354C7.0763 20.0203 6.93646 20.105 6.7966 20.1897C6.57796 20.3221 6.35937 20.4545 6.14082 20.5871C6.16655 20.6673 6.19229 20.7475 6.2188 20.8301C6.59339 20.7202 6.88706 20.5479 7.20334 20.3188C7.30512 20.2466 7.40697 20.1746 7.50888 20.1027C7.56381 20.0638 7.61873 20.0249 7.67532 19.9848C8.01713 19.7456 8.3635 19.5137 8.7094 19.281C8.77918 19.2339 8.84896 19.1869 8.92085 19.1385C9.0859 19.0273 9.25099 18.9161 9.41613 18.8051C9.36466 18.7783 9.31319 18.7516 9.26016 18.7241ZM11.3657 18.7241C11.34 18.7775 11.3142 18.831 11.2877 18.8861C11.3649 18.8593 11.4421 18.8326 11.5217 18.8051C11.4702 18.7783 11.4187 18.7516 11.3657 18.7241ZM6.74702 19.0354C6.6666 19.0829 6.58618 19.1304 6.50332 19.1794C6.41908 19.2296 6.33484 19.2798 6.24805 19.3316C6.1632 19.3818 6.07836 19.432 5.99094 19.4838C5.78078 19.6082 5.57081 19.733 5.36098 19.8581C5.38672 19.9115 5.41245 19.965 5.43897 20.0201C5.6965 19.968 5.88147 19.8692 6.10274 19.7242C6.16823 19.6814 6.23372 19.6385 6.3012 19.5944C6.36891 19.5494 6.43661 19.5045 6.50637 19.4581C6.57497 19.4135 6.64358 19.3689 6.71427 19.3229C7.06599 19.1176 7.06599 19.1176 7.31057 18.8051C7.08174 18.8051 6.94499 18.9179 6.74702 19.0354ZM11.1318 18.8861C10.9699 18.9563 10.9699 18.9563 10.79 19.0686C10.7191 19.1106 10.6482 19.1526 10.5752 19.1959C10.4983 19.2423 10.4214 19.2888 10.3422 19.3366C10.2631 19.3838 10.184 19.4309 10.1024 19.4795C9.84723 19.6319 9.59262 19.7853 9.33814 19.9391C9.25262 19.9907 9.1671 20.0422 9.07898 20.0954C8.6743 20.3396 8.27001 20.5846 7.8662 20.8304C7.55218 21.0215 7.2371 21.2104 6.92065 21.3971C6.92065 21.4506 6.92065 21.504 6.92065 21.5591C7.05173 21.6653 7.05173 21.6653 7.23259 21.7211C7.43917 21.6357 7.43917 21.6357 7.6484 21.4819C7.76991 21.3996 7.76991 21.3996 7.89387 21.3156C7.98052 21.2551 8.06715 21.1945 8.15377 21.1338C8.24241 21.0731 8.33113 21.0125 8.41991 20.9521C8.67495 20.7779 8.92858 20.6015 9.18218 20.4251C9.30071 20.3436 9.4193 20.2621 9.53798 20.1808C9.81031 19.9938 10.0812 19.8046 10.3519 19.6151C10.5321 19.49 10.7125 19.3652 10.8929 19.2405C10.9692 19.1876 11.0455 19.1348 11.1241 19.0804C11.1781 19.043 11.2321 19.0056 11.2877 18.9671C11.2363 18.9403 11.1848 18.9136 11.1318 18.8861ZM12.6135 19.3721C12.4311 19.4568 12.4311 19.4568 12.226 19.5872C12.1453 19.6361 12.0647 19.685 11.9817 19.7353C11.8505 19.8161 11.8505 19.8161 11.7166 19.8986C11.6259 19.9539 11.5351 20.0091 11.4443 20.0642C11.2544 20.1796 11.0646 20.2953 10.875 20.4111C10.5934 20.5828 10.3108 20.7525 10.0278 20.9215C9.98276 20.9484 9.93772 20.9753 9.89131 21.0031C9.75892 21.0821 9.62652 21.1611 9.49411 21.2402C8.91879 21.5837 8.34622 21.9312 7.77847 22.2881C7.85568 22.395 7.93288 22.5019 8.01242 22.6121C8.39044 22.4784 8.70038 22.2619 9.03108 22.035C9.09534 21.9913 9.15961 21.9475 9.22581 21.9025C10.4116 21.0933 11.5899 20.272 12.7694 19.4531C12.7179 19.4264 12.6665 19.3996 12.6135 19.3721ZM28.834 20.4251C28.8083 20.4785 28.7826 20.532 28.756 20.5871C28.8332 20.5604 28.9105 20.5336 28.99 20.5061C28.9385 20.4794 28.8871 20.4526 28.834 20.4251ZM11.8336 24.1511C11.7564 24.2313 11.6792 24.3115 11.5997 24.3941C11.7283 24.3407 11.857 24.2872 11.9896 24.2321C11.9381 24.2054 11.8866 24.1787 11.8336 24.1511ZM11.4437 24.3941C11.2526 24.4948 11.0715 24.5989 10.8881 24.7131C10.8367 24.7443 10.7853 24.7756 10.7324 24.8078C10.6052 24.8853 10.4785 24.9637 10.3519 25.0421C10.3519 25.0956 10.3519 25.149 10.3519 25.2041C10.6607 25.088 10.9202 24.9343 11.1951 24.7485C11.2712 24.6973 11.3473 24.6462 11.4257 24.5934C11.4831 24.5544 11.5405 24.5153 11.5997 24.4751C11.5482 24.4484 11.4967 24.4217 11.4437 24.3941ZM12.9254 24.6371C12.8997 24.6906 12.8739 24.744 12.8474 24.7991C12.9246 24.7724 13.0018 24.7457 13.0814 24.7181C13.0299 24.6914 12.9784 24.6647 12.9254 24.6371ZM12.6914 24.7991C12.3899 24.9438 12.1049 25.1212 11.8177 25.2943C11.6737 25.3807 11.5289 25.4653 11.3838 25.5498C11.2923 25.6044 11.2009 25.6591 11.1095 25.7139C11.026 25.7636 10.9424 25.8133 10.8564 25.8645C10.6534 25.9946 10.6534 25.9946 10.597 26.1949C10.5933 26.2422 10.5897 26.2894 10.5859 26.3381C11.1122 26.0458 11.613 25.722 12.1114 25.3813C12.1827 25.3329 12.2539 25.2845 12.3273 25.2347C12.5008 25.1167 12.6742 24.9985 12.8474 24.8801C12.7959 24.8534 12.7445 24.8267 12.6914 24.7991ZM29.1874 25.3433C29.076 25.4156 29.076 25.4156 28.9624 25.4894C28.8814 25.5423 28.8005 25.5952 28.7171 25.6496C28.6342 25.7036 28.5513 25.7575 28.4659 25.8131C26.8452 26.8677 26.8452 26.8677 25.2468 27.9581C25.2983 27.9849 25.3497 28.0116 25.4028 28.0391C25.6028 27.9452 25.6028 27.9452 25.8298 27.8034C25.9626 27.724 25.9626 27.724 26.0981 27.643C26.1945 27.5844 26.2909 27.5257 26.3873 27.4671C26.4854 27.4078 26.5835 27.3485 26.6817 27.2893C26.8326 27.1982 26.9835 27.107 27.1343 27.0155C27.468 26.8132 27.804 26.6161 28.1419 26.4213C28.2275 26.3714 28.3131 26.3214 28.4013 26.27C28.5634 26.1754 28.7261 26.0818 28.8894 25.9894C29.3184 25.7447 29.3184 25.7447 29.5864 25.3338C29.5955 25.2643 29.6045 25.1948 29.6139 25.1231C29.4587 25.1231 29.3136 25.2613 29.1874 25.3433ZM13.7832 25.3661C13.706 25.4463 13.6288 25.5265 13.5493 25.6091C13.6779 25.5557 13.8066 25.5022 13.9392 25.4471C13.8877 25.4204 13.8362 25.3937 13.7832 25.3661ZM13.3933 25.6091C13.193 25.7045 13.193 25.7045 12.9674 25.8471C12.8807 25.8996 12.7939 25.9521 12.7045 26.0062C12.6124 26.0628 12.5203 26.1195 12.4282 26.1761C12.3401 26.2297 12.2519 26.2833 12.1611 26.3384C11.9838 26.4462 11.8069 26.5545 11.6302 26.6634C11.4526 26.7713 11.2736 26.8768 11.0933 26.9798C11.0085 27.0287 10.9237 27.0775 10.8363 27.1279C10.7599 27.1709 10.6836 27.2139 10.6049 27.2582C10.4179 27.3747 10.4179 27.3747 10.3655 27.5696C10.361 27.6176 10.3566 27.6656 10.3519 27.7151C10.746 27.5768 11.0767 27.3446 11.4242 27.1127C11.4886 27.0701 11.553 27.0274 11.6194 26.9835C12.2648 26.5557 12.9075 26.1237 13.5493 25.6901C13.4978 25.6634 13.4463 25.6367 13.3933 25.6091ZM14.0172 26.5001C13.9914 26.5536 13.9657 26.607 13.9392 26.6621C14.0164 26.6354 14.0936 26.6087 14.1731 26.5811C14.1217 26.5544 14.0702 26.5277 14.0172 26.5001ZM13.7832 26.6621C13.578 26.7588 13.578 26.7588 13.3452 26.9035C13.3011 26.9298 13.257 26.9561 13.2116 26.9832C13.0671 27.0696 12.9231 27.1569 12.7792 27.2443C12.6804 27.3037 12.5815 27.363 12.4827 27.4223C11.6629 27.9152 10.8493 28.4188 10.04 28.9301C10.0657 29.0371 10.0915 29.144 10.118 29.2541C10.1737 29.2176 10.1737 29.2176 10.2305 29.1803C10.3435 29.1062 10.4565 29.032 10.5696 28.9579C10.7022 28.8709 10.8348 28.7839 10.9674 28.6969C11.3109 28.4716 11.6543 28.2463 11.9978 28.0211C12.6457 27.5963 13.2933 27.1712 13.9392 26.7431C13.8877 26.7164 13.8362 26.6897 13.7832 26.6621ZM28.9218 26.9963C28.8747 27.0314 28.8275 27.0665 28.779 27.1027C28.1172 27.5977 27.462 28.1022 26.8065 28.6061C26.8579 28.6329 26.9094 28.6596 26.9624 28.6871C27.1882 28.5785 27.1882 28.5785 27.4443 28.4201C27.4918 28.3918 27.5393 28.3635 27.5883 28.3343C27.689 28.2741 27.7896 28.2137 27.89 28.1529C28.0429 28.0603 28.1964 27.9686 28.35 27.8771C28.9304 27.5518 28.9304 27.5518 29.4579 27.1481C29.4839 26.8949 29.4839 26.8949 29.4579 26.6621C29.2744 26.6621 29.0703 26.8849 28.9218 26.9963ZM16.6686 27.3101C16.6429 27.3636 16.6171 27.4171 16.5906 27.4721C16.6678 27.4454 16.745 27.4187 16.8246 27.3911C16.7731 27.3644 16.7216 27.3377 16.6686 27.3101ZM16.2787 27.5531C16.0964 27.6379 16.0964 27.6379 15.8912 27.7683C15.8107 27.8171 15.7302 27.8659 15.6472 27.9162C15.5596 27.9701 15.4721 28.0241 15.3819 28.0796C15.2902 28.1354 15.1985 28.1912 15.1068 28.2469C14.9159 28.3628 14.7253 28.479 14.5347 28.5954C14.1038 28.8583 13.6705 29.1168 13.2373 29.3756C13.0703 29.4757 12.9032 29.5758 12.7362 29.6759C12.6528 29.7259 12.5694 29.7759 12.4835 29.8274C12.2575 29.9628 12.0314 30.0983 11.8054 30.2338C11.6659 30.3174 11.5264 30.401 11.3869 30.4847C11.2118 30.5896 11.0368 30.6945 10.8617 30.7995C10.7428 30.8707 10.7428 30.8707 10.6215 30.9434C10.5478 30.9879 10.4741 31.0324 10.3981 31.0783C10.2733 31.1523 10.1475 31.2245 10.0201 31.2937C9.85527 31.3809 9.85527 31.3809 9.65008 31.5222C9.56769 31.8163 9.56769 31.8163 9.57209 32.0892C10.3293 31.6433 11.063 31.1621 11.7973 30.6771C12.0999 30.4773 12.4029 30.2783 12.7061 30.0793C12.7658 30.0401 12.8256 30.0008 12.8872 29.9604C13.4008 29.6235 13.9161 29.2894 14.4314 28.9555C15.1027 28.5205 15.7712 28.0818 16.4346 27.6341C16.3574 27.594 16.3574 27.594 16.2787 27.5531ZM25.0908 28.0391C25.0651 28.0926 25.0394 28.1461 25.0128 28.2011C25.09 28.1744 25.1672 28.1477 25.2468 28.1201C25.1953 28.0934 25.1438 28.0667 25.0908 28.0391ZM29.6139 28.0391C29.5881 28.0926 29.5624 28.1461 29.5359 28.2011C29.5874 28.2011 29.6388 28.2011 29.6918 28.2011C29.6661 28.1477 29.6404 28.0942 29.6139 28.0391ZM29.3799 28.2011C29.3542 28.2546 29.3284 28.3081 29.3019 28.3631C29.3791 28.3364 29.4563 28.3097 29.5359 28.2821C29.4844 28.2554 29.4329 28.2287 29.3799 28.2011ZM26.6505 28.6871C26.6248 28.7406 26.599 28.7941 26.5725 28.8491C26.6497 28.8224 26.7269 28.7957 26.8065 28.7681C26.755 28.7414 26.7035 28.7147 26.6505 28.6871ZM29.8478 29.0921C29.4232 29.4129 29.4232 29.4129 28.99 29.7401C29.2585 29.7401 29.3603 29.6757 29.5895 29.5376C29.6525 29.5001 29.7156 29.4625 29.7805 29.4237C29.8284 29.3945 29.8764 29.3653 29.9258 29.3351C29.9001 29.255 29.8743 29.1748 29.8478 29.0921ZM10.8978 29.6591C10.8721 29.7126 10.8463 29.7661 10.8198 29.8211C10.897 29.7944 10.9742 29.7677 11.0538 29.7401C11.0023 29.7134 10.9508 29.6867 10.8978 29.6591ZM10.5079 29.9021C10.1605 30.1427 10.1605 30.1427 9.80604 30.3882C10.0722 30.3882 10.1488 30.334 10.3666 30.1856C10.4223 30.1481 10.4781 30.1105 10.5356 30.0717C10.5779 30.0425 10.6203 30.0133 10.6639 29.9831C10.6124 29.9564 10.5609 29.9297 10.5079 29.9021ZM23.2972 30.1451C23.1149 30.2299 23.1149 30.2299 22.9097 30.3603C22.7889 30.4335 22.7889 30.4335 22.6657 30.5082C22.5782 30.5622 22.4906 30.6161 22.4004 30.6717C22.3087 30.7275 22.217 30.7832 22.1253 30.8389C21.9345 30.9548 21.7438 31.071 21.5532 31.1874C21.1223 31.4503 20.689 31.7088 20.2558 31.9677C20.0869 32.0689 19.9179 32.1701 19.7489 32.2714C14.68 35.3089 14.68 35.3089 14.4265 35.4608C14.2578 35.562 14.0891 35.6631 13.9204 35.7642C13.4942 36.0196 13.068 36.2748 12.6415 36.5296C11.562 37.1749 10.4867 37.8271 9.41613 38.4882C9.4676 38.5149 9.51906 38.5417 9.57209 38.5692C9.75499 38.5019 9.92689 38.4291 10.1034 38.3465C10.1583 38.3209 10.2133 38.2954 10.27 38.2691C11.8117 37.5405 13.2451 36.6303 14.6791 35.6994C14.8175 35.6097 14.9559 35.52 15.0943 35.4304C15.1614 35.387 15.2285 35.3435 15.2976 35.2988C15.7916 34.9812 16.2942 34.6839 16.8041 34.395C17.1559 34.1952 17.4985 33.9859 17.8383 33.7649C18.4181 33.3912 18.9344 33.0938 19.6027 32.9346C20.2681 32.748 20.7272 32.3461 21.257 31.9031C21.5528 31.6611 21.86 31.4355 22.1664 31.2083C22.5992 30.8861 23.0284 30.5597 23.4532 30.2261C23.376 30.1861 23.376 30.1861 23.2972 30.1451ZM11.7556 31.6842C11.7299 31.7376 11.7042 31.7911 11.6776 31.8462C11.7549 31.8194 11.8321 31.7927 11.9116 31.7652C11.8601 31.7384 11.8087 31.7117 11.7556 31.6842ZM11.3657 31.9272C11.2885 32.0074 11.2113 32.0875 11.1318 32.1702C11.2604 32.1167 11.3891 32.0632 11.5217 32.0082C11.4702 31.9814 11.4187 31.9547 11.3657 31.9272ZM10.9758 32.1702C10.7983 32.2512 10.7983 32.2512 10.6023 32.3749C10.4923 32.4411 10.4923 32.4411 10.38 32.5086C10.3032 32.5556 10.2264 32.6026 10.1472 32.6511C10.0698 32.6978 9.99241 32.7446 9.91266 32.7927C9.72082 32.9086 9.52934 33.0251 9.33814 33.1422C9.36388 33.2224 9.38961 33.3025 9.41613 33.3852C9.61439 33.257 9.81259 33.1287 10.0108 33.0004C10.0663 32.9645 10.1219 32.9286 10.1792 32.8916C10.5004 32.6834 10.818 32.4712 11.1318 32.2512C11.0803 32.2244 11.0288 32.1977 10.9758 32.1702ZM21.3476 32.9802C21.5913 33.0075 21.5913 33.0075 21.7521 32.8182C21.7988 32.7647 21.8454 32.7112 21.8935 32.6562C21.6492 32.6562 21.5285 32.8219 21.3476 32.9802ZM23.5311 32.7372C23.3401 32.8378 23.1589 32.942 22.9755 33.0561C22.9241 33.0874 22.8728 33.1186 22.8199 33.1509C22.6927 33.2284 22.566 33.3067 22.4394 33.3852C22.4394 33.4386 22.4394 33.4921 22.4394 33.5472C22.7948 33.5047 23.0003 33.3596 23.2826 33.1371C23.3967 33.048 23.3967 33.048 23.5132 32.9571C23.5706 32.9112 23.628 32.8654 23.6871 32.8182C23.6356 32.7914 23.5842 32.7647 23.5311 32.7372ZM15.8888 33.0612C15.863 33.1146 15.8373 33.1681 15.8108 33.2232C15.888 33.1964 15.9652 33.1697 16.0447 33.1422C15.9933 33.1154 15.9418 33.0887 15.8888 33.0612ZM15.4988 33.3042C15.3165 33.3889 15.3165 33.3889 15.1114 33.5193C15.0308 33.5681 14.9503 33.617 14.8674 33.6672C14.7798 33.7212 14.6922 33.7751 14.602 33.8307C14.5104 33.8865 14.4187 33.9422 14.327 33.9979C14.1361 34.1138 13.9454 34.23 13.7549 34.3464C13.324 34.6093 12.8906 34.8678 12.4575 35.1267C12.29 35.2271 12.1226 35.3275 11.9552 35.4279C11.6482 35.6119 11.3411 35.7955 11.0336 35.9786C10.8965 36.0603 10.7594 36.142 10.6223 36.2238C10.4514 36.3258 10.2804 36.4276 10.1093 36.5292C9.87734 36.6677 9.64645 36.8078 9.41613 36.9492C9.33496 36.9987 9.25379 37.0483 9.17016 37.0993C9.0923 37.1485 9.01444 37.1976 8.93421 37.2482C8.86416 37.292 8.79411 37.3358 8.72193 37.381C8.54059 37.5308 8.49819 37.6004 8.4657 37.8351C8.47053 37.917 8.47535 37.9989 8.48032 38.0832C9.18355 37.7163 9.83201 37.2694 10.489 36.8217C10.8665 36.5646 11.2469 36.3128 11.6289 36.0632C11.7515 35.9831 11.874 35.9029 11.9966 35.8228C12.0898 35.7619 12.0898 35.7619 12.1848 35.6997C13.3477 34.9381 14.5039 34.1661 15.6548 33.3852C15.5776 33.3451 15.5776 33.3451 15.4988 33.3042ZM31.0176 35.5722C30.9146 35.7058 30.8117 35.8395 30.7056 35.9772C30.8343 35.9237 30.963 35.8703 31.0956 35.8152C31.0698 35.735 31.0441 35.6548 31.0176 35.5722ZM28.5903 36.6657C28.4622 36.7446 28.4622 36.7446 28.3314 36.8252C28.2657 36.8661 28.1999 36.907 28.1322 36.9492C28.3406 37.139 28.3406 37.139 28.6001 37.1922C28.7385 37.0532 28.7385 37.0532 28.8779 36.8783C28.9262 36.8201 28.9746 36.7618 29.0244 36.7018C29.1496 36.5507 29.1496 36.5507 29.2239 36.3822C28.9732 36.3822 28.8028 36.5342 28.5903 36.6657ZM29.6041 37.5972C29.5559 37.6507 29.5076 37.7041 29.4579 37.7592C29.5351 37.7859 29.6123 37.8127 29.6918 37.8402C29.7691 37.7065 29.8463 37.5729 29.9258 37.4352C29.7508 37.4167 29.7508 37.4167 29.6041 37.5972ZM30.7349 38.2857C30.6995 38.3258 30.6641 38.3659 30.6277 38.4072C30.7821 38.4874 30.7821 38.4874 30.9396 38.5692C30.9653 38.4356 30.9911 38.3019 31.0176 38.1642C30.852 38.1459 30.852 38.1459 30.7349 38.2857Z" fill="white"/>
<path d="M20.4118 0.093958C20.72 0.254509 20.861 0.390032 21.0101 0.711627C21.0461 0.787778 21.0821 0.86393 21.1191 0.942389C21.1568 1.02514 21.1945 1.1079 21.2334 1.19316C21.2739 1.27971 21.3144 1.36625 21.3561 1.45542C21.4859 1.73347 21.6142 2.01226 21.7424 2.2911C21.8265 2.47192 21.9108 2.6527 21.9951 2.83342C22.206 3.28621 22.4156 3.73968 22.6247 4.19341C22.753 4.47169 22.8817 4.74979 23.0105 5.02785C23.0937 5.20752 23.1769 5.3872 23.26 5.56687C23.3167 5.68912 23.3167 5.68912 23.3744 5.81384C23.8998 6.95012 24.3851 8.09122 24.8228 9.26727C25.5018 11.2619 25.5018 11.2619 26.8065 12.811C27.4114 13.0327 28.0284 13.0933 28.6644 13.1278C29.7384 13.2003 30.7945 13.358 31.858 13.526C33.4567 13.7781 35.052 14.0206 36.6684 14.1102C37.2285 14.1446 37.7646 14.2161 38.3121 14.3399C38.3697 14.3528 38.4273 14.3657 38.4867 14.379C38.991 14.5005 39.6121 14.691 39.9857 15.0791C40.0522 15.6206 39.8809 16.0064 39.5958 16.4561C39.3262 16.7977 39.0357 17.1132 38.7379 17.4281C38.6658 17.5061 38.5937 17.5841 38.5217 17.6622C38.1135 18.0971 37.6895 18.4923 37.2325 18.8709C36.9607 19.1 36.7022 19.3426 36.4438 19.5879C36.3347 19.6904 36.2251 19.7925 36.1132 19.8918C35.6715 20.2846 35.2626 20.7061 34.8543 21.1357C34.745 21.2501 34.6357 21.3644 34.5263 21.4786C34.26 21.7571 33.9941 22.036 33.7284 22.3152C33.5785 22.4726 33.4284 22.6299 33.2781 22.7869C33.1376 22.9336 32.9975 23.0806 32.8578 23.228C32.335 23.7732 31.7752 24.254 31.1948 24.7309C30.8551 25.0169 30.621 25.3239 30.5682 25.7841C30.5339 26.1902 30.6047 26.5333 30.7008 26.9254C30.9189 27.8879 31.0867 28.8576 31.2515 29.8313C31.2651 29.9111 31.2787 29.9909 31.2927 30.0732C31.4217 30.8308 31.5496 31.5885 31.6682 32.348C31.8509 33.5104 32.0822 34.6492 32.3616 35.7901C32.5707 36.6463 32.7644 37.4941 32.7576 38.3819C32.7573 38.4404 32.757 38.499 32.7568 38.5593C32.7478 39.017 32.6875 39.3714 32.4993 39.7842C32.0786 40.0755 31.5685 39.9954 31.0864 39.8962C29.872 39.5408 28.8217 38.829 27.7719 38.1254C27.4771 37.9297 27.1785 37.7405 26.8796 37.5516C26.8224 37.5154 26.7652 37.4793 26.7063 37.442C26.5317 37.3316 26.3572 37.2214 26.1826 37.1112C25.9372 36.9561 25.6919 36.8008 25.4466 36.6454C25.388 36.6084 25.3295 36.5713 25.2691 36.5331C24.8742 36.2826 24.4839 36.0261 24.0974 35.7617C23.9207 35.6465 23.9207 35.6465 23.7127 35.5674C23.5311 35.4912 23.5311 35.4912 23.3801 35.3292C23.185 35.1328 23.0066 35.0916 22.7513 35.0052C22.6998 34.925 22.6484 34.8448 22.5953 34.7622C22.5053 34.7505 22.4152 34.7388 22.3224 34.7267C22.2323 34.7117 22.1423 34.6967 22.0495 34.6812C21.9948 34.5746 21.943 34.4664 21.8935 34.3572C21.6376 34.2218 21.4126 34.1247 21.1283 34.0787C21.072 34.0637 21.0157 34.0487 20.9577 34.0332C20.9373 33.9804 20.9169 33.9277 20.8959 33.8734C20.8139 33.6885 20.8139 33.6885 20.6092 33.6484C20.5312 33.6417 20.4532 33.6351 20.3728 33.6282C20.2964 33.6198 20.22 33.6115 20.1413 33.6029C19.4814 33.6635 18.9536 34.0225 18.4232 34.4078C17.7206 34.8994 16.9893 35.3166 16.2397 35.7241C16.1828 35.755 16.1259 35.786 16.0673 35.8179C15.7246 36.0043 15.3814 36.1898 15.0381 36.3751C13.7803 37.0544 12.5495 37.7535 11.3593 38.5556C10.2573 39.2972 9.16082 39.9808 7.80893 40C7.62251 39.9462 7.62251 39.9462 7.48482 39.7557C6.86027 38.3639 7.47185 36.3826 7.82685 34.9868C8.18476 33.5775 8.43749 32.1683 8.65878 30.7306C8.72869 30.2769 8.79962 29.8234 8.87141 29.37C8.88882 29.26 8.90616 29.15 8.92343 29.0399C9.04579 28.2629 9.19062 27.4958 9.38366 26.7342C9.49989 26.2536 9.54219 25.8227 9.3418 25.3544C9.01173 24.9135 8.61552 24.5679 8.20068 24.2166C7.62021 23.7234 7.08274 23.1959 6.55511 22.6425C6.48477 22.5691 6.41443 22.4957 6.34196 22.4202C6.08108 22.148 5.82055 21.8755 5.56004 21.603C5.30383 21.335 5.04731 21.0673 4.79073 20.7997C4.72426 20.73 4.65779 20.6603 4.58931 20.5885C4.20974 20.1926 3.82159 19.8145 3.41139 19.4531C3.3439 19.393 3.3439 19.393 3.27505 19.3318C3.15679 19.2266 3.03804 19.1221 2.91912 19.0177C2.87608 18.9798 2.83303 18.9419 2.78869 18.9029C2.51031 18.6586 2.22833 18.4196 1.94433 18.1824C1.1553 17.5113 0.312746 16.6801 0.00783854 15.6359C-0.00799075 15.4524 -0.00385576 15.334 0.0581014 15.1601C1.58456 13.6734 4.87643 13.9659 6.84117 13.8164C7.11498 13.7955 7.38877 13.7741 7.66255 13.7527C7.85848 13.7377 8.05447 13.7235 8.25047 13.7093C8.37024 13.7001 8.49002 13.6908 8.60979 13.6815C8.66449 13.6778 8.71919 13.6741 8.77554 13.6702C9.05069 13.648 9.1807 13.6221 9.41613 13.459C9.91002 13.432 9.91002 13.432 10.118 13.54C10.4201 13.5244 10.7197 13.4783 11.0197 13.4388C11.1023 13.4289 11.185 13.419 11.2702 13.4087C11.8242 13.337 12.3543 13.2386 12.8524 12.9659C13.0034 12.892 13.0034 12.892 13.2334 12.8832C13.5045 12.801 13.5253 12.7673 13.6629 12.5263C13.726 12.3994 13.7871 12.2715 13.8466 12.1428C13.88 12.0737 13.9135 12.0047 13.9479 11.9335C14.2114 11.3806 14.4439 10.815 14.6721 10.2456C14.9089 9.66083 15.1746 9.09425 15.4501 8.52814C15.4933 8.43929 15.5366 8.35045 15.5811 8.25891C15.6242 8.17036 15.6674 8.0818 15.7118 7.99056C16.457 6.45956 17.143 4.9029 17.7726 3.31689C19.151 -0.15479 19.151 -0.15479 20.4118 0.093958ZM20.3338 2.11897C20.3081 2.17243 20.2824 2.22589 20.2558 2.28097C20.3073 2.28097 20.3588 2.28097 20.4118 2.28097C20.3861 2.22751 20.3603 2.17405 20.3338 2.11897ZM22.6511 8.06048C22.5801 8.10213 22.5091 8.14378 22.4359 8.18669C22.3194 8.25547 22.3194 8.25547 22.2006 8.32564C22.12 8.37305 22.0395 8.42047 21.9565 8.46932C21.3139 8.84865 20.6748 9.23409 20.0369 9.62186C19.4644 9.96984 18.8907 10.3154 18.316 10.6595C18.2327 10.7094 18.1494 10.7592 18.0635 10.8106C17.7151 11.0192 17.3667 11.2276 17.0182 11.436C16.8344 11.5459 16.6507 11.6558 16.4669 11.7658C16.295 11.8686 16.1232 11.9714 15.9512 12.0741C15.7222 12.2112 15.4934 12.3489 15.2649 12.487C15.1916 12.5313 15.1183 12.5756 15.0428 12.6213C14.9736 12.6637 14.9045 12.706 14.8332 12.7497C14.7724 12.7868 14.7116 12.824 14.6489 12.8623C14.4895 12.97 14.3554 13.086 14.217 13.2211C13.4707 13.9021 12.4681 14.0261 11.5217 14.188C11.4692 14.1974 11.4168 14.2067 11.3628 14.2164C10.279 14.408 9.20213 14.4942 8.10503 14.5526C7.07559 14.6076 6.0589 14.6844 5.03747 14.8315C4.50878 14.9076 3.98327 14.9563 3.45039 14.9879C2.59196 15.0502 1.83987 15.2278 1.07189 15.6461C1.12748 15.6912 1.18307 15.7363 1.24034 15.7827C1.6377 16.1116 2.00352 16.4356 2.32876 16.8411C2.51831 17.076 2.7156 17.3028 2.91425 17.5293C2.94978 17.5704 2.98532 17.6116 3.02193 17.6539C3.24 17.9026 3.47007 18.1106 3.72333 18.3191C3.81209 18.4196 3.89836 18.5225 3.98165 18.6279C4.29913 19.0135 4.65768 19.3337 5.03473 19.6546C5.3408 19.9185 5.60048 20.2017 5.85874 20.5159C6.14224 20.858 6.45884 21.1502 6.78967 21.4408C6.97238 21.6058 7.13936 21.7863 7.31057 21.9641C7.42399 22.0674 7.53775 22.1703 7.65175 22.2729C7.93601 22.5325 8.18144 22.807 8.4258 23.1063C8.62985 23.3431 8.85268 23.5641 9.10419 23.7461C9.15566 23.7461 9.20713 23.7461 9.26016 23.7461C9.27946 23.7929 9.29876 23.8397 9.31865 23.8879C9.4304 24.0968 9.55527 24.2371 9.72806 24.3941C9.77953 24.3941 9.831 24.3941 9.88403 24.3941C9.90333 24.4375 9.92263 24.481 9.94252 24.5257C10.0382 24.7284 10.0382 24.7284 10.196 24.9257C10.6927 25.8125 10.5149 26.9719 10.2797 27.9274C10.2279 28.0973 10.1743 28.2666 10.1189 28.4353C9.78359 29.5057 9.65978 30.6537 9.53798 31.7686C9.50657 31.9981 9.46927 32.2129 9.41887 32.4375C9.30829 32.9343 9.25074 33.438 9.18659 33.943C9.17699 34.0162 9.16739 34.0894 9.1575 34.1648C9.1491 34.231 9.1407 34.2972 9.13205 34.3654C9.10419 34.5192 9.10419 34.5192 9.02621 34.6002C9.00052 34.7431 8.97844 34.8867 8.95797 35.0305C8.90592 35.3731 8.84076 35.7033 8.75327 36.0379C8.51537 36.9939 8.4585 37.9917 8.40234 38.9742C8.6373 38.8958 8.87082 38.8145 9.10419 38.7312C9.19316 38.6996 9.28212 38.6679 9.37378 38.6353C10.916 38.0705 12.2953 37.2121 13.6805 36.3235C14.156 36.0185 14.6345 35.7188 15.1138 35.4203C15.234 35.3454 15.234 35.3454 15.3566 35.269C15.9065 34.9271 16.4592 34.5906 17.0153 34.2596C17.2952 34.0927 17.5732 33.9236 17.8475 33.7468C18.7735 33.1503 19.6363 32.6952 20.7481 32.9093C20.8353 32.9257 20.8353 32.9257 20.9243 32.9424C21.3981 33.0394 21.7895 33.2117 22.2054 33.4662C22.2717 33.4993 22.3379 33.5324 22.4062 33.5665C22.7961 33.7747 23.167 34.0134 23.5409 34.2509C23.6607 34.3266 23.6607 34.3266 23.783 34.4039C24.2783 34.7184 24.7642 35.0411 25.2383 35.3893C25.4043 35.5119 25.4043 35.5119 25.6367 35.4912C25.6367 35.5446 25.6367 35.5981 25.6367 35.6532C25.8001 35.7739 25.8001 35.7739 26.0169 35.8962C26.1437 35.9707 26.1437 35.9707 26.2731 36.0468C26.3204 36.0742 26.3678 36.1016 26.4166 36.1299C26.5875 36.2288 26.7577 36.3289 26.928 36.429C27.0515 36.5012 27.1751 36.5734 27.2987 36.6454C27.3574 36.6798 27.416 36.7141 27.4764 36.7495C27.818 36.9471 28.1615 37.115 28.5221 37.2732C28.7177 37.3734 28.91 37.4796 29.1021 37.5871C29.179 37.6298 29.179 37.6298 29.2575 37.6734C29.5746 37.851 29.8811 38.0397 30.1832 38.2439C30.3199 38.3288 30.4556 38.3913 30.6033 38.4528C30.8622 38.5695 31.0344 38.7092 31.2515 38.8932C31.4605 38.9937 31.4605 38.9937 31.6414 39.0552C32.0425 38.2221 31.4738 36.8741 31.2625 36.0351C31.1331 35.5163 31.0279 34.9946 30.9298 34.4686C30.9165 34.398 30.9032 34.3274 30.8895 34.2547C30.8122 33.8309 30.758 33.4116 30.7252 32.9816C30.7139 32.8128 30.7139 32.8128 30.6277 32.6562C30.606 32.4776 30.587 32.2986 30.5692 32.1195C30.5033 31.5185 30.3957 30.9295 30.2767 30.3375C30.2601 30.254 30.2434 30.1705 30.2262 30.0845C30.1453 29.6896 30.0511 29.3126 29.9258 28.9301C29.8842 28.7299 29.8453 28.529 29.8088 28.3277C29.7537 28.0243 29.6972 27.7329 29.6081 27.4383C29.5224 27.0941 29.5101 26.7829 29.5115 26.4293C29.5103 26.3684 29.509 26.3075 29.5077 26.2448C29.507 25.4247 29.7539 24.9028 30.306 24.3283C30.3578 24.2727 30.4096 24.2171 30.4631 24.1598C30.9064 23.6887 31.3666 23.2376 31.8396 22.7989C31.9469 22.6991 32.0533 22.598 32.1596 22.4969C32.4828 22.1903 32.8117 21.8953 33.1524 21.6097C33.5077 21.3114 33.8438 20.9976 34.1779 20.6746C34.4249 20.4371 34.6782 20.2129 34.9411 19.9948C35.3604 19.6447 35.7511 19.2673 36.141 18.8828C36.3588 18.6684 36.5768 18.4587 36.8094 18.2615C36.9787 18.1141 37.1114 17.9814 37.2465 17.8027C37.4163 17.5894 37.5938 17.4094 37.7973 17.2306C38.2102 16.865 38.6803 16.4159 38.8939 15.8891C38.8769 15.627 38.8769 15.627 38.8159 15.4031C37.8974 15.1248 36.933 15.0625 35.981 15.0328C35.5783 15.0171 35.2284 14.9425 34.8388 14.8361C34.6881 14.8182 34.5369 14.8044 34.3855 14.7956C34.0078 14.7676 33.6458 14.7119 33.2745 14.6367C32.9155 14.5684 32.5541 14.5195 32.1925 14.4687C31.9534 14.431 31.9534 14.431 31.8016 14.3896C31.5333 14.3233 31.2581 14.3227 30.9835 14.3095C30.6215 14.2921 30.2814 14.2619 29.9258 14.188C29.7112 14.1737 29.4972 14.1621 29.2824 14.1526C27.2443 14.0462 27.2443 14.0462 26.4945 13.702C26.4395 13.6769 26.3845 13.6517 26.3279 13.6258C25.8026 13.3686 25.4839 13.0808 25.1688 12.568C25.1315 12.5325 25.0942 12.497 25.0558 12.4605C24.8948 12.2802 24.8195 12.0892 24.7253 11.8643C24.6912 11.7838 24.6571 11.7033 24.622 11.6204C24.5966 11.5589 24.5711 11.4974 24.5449 11.434C24.4935 11.434 24.442 11.434 24.389 11.434C24.3795 11.3861 24.3701 11.3382 24.3603 11.2888C24.2901 10.9449 24.217 10.622 24.077 10.3C24.0256 10.3 23.9741 10.3 23.9211 10.3C23.913 10.2165 23.905 10.133 23.8967 10.0469C23.8425 9.72986 23.7489 9.53171 23.6091 9.24702C23.5699 9.11429 23.5326 8.98091 23.497 8.84708C23.3968 8.48117 23.2582 8.19118 23.0632 7.87001C22.9133 7.87001 22.7778 7.98606 22.6511 8.06048Z" fill="#C99CFF"/>
<path d="M19.9434 1.22852C20.1754 1.43513 20.2896 1.6687 20.4113 1.95752C20.4113 2.03771 20.4113 2.1179 20.4113 2.20052C20.4875 2.28328 20.5657 2.36415 20.6452 2.44352C20.7144 2.58116 20.7144 2.58116 20.7768 2.74221C20.9302 3.11788 21.1023 3.48153 21.2788 3.84584C21.306 3.90204 21.3333 3.95823 21.3613 4.01613C21.4111 4.1189 21.461 4.22165 21.511 4.32435C21.5604 4.42601 21.6095 4.52779 21.6585 4.62965C21.7336 4.78557 21.8097 4.94098 21.8859 5.09629C21.9419 5.21104 21.9979 5.32579 22.0538 5.44054C22.0822 5.49818 22.1106 5.55582 22.1399 5.6152C22.1806 5.69915 22.1806 5.69915 22.2223 5.78479C22.247 5.83533 22.2717 5.88587 22.2972 5.93794C22.3609 6.08855 22.3609 6.08855 22.3993 6.25165C22.441 6.42146 22.5015 6.54719 22.5857 6.69858C22.6139 6.75089 22.6422 6.80321 22.6713 6.8571C22.7309 6.96601 22.791 7.07464 22.8516 7.183C23.0655 7.58198 23.0655 7.58198 23.0525 7.79355C22.9594 8.01059 22.8508 8.06148 22.6506 8.17368C22.5795 8.21428 22.5085 8.25489 22.4354 8.29672C22.3189 8.36142 22.3189 8.36142 22.2 8.42744C22.0346 8.5218 21.8693 8.61631 21.7041 8.71094C21.5761 8.78377 21.5761 8.78377 21.4456 8.85807C21.0499 9.08583 20.6599 9.32339 20.2699 9.56144C19.367 10.1106 18.461 10.654 17.5544 11.1965C17.2803 11.3605 17.0063 11.5247 16.7323 11.689C16.6863 11.7166 16.6403 11.7442 16.5929 11.7726C16.372 11.905 16.151 12.0374 15.9301 12.1699C15.7756 12.2625 15.621 12.355 15.4662 12.4472C15.3406 12.5228 15.2155 12.5994 15.0914 12.6776C14.9696 12.7538 14.8444 12.8241 14.7185 12.8926C14.667 12.8659 14.6155 12.8391 14.5625 12.8116C14.629 12.704 14.629 12.704 14.6968 12.5942C15.1579 11.832 15.4989 11.058 15.8102 10.2196C16.1455 9.33612 16.5458 8.48618 16.9433 7.63163C17.0499 7.40198 17.1558 7.17203 17.2615 6.9419C17.7993 5.77139 18.3469 4.60596 18.8955 3.44084C18.9339 3.35916 18.9724 3.27747 19.012 3.19331C19.1227 2.95823 19.2334 2.72318 19.3442 2.48814C19.3942 2.38194 19.3942 2.38194 19.4452 2.2736C19.6098 1.92448 19.7754 1.57589 19.9434 1.22852Z" fill="white"/>
<path d="M9.70511 13.4434C9.83298 13.4509 9.83298 13.4509 9.96343 13.4585C9.98916 13.512 10.0149 13.5655 10.0414 13.6205C9.75833 13.6473 9.47525 13.674 9.18359 13.7015C9.41754 13.4585 9.41754 13.4585 9.70511 13.4434Z" fill="#C99CFF"/>
<path d="M13.315 12.9723C13.0464 13.1583 12.8519 13.1781 12.5352 13.2153C12.9738 12.866 12.9738 12.866 13.315 12.9723Z" fill="#C99CFF"/>
<path d="M21.9688 34.3574C22.1263 34.4062 22.2823 34.4605 22.4367 34.5194C22.4624 34.5729 22.4881 34.6263 22.5146 34.6814C22.3602 34.6814 22.2058 34.6814 22.0467 34.6814C22.021 34.5745 21.9953 34.4676 21.9688 34.3574Z" fill="white"/>
</svg>
