<svg width="31" height="30" viewBox="0 0 31 30" fill="none" xmlns="http://www.w3.org/2000/svg">
<path d="M29.647 0.411329C30.1056 0.896857 30.228 1.44195 30.2325 2.09526C30.209 2.8828 29.9262 3.6361 29.6892 4.38074C29.6169 4.60933 29.5466 4.83853 29.4761 5.06769C29.3726 5.40371 29.2685 5.73954 29.1638 6.07517C28.9784 6.66906 28.797 7.26405 28.6181 7.85991C28.605 7.90336 28.592 7.94681 28.5785 7.99158C28.5257 8.16757 28.4729 8.34356 28.4201 8.51956C28.285 8.97016 28.1491 9.42053 28.0133 9.8709C27.9432 10.103 27.8732 10.3351 27.8033 10.5673C27.7892 10.6139 27.7751 10.6605 27.7607 10.7086C27.5041 11.5594 27.2479 12.4103 26.9916 13.2612C26.8983 13.5709 26.805 13.8807 26.7118 14.1904C26.4561 15.0392 26.2004 15.8881 25.9448 16.7369C25.9284 16.7916 25.9119 16.8463 25.8949 16.9026C25.8286 17.1231 25.7622 17.3435 25.6958 17.5639C25.519 18.1509 25.3423 18.7379 25.1654 19.3249C25.1425 19.4007 25.1425 19.4007 25.1192 19.478C25.0595 19.6764 24.9997 19.8747 24.9399 20.0731C24.7803 20.6028 24.6208 21.1326 24.4618 21.6625C24.3906 21.8995 24.3193 22.1364 24.2481 22.3733C24.2181 22.473 24.1882 22.5727 24.1584 22.6724C24.0219 23.1289 23.8807 23.5825 23.7263 24.0333C23.4841 24.7428 23.2993 25.4579 23.1282 26.1873C22.8198 27.4939 22.4305 28.8836 21.3208 29.7409C20.8301 30.022 20.1923 30.0515 19.6507 29.9381C19.0228 29.7484 18.5015 29.3656 18.1733 28.795C18.07 28.5936 17.9753 28.3883 17.8796 28.1831C17.7798 27.9757 17.6711 27.7734 17.5627 27.5703C17.1569 26.8081 16.791 26.0299 16.4325 25.2446C16.3136 24.9843 16.1941 24.7243 16.0745 24.4644C16.0313 24.3703 15.988 24.2763 15.9448 24.1822C15.9232 24.1353 15.9016 24.0883 15.8793 24.0399C15.7708 23.8039 15.6624 23.568 15.554 23.332C15.5331 23.2865 15.5122 23.241 15.4907 23.1941C15.3652 22.9208 15.2402 22.6473 15.1155 22.3737C14.4075 20.823 13.6667 19.2893 12.7264 17.8639C12.6976 17.8201 12.6688 17.7763 12.6391 17.7311C12.3271 17.2685 12.0102 17.0249 11.5101 16.7852C11.4525 16.757 11.3949 16.7288 11.3356 16.6997C11.1536 16.6109 10.9711 16.5231 10.7884 16.4355C10.731 16.408 10.6736 16.3805 10.6145 16.3521C10.3871 16.2433 10.1597 16.1347 9.93203 16.0265C9.54061 15.8401 9.15216 15.6485 8.76496 15.4535C8.34426 15.2419 7.92193 15.0345 7.49657 14.8324C6.8434 14.522 6.19351 14.205 5.54375 13.8876C3.77588 13.0226 3.77588 13.0226 1.99894 12.1765C1.92129 12.14 1.84364 12.1034 1.766 12.0668C1.64018 12.0078 1.51407 11.9494 1.38752 11.892C0.80395 11.6186 0.388676 11.2434 0.13726 10.6443C-0.0813212 10.0118 -0.0363646 9.41689 0.254428 8.81771C0.274835 8.77483 0.295242 8.73194 0.316267 8.68776C0.565413 8.27546 1.01831 8.11106 1.44146 7.9219C1.54058 7.87617 1.63804 7.82686 1.7349 7.77652C1.91245 7.69098 2.08055 7.63195 2.26954 7.57721C2.56612 7.48869 2.86013 7.39469 3.15296 7.29452C5.20332 6.59581 7.284 6.01254 9.37275 5.44032C10.08 5.24607 10.782 5.04214 11.4798 4.81641C11.7369 4.73363 11.9947 4.65289 12.2524 4.57198C12.3067 4.5549 12.361 4.53783 12.417 4.52024C13.8657 4.06522 15.318 3.62339 16.773 3.18897C17.729 2.90342 18.6843 2.61574 19.6396 2.32812C19.8523 2.2641 20.0649 2.20012 20.2776 2.13618C21.4043 1.79747 22.5303 1.45685 23.6549 1.11132C23.7029 1.09661 23.7508 1.0819 23.8002 1.06675C24.3209 0.90694 24.8402 0.744298 25.3574 0.573451C26.689 0.134049 28.3508 -0.377666 29.647 0.411329ZM26.9168 0.664264C26.9168 0.703544 26.9168 0.742823 26.9168 0.783293C26.8783 0.796335 26.8398 0.809377 26.8001 0.822814C26.5523 0.931733 26.3331 1.07592 26.1059 1.22221C26.0037 1.28739 25.9015 1.35256 25.7993 1.41772C25.7474 1.45095 25.6954 1.48418 25.6419 1.51842C25.409 1.66725 25.1754 1.81488 24.9417 1.96242C24.8956 1.9915 24.8496 2.02058 24.8022 2.05054C24.0478 2.52679 23.2904 2.99821 22.5334 3.47027C22.4367 3.53065 22.4367 3.53065 22.338 3.59224C22.2146 3.66925 22.0911 3.74621 21.9677 3.82312C21.6903 3.99624 21.4145 4.17057 21.1439 4.35415C21.1832 4.37379 21.2225 4.39343 21.2629 4.41366C21.4021 4.35141 21.4021 4.35141 21.5587 4.25558C21.6508 4.20178 21.6508 4.20178 21.7449 4.14689C21.8117 4.10727 21.8785 4.06764 21.9474 4.02682C22.0173 3.98581 22.0873 3.94486 22.1573 3.90395C22.3029 3.81879 22.4485 3.73341 22.5939 3.64788C22.9227 3.45471 23.2534 3.26481 23.584 3.07459C23.713 3.00021 23.8419 2.92582 23.9708 2.85141C24.7445 2.40506 24.7445 2.40506 24.9383 2.29331C25.0662 2.21948 25.1941 2.14562 25.322 2.07173C25.6234 1.89767 25.925 1.72394 26.2272 1.55136C26.3696 1.47005 26.5118 1.38855 26.6541 1.30704C26.7542 1.24975 26.8545 1.19274 26.9548 1.13573C27.0157 1.10082 27.0766 1.06592 27.1393 1.02995C27.1927 0.99948 27.2461 0.969009 27.3012 0.937614C27.4612 0.837311 27.6048 0.725348 27.75 0.60475C27.4623 0.599791 27.2003 0.60757 26.9168 0.664264ZM28.8505 1.38425C28.8073 1.41187 28.764 1.43948 28.7194 1.46794C28.672 1.49855 28.6246 1.52916 28.5758 1.5607C28.4727 1.62653 28.3697 1.69232 28.2666 1.75807C28.2117 1.79314 28.1568 1.82821 28.1003 1.86434C27.8062 2.05142 27.5102 2.23555 27.2144 2.41993C26.7871 2.68659 26.3604 2.95402 25.9348 3.22338C25.5093 3.49273 25.0825 3.76012 24.6553 4.02682C24.2059 4.3074 23.7568 4.58849 23.3088 4.87118C23.2633 4.89979 23.2179 4.92841 23.1711 4.95789C22.9296 5.11051 22.6902 5.26578 22.4532 5.4254C22.4925 5.44504 22.5318 5.46468 22.5723 5.48492C22.7114 5.42266 22.7114 5.42266 22.868 5.32683C22.9294 5.29097 22.9909 5.2551 23.0542 5.21815C23.121 5.17852 23.1878 5.1389 23.2567 5.09807C23.3266 5.05707 23.3966 5.01611 23.4666 4.97521C23.6123 4.89005 23.7578 4.80467 23.9032 4.71914C24.232 4.52597 24.5628 4.33606 24.8933 4.14585C25.0223 4.07147 25.1512 3.99708 25.2802 3.92267C25.5381 3.77388 25.7959 3.6251 26.0538 3.47631C26.1178 3.43944 26.1817 3.40257 26.2475 3.36458C26.3756 3.29066 26.5038 3.21675 26.6319 3.14285C26.9314 2.97006 27.231 2.79721 27.5304 2.62415C27.6359 2.56316 27.7415 2.50218 27.8471 2.44121C27.9791 2.36491 28.1112 2.28858 28.2432 2.21222C28.5928 2.01031 28.9436 1.81106 29.2974 1.61649C29.2384 1.43973 29.2384 1.43973 29.1783 1.25941C29.0289 1.25941 28.9757 1.30367 28.8505 1.38425ZM23.6435 1.73552C23.3886 1.87679 23.1421 2.0297 22.8959 2.1856C22.8286 2.22773 22.7612 2.26982 22.6938 2.31188C22.5588 2.3963 22.424 2.48108 22.2893 2.56605C22.1102 2.67891 21.9306 2.7909 21.7507 2.90256C21.6488 2.96607 21.547 3.02961 21.4452 3.09319C21.3988 3.12204 21.3524 3.15089 21.3045 3.18061C21.262 3.20738 21.2196 3.23415 21.1758 3.26173C21.1392 3.28466 21.1026 3.30758 21.0649 3.3312C20.9603 3.40549 20.8748 3.48741 20.7868 3.58046C21.0762 3.49657 21.3198 3.36797 21.5754 3.21222C21.6647 3.15875 21.7541 3.10536 21.8434 3.05204C21.8926 3.02265 21.9418 2.99326 21.9925 2.96297C22.3069 2.77669 22.6238 2.59484 22.9405 2.41249C23.007 2.37415 23.0736 2.33582 23.1421 2.29631C23.6062 2.02897 24.0707 1.76238 24.5362 1.49746C24.2199 1.39202 23.9317 1.59627 23.6435 1.73552ZM29.3569 2.21163C28.9444 2.46695 28.532 2.72227 28.1071 2.98532C28.166 3.01478 28.166 3.01478 28.2261 3.04483C28.4261 2.95873 28.6111 2.84211 28.7989 2.73238C28.8523 2.70239 28.9057 2.67239 28.9607 2.64148C29.0112 2.61226 29.0617 2.58303 29.1137 2.55291C29.1603 2.52604 29.2069 2.49917 29.255 2.47149C29.2886 2.44465 29.3222 2.41782 29.3569 2.39018C29.3569 2.33126 29.3569 2.27234 29.3569 2.21163ZM19.2009 3.42828C18.9586 3.58871 18.712 3.74238 18.4658 3.89663C18.1047 4.12281 17.7479 4.35425 17.3945 4.5922C17.4338 4.61184 17.4731 4.63148 17.5136 4.65172C17.6527 4.58947 17.6527 4.58946 17.8093 4.49363C17.9016 4.43976 17.9016 4.43976 17.9958 4.38479C18.0625 4.34522 18.1292 4.30565 18.198 4.26487C18.267 4.22435 18.3361 4.18388 18.4051 4.14345C18.513 4.08033 18.6208 4.01716 18.7285 3.9538C18.9837 3.80371 19.2401 3.65579 19.4973 3.50909C19.5676 3.46887 19.638 3.42866 19.7084 3.38843C19.8423 3.31196 19.9763 3.23563 20.1103 3.15944C20.2018 3.10697 20.2018 3.10697 20.2951 3.05343C20.3486 3.02296 20.402 2.99249 20.457 2.9611C20.6171 2.86079 20.7607 2.74883 20.9059 2.62823C20.2647 2.62823 19.71 3.08678 19.2009 3.42828ZM27.9881 3.04483C27.9291 3.10375 27.8702 3.16267 27.8095 3.22338C27.9077 3.1841 28.0059 3.14482 28.1071 3.10435C28.0678 3.08471 28.0285 3.06507 27.9881 3.04483ZM29.1188 3.16386C29.0992 3.20314 29.0795 3.24242 29.0593 3.28289C29.0986 3.28289 29.1379 3.28289 29.1783 3.28289C29.1587 3.24361 29.1391 3.20433 29.1188 3.16386ZM27.6905 3.22338C27.6708 3.26266 27.6512 3.30193 27.631 3.3424C27.6899 3.32276 27.7488 3.30312 27.8095 3.28289C27.7702 3.26325 27.731 3.24361 27.6905 3.22338ZM20.6678 3.58046C20.6482 3.61974 20.6285 3.65902 20.6083 3.69949C20.6672 3.67985 20.7261 3.66021 20.7868 3.63998C20.7476 3.62034 20.7083 3.6007 20.6678 3.58046ZM14.8354 4.41366C14.7765 4.47258 14.7176 4.5315 14.6569 4.5922C14.7551 4.55292 14.8533 4.51364 14.9544 4.47317C14.9152 4.45353 14.8759 4.43389 14.8354 4.41366ZM17.1565 4.71123C17.1368 4.75051 17.1172 4.78979 17.097 4.83026C17.1559 4.81062 17.2148 4.79098 17.2755 4.77075C17.2362 4.75111 17.1969 4.73147 17.1565 4.71123ZM28.6427 4.83026C28.3776 5.00702 28.3776 5.00702 28.1071 5.18735C28.166 5.2168 28.166 5.2168 28.2261 5.24686C28.3469 5.18772 28.3469 5.18772 28.4716 5.10179C28.5147 5.07364 28.5578 5.04548 28.6023 5.01647C28.6517 4.98322 28.6517 4.98322 28.7022 4.94929C28.6826 4.91001 28.6629 4.87073 28.6427 4.83026ZM11.8704 5.22268C11.4958 5.38836 11.1713 5.64022 10.841 5.87992C10.686 5.99208 10.529 6.10112 10.3718 6.21025C10.2925 6.266 10.2131 6.32177 10.1338 6.37763C10.1731 6.39727 10.2123 6.41691 10.2528 6.43714C10.4212 6.35928 10.4212 6.35928 10.6122 6.24512C10.6479 6.2246 10.6836 6.20409 10.7204 6.18295C10.8351 6.11686 10.9494 6.05011 11.0637 5.98335C11.1394 5.93968 11.2151 5.89605 11.2908 5.85246C11.6633 5.63749 12.0326 5.4185 12.3953 5.18735C12.2056 5.09249 12.0671 5.16111 11.8704 5.22268ZM27.9881 5.24686C27.9684 5.28614 27.9488 5.32542 27.9285 5.36589C27.9875 5.34625 28.0464 5.32661 28.1071 5.30637C28.0678 5.28673 28.0285 5.26709 27.9881 5.24686ZM22.3342 5.48492C22.2753 5.54384 22.2164 5.60275 22.1557 5.66346C22.2539 5.62418 22.3521 5.5849 22.4532 5.54443C22.414 5.52479 22.3747 5.50515 22.3342 5.48492ZM27.869 6.15817C27.8046 6.19861 27.8046 6.19861 27.7389 6.23986C27.4033 6.4512 27.07 6.6659 26.7374 6.88197C26.3557 7.12982 25.9724 7.37499 25.5889 7.61999C25.118 7.921 24.6478 8.22302 24.1791 8.52758C24.1326 8.5578 24.0861 8.58801 24.0382 8.61915C23.7266 8.82201 23.4169 9.02751 23.1079 9.23431C23.1472 9.25395 23.1864 9.27359 23.2269 9.29383C23.3661 9.23157 23.3661 9.23157 23.5226 9.13574C23.6148 9.08194 23.6148 9.08194 23.7088 9.02706C23.7757 8.98743 23.8425 8.94781 23.9113 8.90698C23.9813 8.86598 24.0513 8.82502 24.1213 8.78412C24.2669 8.69896 24.4124 8.61358 24.5579 8.52805C24.8867 8.33488 25.2174 8.14499 25.548 7.95476C25.6755 7.88115 25.8029 7.80753 25.9304 7.7339C26.1669 7.59741 26.4037 7.46133 26.6408 7.32578C26.7473 7.26486 26.8537 7.20386 26.9602 7.14283C27.0937 7.06632 27.2272 6.98998 27.3609 6.91384C27.8403 6.6412 27.8403 6.6412 28.2856 6.31812C28.3482 6.09944 28.3482 6.09944 28.3451 5.90152C28.1906 5.90152 28.0011 6.07487 27.869 6.15817ZM8.34836 6.2586C8.1942 6.36273 8.05654 6.47581 7.91595 6.59755C7.71818 6.76425 7.51064 6.913 7.29942 7.06204C7.262 7.08856 7.22457 7.11507 7.186 7.14239C7.09745 7.20503 7.00875 7.26747 6.92002 7.32986C6.9593 7.3495 6.99858 7.36914 7.03905 7.38937C7.20546 7.31248 7.20546 7.31248 7.39428 7.19944C7.42968 7.17906 7.46509 7.15869 7.50157 7.1377C7.61547 7.07201 7.72898 7.00566 7.84249 6.93929C7.91717 6.89613 7.99187 6.853 8.0666 6.80992C8.48043 6.57082 8.89175 6.32761 9.30059 6.08006C8.95452 5.97983 8.66835 6.11413 8.34836 6.2586ZM4.9582 7.32538C4.58226 7.5239 4.262 7.82456 3.94431 8.10354C3.98359 8.12318 4.02287 8.14282 4.06334 8.16306C4.20355 8.10162 4.20355 8.10162 4.35975 8.00799C4.41924 7.97397 4.47874 7.93995 4.54003 7.90489C4.60244 7.86856 4.66485 7.83224 4.72915 7.79481C4.82104 7.74205 4.82104 7.74205 4.91479 7.68822C5.08747 7.58899 5.25983 7.4892 5.43217 7.38937C5.5709 7.30979 5.70981 7.23052 5.84877 7.15131C5.5395 7.04823 5.24803 7.19748 4.9582 7.32538ZM6.80099 7.38937C6.78135 7.42865 6.76171 7.46793 6.74148 7.5084C6.8004 7.48876 6.85932 7.46912 6.92002 7.44889C6.88074 7.42925 6.84146 7.40961 6.80099 7.38937ZM22.9889 9.29383C22.9692 9.33311 22.9496 9.37239 22.9293 9.41286C22.9883 9.39322 23.0472 9.37357 23.1079 9.35334C23.0686 9.3337 23.0293 9.31406 22.9889 9.29383ZM1.20666 9.47237C1.18702 9.51165 1.16738 9.55093 1.14714 9.5914C1.20606 9.57176 1.26498 9.55212 1.32568 9.53188C1.2864 9.51224 1.24713 9.4926 1.20666 9.47237ZM14.6569 9.53188C14.6372 9.57116 14.6176 9.61044 14.5974 9.65091C14.6563 9.63127 14.7152 9.61163 14.7759 9.5914C14.7366 9.57176 14.6973 9.55212 14.6569 9.53188ZM0.84957 9.71043C0.86921 9.76934 0.88885 9.82826 0.909085 9.88897C0.987643 9.79077 1.0662 9.69257 1.14714 9.5914C1.00886 9.58039 1.00886 9.58039 0.84957 9.71043ZM11.3241 9.71043C11.3044 9.7497 11.2848 9.78898 11.2646 9.82945C11.3235 9.80981 11.3824 9.79018 11.4431 9.76994C11.4038 9.7503 11.3645 9.73066 11.3241 9.71043ZM14.3593 9.71043C14.2182 9.77365 14.2182 9.77365 14.0594 9.8706C13.9973 9.90677 13.9353 9.94294 13.8714 9.9802C13.8041 10.0201 13.7368 10.0599 13.6674 10.101C13.5971 10.1422 13.5267 10.1833 13.4563 10.2244C13.2757 10.3301 13.0953 10.4362 12.915 10.5424C12.6456 10.7011 12.3753 10.8584 12.1052 11.016C12.0475 11.0498 11.9897 11.0835 11.9302 11.1183C11.4719 11.3859 11.0115 11.6497 10.5504 11.9125C9.84756 12.313 9.14767 12.7184 8.44984 13.1277C8.29264 13.2195 8.13505 13.3107 7.97733 13.4017C7.92974 13.4293 7.88215 13.4569 7.83312 13.4853C7.74532 13.5362 7.65738 13.5869 7.56929 13.6373C7.358 13.7504 7.358 13.7504 7.21759 13.9359C7.36176 14.0302 7.44175 14.0558 7.61559 14.0459C7.86187 13.9829 8.04491 13.8621 8.25165 13.7202C8.34146 13.6603 8.43136 13.6006 8.52133 13.541C8.56981 13.5087 8.6183 13.4765 8.66825 13.4432C8.95282 13.2566 9.24222 13.0778 9.53121 12.8982C9.65404 12.8216 9.77687 12.745 9.89968 12.6685C9.9593 12.6313 10.0189 12.5941 10.0803 12.5558C10.333 12.398 10.585 12.2391 10.8368 12.0798C10.8825 12.0509 10.9282 12.022 10.9753 11.9923C11.1114 11.9062 11.2475 11.8201 11.3836 11.7339C11.5658 11.6186 11.7481 11.5032 11.9304 11.388C11.9758 11.3592 12.0213 11.3305 12.0682 11.3008C12.3397 11.1294 12.6117 10.9588 12.8842 10.7889C12.9475 10.7494 13.0109 10.7099 13.0761 10.6692C13.1991 10.5926 13.3221 10.516 13.4452 10.4395C13.7938 10.2223 14.1382 10.0002 14.4783 9.76994C14.4194 9.74048 14.4194 9.74048 14.3593 9.71043ZM27.1549 9.65091C26.5346 10.04 25.9158 10.43 25.3099 10.8412C25.3492 10.8608 25.3885 10.8805 25.4289 10.9007C25.5578 10.8391 25.678 10.7744 25.8009 10.7024C25.8374 10.6815 25.874 10.6605 25.9116 10.639C25.989 10.5945 26.0662 10.5498 26.1433 10.5049C26.2614 10.4362 26.3798 10.3682 26.4983 10.3003C26.5734 10.2571 26.6484 10.2138 26.7234 10.1705C26.7588 10.1501 26.7943 10.1297 26.8308 10.1087C26.9749 10.0246 27.0958 9.948 27.2144 9.82945C27.1947 9.77054 27.1751 9.71162 27.1549 9.65091ZM10.8238 10.0064C10.757 10.0447 10.6901 10.0831 10.6213 10.1226C10.548 10.165 10.4748 10.2074 10.4016 10.2498C10.326 10.2933 10.2504 10.3368 10.1747 10.3803C9.98013 10.4923 9.7857 10.6045 9.59131 10.7169C9.42057 10.8155 9.24968 10.9139 9.07881 11.0123C8.76121 11.1953 8.44377 11.3786 8.1264 11.5619C7.78881 11.757 7.45114 11.9519 7.11344 12.1468C7.04888 12.184 6.98433 12.2213 6.91781 12.2597C6.46295 12.5221 6.00758 12.7835 5.55119 13.0432C5.61668 13.1436 5.61668 13.1436 5.72974 13.2218C6.04948 13.219 6.27092 13.0618 6.52574 12.887C6.61594 12.8269 6.70622 12.7669 6.79658 12.7071C6.84511 12.6748 6.89364 12.6425 6.94365 12.6092C7.22169 12.4268 7.50433 12.2518 7.7867 12.0761C7.84692 12.0386 7.90715 12.001 7.96921 11.9623C8.0929 11.8852 8.21661 11.8081 8.34034 11.7311C8.82238 11.4308 9.30394 11.1298 9.78531 10.8284C9.95342 10.7233 10.1217 10.6185 10.29 10.5136C10.3929 10.4493 10.4958 10.3849 10.5987 10.3204C10.6457 10.2913 10.6926 10.2622 10.741 10.2322C10.8056 10.1916 10.8056 10.1916 10.8714 10.1503C10.9088 10.127 10.9461 10.1037 10.9846 10.0797C11.0901 10.0051 11.1761 9.92323 11.2646 9.82945C11.0862 9.82945 10.9777 9.91763 10.8238 10.0064ZM2.15888 9.88897C1.97864 9.96368 1.81355 10.0691 1.64557 10.1679C1.59785 10.1946 1.55014 10.2213 1.50097 10.2487C1.45586 10.2751 1.41075 10.3014 1.36428 10.3286C1.32265 10.3526 1.28102 10.3767 1.23813 10.4015C1.2081 10.4288 1.17808 10.456 1.14714 10.4841C1.14714 10.5627 1.14714 10.6412 1.14714 10.7222C1.53711 10.4799 1.91614 10.2315 2.27791 9.94848C2.23863 9.92884 2.19935 9.9092 2.15888 9.88897ZM3.0516 10.3056C2.89862 10.3767 2.89862 10.3767 2.72752 10.482C2.66346 10.5198 2.5994 10.5576 2.5334 10.5965C2.46628 10.6368 2.39915 10.677 2.32999 10.7184C2.2624 10.7585 2.19481 10.7985 2.12517 10.8397C1.95761 10.939 1.79032 11.0387 1.62326 11.1388C1.74109 11.1977 1.74109 11.1977 1.86131 11.2578C2.30216 10.9662 2.73921 10.6705 3.17062 10.3651C3.13135 10.3454 3.09207 10.3258 3.0516 10.3056ZM6.86051 10.4841C6.84087 10.5234 6.82123 10.5627 6.80099 10.6031C6.85991 10.5835 6.91883 10.5639 6.97954 10.5436C6.94026 10.524 6.90098 10.5043 6.86051 10.4841ZM6.56294 10.6627C6.41695 10.7288 6.41695 10.7288 6.25258 10.8291C6.18885 10.8663 6.12513 10.9034 6.05948 10.9417C5.99047 10.9826 5.92148 11.0235 5.85248 11.0644C5.78258 11.1053 5.71266 11.1463 5.6427 11.1871C5.50136 11.2698 5.36016 11.3527 5.21907 11.4358C4.93139 11.6048 4.64245 11.7717 4.35347 11.9385C4.26155 11.9917 4.16965 12.0449 4.07775 12.0982C4.01408 12.1351 3.9504 12.172 3.8848 12.21C3.90444 12.2493 3.92408 12.2886 3.94431 12.3291C4.24597 12.2974 4.45972 12.1523 4.71056 11.9943C4.756 11.9661 4.80145 11.9379 4.84827 11.9089C5.46592 11.5234 6.07396 11.1226 6.68196 10.7222C6.64269 10.7025 6.60341 10.6829 6.56294 10.6627ZM26.5055 10.9644C26.4466 11.0031 26.3876 11.0417 26.3269 11.0816C26.265 11.1225 26.2031 11.1635 26.1394 11.2057C26.0791 11.2453 26.0189 11.2849 25.9568 11.3257C25.6013 11.5595 25.247 11.795 24.8933 12.0315C24.9326 12.0511 24.9719 12.0708 25.0123 12.091C25.1405 12.0293 25.26 11.9646 25.3822 11.8927C25.4186 11.8718 25.455 11.8508 25.4925 11.8292C25.6092 11.762 25.7255 11.694 25.8418 11.626C25.92 11.5809 25.9983 11.5357 26.0765 11.4906C26.5696 11.2584 26.5696 11.2584 26.8982 10.8933C26.9043 10.8564 26.9105 10.8196 26.9168 10.7817C26.7417 10.7817 26.6511 10.8685 26.5055 10.9644ZM25.1909 10.9007C25.1712 10.94 25.1516 10.9793 25.1314 11.0197C25.1903 11.0001 25.2492 10.9805 25.3099 10.9602C25.2706 10.9406 25.2314 10.9209 25.1909 10.9007ZM7.63419 10.9602C7.57527 11.0191 7.51635 11.0781 7.45565 11.1388C7.55385 11.0995 7.65205 11.0602 7.75322 11.0197C7.71394 11.0001 7.67466 10.9805 7.63419 10.9602ZM7.33662 11.1388C7.17511 11.2127 7.17511 11.2127 6.99186 11.3224C6.9574 11.3422 6.92295 11.362 6.88745 11.3824C6.77528 11.447 6.66353 11.5123 6.55178 11.5777C6.4756 11.6218 6.39941 11.6658 6.32319 11.7098C5.8047 12.0099 5.28844 12.3138 4.77751 12.6266C4.79715 12.6659 4.81679 12.7052 4.83702 12.7457C5.01972 12.7082 5.15733 12.6472 5.31686 12.5513C5.36375 12.5232 5.41064 12.4951 5.45896 12.4662C5.50904 12.4356 5.55911 12.4051 5.61071 12.3737C5.68836 12.3268 5.68836 12.3268 5.76757 12.2789C6.33851 11.9315 6.89803 11.5666 7.45565 11.1983C7.41637 11.1786 7.37709 11.159 7.33662 11.1388ZM2.635 11.4363C2.61536 11.4756 2.59572 11.5149 2.57548 11.5554C2.6344 11.5357 2.69332 11.5161 2.75403 11.4959C2.71475 11.4762 2.67547 11.4566 2.635 11.4363ZM17.5136 12.0315C17.4939 12.0708 17.4743 12.11 17.454 12.1505C17.513 12.1309 17.5719 12.1112 17.6326 12.091C17.5933 12.0714 17.554 12.0517 17.5136 12.0315ZM24.7743 12.091C24.7546 12.1303 24.735 12.1696 24.7148 12.21C24.7737 12.1904 24.8326 12.1707 24.8933 12.1505C24.854 12.1309 24.8148 12.1112 24.7743 12.091ZM17.335 12.1505C17.1843 12.2186 17.1843 12.2186 17.0133 12.3216C16.9464 12.3602 16.8796 12.3987 16.8107 12.4384C16.7375 12.4813 16.6643 12.5242 16.5911 12.5671C16.5155 12.6109 16.4399 12.6547 16.3642 12.6984C16.2082 12.7887 16.0524 12.8792 15.8967 12.97C15.624 13.1289 15.3504 13.2863 15.0768 13.4438C14.8859 13.5537 14.6951 13.6639 14.5044 13.7741C14.2466 13.9231 13.9887 14.0719 13.7307 14.2205C12.8673 14.7179 12.0057 15.2183 11.1455 15.7214C11.2475 15.8449 11.3155 15.897 11.469 15.9488C11.6505 15.9614 11.7124 15.9314 11.8625 15.832C11.9073 15.803 11.9521 15.774 11.9983 15.7441C12.0696 15.696 12.0696 15.696 12.1424 15.647C12.1926 15.6142 12.2429 15.5813 12.2946 15.5475C12.3983 15.4798 12.5017 15.4116 12.6048 15.3431C12.7749 15.2304 12.9461 15.1196 13.1176 15.0091C13.2398 14.9303 13.3618 14.8511 13.4838 14.7719C13.8243 14.5513 14.1662 14.333 14.5081 14.1145C15.0946 13.7395 15.68 13.3629 16.2638 12.9837C16.316 12.9498 16.3682 12.9159 16.422 12.881C16.7661 12.6574 17.1101 12.4338 17.454 12.21C17.3951 12.1806 17.3951 12.1806 17.335 12.1505ZM25.9664 13.0176C25.9164 13.051 25.8663 13.0844 25.8148 13.1187C25.7604 13.1552 25.706 13.1916 25.65 13.2292C25.5946 13.2662 25.5392 13.3032 25.4822 13.3413C25.3044 13.46 25.1267 13.5789 24.9491 13.6979C24.829 13.7782 24.7088 13.8585 24.5887 13.9387C24.2934 14.136 23.9982 14.3335 23.703 14.5311C23.7423 14.5507 23.7816 14.5704 23.8221 14.5906C23.9729 14.5215 23.9729 14.5215 24.1429 14.4179C24.2081 14.3798 24.2734 14.3417 24.3406 14.3025C24.4108 14.261 24.481 14.2194 24.5511 14.1777C24.657 14.1153 24.763 14.053 24.869 13.9907C24.9389 13.9496 25.0087 13.9085 25.0785 13.8673C25.2686 13.7555 25.4599 13.6475 25.6551 13.5449C25.6941 13.5242 25.733 13.5035 25.7731 13.4821C25.8713 13.4304 25.9701 13.3799 26.069 13.3294C26.2211 13.2288 26.2211 13.2288 26.2526 13.0304C26.2558 12.9757 26.2589 12.921 26.2621 12.8647C26.1499 12.8647 26.0565 12.9574 25.9664 13.0176ZM10.6099 12.9837C10.5903 13.023 10.5706 13.0623 10.5504 13.1027C10.6093 13.0831 10.6682 13.0635 10.7289 13.0432C10.6897 13.0236 10.6504 13.0039 10.6099 12.9837ZM10.3123 13.1623C10.2927 13.2015 10.2731 13.2408 10.2528 13.2813C10.3117 13.2616 10.3707 13.242 10.4314 13.2218C10.3921 13.2021 10.3528 13.1825 10.3123 13.1623ZM9.67093 13.5298C9.63717 13.5492 9.60342 13.5686 9.56864 13.5886C9.49718 13.6297 9.4258 13.671 9.35448 13.7124C9.24565 13.7755 9.1365 13.838 9.02731 13.9005C8.9579 13.9406 8.8885 13.9807 8.81913 14.0208C8.756 14.0573 8.69286 14.0937 8.62782 14.1313C8.49387 14.2166 8.39338 14.294 8.28885 14.412C8.32813 14.4317 8.36741 14.4513 8.40788 14.4716C8.53762 14.4055 8.65846 14.3367 8.78193 14.2602C8.83695 14.2269 8.83695 14.2269 8.89308 14.1928C8.97071 14.1455 9.0482 14.098 9.12555 14.0503C9.24418 13.9772 9.36329 13.905 9.4825 13.8328C9.55774 13.7869 9.63295 13.7409 9.70812 13.6949C9.74389 13.6732 9.77966 13.6515 9.81652 13.6291C10.0075 13.5167 10.0075 13.5167 10.1338 13.3408C9.9493 13.3408 9.82972 13.4385 9.67093 13.5298ZM25.202 14.5162C25.1118 14.5728 25.1118 14.5728 25.0197 14.6306C24.9616 14.6674 24.9036 14.7042 24.8438 14.7422C24.764 14.7927 24.764 14.7927 24.6825 14.8442C24.5377 14.9466 24.4195 15.0567 24.2982 15.1857C24.6284 15.0599 24.9281 14.8901 25.2355 14.7171C25.2933 14.6855 25.3511 14.654 25.4106 14.6215C25.4929 14.5751 25.4929 14.5751 25.5768 14.5278C25.627 14.4999 25.6771 14.472 25.7288 14.4432C25.8554 14.3616 25.8554 14.3616 25.8921 14.2226C25.8964 14.1869 25.9007 14.1512 25.9051 14.1145C25.6882 14.1145 25.3808 14.4027 25.202 14.5162ZM11.9787 14.412C11.9591 14.4513 11.9395 14.4906 11.9192 14.5311C11.9781 14.5114 12.0371 14.4918 12.0978 14.4716C12.0585 14.4519 12.0192 14.4323 11.9787 14.412ZM9.47913 14.4716C9.45949 14.5108 9.43985 14.5501 9.41962 14.5906C9.47854 14.571 9.53746 14.5513 9.59816 14.5311C9.55888 14.5114 9.5196 14.4918 9.47913 14.4716ZM11.6812 14.5906C11.6615 14.6299 11.6419 14.6692 11.6216 14.7096C11.6806 14.69 11.7395 14.6703 11.8002 14.6501C11.7609 14.6305 11.7216 14.6108 11.6812 14.5906ZM9.18156 14.6501C9.14228 14.6894 9.103 14.7287 9.06253 14.7691C9.14109 14.7495 9.21965 14.7299 9.30059 14.7096C9.26131 14.69 9.22203 14.6703 9.18156 14.6501ZM11.3836 14.7691C11.2714 14.8171 11.2714 14.8171 11.1506 14.8935C11.1054 14.9206 11.0601 14.9476 11.0135 14.9755C10.9662 15.0043 10.919 15.0332 10.8703 15.063C10.8226 15.0916 10.7748 15.1203 10.7257 15.1498C10.6075 15.2209 10.4895 15.2924 10.3718 15.3643C10.5404 15.4427 10.5404 15.4427 10.6581 15.3759C10.697 15.3507 10.736 15.3254 10.7761 15.2994C10.8185 15.2724 10.8609 15.2453 10.9046 15.2175C10.9485 15.1886 10.9924 15.1597 11.0377 15.1299C11.0823 15.1013 11.1269 15.0726 11.1728 15.0431C11.2831 14.9722 11.393 14.9007 11.5026 14.8286C11.4633 14.809 11.4241 14.7894 11.3836 14.7691ZM24.1791 15.1857C24.1595 15.225 24.1399 15.2643 24.1196 15.3048C24.1785 15.2851 24.2375 15.2655 24.2982 15.2452C24.2589 15.2256 24.2196 15.206 24.1791 15.1857ZM16.0852 15.9594C16.0656 15.9987 16.0459 16.038 16.0257 16.0784C16.0846 16.0588 16.1435 16.0392 16.2042 16.0189C16.165 15.9993 16.1257 15.9797 16.0852 15.9594ZM15.9067 16.0784C15.7412 16.1543 15.7412 16.1543 15.5535 16.2663C15.5183 16.2865 15.483 16.3068 15.4467 16.3276C15.3715 16.3708 15.2966 16.4143 15.2217 16.4579C15.1095 16.5233 14.997 16.5881 14.8843 16.6527C14.444 16.9063 14.0116 17.1701 13.5856 17.4473C13.6053 17.5062 13.6249 17.5651 13.6451 17.6258C14.0547 17.4339 14.4251 17.1983 14.8019 16.9488C14.8899 16.8911 14.8899 16.8911 14.9797 16.8321C15.3293 16.6023 15.6778 16.3705 16.0257 16.138C15.9864 16.1183 15.9471 16.0987 15.9067 16.0784ZM16.3828 16.7331C16.2319 16.8022 16.2319 16.8022 16.062 16.9058C15.9967 16.9439 15.9314 16.982 15.8642 17.0212C15.794 17.0628 15.7239 17.1044 15.6537 17.146C15.5831 17.1874 15.5124 17.2288 15.4416 17.2701C15.3026 17.3515 15.1636 17.433 15.0248 17.5147C14.7916 17.6515 14.5572 17.7861 14.3221 17.9197C14.2587 17.9558 14.1954 17.9919 14.1301 18.0292C14.0668 18.0652 14.0668 18.0652 14.0022 18.1019C14.0219 18.1805 14.0415 18.259 14.0617 18.34C14.4472 18.133 14.8159 17.9071 15.1813 17.6667C15.233 17.633 15.2846 17.5992 15.3379 17.5644C15.7273 17.3094 16.1155 17.0525 16.5018 16.7926C16.4625 16.773 16.4233 16.7533 16.3828 16.7331ZM17.6921 17.6853C17.6725 17.7246 17.6528 17.7639 17.6326 17.8044C17.6915 17.7847 17.7504 17.7651 17.8111 17.7448C17.7718 17.7252 17.7326 17.7056 17.6921 17.6853ZM17.5136 17.8044C17.3569 17.8754 17.3569 17.8754 17.1793 17.9817C17.1456 18.0011 17.112 18.0204 17.0773 18.0403C16.967 18.1037 16.8572 18.1679 16.7473 18.2321C16.6719 18.2757 16.5965 18.3193 16.521 18.3629C15.8954 18.725 15.2745 19.0951 14.6569 19.4708C14.6961 19.5493 14.7354 19.6279 14.7759 19.7088C15.1472 19.5336 15.4807 19.3275 15.8193 19.096C15.8714 19.0607 15.9236 19.0253 15.9773 18.9889C16.1424 18.877 16.3072 18.7647 16.4721 18.6524C16.5846 18.5761 16.6971 18.4997 16.8096 18.4234C17.0841 18.2372 17.3584 18.0507 17.6326 17.8639C17.5933 17.8442 17.554 17.8246 17.5136 17.8044ZM23.9597 19.0951C23.8875 19.1474 23.8154 19.1997 23.7432 19.252C23.7075 19.278 23.6718 19.3041 23.6351 19.3309C23.4601 19.458 23.284 19.5834 23.1079 19.7088C23.1668 19.7383 23.1668 19.7383 23.2269 19.7683C23.4361 19.6739 23.6294 19.5483 23.8258 19.4298C23.9094 19.3813 23.9094 19.3813 23.9947 19.3319C24.0476 19.3001 24.1006 19.2684 24.1552 19.2357C24.204 19.2067 24.2528 19.1776 24.3031 19.1477C24.4335 19.0408 24.4563 18.9807 24.4767 18.8161C24.2709 18.8161 24.1207 18.9769 23.9597 19.0951ZM17.216 18.9946C17.1963 19.0339 17.1767 19.0732 17.1565 19.1137C17.2154 19.094 17.2743 19.0744 17.335 19.0542C17.2957 19.0345 17.2565 19.0149 17.216 18.9946ZM16.6718 19.3157C16.6176 19.3468 16.6176 19.3468 16.5623 19.3785C16.4465 19.4449 16.331 19.5118 16.2154 19.5786C16.1382 19.623 16.061 19.6674 15.9837 19.7117C15.6789 19.887 15.3745 20.0626 15.0735 20.2444C15.0931 20.323 15.1127 20.4016 15.133 20.4825C15.3518 20.3445 15.5698 20.2054 15.7876 20.0659C15.8355 20.0353 15.8833 20.0047 15.9326 19.9731C16.0927 19.8704 16.2527 19.7673 16.4125 19.6642C16.4652 19.6304 16.5178 19.5967 16.5721 19.562C16.6219 19.5297 16.6718 19.4975 16.7231 19.4642C16.7679 19.4354 16.8127 19.4066 16.8588 19.3769C16.9709 19.2972 17.0628 19.2139 17.1565 19.1137C16.9657 19.1137 16.8355 19.2214 16.6718 19.3157ZM24.0601 20.0064C24.0012 20.0653 23.9423 20.1242 23.8816 20.1849C23.9601 20.1653 24.0387 20.1456 24.1196 20.1254C24.1 20.0861 24.0804 20.0469 24.0601 20.0064ZM23.7625 20.1849C23.7429 20.2242 23.7233 20.2635 23.703 20.304C23.762 20.2843 23.8209 20.2647 23.8816 20.2444C23.8423 20.2248 23.803 20.2052 23.7625 20.1849ZM16.3233 21.8513C16.3036 21.8906 16.284 21.9299 16.2638 21.9704C16.3227 21.9507 16.3816 21.9311 16.4423 21.9108C16.403 21.8912 16.3637 21.8716 16.3233 21.8513ZM15.9067 22.0894C15.9067 22.1287 15.9067 22.1679 15.9067 22.2084C16.1284 22.1418 16.1284 22.1418 16.2638 21.9704C16.1172 21.9704 16.0345 22.0212 15.9067 22.0894ZM23.2639 22.054C23.2238 22.0836 23.1837 22.1131 23.1424 22.1436C23.0793 22.1904 23.0793 22.1904 23.0149 22.2382C22.9726 22.2694 22.9303 22.3006 22.8867 22.3328C22.7818 22.4102 22.677 22.4878 22.5723 22.5655C22.6312 22.595 22.6312 22.595 22.6913 22.625C22.8274 22.5565 22.9529 22.4856 23.0819 22.4056C23.1177 22.3846 23.1536 22.3636 23.1905 22.342C23.3977 22.2165 23.3977 22.2165 23.5187 22.0138C23.5206 21.9798 23.5225 21.9459 23.5245 21.9108C23.4191 21.9108 23.3461 21.9932 23.2639 22.054ZM17.9778 22.3823C17.9156 22.4188 17.8535 22.4553 17.7894 22.493C17.6915 22.551 17.6915 22.551 17.5917 22.6101C17.4637 22.6855 17.3358 22.7608 17.2078 22.8361C17.1476 22.8717 17.0873 22.9072 17.0253 22.9439C16.8319 23.0575 16.6375 23.1691 16.4423 23.2797C16.4816 23.3582 16.5209 23.4368 16.5613 23.5177C16.9192 23.3224 17.2508 23.0973 17.5842 22.8631C17.6371 22.8264 17.69 22.7897 17.7445 22.7519C17.7956 22.7162 17.8466 22.6804 17.8992 22.6436C17.9452 22.6115 17.9912 22.5793 18.0385 22.5462C18.1729 22.4428 18.2891 22.3307 18.4063 22.2084C18.2308 22.2084 18.1284 22.2934 17.9778 22.3823ZM22.4532 22.625C22.4336 22.6643 22.414 22.7036 22.3937 22.744C22.4526 22.7244 22.5116 22.7048 22.5723 22.6845C22.533 22.6649 22.4937 22.6452 22.4532 22.625ZM22.8938 23.3169C22.851 23.3491 22.8082 23.3813 22.7642 23.4145C22.6968 23.4656 22.6968 23.4656 22.6281 23.5177C22.5829 23.5518 22.5378 23.5859 22.4912 23.6209C22.3793 23.7054 22.2674 23.7901 22.1557 23.8748C22.2146 23.9043 22.2146 23.9043 22.2747 23.9343C22.4206 23.8675 22.5559 23.7976 22.695 23.7186C22.7337 23.6981 22.7724 23.6776 22.8123 23.6565C22.9955 23.5532 23.095 23.4966 23.1635 23.2932C23.1648 23.2494 23.1661 23.2057 23.1674 23.1606C23.0583 23.1606 22.9777 23.2534 22.8938 23.3169ZM17.7516 23.5177C17.732 23.557 17.7123 23.5963 17.6921 23.6368C17.751 23.6171 17.8099 23.5975 17.8706 23.5772C17.8314 23.5576 17.7921 23.538 17.7516 23.5177ZM17.5731 23.6368C17.3979 23.7232 17.3979 23.7232 17.2085 23.8413C17.1433 23.8805 17.0781 23.9197 17.0109 23.9601C16.9608 23.9909 16.9106 24.0217 16.8589 24.0534C16.8785 24.1123 16.8982 24.1712 16.9184 24.2319C17.1737 24.0551 17.429 23.8784 17.6921 23.6963C17.6528 23.6766 17.6135 23.657 17.5731 23.6368ZM19.0609 24.2914C19.0413 24.3307 19.0216 24.37 19.0014 24.4104C19.0603 24.3908 19.1192 24.3712 19.18 24.3509C19.1407 24.3313 19.1014 24.3116 19.0609 24.2914ZM18.5583 24.5927C18.4622 24.6491 18.4622 24.6491 18.3642 24.7066C18.2971 24.7464 18.2299 24.7861 18.1608 24.827C18.0932 24.8668 18.0256 24.9065 17.956 24.9475C17.7885 25.046 17.6212 25.1447 17.454 25.2436C17.4737 25.3222 17.4933 25.4008 17.5136 25.4817C17.7823 25.354 18.0153 25.1845 18.2575 25.013C18.3027 24.9815 18.3479 24.95 18.3944 24.9175C18.6145 24.7621 18.8193 24.611 19.0014 24.4104C18.8217 24.4104 18.7122 24.502 18.5583 24.5927ZM18.5811 25.5858C18.514 25.6236 18.4469 25.6613 18.3778 25.7002C18.2822 25.7555 18.2822 25.7555 18.1847 25.8118C18.0966 25.8623 18.0966 25.8623 18.0066 25.9138C17.8643 26.0052 17.8643 26.0052 17.8138 26.1418C17.8129 26.1793 17.812 26.2167 17.8111 26.2554C17.8504 26.2947 17.8897 26.3339 17.9302 26.3744C18.1337 26.221 18.337 26.0671 18.5402 25.9132C18.5978 25.8697 18.6554 25.8263 18.7148 25.7816C18.7704 25.7394 18.826 25.6972 18.8833 25.6537C18.9344 25.6151 18.9855 25.5764 19.0382 25.5366C19.1745 25.4265 19.2967 25.3104 19.418 25.1841C19.1299 25.1841 18.8246 25.445 18.5811 25.5858ZM22.2412 25.5412C22.2031 25.5744 22.165 25.6075 22.1257 25.6416C22.0963 25.6674 22.0669 25.6932 22.0366 25.7198C22.0956 25.7492 22.0956 25.7492 22.1557 25.7793C22.3816 25.6767 22.3816 25.6767 22.5016 25.4705C22.5053 25.4349 22.509 25.3993 22.5127 25.3627C22.401 25.3627 22.3214 25.4712 22.2412 25.5412ZM19.537 26.8505C19.5174 26.8898 19.4978 26.9291 19.4775 26.9695C19.5364 26.9499 19.5954 26.9303 19.6561 26.91C19.6168 26.8904 19.5775 26.8708 19.537 26.8505ZM19.3585 26.9695C19.2135 27.0407 19.077 27.1147 18.9382 27.1964C18.8995 27.2184 18.8608 27.2404 18.8209 27.2631C18.6077 27.3774 18.6077 27.3774 18.4658 27.5647C18.4854 27.604 18.5051 27.6432 18.5253 27.6837C18.7846 27.5975 18.9608 27.4649 19.1688 27.2894C19.2269 27.2408 19.2849 27.1922 19.3448 27.142C19.3886 27.1048 19.4324 27.0675 19.4775 27.0291C19.4382 27.0094 19.399 26.9898 19.3585 26.9695ZM19.5296 28.5467C19.4865 28.5743 19.4434 28.6019 19.3989 28.6304C19.366 28.6519 19.333 28.6733 19.299 28.6955C19.3186 28.7544 19.3383 28.8133 19.3585 28.874C19.6129 28.7798 19.7314 28.6059 19.8941 28.3979C19.7349 28.3979 19.6626 28.4609 19.5296 28.5467Z" fill="black"/>
<path d="M29.647 0.411329C30.1056 0.896857 30.228 1.44195 30.2325 2.09526C30.209 2.8828 29.9262 3.6361 29.6892 4.38074C29.6169 4.60933 29.5466 4.83853 29.4761 5.06769C29.3726 5.40371 29.2685 5.73954 29.1638 6.07517C28.9784 6.66906 28.797 7.26405 28.6181 7.85991C28.605 7.90336 28.592 7.94681 28.5785 7.99158C28.5257 8.16757 28.4729 8.34356 28.4201 8.51956C28.285 8.97016 28.1491 9.42053 28.0133 9.8709C27.9432 10.103 27.8732 10.3351 27.8033 10.5673C27.7892 10.6139 27.7751 10.6605 27.7607 10.7086C27.5041 11.5594 27.2479 12.4103 26.9916 13.2612C26.8983 13.5709 26.805 13.8807 26.7118 14.1904C26.4561 15.0392 26.2004 15.8881 25.9448 16.7369C25.9284 16.7916 25.9119 16.8463 25.8949 16.9026C25.8286 17.1231 25.7622 17.3435 25.6958 17.5639C25.519 18.1509 25.3423 18.7379 25.1654 19.3249C25.1425 19.4007 25.1425 19.4007 25.1192 19.478C25.0595 19.6764 24.9997 19.8747 24.9399 20.0731C24.7803 20.6028 24.6208 21.1326 24.4618 21.6625C24.3906 21.8995 24.3193 22.1364 24.2481 22.3733C24.2181 22.473 24.1882 22.5727 24.1584 22.6724C24.0219 23.1289 23.8807 23.5825 23.7263 24.0333C23.4841 24.7428 23.2993 25.4579 23.1282 26.1873C22.8198 27.4939 22.4305 28.8836 21.3208 29.7409C20.8301 30.022 20.1923 30.0515 19.6507 29.9381C19.0228 29.7484 18.5015 29.3656 18.1733 28.795C18.07 28.5936 17.9753 28.3883 17.8796 28.1831C17.7798 27.9757 17.6711 27.7734 17.5627 27.5703C17.1569 26.8081 16.791 26.0299 16.4325 25.2446C16.3136 24.9843 16.1941 24.7243 16.0745 24.4644C16.0313 24.3703 15.988 24.2763 15.9448 24.1822C15.9232 24.1353 15.9016 24.0883 15.8793 24.0399C15.7708 23.8039 15.6624 23.568 15.554 23.332C15.5331 23.2865 15.5122 23.241 15.4907 23.1941C15.3652 22.9208 15.2402 22.6473 15.1155 22.3737C14.4075 20.823 13.6667 19.2893 12.7264 17.8639C12.6976 17.8201 12.6688 17.7763 12.6391 17.7311C12.3271 17.2685 12.0102 17.0249 11.5101 16.7852C11.4525 16.757 11.3949 16.7288 11.3356 16.6997C11.1536 16.6109 10.9711 16.5231 10.7884 16.4355C10.731 16.408 10.6736 16.3805 10.6145 16.3521C10.3871 16.2433 10.1597 16.1347 9.93203 16.0265C9.54061 15.8401 9.15216 15.6485 8.76496 15.4535C8.34426 15.2419 7.92193 15.0345 7.49657 14.8324C6.8434 14.522 6.19351 14.205 5.54375 13.8876C3.77588 13.0226 3.77588 13.0226 1.99894 12.1765C1.92129 12.14 1.84364 12.1034 1.766 12.0668C1.64018 12.0078 1.51407 11.9494 1.38752 11.892C0.80395 11.6186 0.388676 11.2434 0.13726 10.6443C-0.0813212 10.0118 -0.0363646 9.41689 0.254428 8.81771C0.274835 8.77483 0.295242 8.73194 0.316267 8.68776C0.565413 8.27546 1.01831 8.11106 1.44146 7.9219C1.54058 7.87617 1.63804 7.82686 1.7349 7.77652C1.91245 7.69098 2.08055 7.63195 2.26954 7.57721C2.56612 7.48869 2.86013 7.39469 3.15296 7.29452C5.20332 6.59581 7.284 6.01254 9.37275 5.44032C10.08 5.24607 10.782 5.04214 11.4798 4.81641C11.7369 4.73363 11.9947 4.65289 12.2524 4.57198C12.3067 4.5549 12.361 4.53783 12.417 4.52024C13.8657 4.06522 15.318 3.62339 16.773 3.18897C17.729 2.90342 18.6843 2.61574 19.6396 2.32812C19.8523 2.2641 20.0649 2.20012 20.2776 2.13618C21.4043 1.79747 22.5303 1.45685 23.6549 1.11132C23.7029 1.09661 23.7508 1.0819 23.8002 1.06675C24.3209 0.90694 24.8402 0.744298 25.3574 0.573451C26.689 0.134049 28.3508 -0.377666 29.647 0.411329ZM24.7138 1.29649C24.2709 1.47526 23.8204 1.63019 23.3683 1.78388C23.3233 1.79923 23.2783 1.81458 23.232 1.8304C22.3429 2.13371 21.4481 2.41608 20.5488 2.68775C20.4651 2.71303 20.3815 2.73831 20.2978 2.76359C20.2549 2.77655 20.2121 2.7895 20.1679 2.80285C20.0801 2.82937 19.9923 2.8559 19.9046 2.88243C19.6944 2.94599 19.4841 3.0094 19.2737 3.07241C18.811 3.21144 18.3522 3.35841 17.895 3.51441C17.6196 3.60406 17.3407 3.67611 17.0605 3.74877C16.7213 3.83801 16.3848 3.93636 16.048 4.03426C15.9859 4.0522 15.9237 4.07014 15.8597 4.08863C15.8008 4.10582 15.7419 4.12302 15.6812 4.14073C15.6286 4.15605 15.576 4.17136 15.5218 4.18714C15.3687 4.23386 15.3687 4.23386 15.2142 4.29789C15.0419 4.36675 14.8724 4.4002 14.6903 4.43598C14.1951 4.53941 13.7139 4.67831 13.2299 4.82413C11.798 5.25545 11.798 5.25545 11.2646 5.37333C10.7677 5.48322 10.2884 5.63825 9.80454 5.79492C9.20895 5.98583 8.61151 6.1681 8.00244 6.31068C7.42735 6.45025 6.87494 6.65233 6.31831 6.85168C6.10052 6.92966 5.88246 7.00683 5.66424 7.08359C5.56866 7.11721 5.47315 7.15099 5.37771 7.18498C5.11623 7.27726 4.85359 7.36095 4.58781 7.44005C4.15799 7.5712 3.74288 7.7335 3.32685 7.90268C3.26956 7.92589 3.26956 7.92589 3.21111 7.94957C3.01515 8.02902 2.81936 8.10889 2.62375 8.18921C2.47749 8.24924 2.33102 8.30857 2.18431 8.36752C1.99305 8.44446 1.8025 8.52294 1.6121 8.60197C1.52684 8.63588 1.52684 8.63588 1.43986 8.67047C1.19281 8.77516 1.05802 8.83281 0.905365 9.05949C0.754735 9.53146 0.741327 10.0891 0.968599 10.5436C1.00788 10.5436 1.04716 10.5436 1.08763 10.5436C1.09867 10.5854 1.10972 10.6271 1.1211 10.6701C1.24143 10.9107 1.41145 11.0372 1.62326 11.1983C1.69817 11.2554 1.69817 11.2554 1.7746 11.3136C2.08198 11.5546 2.08198 11.5546 2.45645 11.6149C2.45645 11.6542 2.45645 11.6934 2.45645 11.7339C2.49213 11.7492 2.52781 11.7645 2.56457 11.7802C2.84044 11.8985 3.11631 12.0167 3.39218 12.1349C3.44634 12.1581 3.50051 12.1813 3.55632 12.2053C3.64603 12.2437 3.73572 12.2822 3.82538 12.3208C3.9928 12.3928 4.16058 12.4636 4.32906 12.5332C4.39726 12.5616 4.46546 12.5899 4.53573 12.6192C4.60378 12.6473 4.67183 12.6753 4.74194 12.7043C4.90161 12.7795 5.03787 12.8539 5.18481 12.9486C5.44586 13.1163 5.71949 13.2454 6.00127 13.3743C6.54303 13.6234 6.54304 13.6234 6.78821 13.7667C6.94846 13.8586 7.09696 13.9286 7.26967 13.9917C7.52277 14.0893 7.75195 14.2086 7.98686 14.3435C8.16121 14.4403 8.34269 14.5144 8.52691 14.5906C8.90375 14.7577 9.27715 14.9323 9.65024 15.1076C9.69217 15.1272 9.73411 15.1468 9.77731 15.167C10.0283 15.2849 10.2775 15.4057 10.5257 15.5293C10.5818 15.5569 10.6378 15.5845 10.6955 15.6129C10.8053 15.667 10.9148 15.7217 11.0239 15.7772C11.0742 15.8018 11.1244 15.8264 11.1762 15.8518C11.2206 15.874 11.2649 15.8962 11.3106 15.9191C11.5196 15.9827 11.67 15.937 11.8601 15.8372C11.9184 15.7982 11.9184 15.7982 11.9778 15.7583C12.0229 15.7285 12.068 15.6987 12.1144 15.668C12.1629 15.6353 12.2114 15.6026 12.2614 15.5689C12.3681 15.4982 12.4748 15.4276 12.5815 15.3571C12.6664 15.3008 12.6664 15.3008 12.7529 15.2434C13.0619 15.04 13.3741 14.8416 13.686 14.6427C14.1387 14.3535 14.5907 14.0634 15.0412 13.771C15.2929 13.6078 15.5453 13.4458 15.7981 13.2843C15.8633 13.2426 15.9285 13.201 15.9957 13.1581C16.1231 13.0767 16.2506 12.9954 16.3781 12.9142C16.5586 12.799 16.7386 12.6833 16.9184 12.5671C17.0128 12.5062 17.0128 12.5062 17.109 12.4442C17.4342 12.2314 17.7406 12.0198 18.0194 11.7488C18.0542 11.7158 18.0889 11.6828 18.1248 11.6488C18.6263 11.168 19.1139 10.6721 19.6026 10.1783C19.9143 9.86397 20.2247 9.554 20.5623 9.26708C20.7561 9.09761 20.934 8.91215 21.1142 8.72844C21.3703 8.46979 21.6257 8.21561 21.9044 7.98103C22.0218 7.87842 22.1355 7.77332 22.2489 7.66625C22.2879 7.62943 22.3269 7.59261 22.3671 7.55468C22.4448 7.48114 22.5223 7.4074 22.5996 7.33345C22.8357 7.11027 23.0775 6.91785 23.3459 6.73471C23.1036 7.073 22.8415 7.37934 22.5537 7.6795C22.474 7.76346 22.3943 7.84746 22.3147 7.93151C22.2767 7.97152 22.2388 8.01153 22.1997 8.05275C22.072 8.18883 21.948 8.328 21.8246 8.46807C21.5722 8.7516 21.3041 9.01819 21.0329 9.28363C20.8637 9.45031 20.7016 9.61915 20.5479 9.80032C20.2618 10.1288 19.9525 10.434 19.6444 10.7415C19.5779 10.8081 19.5113 10.8748 19.4448 10.9414C19.2655 11.121 19.0859 11.3005 18.9063 11.4799C18.7179 11.6681 18.5297 11.8565 18.3414 12.0449C18.0256 12.3608 17.7097 12.6766 17.3937 12.9923C17.0285 13.3572 16.6635 13.7223 16.2986 14.0875C15.9848 14.4016 15.6709 14.7155 15.3568 15.0294C15.1695 15.2167 14.9822 15.4039 14.795 15.5913C14.6192 15.7673 14.4433 15.9431 14.2673 16.1188C14.2028 16.1832 14.1383 16.2477 14.0738 16.3123C13.9859 16.4004 13.8977 16.4884 13.8095 16.5763C13.7602 16.6255 13.711 16.6748 13.6602 16.7255C13.5413 16.8378 13.4212 16.936 13.288 17.0307C13.3425 17.1815 13.3931 17.3099 13.4908 17.438C13.5948 17.5788 13.669 17.7214 13.7456 17.8788C13.7716 17.9318 13.7976 17.9849 13.8244 18.0396C13.8438 18.0798 13.8632 18.12 13.8832 18.1614C13.9225 18.1614 13.9617 18.1614 14.0022 18.1614C14.0231 18.2339 14.0439 18.3063 14.0654 18.3809C14.172 18.7031 14.3325 18.9884 14.4965 19.2845C14.6004 19.4763 14.6891 19.67 14.775 19.8702C14.9348 20.2304 15.1205 20.5795 15.2997 20.9305C15.4763 21.2779 15.6423 21.6241 15.7821 21.988C15.8667 22.1973 15.9603 22.4017 16.0555 22.6064C16.0724 22.6432 16.0894 22.68 16.1068 22.7179C16.1938 22.9036 16.286 23.0833 16.3893 23.2606C16.4777 23.4159 16.5459 23.5554 16.606 23.7223C16.7771 24.1651 17.0007 24.5831 17.216 25.0056C17.4723 25.5117 17.7194 26.0156 17.9227 26.5455C18.0324 26.8226 18.167 27.0794 18.313 27.339C18.375 27.4495 18.4353 27.5609 18.4939 27.6733C18.6894 28.047 18.9125 28.3701 19.18 28.6955C19.2192 28.7495 19.2585 28.8035 19.299 28.8591C19.4572 29.0371 19.6356 29.1617 19.8346 29.2906C19.8727 29.3164 19.9107 29.3422 19.9499 29.3687C20.2394 29.4652 20.5109 29.443 20.7868 29.3241C21.195 29.0975 21.5718 28.6546 21.7391 28.2193C21.7888 28.0293 21.8314 27.8394 21.8695 27.6468C21.9142 27.4599 21.9764 27.2885 22.0458 27.1097C22.1532 26.8107 22.2309 26.5019 22.3156 26.1959C22.4895 25.5754 22.6813 24.9643 22.89 24.3548C23.0144 23.9879 23.1144 23.6273 23.1927 23.2478C23.239 23.0491 23.3252 22.8718 23.4055 22.6845C23.4331 22.5696 23.459 22.4542 23.4836 22.3386C23.565 21.9666 23.6788 21.6131 23.8019 21.2534C23.9624 20.7824 24.1008 20.3059 24.2387 19.8278C24.2974 19.6292 24.357 19.4309 24.4172 19.2327C24.4334 19.1793 24.4496 19.1259 24.4663 19.0709C24.5624 18.7562 24.6604 18.4422 24.761 18.1289C24.7797 18.0706 24.7984 18.0122 24.8177 17.9522C24.8552 17.8354 24.8928 17.7188 24.9306 17.6022C24.948 17.548 24.9654 17.4938 24.9833 17.438C24.9989 17.3896 25.0145 17.3412 25.0306 17.2914C25.0739 17.1504 25.0739 17.1504 25.1001 17.006C25.1365 16.827 25.1888 16.6573 25.2439 16.4832C25.2663 16.4118 25.2888 16.3404 25.3119 16.2669C25.3237 16.2295 25.3355 16.192 25.3477 16.1535C25.5115 15.6347 25.6748 15.1161 25.8158 14.5906C25.9822 13.9723 26.1776 13.3628 26.3686 12.7517C26.4956 12.3452 26.6189 11.9376 26.7405 11.5294C26.8201 11.2624 26.9011 10.9958 26.9838 10.7296C27.0661 10.4641 27.143 10.1975 27.2181 9.92988C27.2811 9.70664 27.3459 9.48769 27.4301 9.27151C27.5003 9.08656 27.5486 8.90671 27.5954 8.71507C27.6606 8.46688 27.7442 8.22447 27.8244 7.98079C27.9969 7.45007 28.1461 6.91639 28.2779 6.37413C28.3584 6.05032 28.4588 5.74743 28.5903 5.44059C28.6593 5.26394 28.6956 5.0867 28.7327 4.90122C28.7616 4.77144 28.7996 4.64988 28.8431 4.52432C28.9437 4.22794 29.0337 3.92892 29.1225 3.62882C29.1529 3.52628 29.1834 3.42376 29.2139 3.32125C29.2353 3.24909 29.2353 3.24909 29.257 3.17547C29.29 3.06866 29.3275 2.96325 29.3662 2.85839C29.526 2.31547 29.4721 1.70862 29.2072 1.21221C28.995 0.89669 28.7077 0.718176 28.3451 0.60475C28.1744 0.581848 28.0075 0.582027 27.8356 0.586152C27.7648 0.587288 27.7648 0.587288 27.6927 0.588448C26.6414 0.614077 25.6816 0.902952 24.7138 1.29649Z" fill="black"/>
<path d="M17.4544 12.1504C17.5133 12.1799 17.5133 12.1799 17.5734 12.2099C17.5185 12.2647 17.4636 12.3195 17.407 12.3759C16.8902 12.8915 16.3735 13.4073 15.857 13.9233C15.5914 14.1886 15.3257 14.4538 15.06 14.7189C14.8036 14.9746 14.5474 15.2304 14.2913 15.4864C14.1934 15.5841 14.0955 15.6818 13.9976 15.7795C13.8606 15.916 13.7239 16.0527 13.5872 16.1894C13.5464 16.2299 13.5057 16.2705 13.4637 16.3123C13.4079 16.3682 13.4079 16.3682 13.3509 16.4253C13.3185 16.4576 13.2862 16.4899 13.2528 16.5232C13.1566 16.6232 13.1566 16.6232 13.0504 16.7925C12.7022 16.6978 12.4132 16.5213 12.1056 16.3387C12.0532 16.308 12.0009 16.2773 11.947 16.2457C11.8187 16.1704 11.6905 16.0947 11.5625 16.0188C11.7576 15.8031 11.9815 15.6583 12.2283 15.5092C12.3148 15.4561 12.4013 15.4028 12.4878 15.3495C12.532 15.3223 12.5762 15.2951 12.6218 15.267C12.8247 15.1409 13.025 15.0109 13.2252 14.8806C13.6517 14.6034 14.0798 14.3288 14.5085 14.0548C14.9318 13.7842 15.355 13.5132 15.7769 13.2402C15.8156 13.2152 15.8544 13.1902 15.8944 13.1644C16.1261 13.0145 16.3566 12.8628 16.5863 12.71C16.641 12.6738 16.6956 12.6377 16.7519 12.6005C16.859 12.5297 16.9658 12.4585 17.0723 12.3869C17.1204 12.3552 17.1684 12.3235 17.218 12.2908C17.2608 12.2622 17.3036 12.2337 17.3477 12.2043C17.3829 12.1865 17.4181 12.1687 17.4544 12.1504Z" fill="black"/>
<path d="M23.645 1.79452C23.3312 1.98631 23.3312 1.98631 23.2284 2.03258C23.1891 2.01294 23.1498 1.9933 23.1094 1.97306C23.1094 1.93378 23.1094 1.8945 23.1094 1.85403C23.4441 1.72757 23.4441 1.72757 23.645 1.79452Z" fill="black"/>
</svg>
