<svg width="61" height="61" viewBox="0 0 61 61" fill="none" xmlns="http://www.w3.org/2000/svg">
<path d="M28.9436 0.751055C27.0808 0.882408 25.3493 1.34811 23.5223 2.184C22.4954 2.66165 19.2115 4.7633 19.2115 4.94241C19.2115 4.99018 18.8891 5.3723 18.4831 5.79024C18.089 6.19624 17.4562 6.90077 17.0979 7.3426C16.7278 7.78442 16.3337 8.20236 16.2143 8.27401C16.0829 8.33371 15.9874 8.51283 15.9755 8.65613C15.9755 8.79942 15.7605 9.24125 15.4978 9.6353C14.9843 10.4354 14.9724 10.4592 14.4589 11.725C13.5156 14.0297 13.0976 16.1194 13.0976 18.4718C13.0857 22.4243 14.5306 25.947 17.3606 28.8726C17.9219 29.4457 18.3756 29.9353 18.3756 29.9473C18.3756 29.9592 18.1726 30.007 17.9338 30.0547C16.8949 30.2458 14.5067 31.1175 13.026 31.8459C7.92709 34.3655 3.93873 38.4255 1.53855 43.5244C0.356375 46.056 -0.0735081 47.9068 0.0100803 50.116C0.225022 55.2387 4.41638 58.3673 12.8827 59.7286C15.3545 60.1227 17.5398 60.3137 23.2118 60.6481C25.1105 60.7675 33.8753 60.7078 38.198 60.5645C47.954 60.2301 53.2559 58.9405 56.8502 56.0627C58.5578 54.6894 59.6564 52.8385 60.1698 50.4742C60.4564 49.1965 60.2295 47.5725 59.4534 45.2559C57.0651 38.1031 50.39 32.037 42.7954 30.1025C42.2103 29.9592 41.6968 29.8159 41.6729 29.792C41.649 29.7801 42.1028 29.2666 42.6879 28.6576C44.8612 26.4007 46.1986 23.702 46.736 20.466C46.9987 18.9256 46.927 15.5223 46.6166 14.1133C45.4344 8.8233 42.1983 4.57224 37.8278 2.54223C34.7828 1.13317 31.8692 0.548055 28.9436 0.751055ZM29.481 2.02876C28.657 2.54223 27.4987 3.17512 27.6301 3.04376C27.9883 2.68553 29.5526 1.69441 29.7675 1.69441C29.9586 1.69441 29.887 1.778 29.481 2.02876ZM27.033 2.02876C25.9583 2.68553 22.4476 4.67971 22.3759 4.67971C22.3282 4.67971 22.8416 4.23788 23.5223 3.71247C24.2029 3.17512 24.8597 2.63776 24.9791 2.51835C25.0985 2.387 25.2299 2.29147 25.2777 2.27953C25.3254 2.27953 25.7434 2.17206 26.1971 2.05265C27.2599 1.76606 27.4868 1.75412 27.033 2.02876ZM31.8692 1.89741C31.8692 1.95712 31.5826 2.14818 31.2363 2.33923C30.5557 2.72135 30.5915 2.61388 31.3318 2.12429C31.8572 1.778 31.8692 1.778 31.8692 1.89741ZM34.1619 2.50641C34.2574 2.60194 32.7528 3.50947 26.3165 7.1993C25.3851 7.72471 26.0538 7.23512 29.6242 4.78718C32.9081 2.53029 33.2783 2.30341 33.6484 2.35118C33.8753 2.37506 34.1022 2.4467 34.1619 2.50641ZM35.8098 3.12735C35.9292 3.199 35.9411 3.27065 35.8695 3.34229C35.774 3.42588 30.3885 6.55448 29.8989 6.80524C29.8392 6.84106 29.8153 6.81718 29.875 6.76942C29.9825 6.65001 35.4874 3.03182 35.571 3.01988C35.6068 3.01988 35.7143 3.06765 35.8098 3.12735ZM38.3055 4.60806C38.4249 4.75136 38.3055 4.85883 37.6368 5.25289C37.195 5.50365 35.774 6.32759 34.4963 7.06795C33.2185 7.8083 31.9767 8.52477 31.7498 8.65613C31.5229 8.78748 31.3915 8.83524 31.4512 8.77554C31.6065 8.60836 37.995 4.45283 38.0906 4.44088C38.1383 4.44088 38.2338 4.51253 38.3055 4.60806ZM39.7862 5.73053L40.1086 6.06489L34.6515 9.21736C28.1197 12.9908 28.3227 12.8714 28.4301 12.74C28.5495 12.6206 39.3086 5.42006 39.4041 5.40812C39.4399 5.39618 39.6071 5.55142 39.7862 5.73053ZM40.7654 6.98436C40.3236 7.28289 39.3324 7.82024 39.4518 7.70083C39.631 7.50977 40.7415 6.82912 40.8848 6.82912C40.9445 6.82912 40.8967 6.90077 40.7654 6.98436ZM41.9476 7.92771C42.055 8.07101 42.0909 8.22624 42.0431 8.28595C41.9953 8.33371 39.6429 9.70695 36.8009 11.3429C33.9708 12.9788 31.5826 14.364 31.4871 14.4118C31.4035 14.4715 31.3677 14.4595 31.4274 14.3998C31.5587 14.2565 41.5774 7.67695 41.6849 7.67695C41.7326 7.66501 41.852 7.78442 41.9476 7.92771ZM21.4206 9.20542C21.2415 9.3726 15.1157 13.5401 14.9485 13.5998C14.8291 13.6475 14.8291 13.564 14.9485 13.2177C15.1038 12.7878 15.2948 12.6564 18.2682 10.9369C19.9996 9.93383 21.4445 9.10989 21.4803 9.09795C21.5042 9.09795 21.4803 9.14572 21.4206 9.20542ZM42.9506 9.34872C42.9745 9.45619 41.661 10.2801 39.2011 11.7011C37.1114 12.8953 35.4038 13.8625 35.3799 13.8505C35.3202 13.7789 42.676 9.10989 42.7954 9.14572C42.867 9.15766 42.9267 9.25319 42.9506 9.34872ZM44.1328 11.6772C44.0253 11.7847 38.7115 14.8655 38.1383 15.1641C37.5651 15.4507 38.7354 14.6745 41.1833 13.1221C43.1775 11.8444 44.1328 11.3071 44.1925 11.4026C44.2403 11.4862 44.2164 11.6056 44.1328 11.6772ZM19.7608 12.1668C19.4623 12.4654 14.4828 15.6298 14.4589 15.5462C14.3634 15.2715 14.7813 14.973 17.1935 13.5759C19.6892 12.131 19.9399 11.9877 19.7608 12.1668ZM44.8373 12.9908C44.8851 13.158 44.8732 13.3371 44.8134 13.3968C44.706 13.4923 42.9029 14.5431 36.8248 18.0419C35.3202 18.9136 34.138 19.5704 34.2097 19.4987C34.4365 19.248 44.4672 12.6923 44.6104 12.6923C44.694 12.6803 44.8015 12.8236 44.8373 12.9908ZM25.8389 13.2654C25.7672 13.3251 23.2715 14.985 20.2862 16.9672C14.638 20.7048 14.5903 20.7167 14.6978 19.8928C14.7336 19.6301 15.4381 19.1763 20.2862 16.3701C23.3432 14.6148 25.8628 13.158 25.8986 13.158C25.9225 13.158 25.8986 13.2057 25.8389 13.2654ZM20.8594 14.4118C20.7519 14.5193 14.5425 18.5315 14.4828 18.5315C14.447 18.5315 14.435 18.4121 14.4589 18.2688C14.4828 18.0538 15.1754 17.612 17.6592 16.1791C20.5489 14.5073 21.0385 14.2446 20.8594 14.4118ZM45.3389 14.77C45.315 14.8894 43.9776 15.7373 41.9117 16.9314C40.037 18.0061 38.2697 19.033 37.9711 19.2121C36.7531 19.9047 37.804 19.1883 41.3983 16.8478C43.476 15.4865 45.2314 14.4237 45.2792 14.4715C45.3389 14.5193 45.3627 14.6625 45.3389 14.77ZM45.6016 16.0836C45.6016 16.1433 45.0284 16.5134 44.1089 17.0388C43.2969 17.4926 43.5238 17.2777 44.5627 16.597C45.3866 16.0597 45.6016 15.9522 45.6016 16.0836ZM24.2268 17.8986C23.1402 18.6151 20.8116 20.1436 19.0324 21.3019L15.8083 23.4154L15.653 23.105C15.5456 22.9259 15.5336 22.7587 15.6053 22.687C15.7605 22.5318 25.9344 16.6448 26.0777 16.6328C26.1374 16.6209 25.3015 17.1941 24.2268 17.8986ZM45.6971 18.3524C45.6732 18.3763 43.5954 19.5823 41.0639 21.0391C38.5324 22.496 36.2755 23.7976 36.0486 23.9409C34.8784 24.6334 36.3471 23.5946 40.7654 20.6212L45.6613 17.3254L45.6971 17.827C45.721 18.0897 45.721 18.3285 45.6971 18.3524ZM45.6016 19.7137C45.6016 19.7973 44.3955 20.5496 43.5119 21.0153C43.1775 21.1944 43.6313 20.86 44.5269 20.2749C45.6493 19.5346 45.6016 19.5704 45.6016 19.7137ZM23.5701 20.1913C23.4984 20.251 21.8983 21.3019 19.9877 22.5199C16.9666 24.4424 16.5009 24.7051 16.3576 24.5618C16.262 24.4663 16.2023 24.3707 16.2382 24.3469C16.3337 24.2633 23.5701 20.0839 23.6298 20.0839C23.6536 20.0839 23.6298 20.1316 23.5701 20.1913ZM16.3456 20.9675C16.3456 20.9914 16.0829 21.1824 15.7486 21.3854C15.4262 21.5884 15.1515 21.7079 15.1515 21.6601C15.1515 21.6123 15.4023 21.4332 15.7247 21.2541C16.3337 20.9078 16.3456 20.8959 16.3456 20.9675ZM29.6601 21.266C29.5884 21.3257 27.1882 22.9139 24.3104 24.8006L19.0682 28.2397L18.7697 27.9412L18.4712 27.6426L23.2954 24.8603C25.9344 23.3319 28.454 21.875 28.8839 21.6243C29.6601 21.1586 29.875 21.063 29.6601 21.266ZM45.315 21.481C45.2792 21.6004 44.503 22.1258 43.6074 22.6393C41.4699 23.8812 40.8609 24.2036 40.9803 24.0842C41.1236 23.917 45.303 21.1944 45.3389 21.2302C45.3627 21.2421 45.3508 21.3616 45.315 21.481ZM23.988 22.8781C23.988 22.9736 18.089 26.6873 17.9219 26.6993C17.3487 26.7351 18.0055 26.2813 20.7997 24.6573C24.1432 22.7229 23.988 22.8064 23.988 22.8781ZM44.694 23.3438C44.6702 23.4274 44.3119 23.6782 43.894 23.8931C43.488 24.12 43.1894 24.2633 43.2253 24.2274C43.273 24.1558 44.6582 23.2244 44.7299 23.2005C44.7418 23.1886 44.7299 23.2602 44.694 23.3438ZM28.3465 24.1319C28.0241 24.4185 20.3818 29.2786 20.2385 29.2786C20.1549 29.2786 20.0235 29.2069 19.9519 29.1233C19.8444 29.0039 20.74 28.4307 24.0835 26.4963C26.424 25.1469 28.3704 24.0364 28.4062 24.0244C28.4301 24.0244 28.4062 24.0722 28.3465 24.1319ZM33.3021 24.4304C33.3021 24.4663 31.5945 25.6365 29.5168 27.0456C25.7434 29.5771 23.1521 31.1892 22.8536 31.1892C22.77 31.1892 22.5909 31.0936 22.4476 30.9742C22.2088 30.7712 22.3043 30.7115 27.7256 27.5829C33.6126 24.1797 33.3021 24.3588 33.3021 24.4304ZM43.6193 25.5171C43.5477 25.6843 43.3566 25.8156 42.2939 26.4366C41.649 26.7948 41.9714 26.4843 42.867 25.8753C43.7626 25.2663 43.7029 25.2902 43.6193 25.5171ZM23.5104 28.7293C23.5104 28.8129 22.0655 29.6726 22.0177 29.6129C21.9819 29.589 22.3043 29.3622 22.7103 29.1233C23.4865 28.6576 23.5104 28.6457 23.5104 28.7293ZM31.3318 29.2666C31.2602 29.3144 30.0422 30.1264 28.6212 31.0578C26.6031 32.3833 25.9822 32.7296 25.8269 32.646C25.5762 32.5027 25.4329 32.5982 28.7764 30.6518C31.2244 29.2189 31.5826 29.0278 31.3318 29.2666ZM26.8539 30.413C26.8539 30.4369 26.7345 30.5205 26.5912 30.5921C26.3285 30.7235 26.3285 30.7115 26.5434 30.5443C26.7942 30.3413 26.8539 30.3175 26.8539 30.413ZM26.2568 30.7593C26.2568 30.8309 24.4059 31.9056 24.2746 31.9056C24.191 31.9056 26.1255 30.7235 26.2329 30.7115C26.2449 30.7115 26.2568 30.7354 26.2568 30.7593ZM40.4669 30.8309C40.0489 31.1175 39.822 31.2011 40.1086 30.9623C40.2758 30.8309 40.4669 30.7115 40.5266 30.7115C40.5982 30.7115 40.5624 30.7712 40.4669 30.8309ZM19.5101 30.9503C19.4742 31.01 19.319 31.1295 19.1757 31.2011C18.9249 31.3205 18.9249 31.3086 19.1996 31.0817C19.4981 30.807 19.6295 30.7593 19.5101 30.9503ZM36.168 31.1295C36.168 31.1533 35.5351 31.5474 34.7709 32.0012C32.7409 33.1953 32.1558 33.5177 32.2871 33.3744C32.3827 33.2669 36.0247 31.0936 36.1441 31.0698C36.1561 31.0698 36.168 31.0936 36.168 31.1295ZM42.1386 31.1175C42.1386 31.1414 42.055 31.2011 41.9476 31.2369C41.852 31.2728 41.8043 31.2608 41.8401 31.1892C41.9117 31.0698 42.1386 31.022 42.1386 31.1175ZM43.7268 31.4996C43.7984 31.5713 42.879 32.1206 39.1533 34.258C38.8548 34.4252 38.6637 34.5208 38.7115 34.461C38.8309 34.3416 43.476 31.4519 43.5835 31.4399C43.6193 31.428 43.691 31.4638 43.7268 31.4996ZM15.45 32.037C14.2679 32.7296 14.0887 32.8012 14.4947 32.4549C14.8649 32.1325 15.9396 31.5474 16.1546 31.5474C16.2262 31.5474 15.9038 31.7623 15.45 32.037ZM21.1102 31.8579C21.2535 31.9653 21.3371 32.0967 21.2773 32.1445C21.2296 32.1922 19.6295 33.1356 17.7189 34.2342C15.8202 35.3328 14.0649 36.3358 13.838 36.4791C12.8827 37.0284 13.8499 36.3239 17.1218 34.067C19.0324 32.7535 20.6445 31.6788 20.7042 31.6668C20.7758 31.6668 20.9549 31.7504 21.1102 31.8579ZM45.1239 32.1325C45.1239 32.1922 44.1209 32.8251 42.8909 33.5296C39.7981 35.3089 39.7981 35.3089 39.8937 35.2014C40.0011 35.0701 44.9209 32.0489 45.0403 32.037C45.0881 32.025 45.1239 32.0728 45.1239 32.1325ZM22.7342 32.837C22.567 32.9803 21.1699 33.7565 21.2535 33.649C21.3968 33.4938 22.6148 32.7535 22.7342 32.7415C22.8058 32.7415 22.8058 32.7773 22.7342 32.837ZM36.9442 32.8848C36.8128 32.9565 33.7798 34.7118 30.1974 36.7776C22.7581 41.0645 23.4148 40.6944 23.5701 40.5391C23.6417 40.4675 26.0061 38.9509 28.8242 37.1598C33.5171 34.1745 34.0783 33.852 35.3799 33.3863C36.1561 33.0998 36.8248 32.837 36.8606 32.8012C36.8964 32.7654 36.98 32.7415 37.0517 32.7415C37.1233 32.7415 37.0756 32.8132 36.9442 32.8848ZM46.5569 32.9087C46.4613 32.9923 44.7179 34.0192 42.676 35.1895C40.646 36.3597 38.8428 37.3986 38.6757 37.4941C38.5085 37.6016 38.4368 37.6255 38.4966 37.5538C38.7712 37.2553 46.2703 32.7415 46.4852 32.7415C46.7002 32.7415 46.7002 32.7654 46.5569 32.9087ZM24.5492 33.4341C24.6448 33.4938 24.0835 33.8879 22.9491 34.5446C20.334 36.0373 19.7369 36.3716 19.8205 36.2761C19.9041 36.1806 24.2626 33.3625 24.3462 33.3505C24.3821 33.3505 24.4776 33.3863 24.5492 33.4341ZM47.9898 33.5774C48.0853 33.6371 48.1331 33.7088 48.1092 33.7446C48.0376 33.8043 37.6129 39.8346 37.2069 40.0376C36.4307 40.4316 37.5532 39.7152 40.7654 37.7329C42.7357 36.5149 45.0762 35.0581 45.9598 34.4969C46.8434 33.9356 47.6316 33.4699 47.6913 33.4699C47.7629 33.4699 47.8943 33.5058 47.9898 33.5774ZM27.439 34.1267C27.4629 34.1506 27.4629 34.1864 27.439 34.2103C27.3793 34.258 17.7786 39.7868 17.5995 39.8824C17.1099 40.1331 18.1129 39.4405 20.4653 37.924C21.9699 36.9448 23.9522 35.6552 24.8836 35.0462C26.3882 34.055 26.5912 33.9595 26.9733 34.0192C27.2002 34.055 27.4151 34.1028 27.439 34.1267ZM30.6154 34.3894C30.5198 34.473 22.6386 39.0226 22.1371 39.2853C21.6236 39.5599 22.6984 38.8435 25.9702 36.7538C29.2182 34.676 29.8511 34.3058 30.2571 34.3058C30.5198 34.2939 30.6751 34.3416 30.6154 34.3894ZM49.781 34.8671C49.781 34.9387 35.368 43.3095 33.2424 44.4797C32.12 45.0887 33.2066 44.3961 41.1714 39.3569L49.1242 34.3297L49.4586 34.5566C49.6377 34.6879 49.781 34.8193 49.781 34.8671ZM50.9751 35.7268C51.0945 35.7985 51.1065 35.8701 51.0348 35.9418C50.9632 36.0134 48.6107 37.3866 45.7807 39.0106C42.9626 40.6346 40.4549 42.0795 40.228 42.2109C40.0011 42.3422 39.8579 42.4019 39.9056 42.3422C40.0609 42.1751 50.5452 35.6313 50.6766 35.6193C50.7482 35.6193 50.8796 35.6671 50.9751 35.7268ZM52.2886 36.9209C52.4558 37.0403 52.5633 37.1717 52.5275 37.1956C52.4797 37.2433 39.5713 44.7185 37.3621 45.9724C37.0636 46.1395 36.8606 46.2351 36.8964 46.1873C37.0397 46.0321 51.7513 36.706 51.8707 36.6941C51.9423 36.6941 52.1215 36.7896 52.2886 36.9209ZM10.6139 37.3269C10.6139 37.3747 4.16562 41.8288 3.69991 42.1154C3.55662 42.1989 3.68797 41.9601 4.26115 41.0168C4.32085 40.9212 10.4228 37.315 10.59 37.2792C10.6019 37.2792 10.6139 37.3031 10.6139 37.3269ZM53.6499 38.3419L53.9723 38.6882L53.5783 38.9271C53.1842 39.1659 38.8548 47.4292 37.8398 48.0024C37.5413 48.1695 37.3383 48.2651 37.3741 48.2173C37.4816 48.0979 53.1603 38.0076 53.2559 37.9956C53.2917 37.9956 53.4708 38.1509 53.6499 38.3419ZM54.6769 39.5958C54.6769 39.6435 53.3156 40.4675 51.8707 41.2795C50.8199 41.8765 51.3692 41.4825 52.9573 40.5033C54.3903 39.6196 54.6769 39.4644 54.6769 39.5958ZM14.4947 40.6108C14.4231 40.6705 11.5811 42.5452 8.16592 44.7663C4.75074 46.9993 1.80126 48.9218 1.6102 49.0412L1.27585 49.2681L1.35944 48.7308C1.4072 48.4442 1.50273 48.1457 1.57438 48.0621C1.70573 47.9307 14.4231 40.5272 14.5545 40.5152C14.5783 40.5033 14.5545 40.5511 14.4947 40.6108ZM55.3933 40.5869C55.3933 40.6466 54.8918 40.969 54.2828 41.3034C53.6858 41.6496 52.8857 42.1034 52.5275 42.3064C51.405 42.9512 52.0379 42.4736 53.6619 41.4705C55.2023 40.5152 55.3933 40.4197 55.3933 40.5869ZM55.9188 41.781C55.7993 41.8765 54.8918 42.4139 53.9007 42.9751C52.9215 43.5364 51.9782 44.0857 51.811 44.1812C51.6438 44.2887 51.5602 44.3245 51.608 44.2648C51.8229 44.014 55.9426 41.4944 56.0382 41.5541C56.0979 41.5899 56.0382 41.6855 55.9188 41.781ZM9.12121 41.9243C8.97792 42.0557 1.92067 46.5933 1.84902 46.5933C1.82514 46.5933 1.83708 46.462 1.88485 46.2948C1.94455 46.044 2.63714 45.5902 5.53885 43.9065C7.50915 42.7602 9.1451 41.8288 9.18092 41.8288C9.2048 41.8168 9.18092 41.8646 9.12121 41.9243ZM5.93291 42.2348C5.88515 42.2825 3.09091 44.0976 2.6252 44.3722C2.49385 44.4558 2.49385 44.4319 2.58938 44.2648C2.64908 44.1454 3.42526 43.6199 4.29697 43.1065C5.78962 42.2467 6.08815 42.0795 5.93291 42.2348ZM39.7504 42.4736C39.7504 42.4975 39.631 42.5811 39.4877 42.6527C39.225 42.7841 39.225 42.7721 39.4399 42.6049C39.6907 42.4019 39.7504 42.3781 39.7504 42.4736ZM56.8741 42.9871L57.0412 43.3095L51.7035 46.3903C45.0045 50.2593 45.0403 50.2354 45.1836 50.0921C45.3627 49.901 56.5039 42.6527 56.6113 42.6527C56.6591 42.6527 56.7785 42.796 56.8741 42.9871ZM14.1604 43.0826C14.1126 43.1304 11.2706 44.9574 7.8435 47.1426L1.59826 51.119L1.49079 50.7608C1.43108 50.5697 1.4072 50.3906 1.43108 50.3667C1.51467 50.2951 14.1365 43.0109 14.1843 43.0109C14.2082 43.0109 14.1962 43.0468 14.1604 43.0826ZM17.0024 43.4767C16.9308 43.5364 13.6111 45.6619 9.6108 48.1934C2.92373 52.4445 2.33861 52.7908 2.18338 52.5997C2.09979 52.4803 2.02814 52.3012 2.02814 52.2057C2.02814 52.0982 4.84626 50.4025 9.51527 47.7038C13.635 45.3275 17.0263 43.3811 17.0621 43.3692C17.086 43.3692 17.0621 43.4169 17.0024 43.4767ZM57.5189 44.4678C57.4711 44.5991 56.3486 45.2798 52.8857 47.274C51.7871 47.9068 52.611 47.3217 54.8918 45.853C57.1606 44.3961 57.6144 44.1573 57.5189 44.4678ZM58.1279 46.2828C58.104 46.3067 56.277 47.3575 54.0798 48.6233C51.8826 49.8891 49.8885 51.0235 49.6616 51.1668C48.5988 51.7877 49.8168 50.9399 53.7216 48.3367L57.9607 45.5186L58.0682 45.8768C58.1279 46.0798 58.1518 46.259 58.1279 46.2828ZM26.6151 47.3575C26.6151 47.3814 22.8536 49.7697 18.2682 52.6714L9.90933 57.9494L9.41974 57.8061C9.15704 57.7225 8.95404 57.615 8.96598 57.5553C8.98986 57.4837 26.4479 47.3337 26.5912 47.3098C26.6031 47.3098 26.6151 47.3337 26.6151 47.3575ZM58.4981 47.477C58.4981 47.6202 54.5813 49.9965 54.4978 49.913C54.4619 49.8771 58.3786 47.3098 58.4622 47.3098C58.4742 47.3098 58.4981 47.3814 58.4981 47.477ZM34.6754 48.7308C34.6037 48.7905 30.8303 51.2384 26.2688 54.164C18.2801 59.2987 17.9577 59.4898 17.4323 59.4779C15.9277 59.442 15.5217 59.7047 25.4448 53.973C30.5198 51.0354 34.6993 48.6352 34.7351 48.6352C34.759 48.6233 34.7351 48.6711 34.6754 48.7308ZM58.5339 49.71C58.4503 49.7816 55.1903 51.6922 52.8857 53.0057C51.9423 53.5431 52.5036 53.1132 55.5725 50.9638L58.5578 48.8621L58.5936 49.2323C58.6175 49.4473 58.5936 49.6503 58.5339 49.71ZM30.0183 49.3278C29.9467 49.3875 26.6987 51.4653 22.7939 53.9371C18.8891 56.4209 15.462 58.5942 15.1993 58.7733C14.7455 59.0719 14.65 59.0957 14.1246 59.0002C13.8141 58.9405 13.5395 58.8689 13.5156 58.845C13.4917 58.8211 14.0768 58.4509 14.8172 58.021C22.3759 53.6386 30.0302 49.2323 30.078 49.2204C30.1019 49.2204 30.078 49.2681 30.0183 49.3278ZM18.4353 50.4025C18.3637 50.4623 15.9158 51.9907 12.9902 53.7938C8.96598 56.2896 7.60468 57.0777 7.41362 57.018C7.27033 56.9821 7.15092 56.9224 7.15092 56.8747C7.15092 56.815 18.3518 50.307 18.4951 50.2951C18.5189 50.2951 18.4951 50.3428 18.4353 50.4025ZM23.6895 51.2265C23.5223 51.3698 12.1662 58.427 11.999 58.4867C11.9274 58.5106 11.7125 58.4867 11.5214 58.439C11.2229 58.3554 11.7483 58.021 17.4323 54.7372C20.8713 52.755 23.7134 51.131 23.7492 51.131C23.7731 51.131 23.7492 51.1787 23.6895 51.2265ZM58.2831 51.8594C58.1995 52.2057 58.0085 52.3609 56.8741 53.0177C54.8799 54.176 54.247 54.5223 54.3545 54.4028C54.6291 54.1043 58.3189 51.3101 58.3548 51.3817C58.3786 51.4295 58.3428 51.6444 58.2831 51.8594ZM13.7186 51.537C13.7186 51.5728 11.999 52.6475 9.89739 53.9371C7.28227 55.5492 6.0165 56.2657 5.87321 56.2179C5.72991 56.1582 6.18368 55.8477 7.46139 55.1074C8.44056 54.5461 10.2317 53.4953 11.4497 52.7908C13.826 51.4056 13.7186 51.4653 13.7186 51.537ZM8.22562 51.8952C8.22562 51.9668 4.14173 54.4506 3.85515 54.5461C3.29391 54.7491 4.02232 54.2596 6.04038 53.0893C8.29727 51.7758 8.22562 51.8235 8.22562 51.8952ZM40.3474 52.0027C40.2519 52.0982 37.4696 53.9252 34.1738 56.0746L28.1674 59.9794L27.3435 59.9436L26.5195 59.9077L33.4574 55.8836C37.2786 53.6744 40.431 51.8594 40.4669 51.8594C40.4907 51.8474 40.443 51.9191 40.3474 52.0027ZM9.41974 52.6117C9.41974 52.7311 4.85821 55.4417 4.72685 55.394C4.65521 55.3701 4.96568 55.1313 5.41944 54.8686C5.88515 54.6058 6.95986 53.973 7.80768 53.4834C9.45557 52.5161 9.41974 52.54 9.41974 52.6117ZM43.9895 53.6267C43.9179 53.6864 41.8281 55.0716 39.3324 56.7194L34.7948 59.7047L33.9589 59.7883C33.5051 59.8361 33.1588 59.8361 33.1947 59.8003C33.2783 59.7167 43.9656 53.5311 44.0492 53.5192C44.0731 53.5192 44.0492 53.567 43.9895 53.6267ZM52.7663 54.3431C52.5991 54.4745 51.2856 55.4895 49.8407 56.6L47.2136 58.642L46.4374 58.7136C46.0076 58.7494 45.4463 58.8091 45.1836 58.845C44.5866 58.9166 44.2522 59.1316 48.9451 56.397C52.5275 54.3193 53.5305 53.7819 52.7663 54.3431ZM49.0645 54.2834C49.0645 54.3551 42.4491 58.9883 42.2341 59.0719C41.9356 59.1913 40.3355 59.3346 40.431 59.239C40.5146 59.1554 48.969 54.2476 49.0406 54.2357C49.0526 54.2357 49.0645 54.2596 49.0645 54.2834ZM53.841 56.1224C53.4828 56.4328 52.9812 56.8866 52.7185 57.1493C52.3245 57.5553 52.0856 57.6747 51.0587 57.9613C50.4019 58.1404 49.8407 58.2837 49.8287 58.2599C49.7929 58.224 54.3425 55.5611 54.4381 55.5611C54.4739 55.5611 54.1992 55.8119 53.841 56.1224ZM36.7054 56.2537C36.5621 56.3851 31.4512 59.6331 31.0572 59.8361C30.902 59.9197 30.6631 59.9674 30.5198 59.9436C30.3288 59.9197 30.7348 59.6331 31.9886 58.9047C32.9439 58.3554 34.3888 57.5076 35.2127 57.0299C36.6934 56.1701 36.9203 56.0507 36.7054 56.2537ZM42.3177 56.612C42.2461 56.6717 41.243 57.3404 40.0847 58.0927C38.7712 58.9524 37.792 59.5137 37.5174 59.5614C37.2666 59.6092 37.0994 59.5973 37.1472 59.5614C37.2308 59.4659 42.2819 56.5164 42.3774 56.5164C42.4013 56.5045 42.3774 56.5523 42.3177 56.612ZM29.6601 56.7194C29.5884 56.7791 28.3943 57.5314 27.0091 58.4031C25.4926 59.3465 24.3701 59.9674 24.2388 59.9436C24.0835 59.9197 25.0149 59.3226 26.83 58.2718C29.5287 56.7075 29.9108 56.4926 29.6601 56.7194ZM23.8089 57.3284C23.4387 57.6509 19.9041 59.7406 19.7847 59.7047C19.7011 59.6689 20.0355 59.4181 20.5251 59.1316C21.0146 58.8569 21.958 58.3076 22.6148 57.9255C23.7731 57.2449 24.0358 57.1135 23.8089 57.3284ZM26.1971 57.3284C25.8269 57.6628 22.1252 59.848 21.9222 59.848C21.7789 59.848 22.6864 59.2629 23.9283 58.5345C26.1374 57.2568 26.424 57.1016 26.1971 57.3284Z" fill="black"/>
</svg>
